<svg width="35" height="25" viewBox="0 0 35 25" fill="none" xmlns="http://www.w3.org/2000/svg">
    <path d="M22.0279 23.2324H20.0284V21.6404C20.0284 21.3652 19.8414 21.1392 19.6139 21.1392H16.2569C16.0293 21.1392 15.8423 21.3652 15.8423 21.6404V23.2324H13.8428C13.5989 23.2324 13.3714 23.3209 13.1681 23.5076L12.0952 24.5002H23.7511L22.6782 23.5076C22.5075 23.3209 22.2799 23.2324 22.0279 23.2324Z" fill="#3F40EA"/>
    <path d="M10.585 15.2268C14.0557 15.2268 18.067 14.195 21.8933 12.3204C25.2075 10.7037 28.0097 8.57119 29.9442 6.33544V3.0678C29.9442 1.41678 28.8489 0.0925293 27.4834 0.0925293H8.39451C7.02898 0.0925293 5.93372 1.41678 5.93372 3.0678V14.3841C7.17122 14.9345 8.73589 15.2268 10.585 15.2268Z" fill="#3F40EA"/>
    <path d="M21.1665 16.8776C17.1553 18.8554 12.888 19.9217 9.11862 19.9217C8.0518 19.9217 7.0561 19.8185 6.14575 19.6637C6.51558 20.73 7.36904 21.4695 8.42163 21.4695H27.5105C28.8761 21.4695 29.9713 20.1452 29.9713 18.4942V10.2563C27.8235 12.7673 24.7795 15.1062 21.1665 16.8776Z" fill="#3F40EA"/>
    <path d="M10.5922 15.227C14.0629 15.227 18.0742 14.1951 21.9005 12.3205C24.0057 11.2886 25.9402 10.0332 27.5333 8.70893V3.97945C27.5333 3.46351 27.1919 3.01636 26.7367 3.01636H9.15557C8.72884 3.01636 8.35901 3.42911 8.35901 3.97945V15.055C9.04177 15.1582 9.79566 15.227 10.5922 15.227Z" fill="#121242"/>
    <path d="M21.1754 16.878C19.7814 17.5487 18.4017 18.1335 16.9792 18.5978H26.7655C27.1922 18.5978 27.5621 18.1851 27.5621 17.6347V12.7161C25.7414 14.2639 23.5793 15.7085 21.1754 16.878Z" fill="#121242"/>
    <path d="M24.2667 4.75391H25.5753C25.7033 4.75391 25.8171 4.89149 25.8171 5.04627V6.6285C25.8171 6.88647 25.5469 7.02405 25.4188 6.81768L24.1102 5.23545C23.9537 5.08067 24.0533 4.75391 24.2667 4.75391Z" fill="#FCFCFC"/>
    <path d="M25.4486 9.19068C25.2352 9.44865 24.8938 9.44865 24.6805 9.19068L22.0632 6.02623C21.8499 5.76826 21.8499 5.3555 22.0632 5.09753C22.2766 4.83956 22.618 4.83956 22.8313 5.09753L25.4486 8.26198C25.6904 8.50275 25.6904 8.93271 25.4486 9.19068Z" fill="white"/>
    <path d="M22.1819 13.2373C13.9805 17.2666 5.38078 17.188 2.9992 13.0506C1.5605 10.574 2.6822 7.21296 5.56773 4.03864V3.40967C0.893983 7.34072 -1.21124 12.0482 0.707032 15.3896C3.3162 19.9103 12.3467 20.1756 20.8814 15.9792C26.75 13.0997 30.8547 8.85418 31.9846 5.03123C30.1882 7.97952 26.7174 11.0064 22.1819 13.2373Z" fill="white"/>
    <path opacity="0.41" d="M30.1705 7.42935C28.2279 9.57177 25.4968 11.6257 22.1805 13.2473C13.9791 17.2766 5.37936 17.198 2.99778 13.0606C1.55908 10.584 2.68078 7.22297 5.56631 4.04865V3.41968C5.27369 3.65554 4.99733 3.90123 4.7291 4.15675C1.61598 7.58659 0.421125 11.3211 2.02239 14.0925C4.63156 18.6132 13.6621 18.8785 22.1967 14.6821C24.8221 13.3849 27.0981 11.8223 28.9188 10.1418C30.1868 8.73643 31.1297 7.30159 31.6986 5.89624C31.2272 6.38762 30.7233 6.90849 30.1705 7.42935Z" fill="black"/>
    <path d="M35.001 2.77139L33.2615 3.69519L33.4485 5.98503L32.1805 4.26519L30.441 5.18899L31.392 3.19398L30.1403 1.47414L31.9854 1.97535L32.9445 0L33.1315 2.28984L35.001 2.77139Z" fill="#3F40EA"/>
</svg>
