<svg xmlns="http://www.w3.org/2000/svg" width="32.841" height="29.559" viewBox="120 84 32.841 29.559"><g data-name="shopping-cart-svgrepo-com"><path d="M147.164 113.56a3.273 3.273 0 1 0 0-6.546 3.273 3.273 0 0 0 0 6.545Z" stroke-linejoin="round" stroke-linecap="round" stroke-width="3" stroke="#666" fill="transparent" data-name="Path 838"/><path d="M130.8 113.56a3.273 3.273 0 1 0 0-6.546 3.273 3.273 0 0 0 0 6.545Z" stroke-linejoin="round" stroke-linecap="round" stroke-width="3" stroke="#666" fill="transparent" data-name="Path 839"/><path d="M120 84.087s7.593-.098 6.546 6.546l-1.13 6.644a5.35 5.35 0 0 0 5.45 6.447h13.092a8.019 8.019 0 0 0 7.625-6.447l1.13-6.726a5.387 5.387 0 0 0-3.082-6.092 5.384 5.384 0 0 0-2.4-.454h-14.238" stroke-linejoin="round" stroke-linecap="round" stroke-width="3" stroke="#666" fill="transparent" data-name="Path 840"/></g></svg>