<svg width="20" height="20" viewBox="0 0 20 20" fill="none" xmlns="http://www.w3.org/2000/svg">
<g clip-path="url(#clip0_154_216)">
<path d="M10 0C4.48577 0 0 4.48577 0 10C0 15.5142 4.48577 20 10 20C15.5142 20 20 15.5142 20 10C20 4.48577 15.5142 0 10 0ZM10 19.2308C4.91038 19.2308 0.769231 15.0896 0.769231 10C0.769231 4.91038 4.91038 0.769231 10 0.769231C15.0896 0.769231 19.2308 4.91038 19.2308 10C19.2308 15.0896 15.0896 19.2308 10 19.2308Z" fill="#C6C6FF"/>
<path d="M12.3089 14.1474V5.93774L5.40234 9.92544L12.3089 14.1474Z" fill="#C6C6FF"/>
</g>
<defs>
<clipPath id="clip0_154_216">
<rect width="20" height="20" fill="white"/>
</clipPath>
</defs>
</svg>
