<svg width="22" height="22" viewBox="0 0 22 22" fill="none" xmlns="http://www.w3.org/2000/svg">
<path d="M16.0998 13.2839C16.0999 13.9874 15.9563 14.6839 15.6772 15.3327C15.3982 15.9814 14.9893 16.5693 14.4746 17.0619C13.9599 17.5546 13.3497 17.9422 12.6796 18.2019C12.0096 18.4617 11.2932 18.5884 10.5723 18.5748C9.12956 18.519 7.76599 17.9163 6.77145 16.8949C5.77691 15.8735 5.22982 14.5138 5.24646 13.105V5.7344C5.24625 5.72394 5.2498 5.71373 5.2565 5.70556C5.2632 5.69739 5.27262 5.69177 5.28313 5.68968C7.11636 5.41993 8.96607 5.27051 10.8198 5.24243C12.596 5.26978 14.368 5.41923 16.1227 5.68968C16.1329 5.69183 16.1418 5.69763 16.1477 5.70592C16.1537 5.71421 16.1562 5.72437 16.1548 5.7344L16.0998 13.2839Z" stroke="#C6C6FF"/>
<path d="M5.59407 8.27273L1.02425 5.92628C1.01698 5.9228 1.01085 5.91738 1.00656 5.91062C1.00227 5.90387 1 5.89606 1 5.88809C1 5.88012 1.00227 5.87231 1.00656 5.86555C1.01085 5.8588 1.01698 5.85337 1.02425 5.8499L10.6927 1H10.7314L20.3697 5.79898C20.377 5.80246 20.3831 5.80788 20.3874 5.81464C20.3917 5.82139 20.3939 5.8292 20.3939 5.83717C20.3939 5.84514 20.3917 5.85295 20.3874 5.8597C20.3831 5.86646 20.377 5.87188 20.3697 5.87536L15.8257 8.27273" stroke="#C6C6FF"/>
<path d="M5.59211 11.303H4.73204C4.73204 11.303 3.42188 11.303 3.42188 13.1944C3.42188 14.9393 4.72758 14.9393 4.72758 14.9393L5.84612 14.9184" stroke="#C6C6FF"/>
<path d="M15.8293 11.303H16.6678C16.6678 11.303 17.9711 11.303 17.9711 13.1964C17.9711 14.9393 16.6938 14.9393 16.6938 14.9393H15.5469" stroke="#C6C6FF"/>
<path d="M19.7852 16.7577V5.84863" stroke="#C6C6FF"/>
<path d="M20.0927 18.5758C20.5948 18.5758 21.0018 18.1687 21.0018 17.6667C21.0018 17.1646 20.5948 16.7576 20.0927 16.7576C19.5906 16.7576 19.1836 17.1646 19.1836 17.6667C19.1836 18.1687 19.5906 18.5758 20.0927 18.5758Z" stroke="#C6C6FF"/>
<path d="M13.118 17.9697V21H8.26953V18.1368" stroke="#C6C6FF"/>
<path d="M16.1552 10.0907C14.3993 9.67661 12.6178 9.4761 10.8336 9.49171C8.96035 9.44318 7.08821 9.64387 5.24609 10.0907" stroke="#C6C6FF"/>
</svg>
