<svg width="50" height="35" viewBox="0 0 50 35" fill="none" xmlns="http://www.w3.org/2000/svg">
<path d="M31.4674 33.1886H28.611V30.9143C28.611 30.5212 28.3439 30.1983 28.0188 30.1983H23.2232C22.8981 30.1983 22.631 30.5212 22.631 30.9143V33.1886H19.7746C19.4262 33.1886 19.1011 33.315 18.8108 33.5817L17.2781 34.9997H33.9291L32.3963 33.5817C32.1525 33.315 31.8274 33.1886 31.4674 33.1886Z" fill="#3F40EA"/>
<path d="M15.1263 21.7528C20.0844 21.7528 25.8146 20.2787 31.2806 17.6008C36.0152 15.2914 40.0182 12.2449 42.7817 9.05105V4.38308C42.7817 2.02453 41.2171 0.132782 39.2664 0.132782H11.997C10.0463 0.132782 8.48169 2.02453 8.48169 4.38308V20.549C10.2495 21.3352 12.4847 21.7528 15.1263 21.7528Z" fill="#3F40EA"/>
<path d="M30.245 24.1114C24.5147 26.9367 18.4188 28.4599 13.034 28.4599C11.51 28.4599 10.0876 28.3125 8.78711 28.0914C9.31543 29.6146 10.5346 30.6711 12.0383 30.6711H39.3076C41.2584 30.6711 42.823 28.7793 42.823 26.4208V14.6526C39.7547 18.2395 35.4062 21.5808 30.245 24.1114Z" fill="#3F40EA"/>
<path d="M15.1277 21.7529C20.0858 21.7529 25.816 20.2788 31.2821 17.6009C34.2894 16.1268 37.0529 14.3333 39.3288 12.4415V5.68527C39.3288 4.94822 38.8411 4.30945 38.1908 4.30945H13.0754C12.4658 4.30945 11.9375 4.89909 11.9375 5.68527V21.5072C12.9129 21.6546 13.9898 21.7529 15.1277 21.7529Z" fill="#121242"/>
<path d="M30.2456 24.1114C28.2542 25.0696 26.2832 25.9049 24.2512 26.5683H38.2313C38.8409 26.5683 39.3693 25.9786 39.3693 25.1924V18.1659C36.7683 20.3771 33.6797 22.4408 30.2456 24.1114Z" fill="#121242"/>
<path d="M34.6693 6.7908H36.5388C36.7216 6.7908 36.8842 6.98735 36.8842 7.20846V9.46874C36.8842 9.83726 36.4981 10.0338 36.3152 9.73899L34.4458 7.47871C34.2223 7.2576 34.3645 6.7908 34.6693 6.7908Z" fill="#FCFCFC"/>
<path d="M36.354 13.1294C36.0493 13.498 35.5616 13.498 35.2568 13.1294L31.5179 8.60888C31.2131 8.24035 31.2131 7.65071 31.5179 7.28219C31.8227 6.91367 32.3104 6.91367 32.6152 7.28219L36.354 11.8027C36.6995 12.1467 36.6995 12.7609 36.354 13.1294Z" fill="white"/>
<path d="M31.6878 18.9107C19.9717 24.6668 7.68668 24.5545 4.28449 18.644C2.22924 15.1061 3.83164 10.3047 7.95374 5.77006V4.87155C1.27709 10.4872 -1.7303 17.212 1.01003 21.9853C4.73734 28.4434 17.6378 28.8224 29.8299 22.8277C38.2135 18.7142 44.0773 12.6493 45.6913 7.18802C43.1252 11.3998 38.167 15.7239 31.6878 18.9107Z" fill="white"/>
<path opacity="0.41" d="M43.1026 10.6136C40.3275 13.6742 36.426 16.6084 31.6885 18.9248C19.9724 24.6809 7.68737 24.5686 4.28518 18.6581C2.22994 15.1202 3.83233 10.3188 7.95444 5.78416V4.88565C7.53642 5.22259 7.14163 5.57357 6.75845 5.93859C2.31122 10.8383 0.604318 16.1732 2.8918 20.1322C6.61911 26.5902 19.5196 26.9693 31.7117 20.9746C35.4622 19.1214 38.7135 16.8892 41.3145 14.4885C43.1259 12.4809 44.4728 10.4311 45.2856 8.42353C44.6122 9.12549 43.8922 9.86957 43.1026 10.6136Z" fill="black"/>
<path d="M50.0006 3.95905L47.5157 5.27874L47.7828 8.54987L45.9714 6.09301L43.4865 7.4127L44.8451 4.56274L43.0569 2.10588L45.6927 2.82188L47.0629 0L47.3299 3.27113L50.0006 3.95905Z" fill="#3F40EA"/>
</svg>
