<svg width="40" height="42" viewBox="0 0 40 42" fill="none" xmlns="http://www.w3.org/2000/svg">
<path fill-rule="evenodd" clip-rule="evenodd" d="M2.58065 14.8387C2.58065 8.06968 8.71355 2.58065 16.7742 2.58065C23.191 2.58065 29.6774 8.06968 29.6774 14.8387C29.6774 21.609 24.6129 27.0968 16.7742 27.0968C15.6219 27.0968 13.2181 26.9652 12.1458 26.7419L7.74194 29.6774V25.1045C4.59484 22.551 2.58065 19.1406 2.58065 14.8387ZM12.4348 29.3368C13.4374 29.5006 15.7174 29.6774 16.7742 29.6774C26.0387 29.6774 32.2581 22.7832 32.2581 14.6774C32.2581 6.57161 24.4865 0 16.7742 0C7.49806 0 0 6.57161 0 14.6774C0 19.3742 1.78968 23.36 5.16129 26.231V33.5484L12.4348 29.3368ZM34.7729 11.7923C34.7974 12.1613 34.8387 12.5277 34.8387 12.9032C34.8387 13.7239 34.7587 14.5277 34.6439 15.3213C36.3806 17.3548 37.4194 19.8606 37.4194 22.5806C37.4194 26.8826 34.849 30.6593 30.9677 32.8464V37.4194L26.5639 34.4839C25.4916 34.7071 24.3781 34.8387 23.2258 34.8387C19.8839 34.8387 18.1084 33.8348 15.6826 32.1664C14.9793 32.2232 14.2697 32.2581 13.5484 32.2581C13.0348 32.2581 12.5316 32.2219 12.0258 32.1923C15.0981 35.1948 18.2568 37.0968 23.2258 37.0968C24.2826 37.0968 25.3135 37.0013 26.3161 36.8374L33.5484 41.2903V33.9729C37.471 31.2852 40 27.1161 40 22.4194C40 18.2335 37.9858 14.4658 34.7729 11.7923ZM23.871 16.7742C24.9406 16.7742 25.8064 15.9084 25.8064 14.8387C25.8064 13.7703 24.9406 12.9032 23.871 12.9032C22.8013 12.9032 21.9355 13.7703 21.9355 14.8387C21.9355 15.9084 22.8013 16.7742 23.871 16.7742ZM8.3871 16.7742C9.45677 16.7742 10.3226 15.9084 10.3226 14.8387C10.3226 13.7703 9.45677 12.9032 8.3871 12.9032C7.31742 12.9032 6.45161 13.7703 6.45161 14.8387C6.45161 15.9084 7.31742 16.7742 8.3871 16.7742ZM16.129 16.7742C17.1987 16.7742 18.0645 15.9084 18.0645 14.8387C18.0645 13.7703 17.1987 12.9032 16.129 12.9032C15.0594 12.9032 14.1935 13.7703 14.1935 14.8387C14.1935 15.9084 15.0594 16.7742 16.129 16.7742Z" fill="#3B3CA7"/>
</svg>
