<svg width="125" height="125" viewBox="0 0 125 125" fill="none" xmlns="http://www.w3.org/2000/svg">
<path d="M38.4625 35.6509C36.9942 35.6509 35.793 36.8502 35.793 38.316C35.793 39.7818 36.9942 40.9811 38.4625 40.9811C39.9307 40.9811 41.132 39.7818 41.132 38.316C41.132 36.8502 39.9307 35.6509 38.4625 35.6509ZM38.4625 39.164C37.9892 39.164 37.6131 38.7885 37.6131 38.316C37.6131 37.8436 37.9892 37.468 38.4625 37.468C38.9357 37.468 39.3118 37.8436 39.3118 38.316C39.3118 38.7885 38.9236 39.164 38.4625 39.164Z" fill="white"/>
<path d="M45.2593 35.6509C43.7911 35.6509 42.5898 36.8502 42.5898 38.316C42.5898 39.7818 43.7911 40.9811 45.2593 40.9811C46.7276 40.9811 47.9288 39.7818 47.9288 38.316C47.9288 36.8502 46.7397 35.6509 45.2593 35.6509ZM45.2593 39.164C44.7861 39.164 44.41 38.7885 44.41 38.316C44.41 37.8436 44.7861 37.468 45.2593 37.468C45.7326 37.468 46.1087 37.8436 46.1087 38.316C46.1087 38.7885 45.7326 39.164 45.2593 39.164Z" fill="white"/>
<path d="M52.0679 35.6509C50.5997 35.6509 49.3984 36.8502 49.3984 38.316C49.3984 39.7818 50.5997 40.9811 52.0679 40.9811C53.5361 40.9811 54.7374 39.7818 54.7374 38.316C54.7374 36.8502 53.5361 35.6509 52.0679 35.6509ZM52.0679 39.164C51.5947 39.164 51.2185 38.7885 51.2185 38.316C51.2185 37.8436 51.5947 37.468 52.0679 37.468C52.5412 37.468 52.9173 37.8436 52.9173 38.316C52.9173 38.7885 52.529 39.164 52.0679 39.164Z" fill="white"/>
<path opacity="0.1" d="M112.42 70.0917C110.054 67.7294 106.68 67.257 104.885 69.0499L99.0845 74.8405C97.8347 76.0882 95.4807 75.7612 93.8304 74.1136C92.1802 72.4661 91.8526 70.1159 93.1024 68.8682L123.001 39.0187C124.797 37.2258 124.323 33.8581 121.957 31.4958C119.591 29.1335 116.218 28.6611 114.422 30.454L89.8383 54.9974C88.5885 56.2451 86.2345 55.9181 84.5843 54.2705C82.9341 52.623 82.6065 50.2728 83.8563 49.0251L84.3538 48.5284C86.1496 46.7355 85.6764 43.3677 83.3102 41.0055C80.9441 38.6432 77.5708 38.1707 75.775 39.9636L41.557 74.1257C39.7611 75.9186 40.2343 79.2864 42.6005 81.6487C44.9666 84.0109 48.3399 84.4834 50.1357 82.6905L56.7245 76.1125C57.9743 74.8647 60.3283 75.1918 61.9786 76.8393C63.6288 78.4869 63.9564 80.837 62.7066 82.0848L30.2116 114.527C28.4158 116.32 28.889 119.687 31.2551 122.05C33.6213 124.412 36.9945 124.884 38.7904 123.091L65.9707 95.9556C67.2205 94.7078 69.5745 95.0349 71.2247 96.6824C72.8749 98.3299 73.2026 100.68 71.9528 101.928L70.6787 103.2C68.8828 104.993 69.3561 108.361 71.7222 110.723C74.0883 113.085 77.4616 113.558 79.2575 111.765L113.463 77.6146C115.259 75.8217 114.786 72.454 112.42 70.0917Z" fill="white"/>
<path opacity="0.1" d="M83.2987 41.0055C80.9326 38.6432 77.5593 38.1708 75.7635 39.9637L69.9634 45.7543C68.7136 47.0021 66.3596 46.675 64.7094 45.0274C63.0591 43.3799 62.7315 41.0297 63.9813 39.782L93.8796 9.93254C95.6755 8.13964 95.2022 4.77188 92.8361 2.40961C90.4699 0.0473363 87.0967 -0.425115 85.3008 1.36779L60.7173 25.9233C59.4674 27.1711 57.1134 26.844 55.4632 25.1965C53.813 23.5489 53.4854 21.1988 54.7352 19.951L55.2327 19.4543C57.0285 17.6614 56.5553 14.2937 54.1891 11.9314C51.823 9.56911 48.4497 9.09666 46.6539 10.8896L12.4359 45.0396C10.64 46.8325 11.1132 50.2002 13.4794 52.5625C15.8455 54.9248 19.2188 55.3972 21.0146 53.6043L27.6034 47.0263C28.8532 45.7785 31.2072 46.1056 32.8575 47.7531C34.5077 49.4007 34.8353 51.7508 33.5855 52.9986L1.09052 85.4405C-0.705321 87.2334 -0.232095 90.6011 2.13405 92.9634C4.50019 95.3257 7.87345 95.7981 9.66929 94.0052L36.8496 66.8694C38.0994 65.6216 40.4534 65.9487 42.1036 67.5962C43.7538 69.2438 44.0815 71.5939 42.8317 72.8417L41.5576 74.1137C39.7617 75.9066 40.235 79.2743 42.6011 81.6366C44.9672 83.9989 48.3405 84.4713 50.1364 82.6784L84.3423 48.5285C86.1381 46.7477 85.6649 43.3799 83.2987 41.0055Z" fill="white"/>
<path d="M89.9268 32.1621H35.8089C33.6005 32.1621 31.8047 33.955 31.8047 36.1598V90.1892C31.8047 92.394 33.6005 94.1869 35.8089 94.1869H89.9268C92.1352 94.1869 93.931 92.394 93.931 90.1892V36.1598C93.931 33.955 92.1352 32.1621 89.9268 32.1621ZM92.1109 90.1892C92.1109 91.3885 91.1281 92.3698 89.9268 92.3698H35.8089C34.6077 92.3698 33.6248 91.3885 33.6248 90.1892V44.5186H92.1109V90.1892ZM92.1109 42.7015H33.6248V36.1598C33.6248 34.9605 34.6077 33.9792 35.8089 33.9792H89.9268C91.1281 33.9792 92.1109 34.9605 92.1109 36.1598V42.7015ZM40.6747 71.4122H84.9154C86.505 71.4122 87.7912 70.2008 87.7912 68.6986V49.6793C87.7912 48.1892 86.505 46.9657 84.9154 46.9657H70.8763C70.3788 46.9657 69.9663 47.3533 69.9663 47.8258C69.9663 48.2983 70.3788 48.6859 70.8763 48.6859H84.9154C85.4979 48.6859 85.9711 49.1341 85.9711 49.6793V68.6986C85.9711 69.2437 85.4979 69.692 84.9154 69.692H40.6747C40.0922 69.692 39.619 69.2437 39.619 68.6986V49.6793C39.619 49.1341 40.0922 48.6859 40.6747 48.6859H66.7265C67.224 48.6859 67.6365 48.2983 67.6365 47.8258C67.6365 47.3533 67.224 46.9657 66.7265 46.9657H40.6747C39.0851 46.9657 37.7989 48.1771 37.7989 49.6793V68.6986C37.7989 70.2008 39.0851 71.4122 40.6747 71.4122ZM66.047 58.4015L61.4482 55.7485C60.89 55.4335 60.2348 55.4335 59.6887 55.7485C59.1306 56.0635 58.803 56.6328 58.803 57.2749V62.5809C58.803 63.223 59.1306 63.7923 59.6887 64.1073C59.9678 64.2648 60.2712 64.3496 60.5745 64.3496C60.8779 64.3496 61.1812 64.2648 61.4603 64.1073L66.0591 61.4543C66.6173 61.1393 66.9449 60.57 66.9449 59.9279C66.9328 59.2859 66.6052 58.7165 66.047 58.4015ZM60.6231 62.484V57.3718L65.052 59.9279L60.6231 62.484ZM86.1288 83.7202H61.3754C60.8779 83.7202 60.4653 84.1321 60.4653 84.6288C60.4653 85.1255 60.8779 85.5374 61.3754 85.5374H85.8255V87.0274H54.8715V85.5374H57.1649C57.6624 85.5374 58.0749 85.1255 58.0749 84.6288C58.0749 84.1321 57.6624 83.7202 57.1649 83.7202H54.8108C54.6167 82.9813 53.9493 82.4482 53.1606 82.4482H50.9401C50.1514 82.4482 49.484 82.9934 49.2899 83.7202H39.3278C38.4906 83.7202 37.811 84.3986 37.811 85.2345V87.3182C37.811 88.154 38.4906 88.8324 39.3278 88.8324H49.2899C49.484 89.5714 50.1514 90.1044 50.9401 90.1044H53.1606C53.9493 90.1044 54.6167 89.5593 54.8108 88.8324H86.1167C86.954 88.8324 87.6335 88.154 87.6335 87.3182V85.2345C87.6456 84.3986 86.9661 83.7202 86.1288 83.7202ZM49.2292 87.0274H39.6312V85.5374H49.2292V87.0274ZM53.0514 88.2994H51.0493V84.2654H53.0514V88.2994ZM85.8376 73.6291H69.5537C68.5587 73.6291 67.7458 74.4407 67.7458 75.4341V79.5772C67.7458 80.5705 68.5587 81.3822 69.5537 81.3822H85.8376C86.8326 81.3822 87.6456 80.5705 87.6456 79.5772V75.4341C87.6456 74.4407 86.8326 73.6291 85.8376 73.6291ZM85.8255 79.5772H69.5659V75.4583H85.8255V79.5772ZM71.7864 78.4263H83.8476C84.3451 78.4263 84.7577 78.0144 84.7577 77.5178C84.7577 77.0211 84.3451 76.6092 83.8476 76.6092H71.7864C71.2889 76.6092 70.8763 77.0211 70.8763 77.5178C70.8763 78.0144 71.2889 78.4263 71.7864 78.4263ZM42.058 76.0762H39.4127C38.9152 76.0762 38.5027 75.6643 38.5027 75.1676C38.5027 74.6709 38.9152 74.259 39.4127 74.259H42.058C42.5555 74.259 42.968 74.6709 42.968 75.1676C42.968 75.6764 42.5676 76.0762 42.058 76.0762ZM61.1691 76.0762H46.2806C45.7831 76.0762 45.3706 75.6643 45.3706 75.1676C45.3706 74.6709 45.7831 74.259 46.2806 74.259H61.1691C61.6666 74.259 62.0791 74.6709 62.0791 75.1676C62.0791 75.6764 61.6666 76.0762 61.1691 76.0762ZM60.8293 79.3349H54.3134C53.6217 79.3349 53.0635 78.923 53.0635 78.4263C53.0635 77.9296 53.6217 77.5178 54.3134 77.5178H60.8293C61.521 77.5178 62.0791 77.9296 62.0791 78.4263C62.0791 78.923 61.521 79.3349 60.8293 79.3349ZM49.7267 79.3349H47.8823C47.3848 79.3349 46.9723 78.923 46.9723 78.4263C46.9723 77.9296 47.3848 77.5178 47.8823 77.5178H49.7267C50.2242 77.5178 50.6367 77.9296 50.6367 78.4263C50.6367 78.923 50.2242 79.3349 49.7267 79.3349ZM43.6111 79.3349H39.4127C38.9152 79.3349 38.5027 78.923 38.5027 78.4263C38.5027 77.9296 38.9152 77.5178 39.4127 77.5178H43.6111C44.1086 77.5178 44.5212 77.9296 44.5212 78.4263C44.5212 78.923 44.1086 79.3349 43.6111 79.3349Z" fill="white"/>
<path d="M24.5593 66.5422C25.8192 66.5422 26.8405 65.5225 26.8405 64.2647C26.8405 63.0069 25.8192 61.9872 24.5593 61.9872C23.2994 61.9872 22.2781 63.0069 22.2781 64.2647C22.2781 65.5225 23.2994 66.5422 24.5593 66.5422Z" fill="white"/>
<path d="M87.4014 27.1831C88.8556 27.1831 90.0345 26.0062 90.0345 24.5543C90.0345 23.1025 88.8556 21.9255 87.4014 21.9255C85.9472 21.9255 84.7683 23.1025 84.7683 24.5543C84.7683 26.0062 85.9472 27.1831 87.4014 27.1831Z" fill="white"/>
<path d="M27.3986 76.3426H25.178V74.1257C25.178 73.7623 24.8868 73.4716 24.5228 73.4716C24.1588 73.4716 23.8675 73.7623 23.8675 74.1257V76.3426H21.6591C21.2951 76.3426 21.0039 76.6334 21.0039 76.9968C21.0039 77.3602 21.2951 77.651 21.6591 77.651H23.8797V79.8679C23.8797 80.2313 24.1709 80.522 24.5349 80.522C24.8989 80.522 25.1902 80.2313 25.1902 79.8679V77.651H27.4107C27.7747 77.651 28.0659 77.3602 28.0659 76.9968C28.0538 76.6334 27.7626 76.3426 27.3986 76.3426Z" fill="white"/>
</svg>
