<svg width="440" height="566" viewBox="0 0 440 566" fill="none" xmlns="http://www.w3.org/2000/svg">
<mask id="mask0_86_5" style="mask-type:alpha" maskUnits="userSpaceOnUse" x="0" y="0" width="440" height="566">
<rect width="440" height="566" fill="#D9D9D9"/>
</mask>
<g mask="url(#mask0_86_5)">
<g filter="url(#filter0_d_86_5)">
<path d="M584 173H297C280.431 173 267 186.431 267 203V452C267 468.569 280.431 482 297 482H584V173Z" fill="url(#paint0_linear_86_5)" fill-opacity="0.5" shape-rendering="crispEdges"/>
</g>
<path d="M215.717 344.97L214.429 167.999C214.348 156.954 205.329 148.065 194.283 148.146L79.9993 148.978C68.9539 149.058 60.065 158.077 60.1454 169.123L61.4336 346.093L215.717 344.97Z" fill="url(#paint1_linear_86_5)" fill-opacity="0.7"/>
<g filter="url(#filter1_d_86_5)">
<path d="M478.51 57H202.51C185.941 57 172.51 70.4315 172.51 87V302C172.51 318.569 185.941 332 202.51 332H478.51V57Z" fill="url(#paint2_linear_86_5)" fill-opacity="0.8" shape-rendering="crispEdges"/>
</g>
</g>
<defs>
<filter id="filter0_d_86_5" x="227" y="113" width="417" height="409" filterUnits="userSpaceOnUse" color-interpolation-filters="sRGB">
<feFlood flood-opacity="0" result="BackgroundImageFix"/>
<feColorMatrix in="SourceAlpha" type="matrix" values="0 0 0 0 0 0 0 0 0 0 0 0 0 0 0 0 0 0 127 0" result="hardAlpha"/>
<feOffset dx="10" dy="-10"/>
<feGaussianBlur stdDeviation="25"/>
<feComposite in2="hardAlpha" operator="out"/>
<feColorMatrix type="matrix" values="0 0 0 0 0 0 0 0 0 0 0 0 0 0 0 0 0 0 0.15 0"/>
<feBlend mode="normal" in2="BackgroundImageFix" result="effect1_dropShadow_86_5"/>
<feBlend mode="normal" in="SourceGraphic" in2="effect1_dropShadow_86_5" result="shape"/>
</filter>
<filter id="filter1_d_86_5" x="132.51" y="-3" width="406" height="375" filterUnits="userSpaceOnUse" color-interpolation-filters="sRGB">
<feFlood flood-opacity="0" result="BackgroundImageFix"/>
<feColorMatrix in="SourceAlpha" type="matrix" values="0 0 0 0 0 0 0 0 0 0 0 0 0 0 0 0 0 0 127 0" result="hardAlpha"/>
<feOffset dx="10" dy="-10"/>
<feGaussianBlur stdDeviation="25"/>
<feComposite in2="hardAlpha" operator="out"/>
<feColorMatrix type="matrix" values="0 0 0 0 0 0 0 0 0 0 0 0 0 0 0 0 0 0 0.15 0"/>
<feBlend mode="normal" in2="BackgroundImageFix" result="effect1_dropShadow_86_5"/>
<feBlend mode="normal" in="SourceGraphic" in2="effect1_dropShadow_86_5" result="shape"/>
</filter>
<linearGradient id="paint0_linear_86_5" x1="267" y1="326.938" x2="584" y2="326.938" gradientUnits="userSpaceOnUse">
<stop stop-color="#B48DFF"/>
<stop offset="0.0001" stop-color="#5800FF" stop-opacity="0.6"/>
<stop offset="1" stop-color="#A676FF" stop-opacity="0.2"/>
</linearGradient>
<linearGradient id="paint1_linear_86_5" x1="137.422" y1="148.56" x2="138.856" y2="345.529" gradientUnits="userSpaceOnUse">
<stop stop-color="#5800FF"/>
<stop offset="0.0001" stop-color="#5800FF" stop-opacity="0.6"/>
<stop offset="1" stop-color="#5800FF" stop-opacity="0"/>
</linearGradient>
<linearGradient id="paint2_linear_86_5" x1="172.51" y1="194" x2="478.51" y2="194" gradientUnits="userSpaceOnUse">
<stop stop-color="#5800FF"/>
<stop offset="0.0001" stop-color="#5800FF" stop-opacity="0.6"/>
<stop offset="1" stop-color="#5800FF" stop-opacity="0"/>
</linearGradient>
</defs>
</svg>
