<svg width="75" height="70" viewBox="0 0 75 70" fill="none" xmlns="http://www.w3.org/2000/svg">
<path d="M67.3179 22.25H7.67681V17.615H67.3179V8.515C67.3179 7.85195 67.0357 7.21607 66.5334 6.74723C66.031 6.27839 65.3497 6.015 64.6393 6.015H10.3554C9.64498 6.015 8.96368 6.27839 8.46135 6.74723C7.95902 7.21607 7.67681 7.85195 7.67681 8.515L7.60717 59.175C7.60575 59.5037 7.67407 59.8294 7.80818 60.1333C7.94229 60.4372 8.13954 60.7133 8.38855 60.9457C8.63756 61.1781 8.9334 61.3622 9.25902 61.4874C9.58464 61.6126 9.93359 61.6763 10.2857 61.675H59.6411C59.9676 61.6749 60.2908 61.7349 60.5925 61.8515C60.8941 61.968 61.1682 62.1389 61.399 62.3544C61.6299 62.5698 61.813 62.8256 61.938 63.1071C62.0629 63.3886 62.1272 63.6903 62.1272 63.995C62.1272 64.2997 62.0629 64.6014 61.938 64.8829C61.813 65.1644 61.6299 65.4202 61.399 65.6356C61.1682 65.8511 60.8941 66.0219 60.5925 66.1385C60.2908 66.2551 59.9676 66.315 59.6411 66.315H7.99824H7.98753C6.56765 66.3137 5.20642 65.7863 4.20292 64.8488C3.19942 63.9112 2.63574 62.6402 2.63574 61.315L2.70538 6.36999C2.70538 5.04391 3.2698 3.77214 4.27446 2.83446C5.27912 1.89678 6.64173 1.37 8.06253 1.37H66.9268C68.3476 1.37 69.7102 1.89678 70.7149 2.83446C71.7195 3.77214 72.284 5.04391 72.284 6.36999V54.445C72.2543 55.041 71.9797 55.6035 71.5173 56.0154C71.0549 56.4274 70.4402 56.6573 69.8009 56.6573C69.1616 56.6573 68.5469 56.4274 68.0845 56.0154C67.6221 55.6035 67.3476 55.041 67.3179 54.445V22.25ZM15.134 14.755C14.7982 14.7696 14.4627 14.7204 14.1479 14.6105C13.833 14.5006 13.5453 14.3323 13.3022 14.1156C13.0591 13.899 12.8655 13.6386 12.7333 13.3501C12.6011 13.0617 12.5329 12.7512 12.5329 12.4375C12.5329 12.1238 12.6011 11.8133 12.7333 11.5249C12.8655 11.2364 13.0591 10.976 13.3022 10.7594C13.5453 10.5427 13.833 10.3744 14.1479 10.2645C14.4627 10.1546 14.7982 10.1054 15.134 10.12C15.7725 10.1477 16.3752 10.4039 16.8166 10.8355C17.258 11.2671 17.5043 11.8408 17.5043 12.4375C17.5043 13.0342 17.258 13.6079 16.8166 14.0395C16.3752 14.471 15.7725 14.7273 15.134 14.755ZM30.0429 14.755C29.7071 14.7696 29.3716 14.7204 29.0568 14.6105C28.742 14.5006 28.4543 14.3323 28.2111 14.1156C27.968 13.899 27.7744 13.6386 27.6422 13.3501C27.51 13.0617 27.4418 12.7512 27.4418 12.4375C27.4418 12.1238 27.51 11.8133 27.6422 11.5249C27.7744 11.2364 27.968 10.976 28.2111 10.7594C28.4543 10.5427 28.742 10.3744 29.0568 10.2645C29.3716 10.1546 29.7071 10.1054 30.0429 10.12C30.6815 10.1477 31.2841 10.4039 31.7255 10.8355C32.1669 11.2671 32.4132 11.8408 32.4132 12.4375C32.4132 13.0342 32.1669 13.6079 31.7255 14.0395C31.2841 14.471 30.6815 14.7273 30.0429 14.755ZM22.5857 14.755C22.25 14.7696 21.9145 14.7204 21.5997 14.6105C21.2848 14.5006 20.9971 14.3323 20.754 14.1156C20.5108 13.899 20.3173 13.6386 20.1851 13.3501C20.0528 13.0617 19.9847 12.7512 19.9847 12.4375C19.9847 12.1238 20.0528 11.8133 20.1851 11.5249C20.3173 11.2364 20.5108 10.976 20.754 10.7594C20.9971 10.5427 21.2848 10.3744 21.5997 10.2645C21.9145 10.1546 22.25 10.1054 22.5857 10.12C23.2243 10.1477 23.8269 10.4039 24.2684 10.8355C24.7098 11.2671 24.9561 11.8408 24.9561 12.4375C24.9561 13.0342 24.7098 13.6079 24.2684 14.0395C23.8269 14.471 23.2243 14.7273 22.5857 14.755ZM25.1411 31.855C25.6661 31.37 27.0536 31.37 27.5786 31.855C28.1036 32.34 28.1036 33.87 27.5786 34.395L19.4732 41.75L27.375 48.735C27.9 49.22 27.9697 50.605 27.375 51.15C26.6572 51.815 25.1893 51.71 24.6965 51.26L15.4661 42.66C15.2152 42.424 15.0744 42.105 15.0744 41.7725C15.0744 41.44 15.2152 41.121 15.4661 40.885L25.1411 31.855ZM50.2982 31.855L59.9732 40.885C60.2258 41.1212 60.3676 41.4413 60.3676 41.775C60.3676 42.1087 60.2258 42.4288 59.9732 42.665L50.7375 51.26C50.25 51.71 48.8625 51.995 48.059 51.26C47.3036 50.56 47.5393 49.12 48.059 48.635L55.9982 41.75L47.8018 34.32C47.2768 33.795 47.1054 32.5 47.8018 31.855C48.4822 31.23 49.7732 31.37 50.2982 31.855ZM40.3607 30.055C40.6286 29.405 41.9304 28.995 42.7607 29.285C43.5536 29.56 44.0197 30.585 43.8 31.235L35.025 53.79C34.7572 54.44 33.509 54.695 32.8072 54.455C32.0625 54.21 31.2536 53.255 31.5215 52.605L40.3607 30.055Z" fill="#E3D4FF"/>
</svg>
