<svg width="20" height="13" viewBox="0 0 20 13" fill="none" xmlns="http://www.w3.org/2000/svg">
<path d="M0 6.29349C0.0266667 6.34728 0.06 6.42124 0.1 6.51537C0.14 6.60951 0.24 6.8045 0.4 7.10034C0.56 7.39619 0.733333 7.67859 0.92 7.94754C1.10667 8.2165 1.36667 8.53924 1.7 8.91577C2.03333 9.29231 2.38 9.64867 2.74 9.98486C3.1 10.321 3.54667 10.6505 4.08 10.9733C4.61333 11.296 5.16 11.5784 5.72 11.8205C6.28 12.0625 6.93333 12.2508 7.68 12.3853C8.42667 12.5197 9.2 12.5937 10 12.6071C10.8 12.6206 11.5733 12.5466 12.32 12.3853C13.0667 12.2239 13.7267 12.0289 14.3 11.8003C14.8733 11.5717 15.4133 11.296 15.92 10.9733C16.4267 10.6505 16.8733 10.3143 17.26 9.96469C17.6467 9.61505 17.9933 9.27213 18.3 8.93594C18.6067 8.59975 18.8667 8.26356 19.08 7.92737C19.2933 7.59118 19.4667 7.31551 19.6 7.10034C19.7333 6.88518 19.8333 6.69019 19.9 6.51537L20 6.29349C19.9867 6.2397 19.9533 6.16573 19.9 6.0716C19.8467 5.97747 19.7467 5.7892 19.6 5.5068C19.4533 5.2244 19.28 4.942 19.08 4.6596C18.88 4.3772 18.62 4.04773 18.3 3.6712C17.98 3.29467 17.6333 2.94503 17.26 2.62229C16.8867 2.29954 16.44 1.97008 15.92 1.63389C15.4 1.2977 14.8533 1.0153 14.28 0.786686C13.7067 0.558076 13.0533 0.36981 12.32 0.221886C11.5867 0.0739621 10.8133 0 10 0C9.18667 0 8.41333 0.0739621 7.68 0.221886C6.94667 0.36981 6.28667 0.558076 5.7 0.786686C5.11333 1.0153 4.57333 1.2977 4.08 1.63389C3.58667 1.97008 3.14 2.29954 2.74 2.62229C2.34 2.94503 1.99333 3.29467 1.7 3.6712C1.40667 4.04773 1.14667 4.3772 0.92 4.6596C0.693333 4.942 0.52 5.2244 0.4 5.5068C0.28 5.7892 0.18 5.98419 0.1 6.09177L0 6.29349ZM6.26 6.29349C6.26 5.25802 6.62 4.37048 7.34 3.63086C8.06 2.89124 8.94667 2.52143 10 2.52143C11.0533 2.52143 11.94 2.89124 12.66 3.63086C13.38 4.37048 13.7467 5.25802 13.76 6.29349C13.7733 7.32895 13.4067 8.22322 12.66 8.97629C11.9133 9.72935 11.0267 10.0992 10 10.0857C8.97333 10.0723 8.08667 9.70246 7.34 8.97629C6.59333 8.25012 6.23333 7.35585 6.26 6.29349ZM7.5 6.29349C7.5 6.99276 7.74667 7.59118 8.24 8.08874C8.73333 8.58631 9.32 8.82836 10 8.81492C10.68 8.80147 11.2667 8.55941 11.76 8.08874C12.2533 7.61808 12.5 7.01966 12.5 6.29349C12.5 5.56732 12.2533 4.97562 11.76 4.5184C11.2667 4.06118 10.68 3.8124 10 3.77206C9.32 3.73171 8.73333 3.9805 8.24 4.5184L10 6.29349H7.5Z" fill="white"/>
</svg>
