<svg width="65" height="97" viewBox="0 0 65 97" fill="none" xmlns="http://www.w3.org/2000/svg">
<path d="M16.1667 97C25.0907 97 32.3333 89.7573 32.3333 80.8333V64.6666H16.1667C7.24267 64.6666 0 71.9093 0 80.8333C0 89.7573 7.24267 97 16.1667 97Z" fill="#0ACF83"/>
<path d="M0 48.5C0 39.576 7.24267 32.3334 16.1667 32.3334H32.3333V64.6667H16.1667C7.24267 64.6667 0 57.424 0 48.5Z" fill="#A259FF"/>
<path d="M0 16.1667C0 7.24267 7.24267 0 16.1667 0H32.3333V32.3333H16.1667C7.24267 32.3333 0 25.0907 0 16.1667Z" fill="#F24E1E"/>
<path d="M32.3333 0H48.5C57.424 0 64.6666 7.24267 64.6666 16.1667C64.6666 25.0907 57.424 32.3333 48.5 32.3333H32.3333V0Z" fill="#FF7262"/>
<path d="M64.6666 48.5C64.6666 57.424 57.424 64.6667 48.5 64.6667C39.576 64.6667 32.3333 57.424 32.3333 48.5C32.3333 39.576 39.576 32.3334 48.5 32.3334C57.424 32.3334 64.6666 39.576 64.6666 48.5Z" fill="#1ABCFE"/>
</svg>
