<svg width="500" height="500" viewBox="0 0 500 500" fill="none" xmlns="http://www.w3.org/2000/svg">
<path d="M250 477.929C380.113 477.929 485.59 417.032 485.59 341.911C485.59 266.79 380.113 205.893 250 205.893C119.887 205.893 14.4102 266.79 14.4102 341.911C14.4102 417.032 119.887 477.929 250 477.929Z" fill="#AB98E6"/>
<path d="M201.249 444.988C246.117 444.988 282.49 423.988 282.49 398.084C282.49 372.18 246.117 351.18 201.249 351.18C156.381 351.18 120.008 372.18 120.008 398.084C120.008 423.988 156.381 444.988 201.249 444.988Z" fill="#B7B8FC"/>
<path d="M432.278 339.403L422.752 333.903C422.752 333.903 420.418 313.501 421.971 297.701C424.152 275.499 438.491 248.784 455.597 255.058C472.702 261.332 447.754 283.943 442.201 302.775C436.647 321.606 432.278 339.403 432.278 339.403Z" fill="#6720FF"/>
<path opacity="0.15" d="M432.278 339.403L422.752 333.903C422.752 333.903 420.418 313.501 421.971 297.701C424.152 275.499 438.491 248.784 455.597 255.058C472.702 261.332 447.754 283.943 442.201 302.775C436.647 321.606 432.278 339.403 432.278 339.403Z" fill="black"/>
<path d="M427.265 337.088C427.271 337.088 427.278 337.088 427.285 337.088C427.603 337.077 427.853 336.811 427.842 336.492C426.169 287.159 450.727 262.343 450.975 262.099C451.202 261.875 451.205 261.51 450.981 261.284C450.755 261.057 450.39 261.054 450.165 261.278C449.913 261.527 424.999 286.699 426.688 336.533C426.699 336.843 426.955 337.088 427.265 337.088Z" fill="white"/>
<path d="M438.266 342.833L431.487 338.919C431.487 338.919 430.334 324.919 437.198 307.912C443.173 293.106 458 280.823 465.457 283.404C472.914 285.985 472.729 291.273 469.093 296.82C465.458 302.367 443.339 315.588 438.266 342.833Z" fill="#6720FF"/>
<path d="M434.691 341.345H434.694C435.012 341.343 435.27 341.085 435.268 340.766C435.134 309.574 464.422 288.492 464.718 288.283C464.978 288.099 465.04 287.74 464.855 287.479C464.673 287.22 464.314 287.155 464.051 287.342C463.751 287.554 433.977 308.986 434.114 340.772C434.116 341.089 434.373 341.345 434.691 341.345Z" fill="white"/>
<path d="M79.6609 327.146L88.4569 321.21C88.4569 321.21 92.3289 298.164 88.7319 277.921C83.6739 249.46 64.0459 239.989 57.0419 242.963C50.0379 245.937 48.5409 254.426 61.6089 270.675C69.3189 280.261 79.3909 300.648 79.6609 327.146Z" fill="#6720FF"/>
<g opacity="0.15">
<path d="M79.6609 327.146L88.4569 321.21C88.4569 321.21 92.3289 298.164 88.7319 277.921C83.6739 249.46 64.0459 239.989 57.0419 242.963C50.0379 245.937 48.5409 254.426 61.6089 270.675C69.3189 280.261 79.3909 300.648 79.6609 327.146Z" fill="black"/>
</g>
<path d="M82.6811 315.746C82.6511 315.746 82.6221 315.745 82.5931 315.741C82.2441 315.699 81.9931 315.383 82.0351 315.033C85.2121 288.235 73.8991 259.161 61.5951 247.593C61.3391 247.353 61.3261 246.948 61.5681 246.692C61.8101 246.438 62.2131 246.423 62.4691 246.665C74.9971 258.444 86.5261 287.99 83.3011 315.183C83.2621 315.503 82.9931 315.74 82.6811 315.746Z" fill="white"/>
<path d="M56.6188 342.688C55.2228 343.526 51.1418 340.499 50.0128 339.772C48.0798 338.529 46.4988 336.745 45.4318 334.714C44.1908 332.35 43.8398 329.799 44.1628 327.151C44.3308 325.778 44.6878 324.436 45.0438 323.1C45.3938 321.788 45.7438 320.476 46.0938 319.163C46.4388 317.868 46.7878 316.529 46.5918 315.204C46.1978 312.533 43.7848 310.704 41.5928 309.127C39.1688 307.384 36.6358 305.071 36.5868 301.847C36.5488 299.36 37.7928 297.025 39.2958 295.044C40.7998 293.062 42.5948 291.303 43.9478 289.215C44.9218 287.712 45.6708 285.955 45.4728 284.175C45.3498 283.069 44.8708 282.034 44.3218 281.067C43.1428 278.99 41.6048 277.097 40.7758 274.857C39.9468 272.618 40.0048 269.811 41.7338 268.164C43.1528 266.812 45.2958 266.586 47.2528 266.677C49.0638 266.762 50.8468 267.544 52.4458 268.393C57.6178 271.139 60.6558 277.143 66.1278 279.228C68.2388 280.032 70.5368 280.173 72.7308 280.708C74.9248 281.243 77.1728 282.315 78.2228 284.315C80.2928 288.258 76.6888 293.236 78.1718 297.435C79.4838 301.151 83.1458 302.512 85.2518 305.843C86.1728 307.3 86.4118 309 86.3008 310.721C86.1128 313.633 85.7288 315.774 84.3968 319.034C83.2958 321.728 80.0258 326.903 80.0258 326.903C80.0258 326.903 56.8318 342.559 56.6188 342.688Z" fill="#6720FF"/>
<path d="M70.1374 334.396C70.1284 334.396 70.1204 334.396 70.1204 334.396C69.7594 334.388 69.4814 334.096 69.4884 333.745C70.0524 308.428 57.5944 280.73 48.7694 272.784C48.5084 272.549 48.4864 272.146 48.7224 271.884C48.9584 271.623 49.3604 271.603 49.6224 271.837C58.6244 279.943 71.3344 308.1 70.7634 333.773C70.7544 334.117 70.4774 334.389 70.1374 334.396Z" fill="white"/>
<path d="M65.4732 303.554C65.4112 303.555 65.3472 303.548 65.2852 303.529C57.1092 301.174 46.9712 300.926 46.8702 300.924C46.5182 300.916 46.2392 300.624 46.2462 300.272C46.2542 299.921 46.5152 299.638 46.8982 299.648C47.0012 299.651 57.3002 299.901 65.6382 302.304C65.9762 302.401 66.1722 302.754 66.0742 303.092C65.9932 303.368 65.7452 303.549 65.4732 303.554Z" fill="white"/>
<path d="M301.158 309.745L297.364 307.552C296.169 306.861 295.2 305.182 295.2 303.801L295.199 146.284C295.199 144.903 296.168 143.224 297.364 142.534L402.709 81.7138C403.905 81.0238 405.843 81.0238 407.039 81.7138L410.834 83.9038C412.03 84.5938 412.999 86.2728 412.999 87.6538V245.17C412.999 246.551 412.03 248.23 410.834 248.92L305.487 309.745C304.292 310.436 302.353 310.435 301.158 309.745Z" fill="#455A64"/>
<path d="M412.982 87.3018C412.832 86.1818 411.922 85.7718 410.832 86.4018L305.492 147.232C304.892 147.582 304.362 148.162 303.962 148.842L295.832 144.152C296.222 143.472 296.762 142.882 297.362 142.532L402.712 81.7118C403.902 81.0218 405.842 81.0218 407.042 81.7118L410.832 83.9018C411.932 84.5318 412.842 86.0018 412.982 87.3018Z" fill="#455A64"/>
<path d="M305.123 309.919C303.923 310.429 302.243 310.369 301.163 309.749L297.363 307.549C296.173 306.859 295.203 305.179 295.203 303.799V146.282C295.203 145.592 295.443 144.832 295.833 144.152L303.963 148.842C303.563 149.522 303.323 150.292 303.323 150.982V308.499C303.323 309.739 304.103 310.309 305.123 309.919Z" fill="#263238"/>
<path d="M303.324 150.98V308.496C303.324 309.877 304.293 310.436 305.489 309.746L410.836 248.921C412.032 248.231 413.001 246.552 413.001 245.171V87.653C413.001 86.272 412.032 85.713 410.836 86.403L305.489 147.23C304.294 147.92 303.324 149.599 303.324 150.98Z" fill="#37474F"/>
<path d="M278.722 211.022C277.362 210.212 271.052 206.622 270.722 206.432C269.722 205.822 269.362 204.342 270.292 203.342L295.202 176.622L303.322 181.282L278.422 208.012C277.522 208.972 277.812 210.362 278.722 211.022Z" fill="#455A64"/>
<path d="M303.323 181.286L278.418 208.009C277.17 209.348 278.224 211.521 280.048 211.371L303.323 209.454V181.286Z" fill="#37474F"/>
<path d="M358.161 133.202C370.439 126.113 380.392 131.86 380.392 146.037C380.392 160.214 370.439 177.453 358.161 184.542C345.883 191.631 335.93 185.884 335.93 171.707C335.931 157.529 345.884 140.29 358.161 133.202Z" fill="#6720FF"/>
<path d="M358.005 144.359C361.988 142.059 365.218 143.923 365.218 148.522C365.218 153.122 361.989 158.715 358.005 161.014C354.022 163.313 350.793 161.45 350.793 156.85C350.793 152.251 354.022 146.658 358.005 144.359Z" fill="white"/>
<path d="M372.219 168.884C372.219 161.327 366.913 158.264 360.37 162.043L356.279 164.405C349.736 168.183 344.43 177.372 344.43 184.928V186.989C345.612 187.381 346.894 187.575 348.25 187.578C351.235 187.584 354.595 186.601 358.162 184.542C363.496 181.462 368.389 176.464 372.219 170.637V168.884Z" fill="white"/>
<path d="M344.079 254.73L372.245 238.468C373.441 237.778 374.41 238.337 374.41 239.718V248.789C374.41 250.17 373.441 251.849 372.245 252.539L344.079 268.801C342.883 269.491 341.914 268.932 341.914 267.551V258.48C341.914 257.099 342.883 255.42 344.079 254.73Z" fill="#6720FF"/>
<path d="M330.292 234.466L386.027 202.288C387.462 201.46 388.625 202.131 388.625 203.788V207.164C388.625 208.821 387.462 210.836 386.027 211.664L330.293 243.842C328.858 244.67 327.695 243.999 327.695 242.342V238.966C327.694 237.309 328.858 235.294 330.292 234.466Z" fill="#FAFAFA"/>
<path d="M336.811 211.178C337.569 210.74 338.159 210.674 338.579 210.983C338.999 211.291 339.209 211.975 339.209 213.037C339.209 214.1 338.999 215.031 338.579 215.833C338.159 216.636 337.569 217.256 336.811 217.694L335.306 218.562V221.791C335.306 221.898 335.281 222.003 335.231 222.109C335.18 222.216 335.121 222.289 335.051 222.328L334.29 222.768C334.221 222.809 334.161 222.805 334.11 222.756C334.06 222.707 334.035 222.631 334.035 222.524V213.17C334.035 213.064 334.06 212.957 334.11 212.851C334.161 212.746 334.22 212.671 334.29 212.632L336.811 211.178ZM335.306 216.752L336.763 215.91C337.12 215.704 337.406 215.431 337.619 215.09C337.832 214.75 337.938 214.311 337.938 213.77C337.938 213.229 337.832 212.916 337.619 212.832C337.405 212.748 337.12 212.809 336.763 213.016L335.306 213.857V216.752Z" fill="#FAFAFA"/>
<path d="M343.404 207.371C343.504 207.313 343.58 207.31 343.63 207.363C343.681 207.417 343.725 207.514 343.762 207.657L346.067 215.478C346.073 215.503 346.076 215.535 346.076 215.574C346.076 215.68 346.051 215.786 346.001 215.892C345.951 215.998 345.892 216.072 345.822 216.111L345.145 216.502C345.02 216.574 344.931 216.584 344.881 216.531C344.83 216.478 344.797 216.419 344.777 216.351L344.373 214.978L341.401 216.695L340.997 218.535C340.978 218.623 340.943 218.723 340.894 218.834C340.843 218.945 340.756 219.036 340.63 219.109L339.953 219.5C339.884 219.539 339.824 219.535 339.774 219.486C339.723 219.438 339.699 219.361 339.699 219.256C339.699 219.217 339.702 219.182 339.709 219.149L342.013 208.668C342.051 208.481 342.094 208.334 342.145 208.223C342.195 208.113 342.27 208.028 342.371 207.97L343.404 207.371ZM343.921 213.43L342.887 209.901L341.853 214.624L343.921 213.43Z" fill="#FAFAFA"/>
<path d="M349.574 203.664C349.994 203.422 350.364 203.295 350.683 203.285C351.003 203.273 351.269 203.337 351.483 203.474C351.696 203.612 351.857 203.806 351.967 204.056C352.076 204.306 352.138 204.568 352.151 204.84C352.157 204.952 352.133 205.06 352.081 205.163C352.027 205.265 351.966 205.337 351.897 205.377L351.238 205.757C351.132 205.82 351.053 205.833 350.999 205.802C350.946 205.771 350.896 205.714 350.853 205.634C350.759 205.446 350.618 205.319 350.426 205.25C350.234 205.183 349.95 205.256 349.574 205.474C349.411 205.568 349.256 205.685 349.109 205.822C348.961 205.961 348.832 206.112 348.723 206.277C348.613 206.441 348.527 206.615 348.464 206.795C348.401 206.977 348.37 207.159 348.37 207.342C348.37 207.565 348.399 207.729 348.459 207.834C348.518 207.939 348.618 208.002 348.76 208.022C348.901 208.043 349.088 208.028 349.32 207.981C349.552 207.934 349.841 207.87 350.185 207.786C350.561 207.694 350.885 207.655 351.159 207.667C351.431 207.679 351.653 207.752 351.826 207.889C351.999 208.027 352.127 208.225 352.212 208.485C352.297 208.746 352.339 209.073 352.339 209.468C352.339 209.903 352.276 210.342 352.151 210.786C352.026 211.229 351.846 211.651 351.615 212.051C351.382 212.45 351.098 212.825 350.758 213.175C350.42 213.525 350.04 213.821 349.62 214.064C349.268 214.267 348.933 214.396 348.614 214.449C348.294 214.504 348.01 214.48 347.763 214.377C347.515 214.273 347.316 214.092 347.164 213.831C347.015 213.57 346.93 213.233 346.911 212.819C346.904 212.707 346.929 212.599 346.981 212.496C347.034 212.394 347.095 212.322 347.164 212.282L347.823 211.902C347.929 211.839 348.011 211.822 348.067 211.847C348.124 211.872 348.17 211.932 348.209 212.025C348.253 212.127 348.306 212.221 348.369 212.31C348.432 212.399 348.515 212.461 348.622 212.496C348.728 212.531 348.862 212.533 349.022 212.505C349.182 212.475 349.38 212.392 349.619 212.253C349.807 212.146 349.989 212.019 350.165 211.873C350.34 211.729 350.494 211.567 350.626 211.39C350.757 211.213 350.863 211.027 350.945 210.829C351.026 210.632 351.067 210.423 351.067 210.2C351.067 209.989 351.023 209.841 350.936 209.756C350.848 209.671 350.714 209.633 350.536 209.64C350.357 209.646 350.137 209.682 349.873 209.747C349.61 209.811 349.306 209.877 348.961 209.94C348.647 210.005 348.373 210.026 348.138 210.003C347.903 209.98 347.708 209.896 347.555 209.753C347.402 209.61 347.287 209.403 347.212 209.133C347.137 208.862 347.1 208.511 347.1 208.075C347.1 207.641 347.163 207.204 347.288 206.766C347.413 206.327 347.586 205.912 347.806 205.526C348.025 205.138 348.286 204.782 348.591 204.458C348.895 204.131 349.224 203.867 349.574 203.664Z" fill="#FAFAFA"/>
<path d="M356.139 199.875C356.56 199.633 356.929 199.506 357.248 199.495C357.568 199.484 357.835 199.547 358.049 199.684C358.261 199.822 358.422 200.016 358.532 200.266C358.642 200.517 358.703 200.779 358.716 201.05C358.722 201.163 358.699 201.271 358.646 201.373C358.592 201.476 358.531 201.548 358.462 201.587L357.803 201.968C357.696 202.03 357.617 202.044 357.564 202.013C357.511 201.981 357.462 201.924 357.419 201.844C357.324 201.658 357.183 201.529 356.991 201.46C356.8 201.393 356.516 201.466 356.139 201.684C355.976 201.779 355.822 201.895 355.674 202.033C355.526 202.172 355.398 202.322 355.288 202.487C355.178 202.652 355.092 202.825 355.029 203.006C354.966 203.187 354.935 203.369 354.935 203.553C354.935 203.776 354.964 203.939 355.024 204.044C355.084 204.151 355.183 204.213 355.325 204.233C355.467 204.253 355.653 204.239 355.885 204.192C356.117 204.145 356.406 204.081 356.75 203.997C357.127 203.905 357.45 203.866 357.724 203.877C357.996 203.889 358.219 203.962 358.391 204.099C358.564 204.238 358.693 204.435 358.777 204.695C358.862 204.957 358.904 205.283 358.904 205.679C358.904 206.113 358.841 206.552 358.716 206.997C358.591 207.44 358.411 207.862 358.18 208.261C357.949 208.661 357.663 209.035 357.324 209.386C356.986 209.736 356.606 210.032 356.187 210.274C355.834 210.477 355.499 210.606 355.18 210.66C354.861 210.715 354.577 210.69 354.329 210.587C354.081 210.484 353.882 210.303 353.731 210.041C353.581 209.78 353.496 209.443 353.477 209.029C353.471 208.917 353.495 208.809 353.548 208.707C353.6 208.603 353.661 208.532 353.731 208.492L354.389 208.112C354.495 208.05 354.577 208.032 354.633 208.058C354.691 208.083 354.737 208.142 354.775 208.236C354.819 208.337 354.873 208.431 354.935 208.521C354.998 208.609 355.082 208.671 355.189 208.707C355.295 208.742 355.429 208.744 355.588 208.716C355.748 208.686 355.946 208.603 356.186 208.465C356.374 208.357 356.555 208.231 356.731 208.084C356.906 207.941 357.06 207.779 357.192 207.602C357.323 207.424 357.43 207.239 357.512 207.041C357.593 206.845 357.633 206.636 357.633 206.413C357.633 206.201 357.589 206.053 357.502 205.968C357.414 205.884 357.28 205.845 357.102 205.852C356.924 205.859 356.703 205.894 356.439 205.959C356.176 206.024 355.872 206.089 355.527 206.153C355.214 206.217 354.939 206.239 354.704 206.216C354.47 206.192 354.274 206.109 354.122 205.966C353.968 205.823 353.853 205.616 353.778 205.345C353.703 205.075 353.666 204.723 353.666 204.288C353.666 203.854 353.729 203.417 353.854 202.978C353.979 202.539 354.152 202.125 354.372 201.738C354.591 201.35 354.852 200.995 355.157 200.67C355.461 200.342 355.788 200.078 356.139 199.875Z" fill="#FAFAFA"/>
<path d="M363.427 201.126L362.618 205.922C362.587 206.084 362.547 206.226 362.5 206.344C362.453 206.463 362.383 206.55 362.289 206.604L361.526 207.044C361.432 207.098 361.358 207.096 361.305 207.033C361.251 206.972 361.216 206.875 361.198 206.742L359.993 198.301C359.987 198.256 359.984 198.219 359.984 198.191C359.984 198.085 360.009 197.978 360.059 197.872C360.109 197.766 360.168 197.692 360.238 197.653L360.933 197.251C360.996 197.216 361.056 197.21 361.113 197.235C361.169 197.26 361.207 197.339 361.225 197.474L362.015 203.157L362.711 198.889C362.724 198.814 362.753 198.709 362.801 198.576C362.847 198.443 362.927 198.344 363.04 198.278L363.811 197.833C363.924 197.768 364.004 197.775 364.051 197.854C364.098 197.933 364.127 198.002 364.14 198.062L364.836 201.527L365.626 194.932C365.644 194.776 365.683 194.654 365.739 194.562C365.795 194.472 365.855 194.408 365.918 194.373L366.613 193.971C366.682 193.932 366.742 193.936 366.792 193.985C366.842 194.033 366.867 194.11 366.867 194.216C366.867 194.244 366.864 194.285 366.858 194.336L365.654 204.168C365.634 204.324 365.599 204.463 365.547 204.585C365.493 204.707 365.42 204.796 365.325 204.851L364.563 205.29C364.468 205.345 364.398 205.34 364.351 205.275C364.304 205.21 364.265 205.115 364.233 204.988L363.427 201.126Z" fill="#FAFAFA"/>
<path d="M368.109 196.887C368.129 196.336 368.195 195.787 368.311 195.242C368.427 194.697 368.598 194.183 368.824 193.701C369.05 193.219 369.332 192.775 369.67 192.373C370.01 191.969 370.41 191.635 370.875 191.366C371.332 191.101 371.73 190.973 372.068 190.98C372.407 190.988 372.689 191.105 372.915 191.332C373.141 191.559 373.312 191.875 373.432 192.278C373.551 192.683 373.621 193.154 373.64 193.693C373.646 193.874 373.651 194.074 373.654 194.293C373.657 194.513 373.659 194.741 373.659 194.978C373.659 195.215 373.657 195.445 373.654 195.668C373.651 195.893 373.646 196.098 373.64 196.284C373.62 196.837 373.553 197.384 373.438 197.929C373.322 198.474 373.151 198.988 372.925 199.47C372.699 199.952 372.415 200.394 372.074 200.794C371.731 201.194 371.332 201.526 370.875 201.79C370.41 202.058 370.01 202.188 369.67 202.182C369.332 202.174 369.05 202.06 368.824 201.837C368.598 201.616 368.427 201.3 368.311 200.888C368.195 200.478 368.128 200.007 368.109 199.478C368.103 199.298 368.097 199.099 368.095 198.877C368.091 198.657 368.09 198.429 368.09 198.193C368.09 197.957 368.091 197.726 368.095 197.502C368.098 197.279 368.103 197.074 368.109 196.887ZM372.37 194.499C372.345 193.818 372.199 193.365 371.932 193.137C371.665 192.91 371.313 192.922 370.874 193.176C370.435 193.43 370.082 193.824 369.815 194.36C369.548 194.895 369.402 195.516 369.377 196.226C369.364 196.6 369.357 197.012 369.357 197.461C369.357 197.91 369.364 198.313 369.377 198.673C369.401 199.354 369.548 199.805 369.815 200.027C370.082 200.25 370.434 200.234 370.874 199.981C371.313 199.728 371.665 199.336 371.932 198.806C372.199 198.275 372.344 197.656 372.37 196.946C372.383 196.572 372.389 196.161 372.389 195.712C372.389 195.263 372.383 194.86 372.37 194.499Z" fill="#FAFAFA"/>
<path d="M378.034 187.379C378.817 186.927 379.412 186.863 379.82 187.188C380.227 187.513 380.431 188.172 380.431 189.167C380.431 189.872 380.327 190.532 380.117 191.151C379.906 191.769 379.597 192.317 379.19 192.794L380.488 195.621C380.507 195.668 380.516 195.716 380.516 195.765C380.516 195.851 380.495 195.937 380.454 196.025C380.414 196.111 380.364 196.17 380.308 196.203L379.508 196.664C379.383 196.736 379.29 196.744 379.231 196.687C379.171 196.628 379.129 196.57 379.104 196.507L377.873 193.843L376.622 194.566V197.94C376.622 198.046 376.597 198.152 376.547 198.257C376.496 198.364 376.438 198.437 376.368 198.478L375.606 198.917C375.537 198.956 375.478 198.952 375.427 198.903C375.376 198.855 375.352 198.779 375.352 198.673V189.319C375.352 189.212 375.376 189.106 375.427 189.001C375.478 188.894 375.536 188.821 375.606 188.78L378.034 187.379ZM376.623 192.755L377.986 191.968C378.344 191.762 378.629 191.5 378.842 191.184C379.055 190.869 379.161 190.44 379.161 189.899C379.161 189.359 379.054 189.058 378.842 188.998C378.628 188.938 378.344 189.011 377.986 189.218L376.623 190.005V192.755Z" fill="#FAFAFA"/>
<path d="M384.699 183.529C385.163 183.261 385.565 183.123 385.907 183.113C386.249 183.105 386.534 183.208 386.764 183.424C386.993 183.639 387.167 183.957 387.29 184.379C387.412 184.801 387.485 185.309 387.511 185.902C387.536 186.601 387.536 187.316 387.511 188.045C387.486 188.668 387.412 189.261 387.29 189.823C387.167 190.387 386.994 190.906 386.768 191.385C386.541 191.863 386.261 192.292 385.925 192.674C385.59 193.057 385.197 193.377 384.745 193.638L382.375 195.006C382.306 195.046 382.247 195.042 382.196 194.993C382.146 194.945 382.121 194.869 382.121 194.762V185.408C382.121 185.303 382.146 185.195 382.196 185.09C382.247 184.984 382.305 184.91 382.375 184.87L384.699 183.529ZM386.241 186.635C386.228 186.334 386.189 186.069 386.124 185.842C386.058 185.615 385.961 185.439 385.832 185.316C385.703 185.192 385.542 185.132 385.349 185.132C385.154 185.134 384.921 185.212 384.653 185.368L383.393 186.095V192.611L384.7 191.857C384.957 191.709 385.179 191.525 385.368 191.304C385.556 191.085 385.712 190.843 385.838 190.576C385.963 190.31 386.059 190.024 386.125 189.716C386.19 189.407 386.23 189.095 386.242 188.78C386.265 188.049 386.265 187.336 386.241 186.635Z" fill="#FAFAFA"/>
<path d="M247.376 38.3954C249.124 38.7824 250.771 39.4014 252.318 40.2504C253.865 41.1004 255.176 42.1414 256.249 43.3734C257.322 44.6044 258.095 46.0044 258.566 47.5724C259.038 49.1384 259.072 50.8344 258.669 52.6554C258.34 54.1424 257.821 55.3844 257.114 56.3774C256.405 57.3714 255.592 58.2254 254.674 58.9374C253.756 59.6504 252.787 60.2754 251.773 60.8104C250.756 61.3464 249.794 61.8554 248.89 62.3354C247.983 62.8174 247.162 63.3494 246.431 63.9274C245.698 64.5064 245.186 65.1934 244.893 65.9864C244.727 66.3794 244.482 66.6944 244.157 66.9334C243.83 67.1744 243.463 67.2474 243.054 67.1584L238.815 66.2194C238.406 66.1294 238.076 65.9014 237.827 65.5324C237.577 65.1654 237.516 64.7824 237.643 64.3814C238.039 62.9474 238.626 61.7414 239.409 60.7644C240.191 59.7874 241.059 58.9464 242.015 58.2404C242.971 57.5354 243.964 56.9274 244.994 56.4144C246.023 55.9004 246.982 55.4014 247.871 54.9154C248.758 54.4304 249.516 53.9144 250.142 53.3714C250.77 52.8284 251.17 52.1654 251.343 51.3844C251.656 49.9724 251.319 48.6784 250.33 47.5034C249.342 46.3294 247.862 45.5244 245.892 45.0874C242.732 44.3874 240.058 45.4534 237.871 48.2844C237.595 48.6524 237.331 48.9154 237.083 49.0744C236.832 49.2344 236.465 49.2604 235.981 49.1524L231.464 48.1524C231.13 48.0784 230.865 47.9024 230.674 47.6264C230.482 47.3504 230.427 47.0254 230.509 46.6534C230.833 45.3604 231.529 44.1204 232.591 42.9314C233.653 41.7434 234.948 40.7434 236.473 39.9294C237.999 39.1174 239.705 38.5484 241.59 38.2254C243.478 37.9034 245.405 37.9584 247.376 38.3954ZM242.593 70.5674C243.001 70.6574 243.322 70.8844 243.552 71.2484C243.784 71.6114 243.855 71.9974 243.764 72.4064L242.677 77.3134C242.586 77.7234 242.36 78.0434 241.996 78.2744C241.633 78.5074 241.248 78.5774 240.839 78.4864L236.043 77.4244C235.633 77.3324 235.313 77.1074 235.081 76.7424C234.849 76.3794 234.778 75.9944 234.869 75.5844L235.956 70.6764C236.047 70.2684 236.273 69.9474 236.637 69.7154C237.001 69.4854 237.386 69.4134 237.796 69.5044L242.593 70.5674Z" fill="#6720FF"/>
<path d="M252.718 85.3045C253.937 85.1055 255.152 85.0785 256.362 85.2285C257.571 85.3765 258.677 85.7075 259.681 86.2225C260.684 86.7395 261.538 87.4385 262.241 88.3225C262.946 89.2075 263.401 90.2855 263.609 91.5545C263.778 92.5925 263.763 93.5225 263.564 94.3395C263.365 95.1575 263.062 95.9135 262.656 96.6065C262.25 97.2985 261.79 97.9465 261.275 98.5495C260.761 99.1535 260.275 99.7245 259.818 100.266C259.36 100.807 258.97 101.358 258.649 101.916C258.327 102.474 258.174 103.045 258.19 103.628C258.184 103.923 258.107 104.188 257.961 104.425C257.813 104.662 257.596 104.804 257.312 104.851L254.354 105.334C254.068 105.381 253.798 105.318 253.543 105.146C253.289 104.975 253.151 104.745 253.131 104.455C253.018 103.434 253.086 102.512 253.338 101.684C253.588 100.858 253.93 100.095 254.362 99.3985C254.794 98.7025 255.275 98.0575 255.804 97.4645C256.333 96.8725 256.82 96.3065 257.265 95.7665C257.709 95.2295 258.063 94.7045 258.326 94.1965C258.589 93.6865 258.677 93.1605 258.588 92.6145C258.427 91.6305 257.879 90.8865 256.944 90.3855C256.009 89.8855 254.855 89.7475 253.48 89.9725C251.275 90.3325 249.834 91.7015 249.156 94.0765C249.073 94.3825 248.972 94.6185 248.852 94.7845C248.733 94.9515 248.504 95.0615 248.167 95.1165L245.016 95.6325C244.782 95.6705 244.568 95.6255 244.373 95.4975C244.179 95.3685 244.061 95.1755 244.018 94.9155C243.895 94.0045 244.023 93.0305 244.401 91.9965C244.777 90.9625 245.351 89.9895 246.121 89.0785C246.891 88.1665 247.84 87.3665 248.965 86.6765C250.093 85.9865 251.343 85.5295 252.718 85.3045ZM257.886 107.154C258.171 107.108 258.435 107.172 258.677 107.344C258.918 107.519 259.062 107.748 259.109 108.032L259.669 111.458C259.716 111.743 259.652 112.007 259.479 112.248C259.305 112.49 259.076 112.633 258.79 112.68L255.443 113.227C255.158 113.274 254.894 113.211 254.653 113.038C254.411 112.864 254.267 112.635 254.22 112.35L253.66 108.924C253.614 108.64 253.677 108.376 253.85 108.134C254.024 107.893 254.253 107.748 254.538 107.701L257.886 107.154Z" fill="#6720FF"/>
<g opacity="0.2">
<path d="M252.718 85.3045C253.937 85.1055 255.152 85.0785 256.362 85.2285C257.571 85.3765 258.677 85.7075 259.681 86.2225C260.684 86.7395 261.538 87.4385 262.241 88.3225C262.946 89.2075 263.401 90.2855 263.609 91.5545C263.778 92.5925 263.763 93.5225 263.564 94.3395C263.365 95.1575 263.062 95.9135 262.656 96.6065C262.25 97.2985 261.79 97.9465 261.275 98.5495C260.761 99.1535 260.275 99.7245 259.818 100.266C259.36 100.807 258.97 101.358 258.649 101.916C258.327 102.474 258.174 103.045 258.19 103.628C258.184 103.923 258.107 104.188 257.961 104.425C257.813 104.662 257.596 104.804 257.312 104.851L254.354 105.334C254.068 105.381 253.798 105.318 253.543 105.146C253.289 104.975 253.151 104.745 253.131 104.455C253.018 103.434 253.086 102.512 253.338 101.684C253.588 100.858 253.93 100.095 254.362 99.3985C254.794 98.7025 255.275 98.0575 255.804 97.4645C256.333 96.8725 256.82 96.3065 257.265 95.7665C257.709 95.2295 258.063 94.7045 258.326 94.1965C258.589 93.6865 258.677 93.1605 258.588 92.6145C258.427 91.6305 257.879 90.8865 256.944 90.3855C256.009 89.8855 254.855 89.7475 253.48 89.9725C251.275 90.3325 249.834 91.7015 249.156 94.0765C249.073 94.3825 248.972 94.6185 248.852 94.7845C248.733 94.9515 248.504 95.0615 248.167 95.1165L245.016 95.6325C244.782 95.6705 244.568 95.6255 244.373 95.4975C244.179 95.3685 244.061 95.1755 244.018 94.9155C243.895 94.0045 244.023 93.0305 244.401 91.9965C244.777 90.9625 245.351 89.9895 246.121 89.0785C246.891 88.1665 247.84 87.3665 248.965 86.6765C250.093 85.9865 251.343 85.5295 252.718 85.3045ZM257.886 107.154C258.171 107.108 258.435 107.172 258.677 107.344C258.918 107.519 259.062 107.748 259.109 108.032L259.669 111.458C259.716 111.743 259.652 112.007 259.479 112.248C259.305 112.49 259.076 112.633 258.79 112.68L255.443 113.227C255.158 113.274 254.894 113.211 254.653 113.038C254.411 112.864 254.267 112.635 254.22 112.35L253.66 108.924C253.614 108.64 253.677 108.376 253.85 108.134C254.024 107.893 254.253 107.748 254.538 107.701L257.886 107.154Z" fill="black"/>
</g>
<path d="M280.992 90.6889C281.271 90.8879 281.44 91.1609 281.5 91.5079C281.558 91.8559 281.488 92.1689 281.29 92.4479L278.908 95.7989C278.709 96.0789 278.436 96.2479 278.089 96.3059C277.741 96.3659 277.428 96.2949 277.149 96.0969L273.875 93.7689C273.595 93.5699 273.427 93.2979 273.368 92.9509C273.308 92.6019 273.379 92.2899 273.578 92.0109L275.96 88.6589C276.158 88.3799 276.43 88.2109 276.779 88.1519C277.126 88.0929 277.438 88.1629 277.718 88.3619L280.992 90.6889ZM294.846 67.9769C296.038 68.8239 297.083 69.8149 297.978 70.9479C298.873 72.0819 299.53 73.2829 299.944 74.5519C300.36 75.8229 300.496 77.1219 300.352 78.4529C300.208 79.7849 299.695 81.0719 298.81 82.3159C298.088 83.3319 297.302 84.1009 296.454 84.6239C295.604 85.1479 294.72 85.5319 293.801 85.7759C292.881 86.0209 291.953 86.1829 291.019 86.2639C290.081 86.3429 289.196 86.4199 288.36 86.4939C287.524 86.5679 286.737 86.7069 286.002 86.9099C285.265 87.1119 284.66 87.4669 284.188 87.9709C283.938 88.2139 283.653 88.3729 283.331 88.4499C283.009 88.5269 282.709 88.4659 282.43 88.2669L279.535 86.2089C279.256 86.0109 279.08 85.7339 279.009 85.3769C278.938 85.0209 279.013 84.7119 279.237 84.4499C279.993 83.4959 280.819 82.7749 281.72 82.2879C282.62 81.8019 283.542 81.4439 284.488 81.2169C285.431 80.9899 286.374 80.8479 287.314 80.7899C288.252 80.7309 289.134 80.6599 289.959 80.5769C290.782 80.4939 291.516 80.3479 292.163 80.1379C292.808 79.9279 293.321 79.5569 293.7 79.0239C294.386 78.0589 294.543 76.9779 294.173 75.7779C293.803 74.5789 292.945 73.5009 291.601 72.5449C289.442 71.0109 287.087 70.9619 284.538 72.3979C284.212 72.5869 283.93 72.7029 283.692 72.7429C283.452 72.7829 283.169 72.6859 282.839 72.4519L279.754 70.2589C279.526 70.0969 279.383 69.8809 279.326 69.6119C279.269 69.3409 279.332 69.0809 279.511 68.8269C280.167 67.9559 281.085 67.2419 282.265 66.6849C283.445 66.1279 284.738 65.7869 286.147 65.6609C287.554 65.5349 289.02 65.6489 290.543 66.0069C292.064 66.3629 293.499 67.0199 294.846 67.9769Z" fill="#6720FF"/>
<g opacity="0.6">
<path d="M280.992 90.6889C281.271 90.8879 281.44 91.1609 281.5 91.5079C281.558 91.8559 281.488 92.1689 281.29 92.4479L278.908 95.7989C278.709 96.0789 278.436 96.2479 278.089 96.3059C277.741 96.3659 277.428 96.2949 277.149 96.0969L273.875 93.7689C273.595 93.5699 273.427 93.2979 273.368 92.9509C273.308 92.6019 273.379 92.2899 273.578 92.0109L275.96 88.6589C276.158 88.3799 276.43 88.2109 276.779 88.1519C277.126 88.0929 277.438 88.1629 277.718 88.3619L280.992 90.6889ZM294.846 67.9769C296.038 68.8239 297.083 69.8149 297.978 70.9479C298.873 72.0819 299.53 73.2829 299.944 74.5519C300.36 75.8229 300.496 77.1219 300.352 78.4529C300.208 79.7849 299.695 81.0719 298.81 82.3159C298.088 83.3319 297.302 84.1009 296.454 84.6239C295.604 85.1479 294.72 85.5319 293.801 85.7759C292.881 86.0209 291.953 86.1829 291.019 86.2639C290.081 86.3429 289.196 86.4199 288.36 86.4939C287.524 86.5679 286.737 86.7069 286.002 86.9099C285.265 87.1119 284.66 87.4669 284.188 87.9709C283.938 88.2139 283.653 88.3729 283.331 88.4499C283.009 88.5269 282.709 88.4659 282.43 88.2669L279.535 86.2089C279.256 86.0109 279.08 85.7339 279.009 85.3769C278.938 85.0209 279.013 84.7119 279.237 84.4499C279.993 83.4959 280.819 82.7749 281.72 82.2879C282.62 81.8019 283.542 81.4439 284.488 81.2169C285.431 80.9899 286.374 80.8479 287.314 80.7899C288.252 80.7309 289.134 80.6599 289.959 80.5769C290.782 80.4939 291.516 80.3479 292.163 80.1379C292.808 79.9279 293.321 79.5569 293.7 79.0239C294.386 78.0589 294.543 76.9779 294.173 75.7779C293.803 74.5789 292.945 73.5009 291.601 72.5449C289.442 71.0109 287.087 70.9619 284.538 72.3979C284.212 72.5869 283.93 72.7029 283.692 72.7429C283.452 72.7829 283.169 72.6859 282.839 72.4519L279.754 70.2589C279.526 70.0969 279.383 69.8809 279.326 69.6119C279.269 69.3409 279.332 69.0809 279.511 68.8269C280.167 67.9559 281.085 67.2419 282.265 66.6849C283.445 66.1279 284.738 65.7869 286.147 65.6609C287.554 65.5349 289.02 65.6489 290.543 66.0069C292.064 66.3629 293.499 67.0199 294.846 67.9769Z" fill="white"/>
</g>
<path d="M206.527 179.212H171V93.1274C171 77.5604 183.62 64.9395 199.188 64.9395H202.471C218.039 64.9395 230.659 77.5594 230.659 93.1274V155.082C230.658 168.409 219.854 179.212 206.527 179.212Z" fill="#263238"/>
<path d="M167.546 386.44C167.254 388.602 166.633 391.126 166.517 397.244C166.393 403.802 165.188 406.13 165.028 411.513C164.846 417.663 165.908 419.965 168.404 423.421C170.9 426.878 177.45 430.015 180.218 424.171C183.02 418.258 182.63 414.501 181.745 408.467C180.83 402.23 180.714 398.785 180.183 394.028C179.716 389.835 179.156 386.65 179.156 386.65L167.546 386.44Z" fill="#263238"/>
<path d="M186.163 342.87L164.559 342.478C164.88 356.9 167.172 372.908 167.546 386.439C167.616 388.986 167.482 406.232 168.443 411.473C169.886 419.347 179.233 418.284 179.729 413.571C180.225 408.859 179.127 388.726 179.157 386.649C179.075 377.971 183.142 363.322 185.275 347.744C185.379 346.979 186.064 343.616 186.163 342.87Z" fill="#FFA8A7"/>
<path d="M213.916 375.217C213.916 375.217 213.063 374.759 212.887 375.669C212.678 376.752 212.366 378.984 211.916 380.762C211.291 383.233 210.771 387.303 211.146 389.316C211.521 391.329 216.215 393.921 219.262 394.857C223.758 396.237 226.843 398.492 229.306 400.81C232.324 403.651 238.837 406.334 243.272 406.302C248.52 406.264 252.179 404.554 253.908 401.744C255.714 398.809 252.332 398.593 246.334 394.702C244.972 393.818 243.422 392.819 241.678 391.68C232.176 385.473 228.697 382.147 226.009 375.939L213.916 375.217Z" fill="#263238"/>
<path d="M226.083 371.375C225.923 366.909 228.986 329.029 228.986 329.029L208.469 338.382C212.863 364.605 213.799 370.789 213.877 375.08C213.843 375.18 213.756 375.544 213.761 376.179C213.78 381.274 219.529 384.021 224.014 387.418C225.786 388.759 230.938 392.721 236.144 395.337C239.403 396.975 246.02 397.124 246.84 395.027C241.382 390.859 233.444 384.622 229.103 379.862C227.03 377.588 226.243 375.84 226.083 371.375Z" fill="#FFA8A7"/>
<path d="M173.41 202.157C165.534 219.455 165.534 232.831 166.836 254.901C168.03 275.146 169.934 292.968 169.934 292.968C169.629 296.561 164.636 303.571 163.99 319.446C163.386 334.288 165.012 353.155 165.012 353.155C165.012 353.155 176.22 359.367 184.508 353.101C184.508 353.101 192.505 314.912 194.849 296.334C196.894 280.121 200.448 259.405 200.448 259.405L207.976 296.246C207.976 296.246 205.112 305.329 204.442 312.248C203.383 323.176 209.495 344.634 209.495 344.634C209.495 344.634 221.076 348.09 228.149 341.818C228.149 341.818 230.794 306.93 231.781 293.765C233.103 276.137 230.323 228.414 228.148 203.15L173.41 202.157Z" fill="#455A64"/>
<path d="M200.449 259.405L203.561 231.673C203.561 231.673 217.502 229.81 223.817 223.873C223.817 223.873 219.072 232.567 207.391 234.254L202.892 260.059L207.978 296.246L200.449 259.405Z" fill="#263238"/>
<path d="M256.897 195.343C257.765 186.843 257.732 181.18 257.657 180.091C257.353 175.69 256.566 174.974 250.413 167.176C242.107 156.648 235.018 147.186 227.519 137.772C222.166 131.051 216.539 130.017 211.043 130.321C207.2 130.534 214.697 149.003 218.474 159.932L240.025 183.112C240.688 184.027 240.993 185.154 240.882 186.278L239.559 206.012L246.013 214.645C246.013 214.645 255.786 206.219 256.897 195.343Z" fill="#FFA8A7"/>
<path d="M190.279 130.919C186.111 131.206 178.531 131.873 178.531 131.873C174.157 134.314 173.052 136.315 172.238 142.124C171.892 144.595 173.906 151.189 175.636 160.557L178.919 177.931L178.563 186.547C176.859 191.804 173.004 198.339 169.609 207.971C186.305 217.289 200.308 217.634 213.007 216.004C222.691 214.761 227.815 212.417 229.523 210.103C229.167 200.587 228.494 194.712 228.329 184.77C228.26 180.594 228.511 176.381 228.673 171.575C235.17 166.238 235.244 157.363 231.7 151.626C223.467 138.297 215.462 129.905 210.16 130.335L190.279 130.919Z" fill="#6720FF"/>
<path opacity="0.6" d="M190.279 130.919C186.111 131.206 178.531 131.873 178.531 131.873C174.157 134.314 173.052 136.315 172.238 142.124C171.892 144.595 173.906 151.189 175.636 160.557L178.919 177.931L178.563 186.547C176.859 191.804 173.004 198.339 169.609 207.971C186.305 217.289 200.308 217.634 213.007 216.004C222.691 214.761 227.815 212.417 229.523 210.103C229.167 200.587 228.494 194.712 228.329 184.77C228.26 180.594 228.511 176.381 228.673 171.575C235.17 166.238 235.244 157.363 231.7 151.626C223.467 138.297 215.462 129.905 210.16 130.335L190.279 130.919Z" fill="white"/>
<path opacity="0.1" d="M215.751 171.72C215.751 171.72 208.125 177.638 199.422 174.552C190.72 171.466 189.449 163.858 189.449 163.858C189.449 163.858 188.525 173.807 199.503 177.2C210.098 180.473 215.751 171.72 215.751 171.72Z" fill="black"/>
<path d="M226.092 103.61C225.764 118.047 221.078 121.616 218.73 122.641C216.382 123.666 211.849 123.041 207.451 122.313V130.977C207.451 130.977 212.527 136.299 212.147 140.267C211.758 144.245 204.17 144.686 198.469 140.8C194.308 137.966 191.336 134.726 190.039 133.189C189.567 132.63 189.312 131.928 189.312 131.196V110.808C189.312 110.808 186.902 113.361 182.637 110.439C178.382 107.527 178.013 102.092 180.617 99.0158C182.473 96.8318 187.19 96.6778 189.456 100.072C190.727 102.564 190.902 105.066 192.327 104.03C196.131 101.292 194.091 95.0678 198.684 91.9918C198.694 91.9918 198.694 91.9818 198.704 91.9818C200.078 91.2438 201.637 90.5458 203.38 89.9408C211.573 87.1108 218.669 84.7318 220.381 79.1328C223.61 81.0508 226.492 86.5778 226.092 103.61Z" fill="#FFA8A7"/>
<path d="M209.942 116.509C210.989 116.509 211.837 115.661 211.837 114.614C211.837 113.567 210.989 112.719 209.942 112.719C208.896 112.719 208.047 113.567 208.047 114.614C208.047 115.661 208.896 116.509 209.942 116.509Z" fill="#B16668"/>
<path d="M208.675 101.421C208.733 102.566 207.886 103.535 206.785 103.588C205.683 103.64 204.744 102.755 204.686 101.61C204.629 100.466 205.475 99.4955 206.577 99.4425C207.678 99.3915 208.618 100.277 208.675 101.421Z" fill="#263238"/>
<path d="M223.829 101.618C223.882 102.658 223.112 103.54 222.11 103.587C221.009 103.639 220.26 102.934 220.202 101.79C220.15 100.75 220.919 99.8683 221.921 99.8203C222.923 99.7733 223.777 100.578 223.829 101.618Z" fill="#263238"/>
<path d="M206.109 106.562C202.523 106.562 199.605 103.644 199.605 100.058C199.605 95.6357 204.162 95.6357 206.109 95.6357C208.056 95.6357 212.613 95.6357 212.613 100.058C212.613 103.645 209.695 106.562 206.109 106.562ZM206.109 96.6617C202.167 96.6617 200.631 97.6137 200.631 100.059C200.631 103.08 203.088 105.537 206.109 105.537C209.13 105.537 211.587 103.08 211.587 100.059C211.587 97.6137 210.051 96.6617 206.109 96.6617Z" fill="#455A64"/>
<path d="M222.617 106.562C219.031 106.562 216.113 103.644 216.113 100.058C216.113 95.6357 220.67 95.6357 222.617 95.6357C224.564 95.6357 229.121 95.6357 229.121 100.058C229.121 103.645 226.203 106.562 222.617 106.562ZM222.617 96.6617C218.675 96.6617 217.139 97.6137 217.139 100.059C217.139 103.08 219.596 105.537 222.617 105.537C225.638 105.537 228.095 103.08 228.095 100.059C228.095 97.6137 226.559 96.6617 222.617 96.6617Z" fill="#455A64"/>
<path d="M213.621 97.9619L213.941 110.108L220.334 108.127L213.621 97.9619Z" fill="#F28F8F"/>
<path d="M207.445 122.31C202.802 121.701 193.25 118.957 191.762 115.181C191.762 115.181 192.258 117.554 195.111 120C197.964 122.445 207.445 125.201 207.445 125.201V122.31Z" fill="#F28F8F"/>
<path d="M207.667 92.0641L203.431 94.6461C202.737 93.4271 203.123 91.8611 204.293 91.1481C205.463 90.4351 206.974 90.8451 207.667 92.0641Z" fill="#263238"/>
<path d="M224.922 94.943L220.203 93.295C220.613 91.964 222.001 91.255 223.304 91.71C224.607 92.164 225.331 93.612 224.922 94.943Z" fill="#263238"/>
<path d="M212.098 100.576C211.815 100.576 211.586 100.342 211.586 100.058C211.586 99.2265 213.232 98.6885 214.709 98.6885C216.186 98.6885 217.14 99.2265 217.14 100.058C217.14 100.341 216.911 100.571 216.627 100.571C216.344 100.571 216.114 100.342 216.114 100.058C216.068 99.9645 215.595 99.7145 214.708 99.7145C213.821 99.7145 212.657 99.9645 212.609 100.067C212.61 100.351 212.381 100.576 212.098 100.576Z" fill="#455A64"/>
<path d="M200.132 100.143C200.113 100.143 200.094 100.142 200.074 100.14L188.643 99.0988C188.438 98.9088 187.897 98.3498 186.77 97.8828L200.188 99.1208C200.469 99.1518 200.672 99.4058 200.641 99.6878C200.611 99.9488 200.389 100.143 200.132 100.143Z" fill="#455A64"/>
<path d="M153.203 112.056C156.941 107.062 159.49 103.288 162.902 99.0065C164.839 96.5755 166.078 94.8405 167.942 92.3465C169.225 90.6295 169.977 89.1815 171.399 88.6495C172.999 88.0505 174.542 86.8665 175.571 85.7855C176.306 85.0125 176.908 84.1255 177.544 83.2685C179.68 80.3895 182.232 77.8195 185.095 75.6625C188.104 73.3955 191.447 71.6665 194.534 69.5065C196.376 68.2175 198.351 66.0765 196.109 64.0785C195.44 63.4815 194.59 63.1255 193.714 62.9345C188.273 61.7455 183.525 63.6215 178.203 64.9825C175.89 65.5735 173.614 66.3145 171.426 67.2715C170.364 67.7355 169.305 68.2405 168.425 68.9935C167.053 70.1675 166.232 71.8385 165.341 73.4075C162.948 77.6235 157.991 81.3435 154.502 84.6255C150.409 88.4755 146.751 92.0055 142.082 96.2535C137.88 100.077 133.769 103.602 129.915 107.777C126.727 111.231 127.887 113.933 128.341 114.866C130.939 120.21 133.848 122.126 137.323 125.436C143.342 131.17 164.074 147.664 170.952 153.108C172.424 154.273 173.58 155.784 174.323 157.508L175.636 160.558C183.476 162.001 188.707 150.23 182.214 136.057C181.161 133.758 179.49 131.801 177.447 130.311C169.264 124.341 153.203 112.056 153.203 112.056Z" fill="#FFA8A7"/>
<path d="M153.203 112.056C153.203 112.056 149.658 116.795 143.621 118.651C143.621 118.651 148.622 119.927 155.467 113.784L153.203 112.056Z" fill="#F28F8F"/>
<path d="M254.861 184.908L254.887 184.911L253.605 183.806L253.604 183.822C253.315 183.59 252.866 183.517 252.286 183.675L238.401 187.452C237.114 187.802 235.717 189.107 235.281 190.367L225.289 219.196C225.058 219.864 225.15 220.379 225.473 220.669L225.462 220.673L226.784 221.812L226.783 221.795C227.071 222.035 227.525 222.112 228.114 221.952L241.999 218.176C243.286 217.826 244.683 216.52 245.119 215.26C247.082 209.593 253.15 192.096 255.112 186.43C255.358 185.719 255.236 185.185 254.861 184.908Z" fill="#455A64"/>
<path d="M226.572 220.303L236.564 191.474C237 190.214 238.397 188.909 239.684 188.559L253.569 184.783C254.856 184.433 255.545 185.171 255.109 186.431C253.147 192.097 247.079 209.594 245.117 215.261C244.681 216.521 243.283 217.827 241.997 218.177L228.112 221.953C226.825 222.301 226.136 221.563 226.572 220.303Z" fill="#6720FF"/>
<path d="M238.175 189.359C237.452 189.93 236.83 190.716 236.564 191.477L226.569 220.297C226.353 220.944 226.417 221.451 226.708 221.743L225.465 220.677L225.478 220.664C225.148 220.372 225.059 219.865 225.288 219.193L235.283 190.36C235.524 189.65 236.095 188.927 236.767 188.356L238.175 189.359Z" fill="#37474F"/>
<path d="M251.047 198.045C250.068 200.982 246.579 202.941 240.844 204.3C235.109 205.659 231.932 211.749 232.858 213.602C233.785 215.455 243.052 217.176 246.759 216.647C250.466 216.117 254.195 210.759 255.317 209.101C256.439 207.443 257.747 195.862 256.556 194.274C255.364 192.685 252.861 192.929 252.861 192.929L251.047 198.045Z" fill="#F28F8F"/>
</svg>
