<?xml version="1.0" encoding="UTF-8"?>
<svg xmlns="http://www.w3.org/2000/svg" xmlns:xlink="http://www.w3.org/1999/xlink" width="95px" height="70px" viewBox="0 0 95 70" version="1.1">
<defs>
<filter id="alpha" filterUnits="objectBoundingBox" x="0%" y="0%" width="100%" height="100%">
  <feColorMatrix type="matrix" in="SourceGraphic" values="0 0 0 0 1 0 0 0 0 1 0 0 0 0 1 0 0 0 1 0"/>
</filter>
<mask id="mask0">
  <g filter="url(#alpha)">
<rect x="0" y="0" width="95" height="70" style="fill:rgb(0%,0%,0%);fill-opacity:0.956863;stroke:none;"/>
  </g>
</mask>
<clipPath id="clip1">
  <rect x="0" y="0" width="95" height="70"/>
</clipPath>
<g id="surface5" clip-path="url(#clip1)">
<path style=" stroke:none;fill-rule:evenodd;fill:rgb(89.019608%,83.137255%,100%);fill-opacity:1;" d="M 29.070312 8.75 C 40.722656 8.683594 52.378906 8.75 64.03125 8.945312 C 71.640625 10.601562 77.023438 15.074219 80.179688 22.359375 C 81.820312 28.550781 83.339844 34.773438 84.738281 41.027344 C 86.601562 49.863281 83.496094 56.019531 75.429688 59.5 C 70.402344 60.929688 65.84375 60.023438 61.75 56.777344 C 59.378906 53.734375 57.097656 50.625 54.910156 47.445312 C 49.464844 47.183594 44.015625 47.183594 38.570312 47.445312 C 36.726562 49.722656 35.015625 52.121094 33.441406 54.640625 C 28.488281 60.132812 22.597656 61.496094 15.769531 58.722656 C 10.761719 55.933594 8.101562 51.589844 7.789062 45.695312 C 9.167969 37.546875 11.003906 29.511719 13.300781 21.582031 C 16.675781 14.839844 21.933594 10.5625 29.070312 8.75 Z M 30.210938 13.417969 C 41.105469 13.351562 51.996094 13.417969 62.890625 13.609375 C 70.832031 15.386719 75.582031 20.378906 77.140625 28.582031 C 78.441406 34.207031 79.644531 39.84375 80.75 45.5 C 79.835938 52.519531 75.910156 55.757812 68.96875 55.222656 C 67.242188 54.855469 65.722656 54.078125 64.410156 52.890625 C 62.78125 50.523438 61.195312 48.125 59.660156 45.695312 C 58.820312 44.707031 57.871094 43.863281 56.808594 43.167969 C 50.097656 42.90625 43.382812 42.90625 36.671875 43.167969 C 35.679688 43.511719 34.859375 44.09375 34.199219 44.917969 C 32.402344 48.050781 30.3125 50.96875 27.929688 53.667969 C 22.207031 56.859375 17.457031 55.757812 13.679688 50.359375 C 12.902344 48.84375 12.457031 47.222656 12.351562 45.5 C 13.84375 38.546875 15.425781 31.609375 17.101562 24.695312 C 19.699219 18.726562 24.070312 14.964844 30.210938 13.417969 Z M 30.210938 13.417969 "/>
</g>
<mask id="mask1">
  <g filter="url(#alpha)">
<rect x="0" y="0" width="95" height="70" style="fill:rgb(0%,0%,0%);fill-opacity:0.952941;stroke:none;"/>
  </g>
</mask>
<clipPath id="clip2">
  <rect x="0" y="0" width="95" height="70"/>
</clipPath>
<g id="surface8" clip-path="url(#clip2)">
<path style=" stroke:none;fill-rule:evenodd;fill:rgb(89.019608%,83.137255%,100%);fill-opacity:1;" d="M 64.03125 20.027344 C 67.46875 20.191406 68.800781 22.003906 68.019531 25.472656 C 65.914062 28.039062 63.761719 28.039062 61.558594 25.472656 C 60.703125 22.78125 61.527344 20.964844 64.03125 20.027344 Z M 64.03125 20.027344 "/>
</g>
<mask id="mask2">
  <g filter="url(#alpha)">
<rect x="0" y="0" width="95" height="70" style="fill:rgb(0%,0%,0%);fill-opacity:0.968627;stroke:none;"/>
  </g>
</mask>
<clipPath id="clip3">
  <rect x="0" y="0" width="95" height="70"/>
</clipPath>
<g id="surface11" clip-path="url(#clip3)">
<path style=" stroke:none;fill-rule:evenodd;fill:rgb(88.627451%,82.745098%,100%);fill-opacity:1;" d="M 27.171875 22.75 C 28.941406 22.75 30.714844 22.75 32.488281 22.75 C 32.488281 24.695312 32.488281 26.640625 32.488281 28.582031 C 34.390625 28.582031 36.289062 28.582031 38.191406 28.582031 C 38.191406 30.398438 38.191406 32.214844 38.191406 34.027344 C 36.289062 34.027344 34.390625 34.027344 32.488281 34.027344 C 32.488281 35.972656 32.488281 37.917969 32.488281 39.859375 C 30.714844 39.859375 28.941406 39.859375 27.171875 39.859375 C 27.171875 37.917969 27.171875 35.972656 27.171875 34.027344 C 25.269531 34.027344 23.371094 34.027344 21.46875 34.027344 C 21.46875 32.214844 21.46875 30.398438 21.46875 28.582031 C 23.371094 28.582031 25.269531 28.582031 27.171875 28.582031 C 27.171875 26.640625 27.171875 24.695312 27.171875 22.75 Z M 27.171875 22.75 "/>
</g>
<mask id="mask3">
  <g filter="url(#alpha)">
<rect x="0" y="0" width="95" height="70" style="fill:rgb(0%,0%,0%);fill-opacity:0.960784;stroke:none;"/>
  </g>
</mask>
<clipPath id="clip4">
  <rect x="0" y="0" width="95" height="70"/>
</clipPath>
<g id="surface14" clip-path="url(#clip4)">
<path style=" stroke:none;fill-rule:evenodd;fill:rgb(89.019608%,83.137255%,100%);fill-opacity:1;" d="M 57.570312 26.25 C 61.445312 26.011719 62.902344 27.828125 61.941406 31.695312 C 59.835938 34.261719 57.679688 34.261719 55.480469 31.695312 C 54.730469 29.234375 55.425781 27.421875 57.570312 26.25 Z M 57.570312 26.25 "/>
</g>
<mask id="mask4">
  <g filter="url(#alpha)">
<rect x="0" y="0" width="95" height="70" style="fill:rgb(0%,0%,0%);fill-opacity:0.960784;stroke:none;"/>
  </g>
</mask>
<clipPath id="clip5">
  <rect x="0" y="0" width="95" height="70"/>
</clipPath>
<g id="surface17" clip-path="url(#clip5)">
<path style=" stroke:none;fill-rule:evenodd;fill:rgb(89.019608%,83.137255%,100%);fill-opacity:1;" d="M 69.730469 26.25 C 73.429688 26.171875 74.886719 27.988281 74.101562 31.695312 C 71.964844 34.28125 69.8125 34.28125 67.640625 31.695312 C 66.890625 29.234375 67.585938 27.421875 69.730469 26.25 Z M 69.730469 26.25 "/>
</g>
<mask id="mask5">
  <g filter="url(#alpha)">
<rect x="0" y="0" width="95" height="70" style="fill:rgb(0%,0%,0%);fill-opacity:0.964706;stroke:none;"/>
  </g>
</mask>
<clipPath id="clip6">
  <rect x="0" y="0" width="95" height="70"/>
</clipPath>
<g id="surface20" clip-path="url(#clip6)">
<path style=" stroke:none;fill-rule:evenodd;fill:rgb(89.019608%,83.137255%,100%);fill-opacity:1;" d="M 63.648438 32.472656 C 67.527344 32.234375 68.984375 34.050781 68.019531 37.917969 C 65.886719 40.503906 63.730469 40.503906 61.558594 37.917969 C 60.808594 35.457031 61.507812 33.644531 63.648438 32.472656 Z M 63.648438 32.472656 "/>
</g>
</defs>
<g id="surface1">
<use xlink:href="#surface5" mask="url(#mask0)"/>
<use xlink:href="#surface8" mask="url(#mask1)"/>
<use xlink:href="#surface11" mask="url(#mask2)"/>
<use xlink:href="#surface14" mask="url(#mask3)"/>
<use xlink:href="#surface17" mask="url(#mask4)"/>
<use xlink:href="#surface20" mask="url(#mask5)"/>
</g>
</svg>
