<!-- <?xml version="1.0" encoding="utf-8"?> -->
<!-- Generator: Adobe Illustrator 25.4.1, SVG Export Plug-In . SVG Version: 6.00 Build 0)  -->
<svg version="1.1" id="lightSVG" xmlns="http://www.w3.org/2000/svg" xmlns:xlink="http://www.w3.org/1999/xlink" style="trasform:scaleX(-1);">
<style type="text/css">
	.st0{filter:url(#white-glow);}
	.st1{fill:#F8FFE8;}
	.st2{opacity:0.7;fill:#FFFFFF;enable-background:new    ;}
	.st3{opacity:0.2;}
	.st4{fill:#3A7199;stroke:#265D85;stroke-width:2.5;stroke-linecap:round;stroke-linejoin:round;stroke-miterlimit:10;}
	.st5{fill:#67B1E0;stroke:#265D85;stroke-width:2.5;stroke-linecap:round;stroke-linejoin:round;stroke-miterlimit:10;}
</style>
<filter  id="white-glow">
	<feFlood  flood-color="#ffffff" flood-opacity=".6" result="flood"></feFlood>
	<feComposite  in="flood" in2="SourceGraphic" operator="in" result="mask"></feComposite>
	<feMorphology  in="mask" operator="dilate" radius="3" result="dilated"></feMorphology>
	<feGaussianBlur  in="dilated" result="blurred" stdDeviation="8"></feGaussianBlur>
	<feMerge>
		<feMergeNode  in="blurred"></feMergeNode>
		<feMergeNode  in="SourceGraphic"></feMergeNode>
	</feMerge>
</filter>
<g id="light">
	<g class="st0">
		<path class="st1" d="M30.5,0.4C25.3-1.2,16.9,2.5,9.9,8.7C2.2,15.5-1.5,25.5,0.6,30.8L329.3,1506h1534V556L30.5,0.4z"/>
	</g>
	<path class="st2" d="M9.9,8.7C1.7,16-2,26.9,1.1,31.8c2.6,4.1,13.6-1.1,21.8-8.4S36.5,5.3,32.8,1.8C28.4-2.4,18.1,1.4,9.9,8.7z"/>
</g>
<g id="four04">
	<g id="lettersShadow" class="st3">
		<path d="M139.2,185.6l18,27.4l-30.7,27.2l13.2,15.2l74,22.3l26.7-11L213.5,236l7.1-10.8L205.7,207l-15.5-3.8l-16.3-22.3
			L139.2,185.6z"/>
		<path d="M195.8,220.5c0,0,37,79.2,104.2,53.5c52.2-20-41-64-50.3-68.9s-45.4,4.1-45.4,4.1L195.8,220.5L195.8,220.5z"/>
		<path d="M281.7,248.6l18.2,25.4l-12.1,29.9l13.1,15.2l96.2,16.1l28.6-14.5L390,295.5l11.3-7.1l-22.7-22.2l-19.1,0.4l-42.6-18
			L281.7,248.6z"/>
	</g>
	<path class="st4" d="M160.4,130.9l-10.6,3.5l9.1,0.5l11.4-3.8L160.4,130.9z M131.5,163.4l7.4,22.3l8.3,4.4l-7.9-24L131.5,163.4z
		 M128,131.6c-0.1-0.5-0.3-0.9-0.5-1.4s-0.3-1-0.5-1.5s-0.3-1-0.5-1.6s-0.3-1.1-0.5-1.6s-0.3-1.1-0.5-1.7c-0.2-0.6-0.3-1.1-0.5-1.7
		c-0.2-0.6-0.3-1.1-0.5-1.7c-0.2-0.6-0.3-1.2-0.5-1.7c-0.2-0.6-0.3-1.2-0.5-1.7c-0.2-0.6-0.3-1.2-0.5-1.7c-0.2-0.6-0.3-1.1-0.5-1.7
		c-0.2-0.6-0.3-1.1-0.5-1.7s-0.3-1.1-0.5-1.7c-0.1-0.5-0.3-1.1-0.4-1.6c-0.1-0.5-0.3-1-0.4-1.5c-0.1-0.5-0.3-1-0.4-1.4l-6.4,1.6
		c0.1,0.4,0.2,0.9,0.4,1.3c0.1,0.5,0.2,0.9,0.4,1.4c0.1,0.5,0.3,1,0.4,1.5s0.3,1,0.4,1.5c0.1,0.5,0.3,1.1,0.4,1.6s0.3,1.1,0.4,1.6
		c0.1,0.5,0.3,1.1,0.4,1.6c0.1,0.5,0.3,1.1,0.4,1.6c0.1,0.5,0.3,1.1,0.4,1.6c0.1,0.5,0.3,1.1,0.5,1.6s0.3,1.1,0.5,1.6s0.3,1,0.5,1.6
		c0.2,0.5,0.3,1,0.5,1.5s0.3,1,0.4,1.4s0.3,0.9,0.4,1.4c0.1,0.4,0.3,0.9,0.4,1.3l3.7,11.4l-17,5.7l5.9,1.6l18.3-6.2L128,131.6
		L128,131.6z M97.4,88l-14.8,70.7l6.3,19.1l4.5,3.9l-6.8-20.6l15.9-76.2L97.4,88z"/>
	<path class="st5" d="M158.9,134.9l11.4-3.8l7.1,22l-11.3,3.9l7.8,24l-26.8,9.2l-7.9-24.1l-45.8,15.6l-6.8-20.6l15.9-76.2l36.4-11.8
		L158.9,134.9z M122.3,111.8c-0.2-0.6-0.3-1.1-0.5-1.7c-0.1-0.5-0.3-1.1-0.4-1.6c-0.1-0.5-0.3-1-0.4-1.5c-0.1-0.5-0.3-1-0.4-1.4
		l-0.7,0.2c-0.1,0.9-0.1,1.9-0.2,2.8c-0.1,0.9-0.2,1.9-0.2,2.8c-0.1,0.9-0.2,1.9-0.3,2.8c-0.1,0.9-0.2,1.9-0.3,2.8
		c-0.1,0.9-0.2,1.8-0.3,2.8c-0.1,0.9-0.2,1.9-0.3,2.8c-0.1,0.9-0.2,1.9-0.4,2.8c-0.1,1-0.2,1.9-0.4,2.9l-3.8,21.8l18.3-6.2l-4-12.3
		c-0.1-0.5-0.3-0.9-0.5-1.4s-0.3-1-0.5-1.5s-0.3-1-0.5-1.6c-0.2-0.5-0.3-1.1-0.5-1.6c-0.2-0.6-0.3-1.1-0.5-1.7
		c-0.2-0.6-0.3-1.1-0.5-1.7c-0.2-0.6-0.3-1.1-0.5-1.7c-0.2-0.6-0.3-1.2-0.5-1.7c-0.2-0.6-0.3-1.2-0.5-1.7c-0.2-0.6-0.3-1.2-0.5-1.7
		c-0.2-0.6-0.3-1.1-0.5-1.7C122.6,113,122.4,112.4,122.3,111.8"/>
	<path class="st4" d="M231.9,149.4l-0.3-3.3c-0.1-1-0.2-2-0.4-2.9c-0.2-0.9-0.3-1.7-0.5-2.5s-0.4-1.5-0.6-2.2s-0.5-1.3-0.8-1.8
		l-0.9-1.5c-0.3-0.4-0.6-0.8-1-1.2c-0.3-0.3-0.7-0.6-1.1-0.9l-1.2-0.6c-0.4-0.2-0.8-0.3-1.2-0.5s-0.8-0.3-1.3-0.3
		c-0.4-0.1-0.9-0.2-1.3-0.2h-8.5h1.2c0.4,0,0.8,0.1,1.2,0.2l1.2,0.3c0.4,0.1,0.8,0.3,1.1,0.5c0.4,0.2,0.7,0.4,1.1,0.6
		c0.4,0.2,0.7,0.5,1,0.8s0.6,0.7,0.9,1.1c0.3,0.4,0.6,0.9,0.8,1.4c0.3,0.5,0.5,1.1,0.7,1.7s0.4,1.3,0.6,2c0.2,0.7,0.3,1.5,0.5,2.3
		c0.1,0.8,0.3,1.7,0.4,2.7c0.1,1,0.2,2,0.2,3c0.1,1.1,0.1,2.2,0.1,3.5c0,1.2,0,2.6-0.1,4s-0.1,2.9-0.2,4.5s-0.2,3.2-0.4,5
		c-0.2,1.7-0.3,3.4-0.5,5s-0.4,3.1-0.6,4.5c-0.2,1.4-0.4,2.7-0.7,3.9c-0.2,1.2-0.5,2.4-0.8,3.4c-0.3,1.1-0.5,2.1-0.8,3
		s-0.6,1.8-0.9,2.6c-0.3,0.8-0.6,1.6-0.9,2.3c-0.3,0.7-0.6,1.3-1,1.9c-0.2,0.3-0.3,0.5-0.5,0.8c-0.1,0.1-0.1,0.2-0.2,0.2
		c-0.1,0.2-0.2,0.3-0.3,0.5c-0.1,0.1-0.1,0.2-0.2,0.3c-0.1,0.1-0.2,0.3-0.3,0.4s-0.1,0.2-0.2,0.3l-0.3,0.3l-0.2,0.2l-0.3,0.3
		c-0.1,0.1-0.2,0.1-0.2,0.2c-0.1,0.1-0.2,0.2-0.3,0.2c-0.1,0.1-0.2,0.1-0.2,0.2c-0.1,0.1-0.2,0.1-0.3,0.2c-0.1,0-0.2,0.1-0.2,0.1
		c-0.2,0.1-0.3,0.2-0.5,0.3c-0.4,0.2-0.8,0.3-1.2,0.4s-0.8,0.2-1.1,0.3h-0.1c-0.4,0.1-0.8,0.1-1.1,0.1h-1.3c-0.4,0-0.8-0.1-1.2-0.2
		h-0.1c-0.4-0.1-0.7-0.2-1.1-0.3c-0.4-0.1-0.7-0.3-1.1-0.5c-0.4-0.2-0.7-0.4-1.1-0.6h-0.1h-0.1H203h-0.1l6.5,4.9h0.4
		c0.2,0.1,0.4,0.2,0.6,0.4l0.6,0.3c0.2,0.1,0.4,0.2,0.5,0.3c0.2,0.1,0.4,0.2,0.6,0.2c0.2,0.1,0.4,0.1,0.5,0.2
		c0.2,0.1,0.4,0.1,0.6,0.2c0.2,0,0.3,0.1,0.5,0.1s0.4,0.1,0.6,0.1h1.9c0.2,0,0.3,0,0.5-0.1h0.4c0.2,0,0.3-0.1,0.5-0.1
		s0.3-0.1,0.5-0.1h0.1c0.1,0,0.1,0,0.2-0.1c0.1,0,0.2-0.1,0.4-0.1s0.2-0.1,0.3-0.1s0.2-0.1,0.3-0.2h0.1c0,0,0.1,0,0.1-0.1
		c0,0,0.1,0,0.1-0.1c0,0,0.1,0,0.1-0.1c0,0,0.1,0,0.1-0.1c0.1,0,0.2-0.1,0.3-0.2s0.2-0.1,0.3-0.2l0.1-0.1l0.1-0.1
		c0.1,0,0.1-0.1,0.2-0.1s0.1-0.1,0.2-0.1c0.1-0.1,0.2-0.1,0.2-0.2l0.3-0.3c0.1-0.1,0.1-0.1,0.2-0.1l0.1-0.1l0.1-0.1
		c0.1-0.1,0.1-0.2,0.2-0.3c0.1-0.1,0.2-0.2,0.2-0.3c0.1-0.1,0.2-0.3,0.3-0.4l0.2-0.2V198v-0.1c0.1-0.1,0.2-0.3,0.3-0.5
		c0.1-0.1,0.1-0.2,0.2-0.3c0.2-0.3,0.3-0.6,0.5-0.9c0.4-0.6,0.7-1.3,1-2.1c0.3-0.8,0.7-1.6,1-2.5s0.6-1.8,0.9-2.9
		c0.3-1,0.6-2.1,0.9-3.2s0.6-2.4,0.8-3.7s0.5-2.7,0.7-4.3c0.2-1.5,0.5-3.1,0.7-4.8c0.2-1.7,0.4-3.5,0.6-5.3c0.2-1.9,0.3-3.7,0.4-5.4
		c0.1-1.7,0.2-3.3,0.3-4.8c0.1-1.5,0.1-2.9,0.1-4.3C232,151.8,232,150.6,231.9,149.4L231.9,149.4z M193.7,117.7
		c0.4-0.4,0.8-0.7,1.2-1.1c0.1-0.1,0.2-0.2,0.4-0.3l1.5-1.2c0.1-0.1,0.2-0.2,0.3-0.2c0.4-0.3,0.8-0.6,1.3-0.9
		c0.2-0.1,0.3-0.2,0.5-0.3l1.5-0.9c0.1,0,0.1-0.1,0.2-0.1c0.6-0.3,1.1-0.6,1.7-0.9c0.1-0.1,0.2-0.1,0.3-0.2c0.6-0.3,1.1-0.5,1.7-0.8
		c0.1,0,0.2-0.1,0.2-0.1c0.6-0.3,1.2-0.5,1.8-0.7c0.3-0.1,0.5-0.2,0.8-0.3c0.1,0,0.1,0,0.2-0.1c0.2-0.1,0.5-0.2,0.7-0.2h0.1
		c0.3-0.1,0.6-0.2,0.9-0.2c0.3-0.1,0.6-0.2,0.9-0.2l-6.6,1.6c-0.1,0-0.2,0-0.3,0.1c-0.1,0-0.2,0-0.3,0.1c-0.1,0-0.2,0-0.3,0.1
		c-0.1,0-0.1,0-0.2,0.1c-0.2,0.1-0.4,0.1-0.6,0.2h-0.1c-0.1,0-0.3,0.1-0.4,0.1c-0.1,0-0.1,0-0.2,0.1h-0.1h-0.1c-0.1,0-0.1,0-0.2,0.1
		c-0.2,0.1-0.4,0.1-0.6,0.2c-0.3,0.1-0.7,0.3-1,0.4c-0.2,0.1-0.4,0.2-0.7,0.3c-0.1,0-0.1,0.1-0.2,0.1c0,0-0.1,0-0.1,0.1
		c-0.3,0.2-0.7,0.3-1,0.5c-0.1,0.1-0.3,0.1-0.4,0.2c0,0-0.1,0-0.1,0.1c0,0-0.1,0-0.1,0.1c-0.1,0.1-0.2,0.1-0.3,0.2
		c-0.4,0.2-0.9,0.5-1.3,0.7c-0.1,0-0.1,0.1-0.2,0.1c-0.3,0.2-0.7,0.4-1,0.6c-0.1,0.1-0.2,0.2-0.3,0.2s-0.1,0.1-0.2,0.1
		c-0.1,0.1-0.2,0.1-0.2,0.2c-0.4,0.3-0.8,0.6-1.2,0.8c-0.1,0.1-0.2,0.2-0.3,0.2l-0.1,0.1c-0.4,0.3-0.9,0.7-1.3,1.1l-0.1,0.1
		c-0.1,0.1-0.2,0.1-0.2,0.2l-0.6,0.6c-0.2,0.1-0.3,0.3-0.4,0.4c-0.1,0.1-0.3,0.2-0.4,0.4c-0.5,0.4-0.9,0.9-1.3,1.4
		c-1,1-1.9,2.2-2.8,3.4c-0.9,1.2-1.7,2.5-2.6,3.8c-0.8,1.4-1.6,2.8-2.3,4.3s-1.4,3.1-2,4.8c-0.6,1.7-1.2,3.4-1.7,5.2
		c-0.5,1.8-1,3.7-1.4,5.7s-0.8,4-1.1,6.1s-0.6,4.3-0.8,6.6c-0.2,2.3-0.4,4.5-0.4,6.6c-0.1,2.1-0.1,4.2,0,6.2s0.2,4,0.3,5.9
		c0.2,1.9,0.4,3.7,0.7,5.5s0.7,3.5,1.1,5.1c0.4,1.6,0.9,3.2,1.4,4.7s1.1,2.9,1.8,4.3s1.4,2.7,2.1,3.9c0.3,0.4,0.5,0.8,0.8,1.2
		c0.3,0.4,0.5,0.8,0.8,1.2s0.6,0.8,0.8,1.1c0.3,0.4,0.6,0.7,0.9,1.1l4.9,5.8l-0.9-1.2l-0.9-1.2c-0.3-0.4-0.6-0.8-0.9-1.3
		c-0.3-0.4-0.6-0.9-0.8-1.3c-0.8-1.3-1.6-2.7-2.3-4.2s-1.3-3-1.9-4.6c-0.6-1.6-1.1-3.3-1.6-5.1c-0.5-1.8-0.9-3.6-1.2-5.5
		s-0.6-3.9-0.8-5.9s-0.3-4.1-0.4-6.3c-0.1-2.2,0-4.4,0-6.7c0.1-2.3,0.2-4.7,0.5-7.1c0.2-2.4,0.5-4.8,0.9-7.1
		c0.3-2.3,0.7-4.5,1.2-6.6s1-4.2,1.5-6.1c0.6-2,1.2-3.8,1.9-5.7c0.7-1.8,1.4-3.5,2.2-5.2c0.8-1.6,1.6-3.2,2.5-4.7s1.8-2.8,2.8-4.1
		s2-2.5,3-3.6c0.5-0.5,1-1,1.4-1.5C193.4,117.9,193.6,117.8,193.7,117.7L193.7,117.7z"/>
	<path class="st5" d="M259.2,144.6c0.3,1.9,0.6,3.8,0.8,5.8c0.2,2,0.3,4.1,0.3,6.2s0,4.3-0.1,6.6s-0.3,4.6-0.5,7s-0.5,4.7-0.9,7
		c-0.3,2.2-0.7,4.4-1.2,6.5s-1,4.1-1.5,6c-0.6,1.9-1.2,3.8-1.9,5.6c-0.7,1.8-1.4,3.5-2.2,5.1c-0.8,1.6-1.6,3.2-2.4,4.7
		c-0.9,1.5-1.8,2.9-2.7,4.2c-0.9,1.3-1.9,2.6-3,3.7c-1,1.2-2.1,2.3-3.2,3.3s-2.3,1.9-3.5,2.8s-2.4,1.6-3.7,2.3
		c-1.3,0.7-2.6,1.3-3.9,1.8s-2.7,1-4.1,1.4s-2.8,0.7-4.2,0.9c-1.4,0.2-2.9,0.3-4.4,0.4c-1.5,0-3,0-4.5-0.1c-1.6-0.1-3.1-0.3-4.6-0.6
		c-1.5-0.3-2.9-0.6-4.3-1.1c-1.4-0.4-2.7-0.9-4-1.5s-2.6-1.3-3.8-2s-2.4-1.6-3.5-2.4c-1.1-0.9-2.2-1.9-3.2-2.9s-2-2.1-2.9-3.3
		c-0.9-1.2-1.8-2.4-2.6-3.8c-0.8-1.3-1.6-2.7-2.3-4.2s-1.3-3-1.9-4.6c-0.6-1.6-1.1-3.3-1.6-5.1c-0.5-1.8-0.9-3.6-1.2-5.5
		s-0.6-3.9-0.8-5.9s-0.3-4.1-0.4-6.3c-0.1-2.2,0-4.4,0-6.7c0.1-2.3,0.2-4.7,0.5-7.1c0.2-2.4,0.5-4.8,0.9-7.1
		c0.3-2.3,0.7-4.5,1.2-6.6s1-4.2,1.5-6.1c0.6-2,1.2-3.8,1.9-5.7c0.7-1.8,1.4-3.5,2.2-5.2c0.8-1.6,1.6-3.2,2.5-4.7s1.8-2.8,2.8-4.1
		s2-2.5,3-3.6c1.1-1.1,2.2-2.2,3.3-3.1c1.1-1,2.3-1.9,3.5-2.7s2.4-1.5,3.7-2.2c1.3-0.6,2.6-1.2,3.9-1.7c1.3-0.5,2.7-0.9,4.1-1.2
		c1.4-0.3,2.8-0.6,4.3-0.7c1.5-0.2,2.9-0.2,4.5-0.2c1.5,0,3.1,0.1,4.6,0.2c1.5,0.2,3,0.4,4.5,0.7s2.9,0.7,4.3,1.1
		c1.4,0.5,2.7,1,4,1.6s2.6,1.3,3.8,2c1.2,0.7,2.4,1.6,3.5,2.4c1.1,0.9,2.2,1.8,3.2,2.9c1,1,2,2.1,2.9,3.3s1.8,2.4,2.6,3.7
		c0.8,1.3,1.5,2.7,2.2,4.1c0.7,1.4,1.3,3,1.9,4.6c0.6,1.6,1.1,3.2,1.5,5C258.5,141,258.8,142.8,259.2,144.6L259.2,144.6z
		 M228.4,185.7c0.3-1.1,0.6-2.4,0.8-3.7c0.3-1.3,0.5-2.7,0.7-4.3c0.2-1.5,0.5-3.1,0.7-4.8c0.2-1.7,0.4-3.5,0.6-5.3
		c0.2-1.9,0.3-3.7,0.4-5.4c0.1-1.7,0.2-3.3,0.3-4.8c0.1-1.5,0.1-2.9,0.1-4.3c0-1.3,0-2.6-0.1-3.7l-0.3-3.3c-0.1-1-0.2-2-0.4-2.9
		c-0.2-0.9-0.3-1.7-0.5-2.5s-0.4-1.5-0.6-2.2s-0.5-1.3-0.8-1.8l-0.9-1.5c-0.3-0.4-0.6-0.8-1-1.2c-0.3-0.3-0.7-0.6-1.1-0.9l-1.2-0.6
		c-0.4-0.2-0.8-0.3-1.2-0.5c-0.4-0.1-0.8-0.3-1.3-0.3c-0.4-0.1-0.9-0.2-1.3-0.2s-0.9-0.1-1.3-0.1s-0.9,0-1.3,0.1s-0.9,0.1-1.3,0.2
		c-0.4,0.1-0.8,0.2-1.3,0.4l-1.2,0.6c-0.4,0.3-0.8,0.6-1.2,1s-0.8,0.8-1.1,1.3c-0.4,0.5-0.7,1-1.1,1.6c-0.4,0.6-0.7,1.3-1,2
		s-0.7,1.5-1,2.4s-0.6,1.8-0.9,2.8c-0.3,1-0.6,2-0.9,3.2c-0.3,1.1-0.6,2.3-0.8,3.7c-0.3,1.3-0.5,2.7-0.7,4.2s-0.5,3.1-0.7,4.8
		c-0.2,1.7-0.4,3.5-0.6,5.4c-0.2,1.9-0.3,3.7-0.4,5.4c-0.1,1.7-0.2,3.3-0.3,4.9c-0.1,1.5-0.1,3-0.1,4.3c0,1.4,0,2.6,0.1,3.8
		c0.1,1.2,0.2,2.3,0.3,3.4s0.2,2,0.4,3c0.2,0.9,0.3,1.8,0.5,2.6s0.4,1.5,0.6,2.2c0.2,0.7,0.5,1.3,0.8,1.9s0.6,1.1,0.9,1.6
		c0.3,0.5,0.6,0.9,1,1.2c0.3,0.4,0.7,0.7,1.1,0.9c0.4,0.3,0.8,0.5,1.2,0.7s0.8,0.4,1.2,0.5s0.8,0.3,1.3,0.4c0.4,0.1,0.9,0.2,1.3,0.2
		h1.3c0.4,0,0.9-0.1,1.3-0.1c0.4-0.1,0.9-0.2,1.3-0.3c0.4-0.1,0.8-0.3,1.3-0.5c0.4-0.2,0.8-0.4,1.2-0.7c0.4-0.3,0.8-0.7,1.2-1.1
		s0.8-0.9,1.1-1.4c0.4-0.5,0.7-1.1,1.1-1.7s0.7-1.3,1-2.1c0.3-0.8,0.7-1.6,1-2.5s0.6-1.8,0.9-2.9
		C227.8,187.9,228.1,186.8,228.4,185.7"/>
	<path class="st4" d="M325.7,209.4l-11-1.6l7.9,4.5l11.8,1.7L325.7,209.4z M285.3,225.3l-3.6,23.3l5.4,7.7l3.8-25.1L285.3,225.3z
		 M296.4,195.4c0.1-0.5,0.1-1,0.2-1.5l0.3-1.5c0.1-0.5,0.2-1.1,0.3-1.6c0.1-0.5,0.2-1.1,0.3-1.7c0.1-0.6,0.2-1.2,0.3-1.7
		c0.1-0.6,0.2-1.2,0.3-1.7l0.3-1.8c0.1-0.6,0.2-1.2,0.4-1.8c0.1-0.6,0.2-1.2,0.4-1.8c0.1-0.6,0.2-1.2,0.4-1.8
		c0.1-0.6,0.2-1.2,0.4-1.7c0.1-0.6,0.2-1.2,0.4-1.7s0.2-1.1,0.3-1.7c0.1-0.5,0.2-1.1,0.3-1.6l0.3-1.5l0.3-1.5l-6.5-1.4
		c-0.1,0.4-0.2,0.9-0.3,1.3c-0.1,0.5-0.2,0.9-0.3,1.4l-0.3,1.5c-0.1,0.5-0.2,1-0.3,1.6c-0.1,0.5-0.2,1.1-0.3,1.6
		c-0.1,0.5-0.2,1.1-0.3,1.6c-0.1,0.5-0.2,1.1-0.3,1.6c-0.1,0.5-0.2,1.1-0.3,1.6c-0.1,0.5-0.2,1.1-0.3,1.6c-0.1,0.5-0.2,1.1-0.3,1.6
		c-0.1,0.5-0.2,1.1-0.3,1.6c-0.1,0.5-0.2,1.1-0.3,1.6c-0.1,0.5-0.2,1.1-0.3,1.6l-0.3,1.5c-0.1,0.5-0.2,1-0.2,1.4
		c-0.1,0.5-0.1,0.9-0.2,1.4l-1.8,11.9l-17.8-2.6l4.6,4.1l19.1,2.8L296.4,195.4L296.4,195.4z M288.8,142.7l-45.1,56.4l-3,19.9
		l2.3,5.5l3.2-21.5l48.6-60.8L288.8,142.7z"/>
	<path class="st5" d="M322.6,212.3l11.9,1.7l-3.6,22.9l-11.9-1.7l-3.9,24.9l-28-3.8l3.8-25l-48-6.8l3.2-21.4l48.6-60.8l37.8,5.9
		L322.6,212.3L322.6,212.3z M300.3,175.2c0.1-0.6,0.2-1.1,0.3-1.7c0.1-0.5,0.2-1.1,0.3-1.6l0.3-1.5l0.3-1.5l-0.7-0.1l-1.5,2.4
		l-1.5,2.4l-1.5,2.4c-0.5,0.8-1,1.6-1.5,2.3c-0.5,0.8-1,1.6-1.5,2.3s-1,1.6-1.6,2.4c-0.5,0.8-1.1,1.6-1.6,2.4s-1.1,1.6-1.6,2.4
		l-13.2,17.7l19.1,2.8l2-12.8c0.1-0.5,0.1-1,0.2-1.5l0.3-1.5c0.1-0.5,0.2-1.1,0.3-1.6c0.1-0.5,0.2-1.1,0.3-1.7s0.2-1.2,0.3-1.7
		c0.1-0.6,0.2-1.2,0.3-1.7l0.3-1.8c0.1-0.6,0.2-1.2,0.4-1.8c0.1-0.6,0.2-1.2,0.4-1.8c0.1-0.6,0.2-1.2,0.4-1.8
		c0.1-0.6,0.2-1.2,0.4-1.7C300,176.3,300.1,175.7,300.3,175.2"/>
</g>
</svg>
