<svg width="500" height="500" viewBox="0 0 500 500" fill="none" xmlns="http://www.w3.org/2000/svg">
<path d="M250.001 477.538C365.33 477.538 458.823 423.56 458.823 356.974C458.823 290.388 365.33 236.41 250.001 236.41C134.672 236.41 41.1797 290.388 41.1797 356.974C41.1797 423.56 134.672 477.538 250.001 477.538Z" fill="#D4D4FF"/>
<path d="M282.767 441.397C307.707 441.397 327.925 429.724 327.925 415.325C327.925 400.926 307.707 389.253 282.767 389.253C257.827 389.253 237.609 400.926 237.609 415.325C237.609 429.724 257.827 441.397 282.767 441.397Z" fill="#B6B6FF"/>
<path d="M259.303 327.05L138.513 396.8C135.115 398.762 129.179 398.516 125.255 396.25L82.371 371.491C78.447 369.225 78.021 365.798 81.419 363.836L202.209 294.086C205.607 292.124 211.543 292.37 215.467 294.636L258.351 319.395C262.275 321.66 262.702 325.088 259.303 327.05Z" fill="#AAABFF"/>
<path d="M389.366 351.405L398.881 356.932C398.881 356.932 394.08 341.606 396.745 326.189C397.751 320.37 399.868 317.479 400.615 315.926C401.362 314.373 407.099 304.757 402.049 300.324C396.999 295.891 385.15 304.709 385.681 328.454C385.953 340.639 389.366 351.405 389.366 351.405Z" fill="#6720FF"/>
<path opacity="0.5" d="M389.366 351.405L398.881 356.932C398.881 356.932 394.08 341.606 396.745 326.189C397.751 320.37 399.868 317.479 400.615 315.926C401.362 314.373 407.099 304.757 402.049 300.324C396.999 295.891 385.15 304.709 385.681 328.454C385.953 340.639 389.366 351.405 389.366 351.405Z" fill="black"/>
<path d="M393.79 354.406C393.614 354.406 393.449 354.298 393.385 354.123C393.349 354.024 389.751 344.033 389.941 328.01C390.131 311.89 398.602 303.294 398.688 303.209C398.856 303.042 399.13 303.041 399.297 303.211C399.465 303.38 399.465 303.653 399.296 303.821C399.213 303.903 390.989 312.272 390.804 328.019C390.616 343.871 394.159 353.727 394.196 353.825C394.278 354.049 394.163 354.297 393.939 354.379C393.89 354.398 393.84 354.406 393.79 354.406Z" fill="white"/>
<path d="M396.742 355.723L412.46 364.967C412.46 364.967 419.657 363.907 419.112 357.132C418.567 350.357 415.643 348.761 419.284 345.784C422.925 342.807 423.865 342.61 423.691 339.692C423.517 336.774 421.554 335.502 420.63 334.346C419.707 333.19 417.132 330.764 418.944 327.245C420.756 323.726 423.21 320.327 419.565 318.714C417.39 317.751 413.731 318.957 411.306 321.532C408.881 324.107 406.88 325.957 404.583 326.555C402.285 327.153 397.495 327.2 397.656 331.159C397.817 335.118 398.845 336.485 397.885 338.242C396.076 341.553 388.35 343.337 396.742 355.723Z" fill="#6720FF"/>
<path opacity="0.2" d="M396.742 355.723L412.46 364.967C412.46 364.967 419.657 363.907 419.112 357.132C418.567 350.357 415.643 348.761 419.284 345.784C422.925 342.807 423.865 342.61 423.691 339.692C423.517 336.774 421.554 335.502 420.63 334.346C419.707 333.19 417.132 330.764 418.944 327.245C420.756 323.726 423.21 320.327 419.565 318.714C417.39 317.751 413.731 318.957 411.306 321.532C408.881 324.107 406.88 325.957 404.583 326.555C402.285 327.153 397.495 327.2 397.656 331.159C397.817 335.118 398.845 336.485 397.885 338.242C396.076 341.553 388.35 343.337 396.742 355.723Z" fill="black"/>
<path d="M403.146 359.919C402.924 359.919 402.735 359.748 402.716 359.523C402.697 359.288 400.987 335.851 417.27 320.46C417.444 320.296 417.716 320.304 417.88 320.477C418.044 320.65 418.036 320.923 417.863 321.087C401.886 336.188 403.557 359.221 403.577 359.452C403.595 359.69 403.419 359.898 403.181 359.917C403.17 359.918 403.158 359.919 403.146 359.919Z" fill="white"/>
<path d="M405.965 339.834C405.74 339.834 405.551 339.661 405.534 339.434C405.078 333.286 400.8 330.122 400.756 330.091C400.564 329.951 400.52 329.682 400.659 329.488C400.797 329.296 401.066 329.25 401.261 329.39C401.45 329.527 405.908 332.806 406.396 339.37C406.414 339.607 406.235 339.814 405.998 339.832C405.986 339.833 405.975 339.834 405.965 339.834Z" fill="white"/>
<path d="M404.803 343.833C404.699 343.833 404.597 343.796 404.514 343.722C404.337 343.563 404.323 343.291 404.482 343.114C404.652 342.924 408.75 338.494 418.228 339.796C418.464 339.829 418.629 340.047 418.597 340.282C418.564 340.518 418.347 340.681 418.111 340.651C409.119 339.417 405.163 343.65 405.124 343.691C405.038 343.785 404.921 343.833 404.803 343.833Z" fill="white"/>
<path d="M101.124 337.943L96.4254 347.892C96.4254 347.892 91.6834 332.548 80.7414 321.365C76.6114 317.144 73.2284 315.964 71.7314 315.11C70.2344 314.255 60.0554 309.591 61.6984 303.076C63.3414 296.56 78.1024 297.098 91.1364 316.953C97.8274 327.141 101.124 337.943 101.124 337.943Z" fill="#6720FF"/>
<path opacity="0.5" d="M101.124 337.943L96.4254 347.892C96.4254 347.892 91.6834 332.548 80.7414 321.365C76.6114 317.144 73.2284 315.964 71.7314 315.11C70.2344 314.255 60.0554 309.591 61.6984 303.076C63.3414 296.56 78.1024 297.098 91.1364 316.953C97.8274 327.141 101.124 337.943 101.124 337.943Z" fill="black"/>
<path d="M98.9386 343C98.7466 343 98.5706 342.871 98.5206 342.676C98.4946 342.575 95.8206 332.448 86.6716 319.502C77.5836 306.64 66.0646 304.415 65.9486 304.394C65.7146 304.351 65.5586 304.127 65.6006 303.892C65.6436 303.658 65.8646 303.503 66.1026 303.544C66.2206 303.565 78.0736 305.837 87.3756 319.003C96.6226 332.09 99.3286 342.358 99.3546 342.461C99.4146 342.692 99.2746 342.927 99.0436 342.986C99.0106 342.996 98.9746 343 98.9386 343Z" fill="white"/>
<path d="M97.497 345.685L89.799 362.216C89.799 362.216 83.271 365.427 79.875 359.539C76.48 353.651 77.982 350.678 73.295 350.292C68.608 349.907 67.722 350.277 66.21 347.776C64.698 345.275 65.592 343.113 65.697 341.637C65.801 340.161 66.545 336.703 63.057 334.833C59.569 332.963 55.619 331.557 57.705 328.161C58.95 326.134 62.647 325.051 66.105 325.795C69.563 326.539 72.26 326.928 74.491 326.116C76.722 325.304 80.694 322.626 82.807 325.977C84.92 329.329 84.85 331.037 86.638 331.94C90.006 333.64 97.38 330.724 97.497 345.685Z" fill="#6720FF"/>
<path opacity="0.2" d="M97.497 345.685L89.799 362.216C89.799 362.216 83.271 365.427 79.875 359.539C76.48 353.651 77.982 350.678 73.295 350.292C68.608 349.907 67.722 350.277 66.21 347.776C64.698 345.275 65.592 343.113 65.697 341.637C65.801 340.161 66.545 336.703 63.057 334.833C59.569 332.963 55.619 331.557 57.705 328.161C58.95 326.134 62.647 325.051 66.105 325.795C69.563 326.539 72.26 326.928 74.491 326.116C76.722 325.304 80.694 322.626 82.807 325.977C84.92 329.329 84.85 331.037 86.638 331.94C90.006 333.64 97.38 330.724 97.497 345.685Z" fill="black"/>
<path d="M94.3619 352.849C94.2129 352.849 94.0678 352.771 93.9878 352.633C93.8728 352.432 82.1789 332.517 60.4549 329.147C60.2199 329.111 60.0589 328.89 60.0949 328.655C60.1309 328.418 60.3519 328.254 60.5879 328.295C82.7299 331.729 94.6189 351.999 94.7359 352.203C94.8549 352.41 94.7839 352.674 94.5769 352.792C94.5099 352.83 94.4359 352.849 94.3619 352.849Z" fill="white"/>
<path d="M80.6472 337.909C80.5002 337.909 80.3552 337.832 80.2752 337.695C76.9512 332.014 78.7602 326.784 78.8392 326.564C78.9182 326.34 79.1632 326.222 79.3902 326.303C79.6152 326.383 79.7322 326.63 79.6522 326.854C79.6342 326.904 77.9062 331.937 81.0192 337.259C81.1402 337.465 81.0712 337.729 80.8652 337.849C80.7972 337.89 80.7222 337.909 80.6472 337.909Z" fill="white"/>
<path d="M71.0599 345.509C70.9429 345.509 70.8269 345.462 70.7419 345.368C70.5809 345.192 70.5939 344.919 70.7689 344.758C77.8319 338.31 83.7249 339.634 83.9709 339.692C84.2019 339.747 84.3449 339.98 84.2889 340.211C84.2349 340.442 84.0079 340.588 83.7699 340.531C83.7119 340.518 78.0529 339.276 71.3499 345.395C71.2679 345.472 71.1629 345.509 71.0599 345.509Z" fill="white"/>
<path d="M97.6083 136.505C97.6083 130.577 100.772 125.098 105.906 122.134L211.425 61.2125C214.542 59.4125 218.323 61.1015 219.318 64.2725C218.746 61.8035 217.206 59.6305 214.977 58.3025L214.601 58.0785C211.975 56.5145 208.976 55.6895 205.92 55.6895V55.6915C204.992 55.6785 204.037 55.9065 203.137 56.4265L97.6173 117.347C92.4833 120.311 89.3203 125.789 89.3203 131.718V359.912C89.3203 364.095 93.8483 366.709 97.4713 364.618L97.6083 364.539V136.505Z" fill="#37474F"/>
<path d="M211.276 308.483L105.757 369.404C102.134 371.495 97.6055 368.881 97.6055 364.698V136.505C97.6055 130.577 100.769 125.098 105.903 122.134L211.422 61.2124C215.044 59.1214 219.572 61.7354 219.572 65.9184V294.113C219.573 300.041 216.41 305.519 211.276 308.483Z" fill="#455A64"/>
<path d="M97.6083 364.699V136.505C97.6083 133.975 98.1893 131.528 99.2483 129.323L91.0893 124.27C89.9463 126.544 89.3203 129.086 89.3203 131.718V359.437V359.912V361.818C89.3203 363.66 90.2903 365.366 91.8733 366.309L96.0803 368.814C97.5373 369.682 99.2023 370.14 100.9 370.14H102.977V370.138C100.167 370.1 97.6083 367.843 97.6083 364.699Z" fill="#263238"/>
<path d="M207.645 83.1465V274.945C207.645 280.18 204.852 285.018 200.318 287.635L107.139 341.432C106.392 341.863 105.601 342.06 104.828 342.073C105.908 344.574 109.036 345.818 111.636 344.317L204.815 290.52C209.349 287.902 212.142 283.065 212.142 277.83V87.9325C212.143 85.2475 210.028 83.3045 207.645 83.1465Z" fill="#37474F"/>
<path d="M104.83 342.074C105.603 342.061 106.394 341.865 107.141 341.434L200.32 287.636C204.854 285.018 207.647 280.182 207.647 274.947V83.1465C208.085 83.1755 206.248 83.0255 204.947 83.7775L111.768 137.574C107.234 140.192 104.441 145.029 104.441 150.264V340.163C104.441 340.865 104.587 341.516 104.843 342.099C104.839 342.091 104.834 342.083 104.83 342.074Z" fill="#6720FF"/>
<g opacity="0.5">
<path d="M104.83 342.074C105.603 342.061 106.394 341.865 107.141 341.434L200.32 287.636C204.854 285.018 207.647 280.182 207.647 274.947V83.1465C208.085 83.1755 206.248 83.0255 204.947 83.7775L111.768 137.574C107.234 140.192 104.441 145.029 104.441 150.264V340.163C104.441 340.865 104.587 341.516 104.843 342.099C104.839 342.091 104.834 342.083 104.83 342.074Z" fill="white"/>
</g>
<path d="M143.825 109.463C143.825 110.533 143.074 111.834 142.147 112.369C141.22 112.904 140.469 112.47 140.469 111.4C140.469 110.33 141.22 109.029 142.147 108.494C143.073 107.959 143.825 108.393 143.825 109.463Z" fill="#263238"/>
<path d="M150.067 105.859C150.067 106.929 149.316 108.23 148.389 108.765C147.462 109.3 146.711 108.866 146.711 107.796C146.711 106.726 147.462 105.425 148.389 104.89C149.315 104.355 150.067 104.789 150.067 105.859Z" fill="#263238"/>
<path d="M175.26 93.2505L154.965 104.968C154.162 105.431 153.512 104.939 153.512 103.869C153.512 102.799 154.163 101.556 154.965 101.093L175.26 89.3765C176.063 88.9135 176.713 89.4045 176.713 90.4745C176.713 91.5445 176.062 92.7875 175.26 93.2505Z" fill="#263238"/>
<path d="M171.826 315.682C173.038 315.682 173.822 316.968 173.822 318.957C173.822 322.084 171.866 325.854 169.551 327.191L159.844 332.796C159.326 333.095 158.839 333.247 158.398 333.247C157.186 333.247 156.402 331.962 156.402 329.972C156.402 326.845 158.358 323.075 160.673 321.738L170.38 316.134C170.899 315.834 171.385 315.682 171.826 315.682ZM171.826 314.853C171.256 314.853 170.627 315.034 169.966 315.415L160.259 321.019C157.671 322.513 155.574 326.521 155.574 329.971C155.574 332.54 156.737 334.075 158.399 334.075C158.969 334.075 159.598 333.894 160.259 333.513L169.966 327.909C172.554 326.415 174.651 322.407 174.651 318.957C174.651 316.388 173.488 314.853 171.826 314.853Z" fill="#263238"/>
<path d="M118.184 163.707V378.694C118.184 382.588 119.615 385.204 121.802 386.063L121.863 386.083L121.873 386.093L131.164 391.183L131.113 382.915L130.081 159.986L120.269 154.968C118.971 157.749 118.184 160.835 118.184 163.707Z" fill="#AAABFF"/>
<path d="M131.669 392.031L121.613 386.521C119.121 385.492 117.684 382.585 117.684 378.694V163.707C117.684 160.88 118.441 157.702 119.816 154.757L120.036 154.287L130.58 159.68L130.581 159.984L131.613 382.913L131.669 392.031ZM122.114 385.656L130.659 390.338L130.613 382.919L129.582 160.294L120.509 155.653C119.33 158.332 118.685 161.174 118.685 163.708V378.695C118.685 382.206 119.919 384.787 121.986 385.599L122.114 385.659V385.656Z" fill="#AAABFF"/>
<path d="M120.27 154.968L130.082 159.986L235.089 98.8967L242.1 94.8187L232.411 89.3607L232.135 89.1977V89.1877C230.592 88.2577 228.568 88.3187 226.34 89.6067L126.944 146.996C124.266 148.54 121.875 151.514 120.27 154.968Z" fill="#AAABFF"/>
<path d="M130.081 160.487C130.003 160.487 129.925 160.469 129.854 160.432L120.042 155.414C119.803 155.291 119.703 155.002 119.816 154.758C121.521 151.087 124.028 148.1 126.693 146.563L226.09 89.1744C228.39 87.8454 230.629 87.6964 232.393 88.7604C232.419 88.7764 232.444 88.7944 232.466 88.8144L232.665 88.9334L242.345 94.3854C242.501 94.4734 242.599 94.6384 242.6 94.8174C242.601 94.9964 242.506 95.1634 242.351 95.2534L130.332 160.42C130.255 160.464 130.168 160.487 130.081 160.487ZM120.931 154.745L130.066 159.418L241.093 94.8274L231.88 89.6284C231.853 89.6124 231.828 89.5944 231.805 89.5744C230.377 88.7554 228.53 88.9204 226.59 90.0404L127.193 147.429C124.806 148.805 122.541 151.456 120.931 154.745Z" fill="#AAABFF"/>
<path d="M127.812 169.114V383.13C127.812 386.503 128.885 388.925 130.602 390.06L131.164 390.367C132.656 391.072 134.527 390.919 136.561 389.744L184.608 362.005L235.957 331.098C240.791 328.308 244.716 322.072 244.716 315.633V101.627C244.716 98.3671 243.715 96.0061 242.1 94.8201C241.824 94.6161 241.527 94.4421 241.21 94.3191C239.748 93.6951 237.929 93.8801 235.957 95.0141L136.561 153.371C133.985 154.853 131.675 156.706 130.081 159.987C128.671 162.859 127.812 166.099 127.812 169.114Z" fill="#FAFAFA"/>
<path d="M235.959 331.097C215.506 343.298 162.298 375.054 135.959 390.918C132.51 392.995 128.121 390.509 128.121 386.483V166.416C128.121 161.321 130.822 156.608 135.217 154.032L236.437 94.7099C239.886 92.6889 244.228 95.1759 244.228 99.1739V316.533C244.228 322.506 241.089 328.037 235.959 331.097Z" fill="#D4D4FF"/>
<path d="M235.704 330.665C219.647 340.244 203.594 349.828 187.545 359.421C178.044 365.1 168.544 370.783 159.049 376.471C154.71 379.07 150.373 381.671 146.037 384.274C144.14 385.413 142.244 386.552 140.348 387.692C138.598 388.744 136.733 390.242 134.8 390.914C131.591 392.029 128.702 389.462 128.617 386.294C128.603 385.783 128.617 385.27 128.617 384.759C128.617 382.284 128.617 379.808 128.617 377.333C128.617 367.696 128.617 358.059 128.617 348.421C128.617 334.622 128.617 320.824 128.617 307.025C128.617 291.521 128.617 276.017 128.617 260.513C128.617 245.913 128.617 231.312 128.617 216.712C128.617 205.472 128.617 194.233 128.617 182.993C128.617 177.619 128.605 172.245 128.617 166.871C128.629 161.584 131.184 156.997 135.753 154.296C138.073 152.925 140.403 151.571 142.729 150.208C153.629 143.82 164.529 137.432 175.43 131.043C188.346 123.474 201.261 115.904 214.177 108.335C221.526 104.028 228.857 99.6883 236.225 95.4133C238.507 94.0893 241.38 94.2193 242.966 96.6083C243.61 97.5783 243.721 98.6563 243.725 99.7673C243.731 101.685 243.725 103.602 243.725 105.52C243.725 114.376 243.725 123.233 243.725 132.089C243.725 145.499 243.725 158.909 243.725 172.319C243.725 187.713 243.725 203.107 243.725 218.501C243.725 233.353 243.725 248.204 243.725 263.056C243.725 274.695 243.725 286.335 243.725 297.974C243.725 303.881 243.725 309.788 243.725 315.695C243.725 321.839 241.039 327.387 235.704 330.665C235.157 331.001 235.658 331.867 236.209 331.528C241.773 328.109 244.725 322.282 244.725 315.831C244.725 313.784 244.725 311.737 244.725 309.69C244.725 300.52 244.725 291.35 244.725 282.18C244.725 268.449 244.725 254.718 244.725 240.987C244.725 225.265 244.725 209.543 244.725 193.821C244.725 178.986 244.725 164.151 244.725 149.316C244.725 137.914 244.725 126.512 244.725 115.11C244.725 109.884 244.781 104.656 244.725 99.4303C244.674 94.6753 239.884 92.1453 235.847 94.4743C233.41 95.8793 230.993 97.3193 228.566 98.7413C217.366 105.305 206.165 111.869 194.965 118.433C181.933 126.071 168.9 133.709 155.868 141.346C148.955 145.398 142.019 149.414 135.127 153.501C130.34 156.34 127.634 161.273 127.618 166.809C127.613 168.609 127.618 170.408 127.618 172.208C127.618 180.953 127.618 189.698 127.618 198.444C127.618 211.895 127.618 225.347 127.618 238.798C127.618 254.453 127.618 270.108 127.618 285.763C127.618 300.813 127.618 315.862 127.618 330.912C127.618 342.878 127.618 354.844 127.618 366.81C127.618 373.018 127.618 379.226 127.618 385.434C127.618 385.778 127.607 386.123 127.618 386.467C127.736 390.233 131.359 393.116 135.066 391.875C136.954 391.243 138.736 389.825 140.436 388.803C142.369 387.64 144.303 386.479 146.237 385.317C150.56 382.722 154.885 380.129 159.21 377.537C178.121 366.207 197.046 354.901 215.974 343.601C222.718 339.575 229.463 335.55 236.208 331.526C236.761 331.199 236.259 330.334 235.704 330.665Z" fill="#AAABFF"/>
<path d="M135.217 154.032L236.437 94.7099C239.886 92.6889 244.227 95.1759 244.227 99.1739V108.722L244.197 108.724L128.121 175.74V166.415C128.121 161.321 130.822 156.608 135.217 154.032Z" fill="#BFC0FF"/>
<path d="M204.754 206.061C215.02 188.282 215.02 169.064 204.755 163.137C194.49 157.211 177.847 166.82 167.582 184.599C157.317 202.379 157.316 221.596 167.581 227.523C177.846 233.449 194.489 223.841 204.754 206.061Z" fill="#6720FF"/>
<path opacity="0.5" d="M204.754 206.061C215.02 188.282 215.02 169.064 204.755 163.137C194.49 157.211 177.847 166.82 167.582 184.599C157.317 202.379 157.316 221.596 167.581 227.523C177.846 233.449 194.489 223.841 204.754 206.061Z" fill="white"/>
<path d="M181.457 195.443C180.805 195.443 180.277 194.915 180.277 194.263V186.49C180.277 183.055 182.607 179.019 185.582 177.301C187.222 176.354 188.825 176.237 190.096 176.971C191.367 177.705 192.067 179.152 192.067 181.045V188.818C192.067 189.47 191.539 189.998 190.887 189.998C190.235 189.998 189.707 189.47 189.707 188.818V181.045C189.707 180.045 189.419 179.305 188.916 179.014C188.413 178.724 187.628 178.844 186.762 179.344C184.526 180.635 182.637 183.907 182.637 186.489V194.262C182.637 194.915 182.109 195.443 181.457 195.443Z" fill="#37474F"/>
<path d="M195.701 183.807C195.243 183.587 194.665 183.629 194.035 183.993L178.312 193.071C177.682 193.435 177.104 194.06 176.646 194.81C176.027 195.823 175.629 197.063 175.629 198.199V211.811C175.629 212.797 175.928 213.516 176.412 213.884C176.497 213.949 176.59 213.999 176.687 214.042C177.139 214.241 177.701 214.193 178.313 213.84L194.036 204.763C195.518 203.907 196.72 201.611 196.72 199.635V186.023C196.719 184.885 196.32 184.104 195.701 183.807Z" fill="#6720FF"/>
<path d="M187.96 197.991L189.475 202.349L184.148 205.424L185.482 200.042L185.67 199.28C184.77 199.306 184.148 198.61 184.148 197.385C184.148 196.916 184.237 196.422 184.397 195.934C184.824 194.642 185.746 193.388 186.812 192.773C188.283 191.924 189.476 192.61 189.476 194.311C189.476 195.536 188.851 196.952 187.951 197.967L187.96 197.991Z" fill="#455A64"/>
<path d="M185.482 200.042L185.67 199.28C184.77 199.306 184.148 198.61 184.148 197.385C184.148 196.916 184.237 196.422 184.397 195.934L187.96 197.992L189.475 202.35L185.482 200.042Z" fill="#37474F"/>
<path d="M224.946 245.656L147.399 290.429C144.191 292.281 141.59 290.315 141.59 286.038V274.29C141.59 270.013 144.191 265.044 147.399 263.192L224.947 218.42C228.155 216.568 230.756 218.534 230.756 222.811V234.559C230.755 238.835 228.154 243.804 224.946 245.656Z" fill="#6720FF"/>
<path d="M161.355 262.133H159.855V274.567H161.355V262.133Z" fill="#FAFAFA"/>
<path d="M165.624 264.59L154.855 270.809L155.606 272.108L166.374 265.889L165.624 264.59Z" fill="#FAFAFA"/>
<path d="M157.164 265.51L156.414 266.809L164.029 271.206L164.779 269.907L157.164 265.51Z" fill="#FAFAFA"/>
<path d="M163.772 261.387L156.156 274.575L157.455 275.325L165.071 262.137L163.772 261.387Z" fill="#FAFAFA"/>
<path d="M186.926 248.206H185.426V260.641H186.926V248.206Z" fill="#FAFAFA"/>
<path d="M191.194 250.663L180.426 256.882L181.176 258.181L191.944 251.962L191.194 250.663Z" fill="#FAFAFA"/>
<path d="M182.734 251.585L181.984 252.884L189.598 257.28L190.348 255.981L182.734 251.585Z" fill="#FAFAFA"/>
<path d="M189.343 247.46L181.727 260.648L183.026 261.398L190.642 248.21L189.343 247.46Z" fill="#FAFAFA"/>
<path d="M212.492 234.28H210.992V246.714H212.492V234.28Z" fill="#FAFAFA"/>
<path d="M216.742 236.747L205.973 242.964L206.723 244.263L217.492 238.046L216.742 236.747Z" fill="#FAFAFA"/>
<path d="M208.305 237.658L207.555 238.957L215.169 243.353L215.919 242.054L208.305 237.658Z" fill="#FAFAFA"/>
<path d="M214.891 233.519L207.277 246.707L208.576 247.457L216.19 234.269L214.891 233.519Z" fill="#FAFAFA"/>
<path d="M227.253 261.843C228.291 261.843 228.755 263.394 228.755 264.931V276.679C228.755 280.251 226.553 284.541 223.946 286.045L146.399 330.817C145.913 331.098 145.461 331.246 145.093 331.246C144.055 331.246 143.591 329.695 143.591 328.158V316.41C143.591 312.838 145.793 308.548 148.4 307.044L225.948 262.272C226.432 261.991 226.884 261.843 227.253 261.843ZM227.252 259.843C226.545 259.843 225.765 260.067 224.946 260.54L147.399 305.312C144.191 307.164 141.59 312.133 141.59 316.41V328.158C141.59 331.343 143.031 333.246 145.092 333.246C145.799 333.246 146.579 333.022 147.398 332.549L224.946 287.777C228.154 285.925 230.755 280.956 230.755 276.679V264.931C230.755 261.746 229.313 259.843 227.252 259.843Z" fill="#6720FF"/>
<path d="M170.22 308.699C169.692 309.004 169.236 309.132 168.853 309.084C168.472 309.032 168.178 308.823 167.971 308.456C167.766 308.085 167.664 307.575 167.664 306.926C167.664 306.278 167.766 305.647 167.971 305.034C168.178 304.417 168.466 303.863 168.835 303.373C169.206 302.878 169.639 302.488 170.134 302.202C170.42 302.037 170.702 301.929 170.98 301.878C171.259 301.828 171.512 301.86 171.741 301.975C171.969 302.088 172.151 302.307 172.287 302.633C172.423 302.958 172.491 303.417 172.491 304.008V304.42L168.264 306.86V306.019L171.634 304.074C171.634 303.716 171.572 303.433 171.448 303.224C171.327 303.014 171.153 302.893 170.927 302.862C170.703 302.829 170.439 302.9 170.134 303.076C169.799 303.27 169.508 303.534 169.263 303.867C169.021 304.197 168.834 304.552 168.703 304.933C168.572 305.314 168.506 305.679 168.506 306.028V306.588C168.506 307.066 168.578 307.431 168.721 307.681C168.866 307.927 169.067 308.062 169.324 308.087C169.581 308.109 169.88 308.021 170.22 307.825C170.441 307.697 170.641 307.546 170.82 307.371C171.001 307.193 171.157 306.993 171.288 306.772C171.418 306.548 171.52 306.305 171.591 306.044L172.405 305.838C172.319 306.206 172.175 306.57 171.973 306.928C171.771 307.284 171.521 307.615 171.223 307.922C170.926 308.226 170.591 308.485 170.22 308.699ZM174.615 302.221V306.03L173.772 306.516V300.184L174.586 299.714V300.704L174.658 300.662C174.786 300.267 174.981 299.896 175.243 299.549C175.505 299.2 175.843 298.906 176.257 298.667C176.628 298.453 176.953 298.353 177.232 298.368C177.51 298.381 177.727 298.519 177.881 298.785C178.036 299.047 178.113 299.448 178.113 299.986V304.01L177.271 304.496V300.539C177.271 300.041 177.159 299.718 176.935 299.57C176.711 299.419 176.404 299.456 176.014 299.681C175.745 299.836 175.505 300.043 175.293 300.3C175.084 300.555 174.918 300.847 174.797 301.176C174.675 301.504 174.615 301.852 174.615 302.221ZM182.038 295.412V296.236L179.196 297.877V297.053L182.038 295.412ZM180.024 295.057L180.867 294.571V300.606C180.867 300.881 180.901 301.067 180.97 301.165C181.042 301.258 181.132 301.297 181.241 301.28C181.353 301.26 181.471 301.214 181.595 301.142C181.688 301.088 181.764 301.039 181.823 300.994C181.883 300.946 181.93 300.907 181.966 300.878L182.138 301.653C182.08 301.711 182.001 301.782 181.898 301.866C181.796 301.952 181.666 302.041 181.509 302.131C181.271 302.269 181.038 302.344 180.81 302.358C180.583 302.371 180.395 302.299 180.245 302.144C180.098 301.987 180.024 301.725 180.024 301.356V295.057ZM185.545 299.851C185.017 300.156 184.561 300.284 184.178 300.236C183.797 300.184 183.503 299.974 183.296 299.608C183.091 299.237 182.989 298.727 182.989 298.078C182.989 297.43 183.091 296.799 183.296 296.186C183.503 295.569 183.791 295.015 184.16 294.525C184.531 294.03 184.964 293.64 185.459 293.354C185.745 293.189 186.027 293.081 186.305 293.03C186.584 292.979 186.837 293.012 187.066 293.127C187.294 293.24 187.476 293.459 187.612 293.785C187.748 294.11 187.816 294.569 187.816 295.159V295.572L183.589 298.012V297.171L186.959 295.225C186.959 294.868 186.897 294.585 186.773 294.376C186.652 294.166 186.478 294.045 186.252 294.013C186.028 293.98 185.764 294.052 185.459 294.228C185.124 294.422 184.833 294.685 184.588 295.019C184.346 295.349 184.159 295.704 184.028 296.085C183.897 296.466 183.831 296.83 183.831 297.179V297.74C183.831 298.218 183.903 298.582 184.046 298.833C184.191 299.078 184.392 299.214 184.649 299.239C184.906 299.261 185.205 299.173 185.545 298.977C185.766 298.849 185.966 298.698 186.145 298.523C186.326 298.345 186.482 298.145 186.613 297.924C186.743 297.7 186.845 297.457 186.916 297.196L187.73 296.99C187.644 297.358 187.5 297.722 187.298 298.08C187.096 298.436 186.846 298.767 186.548 299.074C186.251 299.377 185.916 299.636 185.545 299.851ZM189.097 297.668V291.336L189.911 290.866V291.822L189.968 291.789C190.068 291.418 190.249 291.06 190.511 290.714C190.773 290.367 191.068 290.099 191.396 289.91C191.458 289.874 191.536 289.831 191.628 289.78C191.721 289.729 191.791 289.693 191.839 289.671V290.66C191.81 290.668 191.745 290.694 191.643 290.736C191.543 290.775 191.437 290.826 191.325 290.891C191.058 291.045 190.82 291.247 190.611 291.497C190.404 291.743 190.24 292.013 190.118 292.309C189.999 292.6 189.94 292.889 189.94 293.175V297.182L189.097 297.668Z" fill="#6720FF"/>
<path d="M341.391 128.31C341.391 129.756 342.426 131.515 343.702 132.238C344.978 132.961 346.013 132.375 346.013 130.929C346.013 129.483 344.978 127.724 343.702 127.001C342.426 126.277 341.391 126.863 341.391 128.31Z" fill="#455A64"/>
<path d="M310.418 137.625C308.647 137.625 306.691 137.048 304.672 135.903L297.34 131.749C297.1 131.613 297.015 131.308 297.151 131.067C297.287 130.826 297.594 130.743 297.832 130.879L305.164 135.033C308.326 136.825 311.264 137.113 313.436 135.847C315.561 134.608 316.732 131.996 316.732 128.492C316.732 124.617 318.079 121.697 320.525 120.272C323.018 118.819 326.309 119.107 329.792 121.08L341.641 127.793C341.881 127.929 341.966 128.234 341.829 128.475C341.692 128.715 341.385 128.798 341.148 128.664L329.299 121.951C326.137 120.16 323.2 119.871 321.028 121.137C318.902 122.376 317.731 124.988 317.731 128.493C317.731 132.368 316.384 135.287 313.938 136.712C312.892 137.321 311.703 137.625 310.418 137.625Z" fill="#455A64"/>
<path d="M294.312 129.506C294.312 130.676 295.15 132.098 296.182 132.683C297.214 133.268 298.051 132.794 298.051 131.624C298.051 130.455 297.214 129.032 296.182 128.448C295.15 127.863 294.312 128.337 294.312 129.506Z" fill="#455A64"/>
<path d="M341.391 215.717C341.391 217.163 342.426 218.922 343.702 219.645C344.978 220.368 346.013 219.782 346.013 218.336C346.013 216.89 344.978 215.131 343.702 214.408C342.426 213.684 341.391 214.271 341.391 215.717Z" fill="#455A64"/>
<path d="M341.482 216.811C341.398 216.811 341.313 216.79 341.236 216.746L329.387 210.033C322.457 206.106 316.821 196.522 316.821 188.667C316.821 181.134 311.411 171.939 304.761 168.171L297.34 163.966C297.1 163.83 297.015 163.525 297.151 163.284C297.287 163.043 297.594 162.959 297.832 163.095L305.253 167.3C312.183 171.227 317.82 180.811 317.82 188.666C317.82 196.199 323.229 205.393 329.879 209.162L341.728 215.875C341.968 216.011 342.053 216.316 341.916 216.557C341.825 216.72 341.656 216.811 341.482 216.811Z" fill="#455A64"/>
<path d="M294.312 161.541C294.312 162.71 295.15 164.133 296.182 164.718C297.214 165.303 298.051 164.829 298.051 163.659C298.051 162.489 297.214 161.067 296.182 160.482C295.15 159.897 294.312 160.371 294.312 161.541Z" fill="#455A64"/>
<path d="M412.593 118.884L363.614 91.1432C362.211 90.3332 360.95 90.3943 360.056 91.1363L355.824 94.0622L358.71 97.6302V149.255C358.71 152.866 360.905 157.061 363.614 158.625L411.377 185.664L411.602 189.509L416.061 186.453C416.948 185.782 417.497 184.464 417.497 182.659V128.253C417.496 124.643 415.301 120.448 412.593 118.884Z" fill="#6720FF"/>
<path opacity="0.3" d="M412.593 118.884L363.614 91.1432C362.211 90.3332 360.95 90.3943 360.056 91.1363L355.824 94.0622L358.71 97.6302V149.255C358.71 152.866 360.905 157.061 363.614 158.625L411.377 185.664L411.602 189.509L416.061 186.453C416.948 185.782 417.497 184.464 417.497 182.659V128.253C417.496 124.643 415.301 120.448 412.593 118.884Z" fill="black"/>
<path d="M408.43 189.233L359.451 161.492C356.743 159.928 354.547 155.733 354.547 152.122V97.7165C354.547 94.1055 356.743 92.4455 359.451 94.0095L408.43 121.75C411.138 123.314 413.334 127.509 413.334 131.12V185.526C413.334 189.137 411.138 190.797 408.43 189.233Z" fill="#6720FF"/>
<path d="M398.138 142.154C397.917 142.154 397.715 142.007 397.655 141.783C396.633 137.973 394.974 134.197 392.859 130.863C392.711 130.63 392.78 130.321 393.013 130.173C393.244 130.025 393.554 130.093 393.702 130.327C395.871 133.746 397.572 137.618 398.62 141.524C398.692 141.791 398.534 142.064 398.268 142.136C398.224 142.148 398.181 142.154 398.138 142.154Z" fill="white"/>
<path d="M399.263 152.316C399.251 152.316 399.241 152.315 399.229 152.315C398.954 152.297 398.746 152.059 398.763 151.783C398.798 151.245 398.817 150.69 398.817 150.119C398.817 148.475 398.666 146.758 398.366 145.014C398.32 144.742 398.503 144.483 398.774 144.437C399.049 144.392 399.305 144.573 399.352 144.845C399.661 146.644 399.817 148.419 399.817 150.118C399.817 150.711 399.799 151.287 399.761 151.847C399.743 152.114 399.523 152.316 399.263 152.316Z" fill="white"/>
<path d="M368.673 135.722C368.417 135.722 368.199 135.526 368.177 135.265C368.101 134.398 368.062 133.533 368.062 132.694C368.062 127.843 369.371 123.836 371.745 121.41C371.937 121.213 372.254 121.209 372.452 121.402C372.649 121.595 372.653 121.912 372.46 122.109C370.27 124.347 369.064 128.106 369.064 132.693C369.064 133.503 369.1 134.338 369.173 135.177C369.197 135.452 368.994 135.695 368.72 135.719C368.703 135.722 368.688 135.722 368.673 135.722Z" fill="white"/>
<path d="M390.789 127.633C390.644 127.633 390.501 127.57 390.402 127.449C388.303 124.882 386.047 122.904 383.694 121.57C380.372 119.688 377.255 119.326 374.683 120.521C374.435 120.638 374.135 120.53 374.019 120.278C373.903 120.028 374.011 119.73 374.261 119.613C377.139 118.277 380.57 118.651 384.186 120.699C386.647 122.094 388.999 124.152 391.175 126.815C391.35 127.029 391.318 127.344 391.105 127.519C391.013 127.596 390.9 127.633 390.789 127.633Z" fill="white"/>
<path d="M372.121 136.105C371.854 136.105 371.633 135.895 371.621 135.626C371.608 135.315 371.602 135.007 371.602 134.7C371.602 131.148 372.472 128.249 374.118 126.318C374.299 126.107 374.614 126.082 374.823 126.262C375.033 126.441 375.058 126.757 374.88 126.967C373.39 128.715 372.603 131.389 372.603 134.7C372.603 134.993 372.609 135.288 372.622 135.584C372.633 135.86 372.419 136.093 372.143 136.104C372.135 136.105 372.128 136.105 372.121 136.105Z" fill="white"/>
<path d="M376.043 125.807C375.875 125.807 375.711 125.723 375.617 125.569C375.472 125.334 375.546 125.026 375.781 124.881C377.033 124.112 378.467 123.8 380.026 123.956C380.301 123.983 380.502 124.228 380.475 124.503C380.448 124.778 380.2 124.974 379.928 124.951C378.58 124.817 377.365 125.081 376.304 125.733C376.223 125.783 376.133 125.807 376.043 125.807Z" fill="white"/>
<path d="M398.138 158.749C397.941 158.749 397.753 158.631 397.674 158.436L397.088 156.986C395.898 154.037 395.272 150.982 395.277 148.15C395.277 139.67 390.081 129.856 383.695 126.237C383.455 126.101 383.37 125.796 383.507 125.555C383.643 125.314 383.95 125.23 384.188 125.367C390.855 129.144 396.278 139.348 396.278 148.114C396.273 150.857 396.875 153.781 398.017 156.612L398.603 158.062C398.707 158.318 398.582 158.61 398.327 158.713C398.264 158.738 398.2 158.749 398.138 158.749Z" fill="white"/>
<path d="M375.18 153.002C374.976 153.002 374.784 152.877 374.71 152.674C372.188 145.789 371.608 138.144 371.603 138.067C371.584 137.792 371.791 137.552 372.066 137.532C372.306 137.511 372.581 137.718 372.601 137.994C372.606 138.069 373.177 145.579 375.65 152.329C375.745 152.588 375.612 152.875 375.352 152.971C375.295 152.993 375.237 153.002 375.18 153.002Z" fill="white"/>
<path d="M395.196 162.122C394.993 162.122 394.802 161.998 394.727 161.796L393.394 158.204C391.987 154.412 391.243 150.611 391.243 147.211V143.279C391.243 138.614 387.892 132.92 383.774 130.587C381.85 129.497 380.075 129.315 378.773 130.075C377.498 130.817 376.797 132.398 376.797 134.528V137.999C376.797 143.092 377.953 148.795 380.142 154.492L381.793 158.795C381.892 159.053 381.763 159.342 381.505 159.441C381.249 159.539 380.958 159.411 380.859 159.153L379.208 154.85C376.977 149.04 375.797 143.213 375.797 137.998V134.527C375.797 132.027 376.675 130.139 378.269 129.21C379.894 128.263 382.024 128.445 384.266 129.716C388.664 132.208 392.243 138.292 392.243 143.279V147.211C392.243 150.493 392.966 154.174 394.332 157.856L395.665 161.448C395.761 161.707 395.629 161.994 395.37 162.091C395.312 162.112 395.254 162.122 395.196 162.122Z" fill="white"/>
<path d="M390.787 163.554C390.571 163.554 390.372 163.413 390.308 163.196L389.611 160.844C388.287 156.377 387.616 152.077 387.616 148.065V141.982C387.616 139.475 385.814 136.414 383.6 135.16C382.61 134.599 381.705 134.497 381.058 134.876C380.426 135.245 380.078 136.05 380.078 137.144C380.078 143.896 382.135 151.688 385.869 159.083L387.274 161.866C387.398 162.113 387.299 162.413 387.053 162.538C386.807 162.661 386.505 162.563 386.381 162.317L384.976 159.534C381.172 152.001 379.078 144.05 379.078 137.143C379.078 135.678 379.602 134.566 380.556 134.011C381.523 133.447 382.782 133.546 384.093 134.289C386.587 135.702 388.616 139.153 388.616 141.981V148.064C388.616 151.981 389.273 156.184 390.57 160.559L391.267 162.911C391.345 163.176 391.195 163.454 390.93 163.533C390.882 163.548 390.834 163.554 390.787 163.554Z" fill="white"/>
<path d="M385.182 153.002C384.952 153.002 384.744 152.842 384.694 152.607L384.234 150.468C383.794 148.416 383.57 146.311 383.57 144.213V138.577C383.57 138.301 383.794 138.077 384.07 138.077C384.346 138.077 384.57 138.301 384.57 138.577V144.213C384.57 146.241 384.786 148.276 385.213 150.258L385.673 152.397C385.731 152.667 385.559 152.933 385.289 152.991C385.252 152.999 385.217 153.002 385.182 153.002Z" fill="white"/>
<path d="M369.758 142.154C369.504 142.154 369.287 141.962 369.262 141.703L368.971 138.778C368.944 138.504 369.144 138.258 369.418 138.231C369.716 138.213 369.938 138.404 369.965 138.679L370.256 141.604C370.283 141.878 370.083 142.123 369.809 142.151C369.791 142.153 369.774 142.154 369.758 142.154Z" fill="white"/>
<path d="M412.593 211.536L363.614 183.795C362.211 182.985 360.95 183.046 360.056 183.788L355.824 186.714L358.71 190.282V241.908C358.71 245.519 360.905 249.714 363.614 251.278L411.377 278.317L411.602 282.162L416.061 279.106C416.948 278.435 417.497 277.117 417.497 275.312V220.906C417.496 217.294 415.301 213.099 412.593 211.536Z" fill="#6720FF"/>
<path opacity="0.3" d="M412.593 211.536L363.614 183.795C362.211 182.985 360.95 183.046 360.056 183.788L355.824 186.714L358.71 190.282V241.908C358.71 245.519 360.905 249.714 363.614 251.278L411.377 278.317L411.602 282.162L416.061 279.106C416.948 278.435 417.497 277.117 417.497 275.312V220.906C417.496 217.294 415.301 213.099 412.593 211.536Z" fill="black"/>
<path d="M408.43 281.885L359.451 254.144C356.743 252.581 354.547 248.386 354.547 244.774V190.368C354.547 186.757 356.743 185.097 359.451 186.661L408.43 214.402C411.138 215.966 413.334 220.161 413.334 223.772V278.178C413.334 281.789 411.138 283.448 408.43 281.885Z" fill="#6720FF"/>
<path d="M365.449 205.548C365.173 205.548 364.949 205.324 364.949 205.048V201.675C364.949 200.993 365.304 200.38 365.898 200.033C366.505 199.679 367.234 199.674 367.845 200.021L371.38 202.024C371.62 202.16 371.705 202.465 371.568 202.706C371.431 202.947 371.124 203.029 370.887 202.895L367.352 200.892C367.052 200.723 366.699 200.725 366.401 200.898C366.113 201.066 365.948 201.349 365.948 201.676V205.049C365.949 205.324 365.726 205.548 365.449 205.548Z" fill="white"/>
<path d="M371.135 251.925C371.051 251.925 370.966 251.904 370.889 251.86L367.586 249.988C365.959 249.067 364.949 247.348 364.949 245.502V242.393C364.949 242.117 365.173 241.893 365.449 241.893C365.725 241.893 365.949 242.117 365.949 242.393V245.502C365.949 246.988 366.764 248.374 368.078 249.118L371.381 250.99C371.621 251.126 371.706 251.431 371.569 251.672C371.478 251.833 371.309 251.925 371.135 251.925Z" fill="white"/>
<path d="M400.998 268.631C400.668 268.631 400.337 268.546 400.035 268.374L396.5 266.371C396.26 266.235 396.175 265.93 396.311 265.689C396.447 265.448 396.753 265.366 396.992 265.5L400.527 267.503C400.828 267.672 401.183 267.67 401.478 267.497C401.766 267.33 401.931 267.046 401.931 266.72V263.347C401.931 263.071 402.155 262.847 402.431 262.847C402.707 262.847 402.931 263.071 402.931 263.347V266.72C402.931 267.401 402.577 268.015 401.982 268.361C401.675 268.541 401.337 268.631 400.998 268.631Z" fill="white"/>
<path d="M402.432 226.502C402.156 226.502 401.932 226.278 401.932 226.002V222.893C401.932 221.407 401.117 220.021 399.803 219.277L396.5 217.405C396.26 217.269 396.175 216.964 396.311 216.723C396.447 216.483 396.753 216.398 396.992 216.534L400.295 218.406C401.922 219.327 402.932 221.046 402.932 222.892V226.001C402.932 226.279 402.708 226.502 402.432 226.502Z" fill="white"/>
<path d="M369.884 222.371C369.959 228.282 370.915 233.975 372.297 239.175C376.105 253.507 391.09 262.322 395.209 252.612C396.85 248.744 397.999 243.805 397.999 237.559C397.999 228.759 391.704 218.059 383.938 213.659C376.022 209.174 369.769 213.337 369.884 222.371Z" fill="white"/>
<path d="M383.441 230.38V239.802L379.348 236.738L383.441 230.38Z" fill="#E0E0E0"/>
<path d="M375.824 224.754C375.824 225.598 376.428 226.624 377.173 227.047C377.918 227.469 378.522 227.127 378.522 226.283C378.522 225.439 377.918 224.413 377.173 223.99C376.428 223.568 375.824 223.91 375.824 224.754Z" fill="#E0E0E0"/>
<path d="M388.355 231.928C388.355 232.772 388.959 233.798 389.704 234.221C390.449 234.643 391.053 234.301 391.053 233.457C391.053 232.613 390.449 231.587 389.704 231.164C388.958 230.742 388.355 231.084 388.355 231.928Z" fill="#E0E0E0"/>
<path d="M382.09 244.413L386.661 243.638C386.661 243.638 385.687 248.522 382.09 244.413Z" fill="#E0E0E0"/>
<path d="M308.378 253.204C308.378 253.204 315.667 252.713 319.802 262.844C322.372 269.142 325.502 278.874 327.502 285.338C328.745 289.354 327.462 293.721 324.242 296.423L311.532 307.087L306.984 298.817C306.984 298.817 311.887 292.275 315.667 288.893L306.984 262.843L308.378 253.204Z" fill="#FFA8A7"/>
<path d="M311.738 284.138C311.738 284.138 323.316 285.669 326.21 276.737C326.21 276.737 321.248 263.67 318.974 259.329C316.7 254.987 312.046 251.834 308.377 253.204C304.708 254.574 311.738 284.138 311.738 284.138Z" fill="#6720FF"/>
<path opacity="0.4" d="M311.738 284.138C311.738 284.138 323.316 285.669 326.21 276.737C326.21 276.737 321.248 263.67 318.974 259.329C316.7 254.987 312.046 251.834 308.377 253.204C304.708 254.574 311.738 284.138 311.738 284.138Z" fill="white"/>
<path d="M304.011 401.4C304.011 401.4 298.506 396.686 296.37 396.465C294.234 396.244 290.53 399.906 293.658 406.261C294.528 408.029 298.064 409.944 300.274 413.332C302.484 416.72 304.472 419.267 307.861 418.804C311.249 418.341 311.691 416.426 311.47 414.216C311.249 412.006 310.255 408.213 310.255 408.213L304.011 401.4Z" fill="#37474F"/>
<path d="M308.042 417.789C304.55 418.266 302.5 415.641 300.222 412.149C297.944 408.657 294.3 406.683 293.403 404.86C293.008 404.059 292.722 403.3 292.523 402.584C292.65 403.682 292.993 404.906 293.659 406.26C294.529 408.028 298.065 409.943 300.275 413.331C302.485 416.719 304.473 419.266 307.862 418.803C310.457 418.448 311.318 417.239 311.482 415.701C311.033 416.738 310.048 417.515 308.042 417.789Z" fill="#263238"/>
<path d="M301.076 407.457C300.991 407.457 300.905 407.436 300.825 407.394C300.565 407.255 300.467 406.932 300.605 406.672C300.676 406.538 302.395 403.383 305.782 402.615C306.075 402.548 306.355 402.73 306.421 403.018C306.486 403.306 306.307 403.592 306.019 403.657C303.118 404.316 301.565 407.147 301.549 407.176C301.453 407.354 301.268 407.457 301.076 407.457Z" fill="#EBEBEB"/>
<path d="M299.022 405.563C298.937 405.563 298.851 405.543 298.771 405.5C298.511 405.361 298.413 405.038 298.551 404.778C298.622 404.644 300.339 401.489 303.727 400.721C304.019 400.654 304.301 400.836 304.367 401.124C304.432 401.412 304.252 401.698 303.964 401.763C301.062 402.422 299.51 405.253 299.494 405.282C299.397 405.46 299.213 405.563 299.022 405.563Z" fill="#EBEBEB"/>
<path d="M296.674 403.669C296.589 403.669 296.503 403.648 296.423 403.606C296.163 403.467 296.065 403.144 296.203 402.884C296.274 402.75 297.991 399.596 301.378 398.827C301.669 398.759 301.952 398.942 302.018 399.23C302.084 399.518 301.903 399.804 301.615 399.869C298.714 400.528 297.162 403.359 297.146 403.387C297.05 403.566 296.865 403.669 296.674 403.669Z" fill="#EBEBEB"/>
<path d="M274.733 416.851C274.733 416.851 267.359 414.459 265.159 415.119C262.959 415.779 260.807 420.918 266.508 425.907C268.094 427.295 272.373 427.733 275.947 430.17C279.522 432.608 282.532 434.305 285.688 432.455C288.844 430.605 288.586 428.477 288.024 426.169C287.309 423.229 286.734 421.093 286.734 421.093L274.733 416.851Z" fill="#37474F"/>
<path d="M285.449 431.379C282.197 433.286 279.093 431.537 275.409 429.024C271.724 426.511 267.314 426.06 265.679 424.63C264.96 424.001 264.366 423.37 263.875 422.745C264.452 423.777 265.293 424.845 266.508 425.908C268.094 427.296 272.373 427.734 275.947 430.171C279.522 432.609 282.532 434.306 285.688 432.456C288.105 431.039 288.458 429.491 287.988 427.904C287.971 429.11 287.318 430.283 285.449 431.379Z" fill="#263238"/>
<path d="M272.973 423.658C272.955 423.658 272.938 423.657 272.92 423.655C272.627 423.627 272.412 423.366 272.44 423.073C272.456 422.912 272.852 419.108 275.868 416.967C276.107 416.796 276.44 416.852 276.613 417.093C276.784 417.334 276.727 417.667 276.487 417.838C273.877 419.692 273.508 423.141 273.505 423.176C273.477 423.452 273.244 423.658 272.973 423.658Z" fill="#EBEBEB"/>
<path d="M276.016 424.655C275.998 424.655 275.981 424.654 275.963 424.652C275.669 424.624 275.454 424.363 275.483 424.07C275.499 423.909 275.896 420.105 278.911 417.964C279.15 417.793 279.484 417.849 279.656 418.09C279.827 418.331 279.77 418.664 279.53 418.835C276.921 420.689 276.55 424.138 276.547 424.173C276.52 424.448 276.287 424.655 276.016 424.655Z" fill="#EBEBEB"/>
<path d="M270.164 422.633C270.146 422.633 270.129 422.632 270.111 422.63C269.818 422.602 269.603 422.341 269.631 422.048C269.647 421.887 270.043 418.083 273.059 415.942C273.298 415.771 273.632 415.827 273.804 416.068C273.975 416.309 273.918 416.642 273.678 416.813C271.068 418.667 270.699 422.116 270.696 422.151C270.668 422.427 270.435 422.633 270.164 422.633Z" fill="#EBEBEB"/>
<path d="M310.6 402.805C311.26 395.503 312.691 384.063 313.286 378.714C314.349 369.158 313.375 361.869 312.71 358.403C312.405 356.816 312.32 355.211 312.48 353.603C313.926 339.061 314.875 315.494 314.073 310.314L293.66 314.633C293.66 314.633 296.159 347.699 297.255 358.698C298.358 369.77 302.462 402.9 302.462 402.9C304.168 403.905 307.267 405.004 310.6 402.805Z" fill="#455A64"/>
<path d="M307.659 410.312C309.427 410.036 310.255 408.213 310.255 408.213C310.255 407.062 310.389 405.141 310.6 402.805C307.267 405.004 304.169 403.905 302.461 402.9L303.184 409.042C304.014 409.981 305.892 410.589 307.659 410.312Z" fill="#FFA8A7"/>
<path d="M287.637 415.635C288.47 404.585 290.078 383.167 290.293 379.804C290.509 376.41 290.133 371.737 289.589 368.69C289.235 366.707 289.264 364.678 289.622 362.696L298.593 312.922L273.926 312.561L272.312 364.706C272.291 365.38 272.317 366.055 272.389 366.725L277.621 415.325C277.621 415.325 282.722 419.604 287.637 415.635Z" fill="#455A64"/>
<path d="M283.525 424.761C285.299 424.595 286.893 423.097 287.141 422.22C287.141 422.22 287.34 419.583 287.638 415.635C282.724 419.604 277.621 415.325 277.621 415.325L278.406 422.613C278.406 422.613 279.565 425.132 283.525 424.761Z" fill="#FFA8A7"/>
<path d="M285.322 256.518L279.503 258.507L273.242 288.117L273.545 314.373C273.545 314.373 278.016 317.936 295.479 317.936C305.282 317.936 311.663 314.244 314.071 310.314L312.501 294.452C312.501 294.452 314.071 278.822 314.071 271.095C314.071 263.369 314.416 257.034 308.376 253.204L302.999 253.646L285.322 256.518Z" fill="#6720FF"/>
<path opacity="0.2" d="M285.322 256.518L279.503 258.507L273.242 288.117L273.545 314.373C273.545 314.373 278.016 317.936 295.479 317.936C305.282 317.936 311.663 314.244 314.071 310.314L312.501 294.452C312.501 294.452 314.071 278.822 314.071 271.095C314.071 263.369 314.416 257.034 308.376 253.204L302.999 253.646L285.322 256.518Z" fill="white"/>
<path d="M279.004 231.073L276.09 236.84C275.91 237.196 276.088 237.629 276.467 237.755L279.925 238.907L279.004 231.073Z" fill="#F28F8F"/>
<path d="M283.04 221.399C283.04 221.399 278.621 223.78 278.621 237.442C278.621 244.955 279.137 249.742 283.04 249.448C286.944 249.153 298.176 247.68 298.176 247.68V221.399H283.04Z" fill="#FFA8A7"/>
<path d="M283.039 249.447C284.411 249.344 286.69 249.094 289.066 248.814V247.421C286.88 248.542 282.98 249.328 282.387 249.443C282.594 249.461 282.809 249.465 283.039 249.447Z" fill="#F28F8F"/>
<path d="M288.398 246.839V255.414H300.128V243.365L288.398 246.839Z" fill="#FFA8A7"/>
<path d="M288.399 252.148C288.399 252.148 292.616 253.646 296.004 253.057C299.392 252.468 300.129 250.405 300.129 250.405C300.129 250.405 301.234 250.321 303.002 253.646C303.002 253.646 300.931 257.784 296.152 258.065C289.891 258.433 285.324 256.518 285.324 256.518C285.324 256.518 286.954 251.722 288.399 252.148Z" fill="#6720FF"/>
<path opacity="0.4" d="M288.399 252.148C288.399 252.148 292.616 253.646 296.004 253.057C299.392 252.468 300.129 250.405 300.129 250.405C300.129 250.405 301.234 250.321 303.002 253.646C303.002 253.646 300.931 257.784 296.152 258.065C289.891 258.433 285.324 256.518 285.324 256.518C285.324 256.518 286.954 251.722 288.399 252.148Z" fill="white"/>
<path d="M262.23 277.586L259.08 282.433C259.08 282.433 251.43 279.022 246.055 276.954C240.68 274.887 237.475 272.015 237.475 272.015C237.475 272.015 237.889 267.911 238.509 265.817C239.129 263.723 239.336 261.965 237.475 262.896C235.614 263.826 234.374 267.444 234.271 267.858C234.271 267.858 223.52 257.056 222.176 257.288C220.832 257.521 221.143 259.148 224.037 262.482C226.93 265.817 226.93 265.817 226.93 265.817C226.93 265.817 220.336 269.615 221.411 273.75C222.486 277.885 231.169 279.746 231.169 279.746C231.169 279.746 256.593 299.283 262.23 295.769C267.866 292.254 275.826 282.124 275.826 282.124L262.23 277.586Z" fill="#FFA8A7"/>
<path d="M281.811 257.753C281.811 257.753 286.504 261.612 283.446 269.59C280.387 277.568 272.581 287.207 272.581 287.207C272.581 287.207 264.395 284.663 261.238 278.051L271.557 261.904C273.048 259.571 275.55 258.088 278.313 257.906C279.286 257.843 280.444 257.788 281.811 257.753Z" fill="#6720FF"/>
<path opacity="0.4" d="M281.811 257.753C281.811 257.753 286.504 261.612 283.446 269.59C280.387 277.568 272.581 287.207 272.581 287.207C272.581 287.207 264.395 284.663 261.238 278.051L271.557 261.904C273.048 259.571 275.55 258.088 278.313 257.906C279.286 257.843 280.444 257.788 281.811 257.753Z" fill="white"/>
<path d="M281.344 213.356C281.344 213.356 276.708 212.74 275.525 215.934C274.788 217.923 277.146 219.47 277.146 219.47C277.146 219.47 274.155 222.285 278.619 223.153C278.619 223.153 278.251 226.983 282.228 226.467C282.228 226.467 281.712 229.504 285.616 230.564C285.616 230.564 283.643 235.822 287.355 235.895H290.83L289.429 239.946C289.429 239.946 292.024 246.207 300.127 246.207C300.127 246.207 302.19 241.935 303.147 240.683C304.105 239.431 309.113 233.023 309.113 227.941C309.113 222.859 307.158 219.848 304.453 219.18C304.453 219.18 303.296 216.377 300.57 214.535C297.845 212.694 292.099 211.051 288.858 213.309C288.858 213.309 285.985 209.542 283.997 209.542C282.007 209.541 281.344 211.588 281.344 213.356Z" fill="#263238"/>
<path d="M287.357 235.895C287.357 235.895 287.018 230.564 291.511 230.564C296.004 230.564 294.938 239.946 289.431 239.946L287.357 235.895Z" fill="#FFA8A7"/>
</svg>
