<?xml version="1.0" encoding="utf-8"?>
<!-- Generator: Adobe Illustrator 25.4.1, SVG Export Plug-In . SVG Version: 6.00 Build 0)  -->
<svg version="1.1" id="Layer_1" xmlns="http://www.w3.org/2000/svg" xmlns:xlink="http://www.w3.org/1999/xlink" x="0px" y="0px"
	 viewBox="0 0 151 28" style="enable-background:new 0 0 151 28;" xml:space="preserve">
<style type="text/css">
	.st0{fill:#F9F6FF;}
	.st1{fill:#FFFFFF;}
	.st2{fill:#F7F7F7;}
	.st3{fill:#D6D6D6;}
	.st4{fill:#FCFCFC;}
	.st5{opacity:0.41;enable-background:new    ;}
</style>
<path class="st0" d="M10.1,18.5c0,0.8-0.3,1.4-0.9,1.9c-0.5,0.4-1.2,0.7-2,0.7h-6L1,19.1h6.1c0.7,0,1.1-0.3,1.1-0.8
	c0-0.3-0.1-0.5-0.3-0.7L3.6,13l1.3-1.3l4.4,4.6C9.8,16.9,10.1,17.7,10.1,18.5z M14.6,21h-1.9V8.6h1.9V21z M26.7,21h-1.3
	c0,1.4-0.5,2.6-1.4,3.5c-0.9,0.9-2.1,1.4-3.6,1.4h-2.5L17.6,24h2.4c0.9,0,1.7-0.3,2.3-0.8c0.6-0.5,0.9-1.2,1-2.2
	c-1.6,0-2.8-0.2-3.5-0.7c-1-0.6-1.5-1.6-1.5-3.1c0-1.6,0.4-2.8,1.2-3.4c0.5-0.4,1.2-0.6,2.3-0.6c1.5,0,2.6,0.6,3.1,1.9
	c0.3,0.7,0.5,2,0.5,3.9h1.3V21z M23.4,19.1v-1.8c0-0.5-0.1-1-0.4-1.4c-0.3-0.4-0.7-0.7-1.2-0.7c-0.6,0-1,0.2-1.2,0.6
	c-0.2,0.3-0.2,0.8-0.2,1.5c0,0.8,0.3,1.3,1,1.6C21.7,19,22.4,19.1,23.4,19.1z M37.8,21c-1.6,0-2.8-0.5-3.5-1.4
	c-0.4,0.9-1.3,1.4-2.7,1.4h-5.7v-1.9h5.8c0.5,0,0.8-0.3,0.8-1c0-0.2-0.1-0.4-0.2-0.6l-5-5.3L26.8,10L34,7.5l0.3,1.9l-5,1.9l5.3,5.9
	c0.6,0.7,1.1,1.1,1.4,1.3c0.5,0.3,1.1,0.5,1.9,0.5V21z M52.2,17.9c0,1-0.2,1.7-0.7,2.3c-0.5,0.7-1.2,1-2.1,1c-0.9,0-1.8-0.4-2.6-1.3
	c-0.7,0.9-1.5,1.3-2.4,1.3c-0.9,0-1.8-0.5-2.6-1.5C41,20.6,40.2,21,39.3,21h-2.5v-1.9h2.3c0.9,0,1.3-0.5,1.3-1.4v-2.7h1.9v2.8
	c0,0.5,0.2,0.8,0.5,1.1c0.3,0.3,0.7,0.4,1.2,0.4c0.9,0,1.3-0.4,1.3-1.2v-3.2h1.9v2.8c0,0.5,0.2,0.8,0.5,1.1c0.3,0.3,0.7,0.4,1.2,0.4
	c0.9,0,1.4-0.4,1.4-1.2v-3.2h1.9V17.9z M56.9,21H55V8.6h1.9V21z M68.1,21h-1.9V8.6h1.9V21z M78.3,9.8c0,0.4-0.1,0.7-0.4,1
	c-0.3,0.3-0.6,0.4-1,0.4c-1,0-1.5-0.5-1.5-1.4c0-0.8,0.5-1.1,1.4-1.1C77.8,8.6,78.3,9,78.3,9.8z M80.5,21c-1,0-1.7-0.3-2.1-0.9
	c0,1.6-0.4,3-1.2,4c-0.9,1.2-2.1,1.8-3.7,1.8H71L70.7,24h2.7c0.8,0,1.5-0.3,2.1-0.8c0.6-0.6,1-1.2,1-2v-6.2h1.9v2.8
	c0,0.9,0.7,1.4,2.1,1.4V21z M87.4,6.4l-6.8,2.4l-0.1-0.7l6.8-2.4L87.4,6.4z M91.5,21c-1.6,0-2.7-0.5-3.4-1.5c-0.4,1-1.3,1.5-2.4,1.5
	h-5.8v-1.9h5.8c0.7,0,1-0.2,1-0.7c0-0.2-0.2-0.5-0.5-0.8l-5.1-5.3L80.8,10l7.1-2.6l0.3,1.9l-5.2,1.9l5.4,5.9c0.4,0.4,0.9,1,1.7,1.6
	c0.3,0.2,0.7,0.2,1.3,0.2V21z M103,18.4c0,0.9-0.3,1.6-1,2.3c-0.6,0.7-1.4,1-2.2,1c-1,0-2.3-0.5-4-1.4C95,20.7,94.1,21,93,21l-2.1,0
	v-1.9h2.7c-0.7-0.9-1.1-1.8-1.1-2.7c0-0.9,0.3-1.7,0.9-2.3c0.6-0.6,1.3-0.9,2.3-0.9c0.8,0,1.6,0.3,2.3,1L96.7,13l1.5-1.3
	C101.4,14.7,103,17,103,18.4z M100.9,18.6c0-0.8-0.9-2-2.6-3.7c0.4,0.4,0.6,1.1,0.6,1.8c0,1.2-0.4,2.1-1.2,2.5
	c0.7,0.4,1.4,0.7,1.9,0.7C100.5,19.8,100.9,19.4,100.9,18.6z M97.1,16.5c0-0.4-0.2-0.8-0.5-1.1c-0.3-0.3-0.7-0.4-1.1-0.4
	c-0.4,0-0.6,0.1-0.8,0.4c-0.2,0.3-0.3,0.6-0.3,0.9c0,0.8,0.5,1.5,1.5,1.9C96.7,17.9,97.1,17.3,97.1,16.5z"/>
<path class="st1" d="M9.3,20.3l0.4,0.5l0,0L9.3,20.3z M1.3,21l-0.7,0.1l0.1,0.6h0.6V21z M1,19.1v-0.7H0.2l0.1,0.8L1,19.1z M7.9,17.6
	l0.5-0.5l0,0L7.9,17.6z M3.6,13l-0.5-0.5L2.6,13l0.5,0.5L3.6,13z M4.9,11.7l0.5-0.5l-0.5-0.5l-0.5,0.5L4.9,11.7z M9.2,16.3l0.5-0.5
	l0,0L9.2,16.3z M9.4,18.5c0,0.6-0.2,1-0.6,1.3l0.9,1.1c0.7-0.6,1.1-1.4,1.1-2.4H9.4z M8.8,19.8c-0.4,0.3-0.9,0.5-1.5,0.5v1.4
	c0.9,0,1.8-0.3,2.4-0.8L8.8,19.8z M7.3,20.3h-6v1.4h6V20.3z M2,20.9L1.7,19l-1.4,0.2l0.3,1.9L2,20.9z M1,19.8h6.1v-1.4H1V19.8z
	 M7.2,19.8c0.4,0,0.9-0.1,1.2-0.3c0.4-0.3,0.6-0.7,0.6-1.1H7.5c0,0,0,0,0,0c0,0,0,0,0,0c0,0,0,0-0.1,0c-0.1,0-0.2,0-0.3,0V19.8z
	 M8.9,18.3c0-0.5-0.2-0.9-0.5-1.2l-1,1c0.1,0.1,0.1,0.2,0.1,0.2H8.9z M8.4,17.1l-4.4-4.6l-1,1l4.4,4.6L8.4,17.1z M4.1,13.5l1.3-1.3
	l-1-1l-1.3,1.3L4.1,13.5z M4.4,12.2l4.4,4.6l1-1l-4.4-4.6L4.4,12.2z M8.7,16.8c0.5,0.5,0.7,1.1,0.7,1.7h1.4c0-1-0.4-1.9-1.1-2.7
	L8.7,16.8z M14.6,21v0.7h0.7V21H14.6z M12.7,21H12v0.7h0.7V21z M12.7,8.6V7.9H12v0.7H12.7z M14.6,8.6h0.7V7.9h-0.7V8.6z M14.6,20.3
	h-1.9v1.4h1.9V20.3z M13.4,21V8.6H12V21H13.4z M12.7,9.3h1.9V7.9h-1.9V9.3z M13.9,8.6V21h1.4V8.6H13.9z M26.7,21v0.7h0.7V21H26.7z
	 M25.4,21v-0.7h-0.7V21H25.4z M23.9,24.5L23.5,24l0,0L23.9,24.5z M17.9,25.9L17.2,26l0.1,0.6h0.6V25.9z M17.6,24v-0.7h-0.8l0.1,0.8
	L17.6,24z M23.3,21l0.7,0l0-0.7h-0.7V21z M19.8,20.3l-0.4,0.6l0,0L19.8,20.3z M19.5,13.9l0.4,0.5l0,0L19.5,13.9z M24.9,15.2l0.6-0.3
	l0,0L24.9,15.2z M25.4,19.1l-0.7,0l0,0.7h0.7V19.1z M26.7,19.1h0.7v-0.7h-0.7V19.1z M23.4,19.1v0.7h0.7v-0.7H23.4z M23,15.8l0.6-0.4
	l0,0L23,15.8z M20.5,15.8l-0.6-0.3l0,0L20.5,15.8z M21.3,18.9l0.2-0.7l0,0L21.3,18.9z M26.7,20.3h-1.3v1.4h1.3V20.3z M24.7,21
	c0,1.2-0.4,2.2-1.2,3l1,1c1.1-1.1,1.6-2.4,1.6-4H24.7z M23.5,24c-0.8,0.8-1.8,1.2-3.1,1.2v1.4c1.6,0,3-0.5,4-1.6L23.5,24z
	 M20.4,25.2h-2.5v1.4h2.5V25.2z M18.6,25.8l-0.3-1.9l-1.4,0.2l0.3,1.9L18.6,25.8z M17.6,24.7h2.4v-1.4h-2.4V24.7z M20.1,24.7
	c1.1,0,2-0.3,2.7-1l-0.9-1.1c-0.5,0.4-1.1,0.6-1.8,0.6V24.7z M22.8,23.7C23.6,23,24,22.1,24,21L22.6,21c0,0.7-0.3,1.3-0.7,1.7
	L22.8,23.7z M23.3,20.3c-1.6,0-2.6-0.2-3.2-0.6L19.4,21c0.9,0.5,2.2,0.8,3.9,0.8V20.3z M20.2,19.7c-0.7-0.4-1.1-1.2-1.1-2.5h-1.4
	c0,1.6,0.6,3,1.8,3.7L20.2,19.7z M19,17.3c0-1.5,0.4-2.4,0.9-2.9L19,13.3c-1,0.8-1.4,2.2-1.4,3.9H19z M20,14.4
	c0.3-0.2,0.8-0.4,1.8-0.4v-1.4c-1.1,0-2.1,0.2-2.7,0.7L20,14.4z M21.8,14c0.7,0,1.2,0.1,1.6,0.4c0.4,0.2,0.7,0.6,0.9,1.1l1.3-0.5
	c-0.3-0.8-0.8-1.4-1.4-1.8c-0.7-0.4-1.4-0.6-2.3-0.6V14z M24.2,15.5c0.2,0.6,0.4,1.8,0.4,3.6l1.4,0c0-1.8-0.2-3.3-0.5-4.1L24.2,15.5
	z M25.4,19.8h1.3v-1.4h-1.3V19.8z M26,19.1V21h1.4v-1.9H26z M24.1,19.1v-1.8h-1.4v1.8H24.1z M24.1,17.2c0-0.7-0.2-1.3-0.5-1.8
	l-1.2,0.8c0.2,0.3,0.3,0.6,0.3,1H24.1z M23.6,15.5c-0.4-0.6-1-1-1.8-1v1.4c0.3,0,0.5,0.1,0.6,0.3L23.6,15.5z M21.8,14.5
	c-0.8,0-1.5,0.3-1.9,1l1.2,0.6c0.1-0.1,0.2-0.2,0.6-0.2V14.5z M19.9,15.5c-0.2,0.5-0.3,1.1-0.3,1.8H21c0-0.7,0.1-1,0.2-1.2
	L19.9,15.5z M19.6,17.3c0,0.5,0.1,1,0.4,1.4c0.3,0.4,0.7,0.7,1.1,0.8l0.4-1.3c-0.2-0.1-0.3-0.2-0.4-0.3c-0.1-0.1-0.1-0.3-0.1-0.6
	H19.6z M21.1,19.5c0.5,0.2,1.3,0.2,2.3,0.2v-1.4c-1,0-1.6-0.1-1.8-0.2L21.1,19.5z M37.8,21v0.7h0.7V21H37.8z M34.3,19.6l0.6-0.4
	l-0.7-1l-0.5,1.2L34.3,19.6z M25.9,21h-0.7v0.7h0.7V21z M25.9,19.1v-0.7h-0.7v0.7H25.9z M32.2,17.5l0.5-0.5l0,0L32.2,17.5z
	 M27.2,12.2l-0.7,0.1l0,0.2l0.1,0.2L27.2,12.2z M26.8,10l-0.2-0.7l-0.5,0.2l0.1,0.6L26.8,10z M34,7.5l0.7-0.1l-0.1-0.9l-0.8,0.3
	L34,7.5z M34.2,9.4l0.2,0.7L35,9.9l-0.1-0.6L34.2,9.4z M29.2,11.3l-0.2-0.7L28,11l0.7,0.8L29.2,11.3z M34.5,17.2l0.5-0.5l0,0
	L34.5,17.2z M35.9,18.5l0.4-0.6l0,0L35.9,18.5z M37.8,19.1h0.7v-0.7l-0.7,0L37.8,19.1z M37.8,20.3c-1.5,0-2.4-0.4-2.9-1.1L33.8,20
	c0.9,1.2,2.3,1.7,4.1,1.7V20.3z M33.7,19.3c-0.1,0.3-0.3,0.5-0.6,0.7c-0.3,0.2-0.8,0.3-1.4,0.3v1.4c0.8,0,1.5-0.1,2-0.4
	c0.6-0.3,1-0.8,1.3-1.4L33.7,19.3z M31.7,20.3h-5.7v1.4h5.7V20.3z M26.6,21v-1.9h-1.4V21H26.6z M25.9,19.8h5.8v-1.4h-5.8V19.8z
	 M31.7,19.8c0.4,0,0.8-0.1,1.1-0.5c0.3-0.3,0.3-0.8,0.3-1.2h-1.4c0,0.1,0,0.2,0,0.3c0,0.1,0,0.1,0,0.1c0,0,0,0,0,0c0,0,0,0-0.1,0
	V19.8z M33.2,18.1c0-0.4-0.1-0.8-0.4-1.1l-1,1c0,0,0,0,0,0c0,0,0,0,0,0.1H33.2z M32.7,17l-5-5.3l-1,1l5,5.3L32.7,17z M27.9,12.1
	l-0.4-2.2l-1.4,0.2l0.4,2.2L27.9,12.1z M27.1,10.7l7.1-2.6l-0.5-1.3l-7.1,2.6L27.1,10.7z M33.3,7.6l0.3,1.9l1.4-0.2l-0.3-1.9
	L33.3,7.6z M34,8.8l-5,1.9l0.5,1.3l5-1.9L34,8.8z M28.7,11.8l5.3,5.9l1-0.9l-5.3-5.9L28.7,11.8z M34,17.7c0.6,0.7,1.1,1.2,1.6,1.5
	l0.8-1.2c-0.3-0.2-0.7-0.6-1.3-1.2L34,17.7z M35.6,19.1c0.6,0.4,1.4,0.6,2.2,0.6l0-1.4c-0.6,0-1.1-0.2-1.5-0.4L35.6,19.1z
	 M37.1,19.1V21h1.4v-1.9H37.1z M51.5,20.2l-0.6-0.4l0,0L51.5,20.2z M46.8,19.9l0.5-0.5l-0.5-0.6l-0.5,0.6L46.8,19.9z M41.8,19.7
	l0.5-0.5l-0.5-0.6l-0.5,0.6L41.8,19.7z M36.8,21h-0.7v0.7h0.7V21z M36.8,19.1v-0.7h-0.7v0.7H36.8z M40.5,14.9v-0.7h-0.7v0.7H40.5z
	 M42.4,14.9h0.7v-0.7h-0.7V14.9z M42.9,18.9l0.5-0.5L42.9,18.9z M45.4,14.9v-0.7h-0.7v0.7H45.4z M47.3,14.9H48v-0.7h-0.7V14.9z
	 M47.7,18.9l-0.5,0.5l0,0l0,0L47.7,18.9z M50.3,14.9v-0.7h-0.7v0.7H50.3z M52.2,14.9h0.7v-0.7h-0.7V14.9z M51.5,17.9
	c0,0.9-0.2,1.5-0.5,1.9l1.1,0.8c0.6-0.7,0.8-1.7,0.8-2.7H51.5z M50.9,19.8c-0.3,0.5-0.8,0.7-1.6,0.7v1.4c1.1,0,2.1-0.4,2.7-1.3
	L50.9,19.8z M49.4,20.5c-0.7,0-1.4-0.3-2.1-1.1l-1,1c0.9,1,2,1.5,3.1,1.5V20.5z M46.2,19.5c-0.7,0.8-1.3,1-1.8,1v1.4
	c1.1,0,2.1-0.6,2.9-1.5L46.2,19.5z M44.4,20.5c-0.6,0-1.3-0.3-2.1-1.3l-1.1,0.9c0.9,1.1,2,1.8,3.2,1.8V20.5z M41.3,19.2
	c-0.7,0.8-1.3,1.1-2,1.1v1.4c1.2,0,2.2-0.6,3.1-1.6L41.3,19.2z M39.3,20.3h-2.5v1.4h2.5V20.3z M37.5,21v-1.9h-1.4V21H37.5z
	 M36.8,19.8h2.3v-1.4h-2.3V19.8z M39.1,19.8c0.6,0,1.1-0.2,1.5-0.6c0.4-0.4,0.5-1,0.5-1.6h-1.4c0,0.4-0.1,0.5-0.1,0.6
	c0,0.1-0.2,0.1-0.5,0.1V19.8z M41.2,17.6v-2.7h-1.4v2.7H41.2z M40.5,15.6h1.9v-1.4h-1.9V15.6z M41.7,14.9v2.8h1.4v-2.8H41.7z
	 M41.7,17.8c0,0.6,0.2,1.2,0.7,1.7l0.9-1c-0.2-0.2-0.3-0.3-0.3-0.6H41.7z M42.4,19.4c0.5,0.4,1,0.6,1.7,0.6v-1.4
	c-0.3,0-0.5-0.1-0.7-0.3L42.4,19.4z M44.1,20c0.5,0,1.1-0.1,1.5-0.5c0.4-0.4,0.6-0.9,0.6-1.4h-1.4c0,0.3-0.1,0.4-0.1,0.4
	c0,0-0.2,0.1-0.5,0.1V20z M46.1,18.1v-3.2h-1.4v3.2H46.1z M45.4,15.6h1.9v-1.4h-1.9V15.6z M46.6,14.9v2.8H48v-2.8H46.6z M46.6,17.8
	c0,0.6,0.2,1.2,0.7,1.6l1-1C48,18.2,48,18,48,17.8H46.6z M47.3,19.4c0.5,0.4,1,0.6,1.6,0.6v-1.4c-0.3,0-0.5-0.1-0.7-0.3L47.3,19.4z
	 M48.9,20c0.5,0,1.1-0.1,1.5-0.5c0.4-0.4,0.6-0.9,0.6-1.4h-1.4c0,0.3-0.1,0.4-0.1,0.4c0,0-0.2,0.1-0.6,0.1V20z M51,18.1v-3.2h-1.4
	v3.2H51z M50.3,15.6h1.9v-1.4h-1.9V15.6z M51.5,14.9v3h1.4v-3H51.5z M56.9,21v0.7h0.7V21H56.9z M55,21h-0.7v0.7H55V21z M55,8.6V7.9
	h-0.7v0.7H55z M56.9,8.6h0.7V7.9h-0.7V8.6z M56.9,20.3H55v1.4h1.9V20.3z M55.7,21V8.6h-1.4V21H55.7z M55,9.3h1.9V7.9H55V9.3z
	 M56.2,8.6V21h1.4V8.6H56.2z M68.1,21v0.7h0.7V21H68.1z M66.2,21h-0.7v0.7h0.7V21z M66.2,8.6V7.9h-0.7v0.7H66.2z M68.1,8.6h0.7V7.9
	h-0.7V8.6z M68.1,20.3h-1.9v1.4h1.9V20.3z M66.9,21V8.6h-1.4V21H66.9z M66.2,9.3h1.9V7.9h-1.9V9.3z M67.4,8.6V21h1.4V8.6H67.4z
	 M77.9,10.7l0.5,0.5l0,0L77.9,10.7z M80.5,21l0,0.7l0.7,0V21H80.5z M78.4,20.1l0.6-0.4l-1.3-2.1v2.5H78.4z M77.2,24.1l-0.6-0.4l0,0
	L77.2,24.1z M71,25.9L70.3,26l0.1,0.6H71V25.9z M70.7,24v-0.7h-0.8l0.1,0.8L70.7,24z M75.5,23.1L75,22.6l0,0L75.5,23.1z M76.4,14.9
	v-0.7h-0.7v0.7H76.4z M78.4,14.9h0.7v-0.7h-0.7V14.9z M80.5,19.1h0.7v-0.7h-0.7V19.1z M77.6,9.8c0,0.2-0.1,0.3-0.2,0.5l1,1
	c0.4-0.4,0.6-0.9,0.6-1.5H77.6z M77.4,10.2c-0.1,0.1-0.3,0.2-0.5,0.2v1.4c0.6,0,1.1-0.2,1.5-0.6L77.4,10.2z M76.9,10.4
	c-0.4,0-0.6-0.1-0.6-0.2c-0.1-0.1-0.1-0.2-0.1-0.5h-1.4c0,0.6,0.2,1.1,0.6,1.5c0.4,0.4,1,0.5,1.6,0.5V10.4z M76.2,9.8
	c0-0.2,0.1-0.3,0.1-0.3c0.1,0,0.2-0.1,0.6-0.1V7.9c-0.5,0-1.1,0.1-1.5,0.4c-0.4,0.4-0.6,0.9-0.6,1.4H76.2z M76.9,9.3
	c0.4,0,0.6,0.1,0.6,0.1c0,0,0.1,0.1,0.1,0.3H79c0-0.5-0.2-1-0.6-1.4c-0.4-0.3-1-0.4-1.5-0.4V9.3z M80.5,20.3c-0.9,0-1.3-0.3-1.5-0.6
	l-1.2,0.7c0.5,0.9,1.5,1.2,2.7,1.2L80.5,20.3z M77.7,20.1c0,1.5-0.4,2.7-1.1,3.6l1.1,0.8c0.9-1.2,1.3-2.7,1.3-4.4H77.7z M76.6,23.7
	c-0.7,1-1.8,1.5-3.1,1.5v1.4c1.8,0,3.2-0.7,4.2-2.1L76.6,23.7z M73.5,25.2H71v1.4h2.5V25.2z M71.7,25.8l-0.3-1.9L70,24.1l0.3,1.9
	L71.7,25.8z M70.7,24.7h2.7v-1.4h-2.7V24.7z M73.3,24.7c1,0,1.8-0.3,2.6-1l-0.9-1c-0.5,0.4-1,0.6-1.7,0.6V24.7z M75.9,23.7
	c0.8-0.7,1.2-1.5,1.2-2.6h-1.4c0,0.6-0.2,1.1-0.7,1.5L75.9,23.7z M77.1,21.1v-6.2h-1.4v6.2H77.1z M76.4,15.6h1.9v-1.4h-1.9V15.6z
	 M77.7,14.9v2.8h1.4v-2.8H77.7z M77.7,17.7c0,0.7,0.3,1.2,0.8,1.6c0.5,0.3,1.2,0.4,2,0.4v-1.4c-0.6,0-1-0.1-1.2-0.2
	c-0.1-0.1-0.2-0.2-0.2-0.4H77.7z M79.8,19.1V21h1.4v-1.9H79.8z M87.4,6.4L87.7,7l0.5-0.2l0-0.5L87.4,6.4z M80.7,8.8L80,8.9l0.1,0.9
	l0.8-0.3L80.7,8.8z M80.6,8.1l-0.2-0.7l-0.5,0.2l0.1,0.6L80.6,8.1z M87.4,5.6l0.7,0L88,4.7L87.2,5L87.4,5.6z M91.5,21v0.7h0.7V21
	H91.5z M88.1,19.5l0.6-0.4L87.9,18l-0.5,1.2L88.1,19.5z M79.9,21h-0.7v0.7h0.7V21z M79.9,19.1v-0.7h-0.7v0.7H79.9z M86.2,17.5
	l0.5-0.5l0,0L86.2,17.5z M81.1,12.2l-0.7,0.1l0,0.2l0.2,0.2L81.1,12.2z M80.8,10l-0.2-0.7L80,9.6l0.1,0.6L80.8,10z M87.9,7.5
	l0.7-0.1l-0.1-0.8l-0.8,0.3L87.9,7.5z M88.2,9.4l0.2,0.7L89,9.9l-0.1-0.6L88.2,9.4z M83.1,11.3l-0.2-0.7l-1,0.4l0.7,0.8L83.1,11.3z
	 M88.5,17.3l0.5-0.5l0,0L88.5,17.3z M90.2,18.9l-0.5,0.5l0.1,0.1l0.1,0L90.2,18.9z M91.5,19.1h0.7v-0.7l-0.7,0L91.5,19.1z M87.2,5.7
	l-6.8,2.4l0.5,1.3L87.7,7L87.2,5.7z M81.4,8.7L81.3,8l-1.4,0.2L80,8.9L81.4,8.7z M80.8,8.7l6.8-2.4L87.2,5l-6.8,2.4L80.8,8.7z
	 M86.7,5.7l0,0.7l1.4-0.1l0-0.7L86.7,5.7z M91.5,20.3c-1.4,0-2.3-0.5-2.8-1.2l-1.2,0.8c0.8,1.3,2.2,1.9,4,1.9V20.3z M87.4,19.2
	c-0.2,0.4-0.4,0.7-0.7,0.8c-0.3,0.2-0.6,0.3-1.1,0.3v1.4c0.7,0,1.3-0.2,1.9-0.5c0.5-0.3,0.9-0.9,1.2-1.5L87.4,19.2z M85.6,20.3h-5.8
	v1.4h5.8V20.3z M80.6,21v-1.9h-1.4V21H80.6z M79.9,19.8h5.8v-1.4h-5.8V19.8z M85.7,19.8c0.4,0,0.8-0.1,1.2-0.3
	c0.4-0.3,0.5-0.7,0.5-1.1h-1.4c0,0,0,0,0,0c0,0,0,0,0,0c0,0,0,0-0.1,0c-0.1,0-0.1,0-0.3,0V19.8z M87.3,18.3c0-0.5-0.3-1-0.6-1.3
	l-1,1c0.1,0.1,0.2,0.2,0.2,0.3c0,0.1,0,0.1,0,0.1H87.3z M86.7,17l-5.1-5.3l-1,1l5.1,5.3L86.7,17z M81.8,12.1l-0.3-2.2l-1.4,0.2
	l0.3,2.2L81.8,12.1z M81.1,10.7l7.1-2.6l-0.5-1.3l-7.1,2.6L81.1,10.7z M87.2,7.6l0.3,1.9l1.4-0.2l-0.3-1.9L87.2,7.6z M88,8.8
	l-5.2,1.9l0.5,1.3l5.2-1.9L88,8.8z M82.6,11.8l5.4,5.9l1-0.9l-5.4-5.9L82.6,11.8z M87.9,17.7c0.4,0.5,1,1,1.8,1.7l0.9-1.1
	c-0.7-0.6-1.3-1.2-1.6-1.6L87.9,17.7z M89.8,19.5c0.5,0.2,1,0.3,1.6,0.3l-0.1-1.4c-0.5,0-0.8,0-1-0.1L89.8,19.5z M90.8,19.1V21h1.4
	v-1.9H90.8z M102,20.7l0.5,0.5L102,20.7z M95.8,20.3l0.4-0.6l-0.3-0.2l-0.3,0.2L95.8,20.3z M93,21l0-0.7l0,0L93,21z M90.9,21h-0.7
	v0.7l0.7,0L90.9,21z M90.9,19.1v-0.7h-0.7v0.7H90.9z M93.6,19.1v0.7H95l-0.9-1.1L93.6,19.1z M93.4,14.1l0.5,0.5l0,0L93.4,14.1z
	 M98,14.3l-0.5,0.5l1-1L98,14.3z M96.7,13l-0.5-0.5L95.7,13l0.5,0.5L96.7,13z M98.2,11.7l0.5-0.5l-0.5-0.4l-0.5,0.4L98.2,11.7z
	 M98.4,14.8l0.5-0.5l-1,1L98.4,14.8z M97.8,19.1l-0.3-0.6l-1.1,0.6l1.1,0.6L97.8,19.1z M96.6,15.5l0.5-0.5L96.6,15.5z M94.6,15.5
	l0.6,0.4l0,0L94.6,15.5z M95.9,18.3l-0.3,0.7l0.3,0.1l0.3-0.1L95.9,18.3z M102.3,18.4c0,0.7-0.2,1.3-0.8,1.8l1,1
	c0.7-0.8,1.1-1.7,1.1-2.8H102.3z M101.5,20.3c-0.5,0.6-1.1,0.8-1.7,0.8v1.4c1.1,0,2-0.4,2.7-1.2L101.5,20.3z M99.8,21.1
	c-0.8,0-2-0.4-3.6-1.3l-0.7,1.2c1.7,1,3.1,1.5,4.3,1.5V21.1z M95.5,19.7c-0.7,0.4-1.5,0.6-2.5,0.6l0,1.4c1.1,0,2.2-0.2,3.1-0.7
	L95.5,19.7z M93,20.3l-2.1,0l0,1.4l2.1,0L93,20.3z M91.6,21v-1.9h-1.4V21H91.6z M90.9,19.8h2.7v-1.4h-2.7V19.8z M94.1,18.6
	c-0.7-0.9-0.9-1.6-0.9-2.2h-1.4c0,1,0.4,2.1,1.2,3.1L94.1,18.6z M93.2,16.4c0-0.8,0.2-1.3,0.7-1.8l-1-1c-0.7,0.7-1.1,1.7-1.1,2.8
	H93.2z M93.9,14.6c0.4-0.4,1-0.7,1.8-0.7v-1.4c-1.1,0-2,0.4-2.8,1.1L93.9,14.6z M95.7,14c0.6,0,1.2,0.2,1.8,0.8l1-1
	c-0.8-0.8-1.8-1.2-2.8-1.2V14z M98.5,13.8l-1.3-1.3l-1,1l1.3,1.3L98.5,13.8z M97.2,13.5l1.5-1.3l-0.9-1l-1.5,1.3L97.2,13.5z
	 M97.7,12.2c1.6,1.5,2.8,2.8,3.5,3.9c0.8,1.1,1.1,1.9,1.1,2.4h1.4c0-1-0.5-2-1.3-3.2c-0.8-1.2-2.1-2.5-3.7-4.1L97.7,12.2z
	 M101.6,18.6c0-0.6-0.3-1.3-0.8-1.9c-0.5-0.7-1.1-1.4-2-2.3l-1,1c0.8,0.8,1.4,1.6,1.8,2.1c0.4,0.6,0.5,1,0.5,1.1H101.6z M97.9,15.3
	c0.2,0.3,0.4,0.7,0.4,1.4h1.4c0-0.9-0.2-1.7-0.8-2.3L97.9,15.3z M98.3,16.6c0,1.1-0.3,1.6-0.8,1.8l0.6,1.2c1.1-0.6,1.6-1.7,1.6-3.1
	H98.3z M97.4,19.7c0.8,0.5,1.5,0.8,2.2,0.8v-1.4c-0.3,0-0.8-0.1-1.5-0.6L97.4,19.7z M99.7,20.5c0.5,0,1-0.1,1.4-0.5
	c0.4-0.4,0.5-0.9,0.5-1.4h-1.4c0,0.3-0.1,0.4-0.1,0.4c0,0-0.1,0.1-0.5,0.1V20.5z M97.8,16.5c0-0.6-0.2-1.2-0.7-1.6l-0.9,1
	c0.2,0.2,0.2,0.3,0.2,0.6H97.8z M97.1,14.9c-0.5-0.4-1-0.6-1.6-0.6v1.4c0.3,0,0.5,0.1,0.7,0.3L97.1,14.9z M95.5,14.3
	c-0.6,0-1.1,0.3-1.4,0.7l1.1,0.8c0.1-0.1,0.2-0.2,0.3-0.2V14.3z M94.1,15c-0.3,0.4-0.4,0.9-0.4,1.4H95c0-0.2,0.1-0.4,0.2-0.5
	L94.1,15z M93.6,16.4c0,0.6,0.2,1.1,0.5,1.5c0.4,0.4,0.9,0.7,1.4,1l0.5-1.3c-0.4-0.2-0.7-0.4-0.9-0.6c-0.1-0.2-0.2-0.4-0.2-0.6H93.6
	z M96.2,18.9c0.5-0.2,0.9-0.5,1.2-0.9c0.3-0.4,0.4-0.9,0.4-1.4h-1.4c0,0.3-0.1,0.5-0.2,0.6c-0.1,0.2-0.3,0.3-0.6,0.5L96.2,18.9z"/>
<path class="st2" d="M136.2,26.6h-2.3v-1.8c0-0.3-0.2-0.6-0.5-0.6h-3.8c-0.3,0-0.5,0.3-0.5,0.6v1.8h-2.3c-0.3,0-0.5,0.1-0.8,0.3
	l-1.2,1.1h13.3l-1.2-1.1C136.7,26.7,136.5,26.6,136.2,26.6z"/>
<path class="st1" d="M123.1,17.4c4,0,8.6-1.2,12.9-3.3c3.8-1.8,7-4.3,9.2-6.8V3.5c0-1.9-1.3-3.4-2.8-3.4h-21.8
	c-1.6,0-2.8,1.5-2.8,3.4v12.9C119.2,17.1,121,17.4,123.1,17.4z"/>
<path class="st1" d="M135.2,19.3c-4.6,2.3-9.5,3.5-13.8,3.5c-1.2,0-2.4-0.1-3.4-0.3c0.4,1.2,1.4,2.1,2.6,2.1h21.8
	c1.6,0,2.8-1.5,2.8-3.4v-9.4C142.8,14.6,139.3,17.3,135.2,19.3z"/>
<path class="st3" d="M123.1,17.4c4,0,8.6-1.2,12.9-3.3c2.4-1.2,4.6-2.6,6.4-4.1V4.5c0-0.6-0.4-1.1-0.9-1.1h-20.1
	c-0.5,0-0.9,0.5-0.9,1.1v12.7C121.3,17.3,122.2,17.4,123.1,17.4z"/>
<path class="st3" d="M135.2,19.3c-1.6,0.8-3.2,1.4-4.8,2h11.2c0.5,0,0.9-0.5,0.9-1.1v-5.6C140.4,16.3,137.9,18,135.2,19.3z"/>
<path class="st4" d="M138.7,5.4h1.5c0.1,0,0.3,0.2,0.3,0.3v1.8c0,0.3-0.3,0.5-0.5,0.2L138.6,6C138.4,5.8,138.5,5.4,138.7,5.4z"/>
<path class="st1" d="M140.1,10.5c-0.2,0.3-0.6,0.3-0.9,0l-3-3.6c-0.2-0.3-0.2-0.8,0-1.1c0.2-0.3,0.6-0.3,0.9,0l3,3.6
	C140.4,9.7,140.4,10.2,140.1,10.5z"/>
<path class="st1" d="M136.4,15.1c-9.4,4.6-19.2,4.5-21.9-0.2c-1.6-2.8-0.4-6.7,2.9-10.3V3.9c-5.3,4.5-7.7,9.9-5.6,13.7
	c3,5.2,13.3,5.5,23.1,0.7c6.7-3.3,11.4-8.1,12.7-12.5C145.5,9.1,141.5,12.6,136.4,15.1z"/>
<path class="st5" d="M145.5,8.5c-2.2,2.4-5.3,4.8-9.1,6.6c-9.4,4.6-19.2,4.5-21.9-0.2c-1.6-2.8-0.4-6.7,2.9-10.3V3.9
	c-0.3,0.3-0.7,0.6-1,0.8c-3.6,3.9-4.9,8.2-3.1,11.4c3,5.2,13.3,5.5,23.1,0.7c3-1.5,5.6-3.3,7.7-5.2c1.4-1.6,2.5-3.2,3.2-4.9
	C146.7,7.3,146.1,7.9,145.5,8.5z"/>
<path class="st1" d="M151,3.2l-2,1.1l0.2,2.6l-1.4-2l-2,1.1l1.1-2.3l-1.4-2l2.1,0.6l1.1-2.3l0.2,2.6L151,3.2z"/>
</svg>
