<svg width="151" height="28" viewBox="0 0 151 28" fill="none" xmlns="http://www.w3.org/2000/svg">
    <path d="M10.1406 18.4756C10.1406 19.249 9.85059 19.8721 9.27051 20.3447C8.7334 20.7816 8.07096 21 7.2832 21H1.28906L1.02051 19.0664H7.1543C7.87044 19.0664 8.22852 18.8158 8.22852 18.3145C8.22852 18.0566 8.13184 17.8239 7.93848 17.6162L3.58789 12.9863L4.8877 11.6758L9.23828 16.2842C9.83984 16.9215 10.1406 17.652 10.1406 18.4756ZM14.6094 21H12.7295V8.60352H14.6094V21ZM26.6514 21H25.373C25.373 22.418 24.8968 23.5853 23.9443 24.502C22.999 25.4258 21.8138 25.8877 20.3887 25.8877H17.8965L17.6279 23.9541H20.0664C20.9831 23.9541 21.7458 23.6891 22.3545 23.1592C22.9632 22.6292 23.2855 21.9095 23.3213 21C21.7243 21 20.5498 20.7816 19.7979 20.3447C18.8167 19.7718 18.3262 18.7441 18.3262 17.2617C18.3262 15.6432 18.7165 14.5081 19.4971 13.8564C19.9482 13.4697 20.7109 13.2764 21.7852 13.2764C23.3249 13.2764 24.3561 13.9137 24.8789 15.1885C25.1797 15.9333 25.3444 17.2259 25.373 19.0664H26.6514V21ZM23.3857 19.0664V17.2295C23.3857 16.6924 23.2568 16.2305 22.999 15.8438C22.7054 15.4069 22.3008 15.1885 21.7852 15.1885C21.1693 15.1885 20.7539 15.3962 20.5391 15.8115C20.3887 16.1123 20.3135 16.61 20.3135 17.3047C20.3135 18.1211 20.6536 18.6439 21.334 18.873C21.6992 19.002 22.3831 19.0664 23.3857 19.0664ZM37.8125 21C36.1654 21 35.0016 20.5309 34.3213 19.5928C33.9417 20.5309 33.0537 21 31.6572 21H25.9209V19.0664H31.6895C32.1979 19.0664 32.4521 18.7334 32.4521 18.0674C32.4521 17.8382 32.3805 17.6484 32.2373 17.498L27.1992 12.2129L26.8447 10.043L33.9561 7.47559L34.2246 9.40918L29.1865 11.2891L34.5254 17.1973C35.127 17.8704 35.5996 18.318 35.9434 18.54C36.4518 18.8695 37.0749 19.0449 37.8125 19.0664V21ZM52.1641 17.8955C52.1641 18.8551 51.9456 19.6286 51.5088 20.2158C51.0218 20.8818 50.3128 21.2148 49.3818 21.2148C48.4723 21.2148 47.6022 20.7816 46.7715 19.915C46.0339 20.7673 45.2497 21.1934 44.4189 21.1934C43.5452 21.1934 42.668 20.6849 41.7871 19.668C41.0137 20.556 40.1722 21 39.2627 21H36.8027V19.0664H39.123C40.0182 19.0664 40.4658 18.5866 40.4658 17.627V14.9307H42.3672V17.7773C42.3672 18.2357 42.5319 18.6117 42.8613 18.9053C43.1908 19.1989 43.5882 19.3457 44.0537 19.3457C44.9346 19.3457 45.375 18.9447 45.375 18.1426V14.9307H47.2549V17.7773C47.2549 18.2285 47.416 18.6045 47.7383 18.9053C48.0677 19.1989 48.4616 19.3457 48.9199 19.3457C49.8223 19.3457 50.2734 18.9447 50.2734 18.1426V14.9307H52.1641V17.8955ZM56.8906 21H55.0107V8.60352H56.8906V21ZM68.127 21H66.2471V8.60352H68.127V21ZM78.2891 9.77441C78.2891 10.154 78.1602 10.4762 77.9023 10.7412C77.6445 10.999 77.3258 11.1279 76.9463 11.1279C75.958 11.1279 75.4639 10.6768 75.4639 9.77441C75.4639 9.0153 75.9365 8.63574 76.8818 8.63574C77.82 8.63574 78.2891 9.0153 78.2891 9.77441ZM80.459 21C79.4421 20.9857 78.751 20.6813 78.3857 20.0869C78.3857 21.7054 77.9847 23.0482 77.1826 24.1152C76.3018 25.2969 75.0736 25.8877 73.498 25.8877H70.9951L70.6836 23.9541H73.3477C74.1497 23.9541 74.8551 23.6855 75.4639 23.1484C76.1012 22.5898 76.4199 21.9131 76.4199 21.1182V14.9307H78.3535V17.7129C78.3535 18.6152 79.0553 19.0664 80.459 19.0664V21ZM87.4414 6.37988L80.6846 8.81836L80.5986 8.07715L87.3984 5.63867L87.4414 6.37988ZM91.459 21C89.8691 21 88.7412 20.4844 88.0752 19.4531C87.6383 20.4844 86.8219 21 85.626 21H79.8682V19.0664H85.6582C86.3171 19.0664 86.6465 18.8229 86.6465 18.3359C86.6465 18.0924 86.4961 17.8132 86.1953 17.498L81.1357 12.2129L80.8135 10.043L87.9141 7.47559L88.2256 9.40918L83.0693 11.3428L88.4619 17.251C88.8415 17.6735 89.4072 18.2106 90.1592 18.8623C90.4743 19.0199 90.9076 19.0879 91.459 19.0664V21ZM102.964 18.4326C102.964 19.2848 102.645 20.0511 102.008 20.7314C101.37 21.4118 100.633 21.752 99.7949 21.752C98.7708 21.752 97.446 21.2757 95.8203 20.3232C94.9896 20.7458 94.0622 20.9606 93.0381 20.9678L90.8896 21V19.0664H93.5752C92.8662 18.1354 92.5117 17.2474 92.5117 16.4023C92.5117 15.4857 92.8053 14.7337 93.3926 14.1465C93.9798 13.5521 94.7354 13.2549 95.6592 13.2549C96.4899 13.2549 97.2633 13.6022 97.9795 14.2969L96.7119 12.9863L98.1621 11.6758C101.363 14.7337 102.964 16.986 102.964 18.4326ZM100.934 18.5508C100.934 17.7773 100.081 16.5312 98.377 14.8125C98.7708 15.2565 98.9678 15.8688 98.9678 16.6494C98.9678 17.8812 98.5703 18.7012 97.7754 19.1094C98.5059 19.5462 99.1361 19.7646 99.666 19.7646C100.511 19.7646 100.934 19.36 100.934 18.5508ZM97.1094 16.542C97.1094 16.1051 96.9482 15.7435 96.626 15.457C96.3037 15.1706 95.9206 15.0273 95.4766 15.0273C95.1257 15.0273 94.8428 15.1742 94.6279 15.4678C94.4274 15.7327 94.3271 16.0443 94.3271 16.4023C94.3271 17.2402 94.8428 17.8597 95.874 18.2607C96.6976 17.8955 97.1094 17.3226 97.1094 16.542Z" fill="#090050"/>
    <path d="M9.27051 20.3447L9.7122 20.8878L9.71268 20.8874L9.27051 20.3447ZM1.28906 21L0.595718 21.0963L0.679565 21.7H1.28906V21ZM1.02051 19.0664V18.3664H0.216566L0.327163 19.1627L1.02051 19.0664ZM7.93848 17.6162L8.45081 17.1392L8.4486 17.1369L7.93848 17.6162ZM3.58789 12.9863L3.09088 12.4934L2.61501 12.9732L3.07777 13.4657L3.58789 12.9863ZM4.8877 11.6758L5.3967 11.1952L4.9001 10.6692L4.39069 11.1828L4.8877 11.6758ZM9.23828 16.2842L9.74735 15.8037L9.74729 15.8036L9.23828 16.2842ZM9.44063 18.4756C9.44063 19.0468 9.23902 19.4674 8.82834 19.8021L9.71268 20.8874C10.4621 20.2767 10.8406 19.4513 10.8406 18.4756H9.44063ZM8.82882 19.8017C8.43356 20.1231 7.93349 20.3 7.2832 20.3V21.7C8.20844 21.7 9.03324 21.44 9.7122 20.8878L8.82882 19.8017ZM7.2832 20.3H1.28906V21.7H7.2832V20.3ZM1.98241 20.9037L1.71385 18.9701L0.327163 19.1627L0.595718 21.0963L1.98241 20.9037ZM1.02051 19.7664H7.1543V18.3664H1.02051V19.7664ZM7.1543 19.7664C7.57257 19.7664 8.01108 19.6971 8.36138 19.4519C8.7572 19.1748 8.92852 18.7548 8.92852 18.3145H7.52852C7.52852 18.3566 7.52117 18.3597 7.52937 18.3425C7.53925 18.3217 7.55404 18.3081 7.55854 18.305C7.55856 18.3049 7.53442 18.3216 7.46521 18.3377C7.39586 18.3539 7.29474 18.3664 7.1543 18.3664V19.7664ZM8.92852 18.3145C8.92852 17.8612 8.75159 17.4623 8.4508 17.1392L7.42615 18.0932C7.51208 18.1855 7.52852 18.2521 7.52852 18.3145H8.92852ZM8.4486 17.1369L4.09801 12.507L3.07777 13.4657L7.42835 18.0956L8.4486 17.1369ZM4.0849 13.4793L5.3847 12.1687L4.39069 11.1828L3.09088 12.4934L4.0849 13.4793ZM4.37869 12.1563L8.72927 16.7647L9.74729 15.8036L5.3967 11.1952L4.37869 12.1563ZM8.72921 16.7646C9.2168 17.2813 9.44063 17.8429 9.44063 18.4756H10.8406C10.8406 17.4612 10.4629 16.5618 9.74735 15.8037L8.72921 16.7646ZM14.6094 21V21.7H15.3094V21H14.6094ZM12.7295 21H12.0295V21.7H12.7295V21ZM12.7295 8.60352V7.90352H12.0295V8.60352H12.7295ZM14.6094 8.60352H15.3094V7.90352H14.6094V8.60352ZM14.6094 20.3H12.7295V21.7H14.6094V20.3ZM13.4295 21V8.60352H12.0295V21H13.4295ZM12.7295 9.30352H14.6094V7.90352H12.7295V9.30352ZM13.9094 8.60352V21H15.3094V8.60352H13.9094ZM26.6514 21V21.7H27.3514V21H26.6514ZM25.373 21V20.3H24.673V21H25.373ZM23.9443 24.502L23.4589 23.9976L23.4551 24.0013L23.9443 24.502ZM17.8965 25.8877L17.2031 25.984L17.287 26.5877H17.8965V25.8877ZM17.6279 23.9541V23.2541H16.824L16.9346 24.0504L17.6279 23.9541ZM23.3213 21L24.0207 21.0275L24.0494 20.3H23.3213V21ZM19.7979 20.3447L19.4449 20.9492L19.4462 20.95L19.7979 20.3447ZM19.4971 13.8564L19.9457 14.3938L19.9526 14.3879L19.4971 13.8564ZM24.8789 15.1885L25.528 14.9263L25.5266 14.9229L24.8789 15.1885ZM25.373 19.0664L24.6731 19.0773L24.6839 19.7664H25.373V19.0664ZM26.6514 19.0664H27.3514V18.3664H26.6514V19.0664ZM23.3857 19.0664V19.7664H24.0857V19.0664H23.3857ZM22.999 15.8438L23.5815 15.4555L23.58 15.4533L22.999 15.8438ZM20.5391 15.8115L19.9173 15.4899L19.913 15.4985L20.5391 15.8115ZM21.334 18.873L21.567 18.2129L21.5574 18.2097L21.334 18.873ZM26.6514 20.3H25.373V21.7H26.6514V20.3ZM24.673 21C24.673 22.2431 24.2636 23.2232 23.4589 23.9976L24.4297 25.0063C25.53 23.9474 26.073 22.5929 26.073 21H24.673ZM23.4551 24.0013C22.6514 24.7867 21.6467 25.1877 20.3887 25.1877V26.5877C21.9809 26.5877 23.3467 26.0648 24.4336 25.0026L23.4551 24.0013ZM20.3887 25.1877H17.8965V26.5877H20.3887V25.1877ZM18.5898 25.7914L18.3213 23.8578L16.9346 24.0504L17.2031 25.984L18.5898 25.7914ZM17.6279 24.6541H20.0664V23.2541H17.6279V24.6541ZM20.0664 24.6541C21.1276 24.6541 22.0607 24.3431 22.8141 23.6871L21.8949 22.6312C21.4309 23.0352 20.8386 23.2541 20.0664 23.2541V24.6541ZM22.8141 23.6871C23.5876 23.0138 23.9784 22.1026 24.0207 21.0275L22.6218 20.9725C22.5925 21.7164 22.3388 22.2447 21.8949 22.6312L22.8141 23.6871ZM23.3213 20.3C21.76 20.3 20.7382 20.0815 20.1495 19.7395L19.4462 20.95C20.3614 21.4817 21.6886 21.7 23.3213 21.7V20.3ZM20.1508 19.7402C19.4503 19.3312 19.0262 18.5821 19.0262 17.2617H17.6262C17.6262 18.9062 18.1831 20.2124 19.4449 20.9492L20.1508 19.7402ZM19.0262 17.2617C19.0262 15.7289 19.3988 14.8503 19.9457 14.3938L19.0485 13.3191C18.0341 14.1659 17.6262 15.5576 17.6262 17.2617H19.0262ZM19.9526 14.3879C20.2084 14.1687 20.7576 13.9764 21.7852 13.9764V12.5764C20.6643 12.5764 19.688 12.7708 19.0415 13.325L19.9526 14.3879ZM21.7852 13.9764C22.4597 13.9764 22.9665 14.1157 23.3454 14.3498C23.7185 14.5805 24.018 14.934 24.2313 15.4541L25.5266 14.9229C25.2171 14.1682 24.7395 13.5657 24.0814 13.1589C23.429 12.7557 22.6503 12.5764 21.7852 12.5764V13.9764ZM24.2298 15.4506C24.4775 16.0639 24.6445 17.2402 24.6731 19.0773L26.073 19.0555C26.0443 17.2116 25.8819 15.8026 25.528 14.9264L24.2298 15.4506ZM25.373 19.7664H26.6514V18.3664H25.373V19.7664ZM25.9514 19.0664V21H27.3514V19.0664H25.9514ZM24.0857 19.0664V17.2295H22.6857V19.0664H24.0857ZM24.0857 17.2295C24.0857 16.5763 23.9273 15.9743 23.5815 15.4555L22.4166 16.232C22.5863 16.4867 22.6857 16.8085 22.6857 17.2295H24.0857ZM23.58 15.4533C23.1596 14.8278 22.5397 14.4885 21.7852 14.4885V15.8885C22.0619 15.8885 22.2512 15.986 22.4181 16.2342L23.58 15.4533ZM21.7852 14.4885C21.0044 14.4885 20.2912 14.7671 19.9173 15.4899L21.1608 16.1331C21.2166 16.0252 21.3341 15.8885 21.7852 15.8885V14.4885ZM19.913 15.4985C19.685 15.9544 19.6135 16.5934 19.6135 17.3047H21.0135C21.0135 16.6267 21.0924 16.2702 21.1652 16.1246L19.913 15.4985ZM19.6135 17.3047C19.6135 17.8072 19.7182 18.2857 19.9819 18.6909C20.2506 19.1038 20.6447 19.3795 21.1105 19.5364L21.5574 18.2097C21.343 18.1374 21.2268 18.0371 21.1553 17.9273C21.0788 17.8097 21.0135 17.6186 21.0135 17.3047H19.6135ZM21.101 19.5331C21.5937 19.707 22.3912 19.7664 23.3857 19.7664V18.3664C22.3751 18.3664 21.8048 18.2969 21.567 18.213L21.101 19.5331ZM37.8125 21V21.7H38.5125V21H37.8125ZM34.3213 19.5928L34.888 19.1818L34.1462 18.159L33.6724 19.3302L34.3213 19.5928ZM25.9209 21H25.2209V21.7H25.9209V21ZM25.9209 19.0664V18.3664H25.2209V19.0664H25.9209ZM32.2373 17.498L32.7442 17.0153L32.744 17.0151L32.2373 17.498ZM27.1992 12.2129L26.5084 12.3258L26.5433 12.5393L26.6925 12.6959L27.1992 12.2129ZM26.8447 10.043L26.607 9.38456L26.0601 9.582L26.1539 10.1558L26.8447 10.043ZM33.9561 7.47559L34.6494 7.37929L34.5306 6.52394L33.7184 6.81718L33.9561 7.47559ZM34.2246 9.40918L34.4693 10.065L34.9952 9.8688L34.918 9.31288L34.2246 9.40918ZM29.1865 11.2891L28.9418 10.6332L27.9761 10.9936L28.6672 11.7584L29.1865 11.2891ZM34.5254 17.1973L35.0474 16.7308L35.0448 16.7279L34.5254 17.1973ZM35.9434 18.54L36.324 17.9526L36.3231 17.952L35.9434 18.54ZM37.8125 19.0664H38.5125V18.3865L37.8329 18.3667L37.8125 19.0664ZM37.8125 20.3C36.289 20.3 35.387 19.8699 34.888 19.1818L33.7546 20.0037C34.6163 21.1919 36.0417 21.7 37.8125 21.7V20.3ZM33.6724 19.3302C33.544 19.6475 33.3404 19.8725 33.0437 20.0292C32.732 20.1939 32.2836 20.3 31.6572 20.3V21.7C32.4273 21.7 33.1212 21.5716 33.6976 21.2671C34.2888 20.9548 34.719 20.4762 34.9702 19.8553L33.6724 19.3302ZM31.6572 20.3H25.9209V21.7H31.6572V20.3ZM26.6209 21V19.0664H25.2209V21H26.6209ZM25.9209 19.7664H31.6895V18.3664H25.9209V19.7664ZM31.6895 19.7664C32.1099 19.7664 32.5296 19.6189 32.8179 19.2414C33.0788 18.8996 33.1521 18.4697 33.1521 18.0674H31.7521C31.7521 18.1916 31.7401 18.277 31.7261 18.3318C31.7124 18.3858 31.6999 18.3987 31.7051 18.3919C31.7132 18.3813 31.7286 18.3688 31.743 18.3624C31.7533 18.3579 31.741 18.3664 31.6895 18.3664V19.7664ZM33.1521 18.0674C33.1521 17.6787 33.0247 17.3098 32.7442 17.0153L31.7304 17.9808C31.739 17.9898 31.7416 17.9952 31.7435 18.0003C31.7459 18.0067 31.7521 18.0264 31.7521 18.0674H33.1521ZM32.744 17.0151L27.7059 11.7299L26.6925 12.6959L31.7306 17.981L32.744 17.0151ZM27.8901 12.1L27.5356 9.93011L26.1539 10.1558L26.5084 12.3258L27.8901 12.1ZM27.0824 10.7014L34.1938 8.13399L33.7184 6.81718L26.607 9.38456L27.0824 10.7014ZM33.2627 7.57188L33.5313 9.50548L34.918 9.31288L34.6494 7.37929L33.2627 7.57188ZM33.9799 8.75335L28.9418 10.6332L29.4312 11.9449L34.4693 10.065L33.9799 8.75335ZM28.6672 11.7584L34.006 17.6666L35.0448 16.7279L29.7059 10.8197L28.6672 11.7584ZM34.0034 17.6637C34.609 18.3413 35.1347 18.8511 35.5636 19.1281L36.3231 17.952C36.0645 17.785 35.6449 17.3996 35.0473 16.7308L34.0034 17.6637ZM35.5627 19.1275C36.2 19.5404 36.9544 19.7417 37.7921 19.7661L37.8329 18.3667C37.1954 18.3481 36.7036 18.1985 36.324 17.9526L35.5627 19.1275ZM37.1125 19.0664V21H38.5125V19.0664H37.1125ZM51.5088 20.2158L50.9471 19.798L50.9437 19.8027L51.5088 20.2158ZM46.7715 19.915L47.2768 19.4306L46.7451 18.876L46.2422 19.4569L46.7715 19.915ZM41.7871 19.668L42.3162 19.2097L41.7886 18.6005L41.2593 19.2082L41.7871 19.668ZM36.8027 21H36.1027V21.7H36.8027V21ZM36.8027 19.0664V18.3664H36.1027V19.0664H36.8027ZM40.4658 14.9307V14.2307H39.7658V14.9307H40.4658ZM42.3672 14.9307H43.0672V14.2307H42.3672V14.9307ZM42.8613 18.9053L43.3271 18.3827L42.8613 18.9053ZM45.375 14.9307V14.2307H44.675V14.9307H45.375ZM47.2549 14.9307H47.9549V14.2307H47.2549V14.9307ZM47.7383 18.9053L47.2607 19.417L47.2665 19.4225L47.2725 19.4278L47.7383 18.9053ZM50.2734 14.9307V14.2307H49.5734V14.9307H50.2734ZM52.1641 14.9307H52.8641V14.2307H52.1641V14.9307ZM51.4641 17.8955C51.4641 18.7514 51.2698 19.3643 50.9472 19.798L52.0704 20.6336C52.6215 19.8928 52.8641 18.9589 52.8641 17.8955H51.4641ZM50.9437 19.8027C50.6069 20.2633 50.1225 20.5148 49.3818 20.5148V21.9148C50.5032 21.9148 51.4367 21.5004 52.0739 20.629L50.9437 19.8027ZM49.3818 20.5148C48.7186 20.5148 48.0196 20.2054 47.2768 19.4306L46.2662 20.3995C47.1849 21.3577 48.2261 21.9148 49.3818 21.9148V20.5148ZM46.2422 19.4569C45.5877 20.2131 44.981 20.4934 44.4189 20.4934V21.8934C45.5183 21.8934 46.48 21.3214 47.3008 20.3732L46.2422 19.4569ZM44.4189 20.4934C43.837 20.4934 43.1359 20.156 42.3162 19.2097L41.258 20.1263C42.2 21.2138 43.2535 21.8934 44.4189 21.8934V20.4934ZM41.2593 19.2082C40.5769 19.9916 39.9138 20.3 39.2627 20.3V21.7C40.4306 21.7 41.4504 21.1203 42.315 20.1277L41.2593 19.2082ZM39.2627 20.3H36.8027V21.7H39.2627V20.3ZM37.5027 21V19.0664H36.1027V21H37.5027ZM36.8027 19.7664H39.123V18.3664H36.8027V19.7664ZM39.123 19.7664C39.6915 19.7664 40.243 19.6118 40.642 19.184C41.0325 18.7655 41.1658 18.203 41.1658 17.627H39.7658C39.7658 18.0105 39.6754 18.1678 39.6183 18.2291C39.5697 18.2811 39.4498 18.3664 39.123 18.3664V19.7664ZM41.1658 17.627V14.9307H39.7658V17.627H41.1658ZM40.4658 15.6307H42.3672V14.2307H40.4658V15.6307ZM41.6672 14.9307V17.7773H43.0672V14.9307H41.6672ZM41.6672 17.7773C41.6672 18.4265 41.9107 18.9957 42.3956 19.4278L43.3271 18.3827C43.1531 18.2276 43.0672 18.0448 43.0672 17.7773H41.6672ZM42.3956 19.4278C42.8607 19.8424 43.4267 20.0457 44.0537 20.0457V18.6457C43.7497 18.6457 43.5208 18.5554 43.3271 18.3827L42.3956 19.4278ZM44.0537 20.0457C44.5867 20.0457 45.117 19.9258 45.516 19.5625C45.9274 19.1879 46.075 18.6693 46.075 18.1426H44.675C44.675 18.4179 44.6024 18.5009 44.5734 18.5273C44.5319 18.5651 44.4016 18.6457 44.0537 18.6457V20.0457ZM46.075 18.1426V14.9307H44.675V18.1426H46.075ZM45.375 15.6307H47.2549V14.2307H45.375V15.6307ZM46.5549 14.9307V17.7773H47.9549V14.9307H46.5549ZM46.5549 17.7773C46.5549 18.4174 46.7928 18.9804 47.2607 19.417L48.2159 18.3935C48.0392 18.2286 47.9549 18.0396 47.9549 17.7773H46.5549ZM47.2725 19.4278C47.7355 19.8405 48.2971 20.0457 48.9199 20.0457V18.6457C48.6261 18.6457 48.3999 18.5573 48.204 18.3827L47.2725 19.4278ZM48.9199 20.0457C49.46 20.0457 49.9958 19.9275 50.4001 19.5681C50.8201 19.1948 50.9734 18.6743 50.9734 18.1426H49.5734C49.5734 18.413 49.5012 18.494 49.47 18.5217C49.4231 18.5634 49.2822 18.6457 48.9199 18.6457V20.0457ZM50.9734 18.1426V14.9307H49.5734V18.1426H50.9734ZM50.2734 15.6307H52.1641V14.2307H50.2734V15.6307ZM51.4641 14.9307V17.8955H52.8641V14.9307H51.4641ZM56.8906 21V21.7H57.5906V21H56.8906ZM55.0107 21H54.3107V21.7H55.0107V21ZM55.0107 8.60352V7.90352H54.3107V8.60352H55.0107ZM56.8906 8.60352H57.5906V7.90352H56.8906V8.60352ZM56.8906 20.3H55.0107V21.7H56.8906V20.3ZM55.7107 21V8.60352H54.3107V21H55.7107ZM55.0107 9.30352H56.8906V7.90352H55.0107V9.30352ZM56.1906 8.60352V21H57.5906V8.60352H56.1906ZM68.127 21V21.7H68.827V21H68.127ZM66.2471 21H65.5471V21.7H66.2471V21ZM66.2471 8.60352V7.90352H65.5471V8.60352H66.2471ZM68.127 8.60352H68.827V7.90352H68.127V8.60352ZM68.127 20.3H66.2471V21.7H68.127V20.3ZM66.9471 21V8.60352H65.5471V21H66.9471ZM66.2471 9.30352H68.127V7.90352H66.2471V9.30352ZM67.427 8.60352V21H68.827V8.60352H67.427ZM77.9023 10.7412L78.3974 11.2362L78.4041 11.2294L77.9023 10.7412ZM80.459 21L80.4491 21.6999L81.159 21.7099V21H80.459ZM78.3857 20.0869L78.9821 19.7204L77.6857 17.6106V20.0869H78.3857ZM77.1826 24.1152L76.6231 23.6946L76.6214 23.6969L77.1826 24.1152ZM70.9951 25.8877L70.304 25.999L70.3989 26.5877H70.9951V25.8877ZM70.6836 23.9541V23.2541H69.8618L69.9925 24.0654L70.6836 23.9541ZM75.4639 23.1484L75.0025 22.622L75.0007 22.6236L75.4639 23.1484ZM76.4199 14.9307V14.2307H75.7199V14.9307H76.4199ZM78.3535 14.9307H79.0535V14.2307H78.3535V14.9307ZM80.459 19.0664H81.159V18.3664H80.459V19.0664ZM77.5891 9.77441C77.5891 9.97706 77.5276 10.1226 77.4006 10.2531L78.4041 11.2294C78.7927 10.8299 78.9891 10.3309 78.9891 9.77441H77.5891ZM77.4074 10.2462C77.2867 10.3669 77.1487 10.4279 76.9463 10.4279V11.8279C77.503 11.8279 78.0023 11.6312 78.3973 11.2362L77.4074 10.2462ZM76.9463 10.4279C76.5451 10.4279 76.3748 10.335 76.3065 10.2726C76.2502 10.2212 76.1639 10.1005 76.1639 9.77441H74.7639C74.7639 10.3507 74.9246 10.9067 75.3625 11.3065C75.7883 11.6953 76.3592 11.8279 76.9463 11.8279V10.4279ZM76.1639 9.77441C76.1639 9.54844 76.2266 9.49031 76.2567 9.46621C76.316 9.41855 76.4844 9.33574 76.8818 9.33574V7.93574C76.3339 7.93574 75.7934 8.04271 75.3801 8.37461C74.9374 8.73006 74.7639 9.24128 74.7639 9.77441H76.1639ZM76.8818 9.33574C77.2747 9.33574 77.4396 9.41817 77.4969 9.46458C77.5259 9.48805 77.5891 9.54661 77.5891 9.77441H78.9891C78.9891 9.2431 78.8176 8.73233 78.3776 8.37624C77.9659 8.04309 77.4271 7.93574 76.8818 7.93574V9.33574ZM80.4688 20.3001C79.573 20.2875 79.1703 20.0267 78.9821 19.7204L77.7893 20.4534C78.3316 21.336 79.3111 21.6839 80.4491 21.6999L80.4688 20.3001ZM77.6857 20.0869C77.6857 21.5867 77.316 22.7729 76.6231 23.6946L77.7422 24.5358C78.6535 23.3235 79.0857 21.8241 79.0857 20.0869H77.6857ZM76.6214 23.6969C75.8829 24.6875 74.8703 25.1877 73.498 25.1877V26.5877C75.2769 26.5877 76.7206 25.9062 77.7438 24.5336L76.6214 23.6969ZM73.498 25.1877H70.9951V26.5877H73.498V25.1877ZM71.6862 25.7764L71.3747 23.8428L69.9925 24.0654L70.304 25.999L71.6862 25.7764ZM70.6836 24.6541H73.3477V23.2541H70.6836V24.6541ZM73.3477 24.6541C74.3226 24.6541 75.1921 24.3218 75.927 23.6733L75.0007 22.6236C74.5182 23.0493 73.9769 23.2541 73.3477 23.2541V24.6541ZM75.9252 23.6749C76.7029 22.9933 77.1199 22.1294 77.1199 21.1182H75.7199C75.7199 21.6968 75.4996 22.1864 75.0025 22.622L75.9252 23.6749ZM77.1199 21.1182V14.9307H75.7199V21.1182H77.1199ZM76.4199 15.6307H78.3535V14.2307H76.4199V15.6307ZM77.6535 14.9307V17.7129H79.0535V14.9307H77.6535ZM77.6535 17.7129C77.6535 18.3791 77.9313 18.9504 78.5014 19.3169C79.0184 19.6492 79.7046 19.7664 80.459 19.7664V18.3664C79.8097 18.3664 79.4432 18.258 79.2584 18.1392C79.1266 18.0545 79.0535 17.9491 79.0535 17.7129H77.6535ZM79.759 19.0664V21H81.159V19.0664H79.759ZM87.4414 6.37988L87.679 7.03832L88.1705 6.86096L88.1402 6.33937L87.4414 6.37988ZM80.6846 8.81836L79.9892 8.89898L80.091 9.77676L80.9222 9.47679L80.6846 8.81836ZM80.5986 8.07715L80.3623 7.41824L79.8393 7.6058L79.9033 8.15777L80.5986 8.07715ZM87.3984 5.63867L88.0973 5.59816L88.0431 4.66384L87.1621 4.97976L87.3984 5.63867ZM91.459 21V21.7H92.159V21H91.459ZM88.0752 19.4531L88.6632 19.0734L87.9462 17.9631L87.4306 19.1801L88.0752 19.4531ZM79.8682 21H79.1682V21.7H79.8682V21ZM79.8682 19.0664V18.3664H79.1682V19.0664H79.8682ZM86.1953 17.498L86.7017 17.0147L86.701 17.014L86.1953 17.498ZM81.1357 12.2129L80.4433 12.3157L80.4761 12.5361L80.6301 12.697L81.1357 12.2129ZM80.8135 10.043L80.5755 9.38468L80.0369 9.57939L80.1211 10.1458L80.8135 10.043ZM87.9141 7.47559L88.6051 7.36424L88.4707 6.52995L87.676 6.8173L87.9141 7.47559ZM88.2256 9.40918L88.4714 10.0646L89.0078 9.86345L88.9167 9.29784L88.2256 9.40918ZM83.0693 11.3428L82.8235 10.6873L81.8549 11.0506L82.5523 11.8147L83.0693 11.3428ZM88.4619 17.251L88.9827 16.7832L88.9789 16.7791L88.4619 17.251ZM90.1592 18.8623L89.7007 19.3913L89.7673 19.449L89.8461 19.4884L90.1592 18.8623ZM91.459 19.0664H92.159V18.3386L91.4317 18.3669L91.459 19.0664ZM87.2038 5.72145L80.4469 8.15993L80.9222 9.47679L87.679 7.03832L87.2038 5.72145ZM81.3799 8.73774L81.294 7.99653L79.9033 8.15777L79.9892 8.89898L81.3799 8.73774ZM80.8349 8.73606L87.6347 6.29758L87.1621 4.97976L80.3623 7.41824L80.8349 8.73606ZM86.6996 5.67918L86.7426 6.42039L88.1402 6.33937L88.0973 5.59816L86.6996 5.67918ZM91.459 20.3C90.0278 20.3 89.1626 19.8466 88.6632 19.0734L87.4872 19.8329C88.3198 21.1221 89.7105 21.7 91.459 21.7V20.3ZM87.4306 19.1801C87.2587 19.586 87.0306 19.8515 86.7615 20.0214C86.4891 20.1935 86.1232 20.3 85.626 20.3V21.7C86.3247 21.7 86.965 21.5487 87.509 21.2051C88.0563 20.8595 88.4548 20.3515 88.7197 19.7262L87.4306 19.1801ZM85.626 20.3H79.8682V21.7H85.626V20.3ZM80.5682 21V19.0664H79.1682V21H80.5682ZM79.8682 19.7664H85.6582V18.3664H79.8682V19.7664ZM85.6582 19.7664C86.0534 19.7664 86.4768 19.697 86.8155 19.4467C87.1937 19.1671 87.3465 18.7541 87.3465 18.3359H85.9465C85.9465 18.3794 85.9392 18.3842 85.9466 18.3677C85.9558 18.3473 85.9716 18.3295 85.9833 18.3209C85.991 18.3152 85.9779 18.3276 85.9231 18.3411C85.8677 18.3547 85.7821 18.3664 85.6582 18.3664V19.7664ZM87.3465 18.3359C87.3465 17.8152 87.0375 17.3666 86.7017 17.0147L85.689 17.9814C85.811 18.1092 85.8806 18.2075 85.9174 18.2757C85.9538 18.3433 85.9465 18.3598 85.9465 18.3359H87.3465ZM86.701 17.014L81.6414 11.7288L80.6301 12.697L85.6897 17.9821L86.701 17.014ZM81.8281 12.1101L81.5059 9.94014L80.1211 10.1458L80.4433 12.3157L81.8281 12.1101ZM81.0515 10.7013L88.1521 8.13388L87.676 6.8173L80.5755 9.38468L81.0515 10.7013ZM87.223 7.58693L87.5345 9.52052L88.9167 9.29784L88.6051 7.36424L87.223 7.58693ZM87.9798 8.75375L82.8235 10.6873L83.3151 11.9982L88.4714 10.0646L87.9798 8.75375ZM82.5523 11.8147L87.9449 17.7229L88.9789 16.7791L83.5864 10.8709L82.5523 11.8147ZM87.9412 17.7188C88.3494 18.1732 88.9405 18.7324 89.7007 19.3913L90.6176 18.3333C89.874 17.6888 89.3335 17.1738 88.9827 16.7832L87.9412 17.7188ZM89.8461 19.4884C90.3101 19.7204 90.8775 19.7896 91.4862 19.7659L91.4317 18.3669C90.9376 18.3862 90.6385 18.3193 90.4722 18.2362L89.8461 19.4884ZM90.759 19.0664V21H92.159V19.0664H90.759ZM102.008 20.7314L102.519 21.21L102.008 20.7314ZM95.8203 20.3232L96.1742 19.7193L95.844 19.5258L95.503 19.6993L95.8203 20.3232ZM93.0381 20.9678L93.0332 20.2678L93.0276 20.2679L93.0381 20.9678ZM90.8896 21H90.1897V21.7106L90.9001 21.6999L90.8896 21ZM90.8896 19.0664V18.3664H90.1897V19.0664H90.8896ZM93.5752 19.0664V19.7664H94.9881L94.1321 18.6423L93.5752 19.0664ZM93.3926 14.1465L93.8876 14.6415L93.8905 14.6385L93.3926 14.1465ZM97.9795 14.2969L97.4921 14.7993L98.4826 13.8102L97.9795 14.2969ZM96.7119 12.9863L96.2426 12.467L95.7053 12.9525L96.2088 13.473L96.7119 12.9863ZM98.1621 11.6758L98.6456 11.1696L98.1753 10.7203L97.6928 11.1564L98.1621 11.6758ZM98.377 14.8125L98.874 14.3196L97.8533 15.277L98.377 14.8125ZM97.7754 19.1094L97.4556 18.4867L96.3337 19.0628L97.4161 19.7101L97.7754 19.1094ZM96.626 15.457L97.091 14.9338L96.626 15.457ZM94.6279 15.4678L95.1862 15.8902L95.1928 15.8811L94.6279 15.4678ZM95.874 18.2607L95.6203 18.9131L95.8917 19.0187L96.1578 18.9006L95.874 18.2607ZM102.264 18.4326C102.264 19.0897 102.025 19.689 101.497 20.2529L102.519 21.21C103.265 20.4132 103.664 19.48 103.664 18.4326H102.264ZM101.497 20.2529C100.975 20.8095 100.416 21.052 99.7949 21.052V22.452C100.849 22.452 101.765 22.014 102.519 21.21L101.497 20.2529ZM99.7949 21.052C98.9612 21.052 97.7691 20.6537 96.1742 19.7193L95.4664 20.9272C97.1228 21.8977 98.5805 22.452 99.7949 22.452V21.052ZM95.503 19.6993C94.7784 20.0679 93.9595 20.2613 93.0332 20.2678L93.043 21.6678C94.1648 21.6599 95.2008 21.4237 96.1377 20.9472L95.503 19.6993ZM93.0276 20.2679L90.8792 20.3001L90.9001 21.6999L93.0486 21.6677L93.0276 20.2679ZM91.5896 21V19.0664H90.1897V21H91.5896ZM90.8896 19.7664H93.5752V18.3664H90.8896V19.7664ZM94.1321 18.6423C93.4809 17.7872 93.2117 17.0449 93.2117 16.4023H91.8117C91.8117 17.4498 92.2515 18.4837 93.0183 19.4905L94.1321 18.6423ZM93.2117 16.4023C93.2117 15.6502 93.4458 15.0832 93.8876 14.6415L92.8976 13.6515C92.1649 14.3843 91.8117 15.3212 91.8117 16.4023H93.2117ZM93.8905 14.6385C94.3317 14.1919 94.9007 13.9549 95.6592 13.9549V12.5549C94.57 12.5549 93.6279 12.9123 92.8946 13.6545L93.8905 14.6385ZM95.6592 13.9549C96.2724 13.9549 96.8786 14.2042 97.4921 14.7993L98.4669 13.7944C97.6481 13.0002 96.7074 12.5549 95.6592 12.5549V13.9549ZM98.4826 13.8102L97.2151 12.4997L96.2088 13.473L97.4763 14.7835L98.4826 13.8102ZM97.1813 13.5057L98.6314 12.1951L97.6928 11.1564L96.2426 12.467L97.1813 13.5057ZM97.6786 12.182C99.2637 13.6962 100.429 14.989 101.193 16.0639C101.974 17.1633 102.264 17.9367 102.264 18.4326H103.664C103.664 17.4819 103.153 16.4059 102.334 15.253C101.497 14.0756 100.262 12.7133 98.6456 11.1696L97.6786 12.182ZM101.634 18.5508C101.634 17.9417 101.314 17.2875 100.872 16.641C100.412 15.9686 99.7405 15.1934 98.874 14.3196L97.8799 15.3054C98.7178 16.1504 99.3243 16.8576 99.7166 17.4313C100.127 18.0308 100.234 18.3864 100.234 18.5508H101.634ZM97.8533 15.277C98.1017 15.557 98.2678 15.985 98.2678 16.6494H99.6678C99.6678 15.7526 99.44 14.956 98.9006 14.348L97.8533 15.277ZM98.2678 16.6494C98.2678 17.7329 97.9305 18.2428 97.4556 18.4867L98.0952 19.7321C99.2101 19.1595 99.6678 18.0295 99.6678 16.6494H98.2678ZM97.4161 19.7101C98.1957 20.1764 98.9547 20.4646 99.666 20.4646V19.0646C99.3175 19.0646 98.816 18.9161 98.1347 18.5086L97.4161 19.7101ZM99.666 20.4646C100.189 20.4646 100.711 20.3399 101.101 19.9668C101.496 19.5882 101.634 19.0712 101.634 18.5508H100.234C100.234 18.8396 100.16 18.9296 100.133 18.9556C100.1 18.9871 99.988 19.0646 99.666 19.0646V20.4646ZM97.8094 16.542C97.8094 15.9082 97.565 15.3551 97.091 14.9338L96.1609 15.9802C96.3315 16.1319 96.4094 16.3021 96.4094 16.542H97.8094ZM97.091 14.9338C96.6365 14.5298 96.0864 14.3273 95.4766 14.3273V15.7273C95.7547 15.7273 95.9709 15.8113 96.1609 15.9802L97.091 14.9338ZM95.4766 14.3273C94.8929 14.3273 94.404 14.5884 94.063 15.0544L95.1928 15.8811C95.2816 15.7599 95.3584 15.7273 95.4766 15.7273V14.3273ZM94.0697 15.0454C93.7699 15.4416 93.6272 15.9044 93.6272 16.4023H95.0271C95.0271 16.1842 95.0849 16.0239 95.1861 15.8902L94.0697 15.0454ZM93.6272 16.4023C93.6272 16.9779 93.809 17.5024 94.1759 17.9432C94.5326 18.3718 95.0334 18.6849 95.6203 18.9131L96.1277 17.6083C95.6834 17.4355 95.4107 17.2384 95.2519 17.0475C95.1032 16.8689 95.0271 16.6647 95.0271 16.4023H93.6272ZM96.1578 18.9006C96.6524 18.6813 97.0729 18.3775 97.3689 17.9657C97.6695 17.5476 97.8094 17.0625 97.8094 16.542H96.4094C96.4094 16.802 96.3434 16.9938 96.2321 17.1486C96.1164 17.3097 95.9192 17.475 95.5902 17.6208L96.1578 18.9006Z" fill="#090050"/>
    <path d="M136.174 26.5512H133.889V24.7317C133.889 24.4173 133.675 24.1589 133.415 24.1589H129.578C129.318 24.1589 129.105 24.4173 129.105 24.7317V26.5512H126.819C126.541 26.5512 126.281 26.6523 126.048 26.8657L124.822 28.0001H138.143L136.917 26.8657C136.722 26.6523 136.462 26.5512 136.174 26.5512Z" fill="#3F40EA"/>
    <path d="M123.101 17.4024C127.067 17.4024 131.652 16.2231 136.024 14.0807C139.812 12.2332 143.015 9.79599 145.225 7.24087V3.50647C145.225 1.61962 143.974 0.106201 142.413 0.106201H120.597C119.037 0.106201 117.785 1.61962 117.785 3.50647V16.4393C119.199 17.0682 120.988 17.4024 123.101 17.4024Z" fill="#3F40EA"/>
    <path d="M135.196 19.2892C130.612 21.5495 125.735 22.7681 121.427 22.7681C120.208 22.7681 119.07 22.6502 118.029 22.4733C118.452 23.6919 119.427 24.5371 120.63 24.5371H142.446C144.007 24.5371 145.258 23.0236 145.258 21.1368V11.7222C142.804 14.5918 139.325 17.2648 135.196 19.2892Z" fill="#3F40EA"/>
    <path d="M123.103 17.4024C127.069 17.4024 131.654 16.2231 136.027 14.0807C138.432 12.9014 140.643 11.4666 142.464 9.95323V4.54817C142.464 3.95853 142.074 3.44751 141.554 3.44751H121.461C120.973 3.44751 120.551 3.91922 120.551 4.54817V17.2058C121.331 17.3238 122.193 17.4024 123.103 17.4024Z" fill="#121242"/>
    <path d="M135.198 19.2892C133.605 20.0557 132.028 20.724 130.402 21.2546H141.587C142.074 21.2546 142.497 20.7829 142.497 20.154V14.5327C140.416 16.3016 137.945 17.9526 135.198 19.2892Z" fill="#121242"/>
    <path d="M138.737 5.43262H140.232C140.379 5.43262 140.509 5.58986 140.509 5.76675V7.57498C140.509 7.8698 140.2 8.02704 140.054 7.79119L138.558 5.98295C138.379 5.80606 138.493 5.43262 138.737 5.43262Z" fill="#FCFCFC"/>
    <path d="M140.085 10.5034C139.841 10.7983 139.451 10.7983 139.207 10.5034L136.216 6.88696C135.972 6.59214 135.972 6.12043 136.216 5.82561C136.46 5.53079 136.85 5.53079 137.094 5.82561L140.085 9.44208C140.361 9.71725 140.361 10.2086 140.085 10.5034Z" fill="white"/>
    <path d="M136.35 15.1287C126.978 19.7336 117.149 19.6437 114.428 14.9153C112.783 12.0849 114.065 8.24379 117.363 4.61603V3.89722C112.022 8.3898 109.616 13.7697 111.808 17.5884C114.79 22.7548 125.11 23.0581 134.864 18.2622C141.571 14.9714 146.262 10.1194 147.553 5.75041C145.5 9.11984 141.534 12.5791 136.35 15.1287Z" fill="white"/>
    <path opacity="0.41" d="M145.482 8.49088C143.262 10.9393 140.141 13.2867 136.351 15.1399C126.978 19.7448 117.15 19.6549 114.428 14.9265C112.784 12.0962 114.066 8.25502 117.363 4.62726V3.90845C117.029 4.178 116.713 4.45879 116.407 4.75081C112.849 8.67058 111.483 12.9385 113.313 16.1058C116.295 21.2723 126.616 21.5755 136.369 16.7797C139.37 15.2971 141.971 13.5113 144.052 11.5908C145.501 9.98466 146.578 8.34487 147.229 6.73877C146.69 7.30035 146.114 7.89561 145.482 8.49088Z" fill="black"/>
    <path d="M151 3.16727L149.012 4.22303L149.226 6.83995L147.777 4.87445L145.789 5.93021L146.876 3.65022L145.445 1.68472L147.554 2.25752L148.65 0L148.864 2.61693L151 3.16727Z" fill="#3F40EA"/>
</svg>
