<svg width="59" height="64" viewBox="0 0 59 64" fill="none" xmlns="http://www.w3.org/2000/svg">
<path d="M56.9692 29.3512C56.9692 44.0285 46.0185 57.7754 31.0578 61.7974C30.0399 62.0675 28.9294 62.0675 27.9114 61.7974C12.9506 57.7754 2 44.0285 2 29.3512V16.1745C2 13.7132 3.91253 10.9219 6.28774 9.99141L23.4695 3.14807C27.3253 1.61731 31.6747 1.61731 35.5306 3.14807L52.7123 9.99141C55.0567 10.9219 57 13.7132 57 16.1745L56.9692 29.3512Z" stroke="#E3D5FF" stroke-width="4" stroke-linecap="round" stroke-linejoin="round"/>
<path d="M29.5007 33.0714C33.1459 33.0714 36.1007 30.4331 36.1007 27.1785C36.1007 23.924 33.1459 21.2856 29.5007 21.2856C25.8555 21.2856 22.9007 23.924 22.9007 27.1785C22.9007 30.4331 25.8555 33.0714 29.5007 33.0714Z" stroke="#E3D5FF" stroke-width="4" stroke-miterlimit="10" stroke-linecap="round" stroke-linejoin="round"/>
<path d="M29.5 33.0715V42.7144" stroke="#E3D5FF" stroke-width="4" stroke-miterlimit="10" stroke-linecap="round" stroke-linejoin="round"/>
</svg>
