<svg width="558" height="558" viewBox="0 0 558 558" fill="none" xmlns="http://www.w3.org/2000/svg">
<path d="M558 426.758H0V427.037H558V426.758Z" fill="#EBEBEB"/>
<path d="M358.815 442.315H321.854V442.594H358.815V442.315Z" fill="#EBEBEB"/>
<path d="M463.999 439.291H454.301V439.57H463.999V439.291Z" fill="#EBEBEB"/>
<path d="M442.594 434.358H365.68V434.637H442.594V434.358Z" fill="#EBEBEB"/>
<path d="M251.256 440.943H217.441V441.222H251.256V440.943Z" fill="#EBEBEB"/>
<path d="M207.508 440.943H186.059V441.222H207.508V440.943Z" fill="#EBEBEB"/>
<path d="M110.818 436.233H58.5449V436.512H110.818V436.233Z" fill="#EBEBEB"/>
<path d="M264.492 376.985H49.0038C47.3157 376.982 45.6977 376.309 44.5051 375.114C43.3124 373.92 42.6426 372.3 42.6426 370.612V67.6964C42.6573 66.018 43.3336 64.4131 44.5246 63.2305C45.7157 62.0478 47.3253 61.3828 49.0038 61.3799H264.492C266.182 61.3799 267.803 62.0513 268.998 63.2463C270.193 64.4414 270.865 66.0622 270.865 67.7522V370.612C270.865 372.302 270.193 373.923 268.998 375.118C267.803 376.313 266.182 376.985 264.492 376.985ZM49.0038 61.6031C47.3897 61.606 45.8427 62.2493 44.7023 63.3917C43.562 64.5341 42.9216 66.0823 42.9216 67.6964V370.612C42.9216 372.226 43.562 373.775 44.7023 374.917C45.8427 376.059 47.3897 376.703 49.0038 376.706H264.492C266.107 376.703 267.656 376.06 268.798 374.918C269.94 373.776 270.583 372.227 270.586 370.612V67.6964C270.583 66.0813 269.94 64.5331 268.798 63.391C267.656 62.249 266.107 61.606 264.492 61.6031H49.0038Z" fill="#EBEBEB"/>
<path d="M505.893 376.985H290.394C288.705 376.982 287.086 376.309 285.891 375.115C284.697 373.921 284.024 372.301 284.021 370.612V67.6964C284.039 66.017 284.718 64.4121 285.911 63.2298C287.104 62.0474 288.714 61.3827 290.394 61.3799H505.893C507.57 61.3857 509.177 62.052 510.365 63.2344C511.554 64.4167 512.229 66.0199 512.243 67.6964V370.612C512.243 372.299 511.575 373.916 510.385 375.11C509.195 376.305 507.58 376.979 505.893 376.985ZM290.394 61.6031C288.779 61.606 287.231 62.249 286.088 63.391C284.946 64.5331 284.303 66.0813 284.3 67.6964V370.612C284.303 372.227 284.946 373.776 286.088 374.918C287.231 376.06 288.779 376.703 290.394 376.706H505.893C507.509 376.703 509.057 376.06 510.199 374.918C511.341 373.776 511.984 372.227 511.987 370.612V67.6964C511.984 66.0813 511.341 64.5331 510.199 63.391C509.057 62.249 507.509 61.606 505.893 61.6031H290.394Z" fill="#EBEBEB"/>
<path opacity="0.6" d="M475.037 91.6345H82.9531V402.128H475.037V91.6345Z" fill="#E0E0E0"/>
<path opacity="0.6" d="M201.528 91.6345H198.303V402.128H201.528V91.6345Z" fill="#E0E0E0"/>
<path opacity="0.6" d="M359.698 91.6345H356.473V402.128H359.698V91.6345Z" fill="#E0E0E0"/>
<path d="M476.04 97.3374H81.9586C80.4462 97.3374 78.9956 96.7366 77.9262 95.6671C76.8567 94.5976 76.2559 93.1471 76.2559 91.6346C76.2559 90.1222 76.8567 88.6717 77.9262 87.6022C78.9956 86.5327 80.4462 85.9319 81.9586 85.9319H476.04C477.553 85.9319 479.004 86.5327 480.073 87.6022C481.142 88.6717 481.743 90.1222 481.743 91.6346C481.743 93.1471 481.142 94.5976 480.073 95.6671C479.004 96.7366 477.553 97.3374 476.04 97.3374Z" fill="#E0E0E0"/>
<path d="M158.907 171.072L67.786 180.647C67.0577 180.741 66.3175 180.673 65.619 180.446C64.9204 180.219 64.281 179.84 63.747 179.336C63.213 178.832 62.7977 178.215 62.5312 177.531C62.2646 176.847 62.1536 176.112 62.206 175.379L63.0318 149.856C63.1143 148.247 63.7578 146.717 64.8505 145.533C65.9432 144.349 67.4161 143.584 69.0136 143.372L160.135 133.797C160.51 133.746 160.891 133.78 161.251 133.895C161.611 134.01 161.941 134.204 162.217 134.463C162.493 134.721 162.707 135.038 162.845 135.39C162.983 135.742 163.041 136.121 163.014 136.498L161.999 167.746C161.958 168.575 161.625 169.364 161.059 169.972C160.494 170.581 159.732 170.97 158.907 171.072Z" fill="#E0E0E0"/>
<path d="M156.92 169.632L71.87 178.56C71.4953 178.611 71.114 178.577 70.7539 178.462C70.3938 178.347 70.0639 178.153 69.7881 177.894C69.5123 177.636 69.2977 177.319 69.1598 176.967C69.0218 176.615 68.9641 176.236 68.9907 175.859L69.8947 147.959C69.932 147.13 70.2599 146.34 70.821 145.728C71.382 145.116 72.1405 144.72 72.9637 144.611L158.025 135.683C158.4 135.634 158.782 135.67 159.142 135.786C159.502 135.903 159.832 136.098 160.107 136.357C160.383 136.617 160.597 136.934 160.735 137.286C160.873 137.639 160.931 138.018 160.904 138.395L160 166.295C159.958 167.124 159.627 167.911 159.064 168.521C158.501 169.13 157.743 169.523 156.92 169.632Z" fill="white"/>
<path d="M399.339 171.864L490.617 179.854C491.348 179.938 492.09 179.858 492.787 179.62C493.484 179.383 494.119 178.993 494.647 178.479C495.175 177.965 495.582 177.34 495.838 176.65C496.094 175.959 496.194 175.22 496.13 174.486L494.857 148.986C494.745 147.376 494.074 145.857 492.959 144.691C491.844 143.525 490.356 142.786 488.753 142.602L397.486 134.612C397.111 134.569 396.73 134.61 396.372 134.733C396.014 134.855 395.688 135.055 395.417 135.319C395.145 135.583 394.936 135.903 394.804 136.258C394.672 136.612 394.62 136.991 394.652 137.368L396.214 168.616C396.276 169.436 396.622 170.209 397.193 170.802C397.763 171.395 398.522 171.77 399.339 171.864Z" fill="#E0E0E0"/>
<path d="M401.292 170.402L486.498 177.857C486.874 177.899 487.255 177.858 487.613 177.736C487.971 177.614 488.297 177.413 488.568 177.15C488.839 176.886 489.049 176.565 489.181 176.211C489.313 175.856 489.365 175.477 489.333 175.1L487.938 147.2C487.881 146.375 487.538 145.595 486.967 144.996C486.397 144.397 485.635 144.016 484.813 143.919L399.606 136.464C399.231 136.424 398.851 136.466 398.494 136.589C398.137 136.713 397.812 136.913 397.541 137.176C397.27 137.439 397.061 137.759 396.928 138.113C396.795 138.466 396.742 138.844 396.772 139.221L398.167 167.121C398.221 167.947 398.564 168.728 399.135 169.327C399.706 169.927 400.469 170.307 401.292 170.402Z" fill="white"/>
<path d="M231.37 166.909H326.632C328.062 166.909 329.221 165.75 329.221 164.32V132.547C329.221 131.117 328.062 129.958 326.632 129.958H231.37C229.94 129.958 228.781 131.117 228.781 132.547V164.32C228.781 165.75 229.94 166.909 231.37 166.909Z" fill="#E0E0E0"/>
<path d="M235.833 165.257H322.167C323.597 165.257 324.756 164.098 324.756 162.668V134.176C324.756 132.747 323.597 131.587 322.167 131.587H235.833C234.403 131.587 233.244 132.747 233.244 134.176V162.668C233.244 164.098 234.403 165.257 235.833 165.257Z" fill="white"/>
<path d="M279 477.157C398.504 477.157 495.382 471.501 495.382 464.524C495.382 457.547 398.504 451.891 279 451.891C159.496 451.891 62.6191 457.547 62.6191 464.524C62.6191 471.501 159.496 477.157 279 477.157Z" fill="#F5F5F5"/>
<path d="M175.68 353.203H250.24C252.046 353.203 253.51 351.739 253.51 349.933V348.281C253.51 346.475 252.046 345.011 250.24 345.011H175.68C173.874 345.011 172.41 346.475 172.41 348.281V349.933C172.41 351.739 173.874 353.203 175.68 353.203Z" fill="#263238"/>
<path d="M175.736 444.514H172.41L176.238 353.203H180.836L175.736 444.514Z" fill="#3F40EA"/>
<path opacity="0.6" d="M175.736 444.514H172.41L176.238 353.203H180.836L175.736 444.514Z" fill="white"/>
<path d="M206.36 444.514H209.686L205.858 353.203H201.26L206.36 444.514Z" fill="#3F40EA"/>
<path opacity="0.6" d="M206.36 444.514H209.686L205.858 353.203H201.26L206.36 444.514Z" fill="white"/>
<path d="M219.562 444.514H216.236L220.064 353.203H224.662L219.562 444.514Z" fill="#3F40EA"/>
<path opacity="0.6" d="M219.562 444.514H216.236L220.064 353.203H224.662L219.562 444.514Z" fill="white"/>
<path d="M250.184 444.514H253.509L249.681 353.203H245.072L250.184 444.514Z" fill="#3F40EA"/>
<path opacity="0.6" d="M250.184 444.514H253.509L249.681 353.203H245.072L250.184 444.514Z" fill="white"/>
<g opacity="0.3">
<path d="M176.238 353.203H180.847L180.624 357.086H176.07L176.238 353.203Z" fill="#3F40EA"/>
<path d="M206.023 357.086H201.47L201.258 353.203H205.856L206.023 357.086Z" fill="#3F40EA"/>
<path d="M224.662 353.203L224.45 357.086H219.896L220.064 353.203H224.662Z" fill="#3F40EA"/>
<path d="M249.849 357.086H245.284L245.072 353.203H249.681L249.849 357.086Z" fill="#3F40EA"/>
</g>
<path d="M221.693 431.088L229.226 435.095L241.089 419.069L233.556 415.074L221.693 431.088Z" fill="#FFC3BD"/>
<path d="M231.937 432.617L224.125 427.16C224.062 427.111 223.99 427.076 223.914 427.055C223.837 427.034 223.757 427.029 223.678 427.039C223.599 427.05 223.523 427.076 223.454 427.115C223.385 427.155 223.325 427.208 223.277 427.272L218.567 433.22C218.341 433.548 218.253 433.952 218.322 434.344C218.391 434.737 218.611 435.087 218.936 435.318C221.703 437.171 222.953 437.818 226.569 439.972C228.801 441.289 234.136 444.436 237.417 445.853C240.698 447.27 242.015 443.989 240.765 443.097C237.774 440.976 233.812 436.814 232.953 433.89C232.776 433.358 232.416 432.907 231.937 432.617Z" fill="#263238"/>
<path opacity="0.2" d="M233.545 415.074L241.089 419.08L235.375 426.792L228.01 422.551L233.545 415.074Z" fill="black"/>
<path d="M215.387 320.203C215.387 320.203 273.855 318.384 274.055 342.813C274.334 377.922 241.055 424.08 241.055 424.08L228.076 415.409C228.076 415.409 250.921 381.929 251.11 354.475C233.879 349.609 193.313 352.656 188.045 338.382C183.738 326.698 185.992 320.247 185.992 320.247L215.387 320.203Z" fill="#3F40EA"/>
<path opacity="0.2" d="M215.387 320.203C215.387 320.203 273.855 318.384 274.055 342.813C274.334 377.922 241.055 424.08 241.055 424.08L228.076 415.409C228.076 415.409 250.921 381.929 251.11 354.475C233.879 349.609 193.313 352.656 188.045 338.382C183.738 326.698 185.992 320.247 185.992 320.247L215.387 320.203Z" fill="black"/>
<path d="M224.461 417.596L239.962 427.093L244.828 422.16L227.787 411.425L224.461 417.596Z" fill="#263238"/>
<path d="M235.141 436.11C235.332 436.069 235.509 435.978 235.654 435.847C235.799 435.716 235.907 435.549 235.967 435.363C236.017 435.246 236.038 435.118 236.026 434.991C236.014 434.865 235.971 434.743 235.9 434.637C235.286 433.711 232.362 433.689 232.027 433.689C231.99 433.689 231.954 433.7 231.922 433.719C231.891 433.739 231.865 433.767 231.849 433.8C231.828 433.832 231.816 433.869 231.816 433.906C231.816 433.944 231.828 433.981 231.849 434.012C232.356 434.59 232.925 435.11 233.545 435.564C233.985 435.948 234.558 436.144 235.141 436.11ZM235.576 434.861C235.608 434.915 235.624 434.976 235.624 435.039C235.624 435.102 235.608 435.163 235.576 435.218C235.54 435.34 235.472 435.45 235.38 435.538C235.288 435.626 235.175 435.689 235.052 435.72C234.505 435.809 233.556 435.206 232.474 434.09C233.668 434.124 235.241 434.358 235.576 434.861Z" fill="#3F40EA"/>
<path d="M232.016 434.124C232.998 434.191 235.062 433.465 235.431 432.584C235.495 432.427 235.505 432.254 235.461 432.09C235.417 431.927 235.32 431.783 235.185 431.68C235.07 431.576 234.933 431.499 234.784 431.455C234.636 431.411 234.479 431.4 234.326 431.423C233.154 431.613 231.915 433.733 231.859 433.834C231.843 433.863 231.834 433.895 231.834 433.929C231.834 433.962 231.843 433.995 231.859 434.023L231.915 434.09L232.016 434.124ZM234.917 431.981C235.129 432.171 235.107 432.327 235.062 432.428C234.373 433.186 233.418 433.65 232.395 433.722C232.83 433.041 233.69 431.937 234.393 431.825C234.47 431.808 234.55 431.808 234.627 431.825C234.704 431.842 234.777 431.877 234.839 431.925C234.862 431.909 234.889 431.897 234.917 431.892V431.981Z" fill="#3F40EA"/>
<path d="M235.621 440.909L244.069 440.507L245.453 420.553L237.005 420.955L235.621 440.909Z" fill="#FFC3BD"/>
<path d="M244.27 439.068L234.695 438.766C234.616 438.76 234.536 438.77 234.461 438.795C234.385 438.82 234.315 438.859 234.255 438.911C234.195 438.963 234.146 439.026 234.11 439.097C234.074 439.168 234.053 439.245 234.048 439.324L233.344 446.88C233.332 447.277 233.476 447.663 233.745 447.955C234.014 448.247 234.387 448.422 234.784 448.442C238.132 448.442 239.717 448.342 243.924 448.442C247.662 448.706 251.413 448.706 255.151 448.442C258.622 448.007 258.153 444.491 256.613 444.369C252.953 444.067 248.065 441.545 245.71 439.581C245.302 439.252 244.794 439.071 244.27 439.068Z" fill="#263238"/>
<path d="M248.868 440.24C249.013 440.098 249.117 439.919 249.168 439.722C249.219 439.525 249.216 439.318 249.158 439.124C249.139 438.997 249.087 438.877 249.009 438.776C248.931 438.675 248.829 438.594 248.712 438.543C247.685 438.097 245.219 439.659 244.94 439.849C244.907 439.87 244.881 439.9 244.865 439.936C244.849 439.972 244.844 440.011 244.85 440.05C244.856 440.087 244.873 440.122 244.899 440.15C244.925 440.178 244.958 440.198 244.995 440.206C245.723 440.415 246.472 440.542 247.227 440.586C247.798 440.688 248.387 440.564 248.868 440.24ZM248.555 438.967C248.612 438.992 248.661 439.03 248.698 439.079C248.735 439.128 248.759 439.186 248.767 439.246C248.803 439.368 248.807 439.497 248.778 439.62C248.748 439.744 248.687 439.857 248.6 439.949C248.187 440.34 247.071 440.351 245.553 439.949C246.535 439.403 247.975 438.722 248.533 438.967H248.555Z" fill="#3F40EA"/>
<path d="M245.118 440.251C245.989 439.771 247.35 438.019 247.149 437.104C247.119 436.936 247.034 436.783 246.906 436.669C246.779 436.556 246.617 436.489 246.446 436.479C246.295 436.45 246.14 436.457 245.993 436.499C245.845 436.542 245.71 436.619 245.598 436.724C244.705 437.528 244.828 439.983 244.828 440.072C244.83 440.106 244.84 440.139 244.858 440.168C244.875 440.197 244.899 440.222 244.928 440.24H245.018L245.118 440.251ZM246.39 436.903C246.669 436.903 246.736 437.081 246.759 437.204C246.87 437.818 245.977 439.135 245.219 439.737C245.138 438.795 245.365 437.851 245.866 437.048C245.982 436.943 246.134 436.887 246.29 436.892L246.39 436.903Z" fill="#3F40EA"/>
<path opacity="0.2" d="M237.004 420.966L245.453 420.564L244.66 431.97L236.234 431.959L237.004 420.966Z" fill="black"/>
<path d="M194.575 320.203C194.575 320.203 204.619 321.151 216.493 323.551C233.802 327.01 254.85 333.494 253.533 344.431C250.319 370.992 248.723 428.231 248.723 428.231L233.099 428.845C233.099 428.845 226.548 377.208 229.896 349.989C214.071 349.989 175.313 351.105 171.775 341.585C168.65 333.159 169.766 320.203 169.766 320.203C170.056 314.857 176.73 297.581 176.73 297.581L214.819 299.278L220.399 320.191L216.504 321.944L194.575 320.203Z" fill="#3F40EA"/>
<path d="M231.414 429.772L250.129 428.845L250.799 420.698L230.275 422.116L231.414 429.772Z" fill="#263238"/>
<path d="M178.013 204.094C172.901 203.424 172.433 214.294 178.392 220.254C184.352 226.213 172.812 230.699 181.182 240.777C189.552 250.854 217.664 261.635 221.738 247.473C225.811 233.311 219.584 231.849 216.983 225.052C214.383 218.256 212.988 214.104 214.472 203.681C215.957 193.258 203.312 188.325 198.569 187.488C193.826 186.651 169.743 186.539 178.013 204.094Z" fill="#263238"/>
<path d="M221.716 250.977C223.122 255.262 224.383 259.548 225.588 263.878C226.794 268.208 227.966 272.527 229.059 276.868C229.316 277.917 229.628 279.201 229.796 279.781C230.056 280.576 230.396 281.343 230.811 282.069C231.798 283.725 232.974 285.26 234.316 286.644C235.746 288.158 237.283 289.568 238.914 290.863C240.543 292.191 242.328 293.508 244.036 294.668L242.094 298.708C237.607 297.07 233.405 294.739 229.64 291.8C227.622 290.227 225.831 288.383 224.316 286.321C223.491 285.187 222.798 283.963 222.252 282.671C221.649 281.154 221.415 280.261 221.046 279.178C219.677 274.938 218.323 270.689 216.984 266.434C215.645 262.193 214.328 257.919 213.078 253.678L221.716 250.977Z" fill="#FFC3BD"/>
<path d="M219.127 241.257C222.977 242.228 225.666 258.064 225.666 258.064L215.064 265.262C215.064 265.262 204.909 249.303 207.866 245.074C210.924 240.665 213.524 239.817 219.127 241.257Z" fill="#3F40EA"/>
<path d="M219.127 241.257C222.977 242.228 225.666 258.064 225.666 258.064L215.064 265.262C215.064 265.262 204.909 249.303 207.866 245.074C210.924 240.665 213.524 239.817 219.127 241.257Z" fill="#3F40EA"/>
<path opacity="0.3" d="M218.779 244.783L221.737 260.742L215.777 264.782L218.779 244.783Z" fill="black"/>
<path d="M242.764 294.546L251.692 292.314L247.406 300.873C247.406 300.873 242.317 301.097 240.934 297.525L242.764 294.546Z" fill="#FFC3BD"/>
<path d="M254.749 294.959L256.245 300.818L247.439 300.907L251.725 292.347L254.749 294.959Z" fill="#FFC3BD"/>
<path d="M219.125 241.257C219.125 241.257 223.589 242.819 214.661 297.581H176.717C177.354 282.147 177.365 272.639 170.021 240.978C175.338 239.874 180.728 239.154 186.148 238.824C191.877 238.416 197.627 238.416 203.356 238.824C210.744 239.538 219.125 241.257 219.125 241.257Z" fill="#3F40EA"/>
<path d="M187.857 219.484C188.973 225.064 190.022 235.163 186.149 238.857C186.149 238.857 183.672 265.72 200.891 265.262C219.584 264.782 203.358 238.857 203.358 238.857C197.186 237.384 197.343 232.809 198.414 228.501L187.857 219.484Z" fill="#FFC3BD"/>
<path d="M209.171 252.015C206.839 256.892 191.828 255.363 187.152 252.573C188.737 259.113 192.442 265.485 200.901 265.262C210.187 265.028 210.856 258.51 209.171 252.015Z" fill="white"/>
<path opacity="0.2" d="M192.164 223.2L198.414 228.534C198.15 229.533 197.971 230.552 197.878 231.581C195.523 231.246 192.298 228.657 192.03 226.18C191.894 225.187 191.939 224.177 192.164 223.2Z" fill="black"/>
<path d="M182.744 209.585C184.898 218.602 185.623 222.452 191.036 226.325C199.194 232.139 209.785 227.508 210.354 218.044C210.878 209.518 207.262 196.215 197.709 194.162C195.607 193.699 193.421 193.781 191.359 194.401C189.297 195.021 187.427 196.157 185.928 197.702C184.429 199.247 183.349 201.15 182.792 203.23C182.235 205.309 182.218 207.497 182.744 209.585Z" fill="#FFC3BD"/>
<path d="M183.94 204.741C188.404 205.522 210.567 197.722 205.456 193.671C200.345 189.619 192.064 191.36 187.667 193.827C183.27 196.293 179.677 203.982 183.94 204.741Z" fill="#263238"/>
<path d="M196.996 209.707C197.13 210.444 197.621 210.98 198.112 210.89C198.603 210.801 198.882 210.143 198.748 209.395C198.615 208.647 198.124 208.123 197.632 208.212C197.141 208.301 196.862 208.971 196.996 209.707Z" fill="#263238"/>
<path d="M205.344 208.234C205.478 208.971 205.969 209.507 206.46 209.417C206.951 209.328 207.231 208.67 207.097 207.922C206.963 207.174 206.472 206.65 205.981 206.739C205.49 206.828 205.244 207.498 205.344 208.234Z" fill="#263238"/>
<path d="M205.812 206.817L207.498 205.991C207.498 205.991 206.828 207.576 205.812 206.817Z" fill="#263238"/>
<path d="M203.391 209.897C204.347 211.471 205.515 212.905 206.861 214.16C206.532 214.499 206.133 214.76 205.691 214.926C205.249 215.092 204.776 215.158 204.306 215.12L203.391 209.897Z" fill="#ED847E"/>
<path d="M200.947 218.613C201.37 218.613 201.792 218.576 202.208 218.502C202.24 218.5 202.271 218.492 202.3 218.478C202.328 218.463 202.353 218.443 202.373 218.418C202.393 218.393 202.408 218.365 202.416 218.334C202.423 218.303 202.425 218.271 202.419 218.239C202.413 218.208 202.401 218.178 202.383 218.152C202.365 218.125 202.341 218.103 202.314 218.087C202.287 218.071 202.256 218.06 202.224 218.057C202.193 218.053 202.16 218.056 202.13 218.066C201.212 218.251 200.263 218.216 199.361 217.964C198.459 217.711 197.63 217.25 196.941 216.616C196.921 216.594 196.897 216.577 196.87 216.565C196.843 216.553 196.814 216.547 196.784 216.547C196.755 216.547 196.726 216.553 196.699 216.565C196.672 216.577 196.648 216.594 196.628 216.616C196.587 216.657 196.564 216.713 196.564 216.772C196.564 216.83 196.587 216.886 196.628 216.928C197.794 218.03 199.343 218.634 200.947 218.613Z" fill="#263238"/>
<path d="M182.343 216.381C183.035 218.032 184.35 219.343 186.003 220.03C188.235 220.912 189.575 219.015 189.184 216.794C188.827 214.807 187.253 211.939 184.943 211.995C184.438 212.018 183.946 212.165 183.512 212.426C183.078 212.686 182.715 213.05 182.457 213.485C182.199 213.92 182.054 214.413 182.034 214.919C182.014 215.424 182.12 215.927 182.343 216.381Z" fill="#FFC3BD"/>
<path d="M192.588 197.989C197.052 203.569 186.796 211.203 190.044 220.309C199.965 247.93 188.526 249.66 184.721 239.002C180.915 228.345 177.701 214.272 178.56 208.078C179.42 201.884 189.553 194.184 192.588 197.989Z" fill="#263238"/>
<path d="M194.004 207.163C194.119 207.126 194.215 207.046 194.272 206.94C194.505 206.437 194.854 205.996 195.291 205.654C195.727 205.313 196.239 205.08 196.783 204.976C196.899 204.959 197.003 204.899 197.076 204.807C197.148 204.716 197.183 204.601 197.174 204.484C197.16 204.368 197.1 204.261 197.008 204.188C196.917 204.115 196.8 204.081 196.683 204.094C195.991 204.217 195.339 204.504 194.782 204.931C194.225 205.358 193.778 205.913 193.48 206.549C193.428 206.653 193.42 206.773 193.455 206.883C193.49 206.994 193.567 207.086 193.67 207.141C193.721 207.166 193.777 207.181 193.835 207.185C193.892 207.189 193.95 207.181 194.004 207.163Z" fill="#263238"/>
<path d="M208.425 203.714C208.54 203.712 208.651 203.669 208.737 203.592C208.819 203.508 208.865 203.396 208.865 203.279C208.865 203.162 208.819 203.05 208.737 202.967C208.267 202.444 207.677 202.043 207.018 201.799C206.359 201.554 205.651 201.472 204.954 201.561C204.89 201.563 204.828 201.579 204.771 201.608C204.714 201.637 204.664 201.677 204.624 201.727C204.584 201.777 204.555 201.835 204.539 201.896C204.523 201.958 204.521 202.023 204.532 202.085C204.544 202.148 204.568 202.208 204.605 202.26C204.641 202.313 204.688 202.357 204.743 202.39C204.797 202.422 204.858 202.443 204.922 202.45C204.985 202.457 205.049 202.451 205.11 202.431C205.661 202.368 206.22 202.436 206.739 202.63C207.259 202.824 207.726 203.138 208.101 203.547C208.137 203.599 208.186 203.642 208.242 203.671C208.298 203.7 208.361 203.715 208.425 203.714Z" fill="#263238"/>
<path d="M174.654 254.225C174.062 256.133 173.426 258.164 172.846 260.162C172.265 262.159 171.73 264.179 171.172 266.188C170.056 270.206 169.174 274.257 168.46 278.286C168.125 280.294 167.79 282.314 167.612 284.29L167.478 285.674C167.449 285.855 167.449 286.039 167.478 286.22C167.536 286.79 167.731 287.338 168.047 287.816C168.986 289.277 170.159 290.574 171.518 291.655C173.045 292.907 174.644 294.069 176.305 295.137L174.698 299.322C172.414 298.793 170.206 297.98 168.125 296.901C165.804 295.79 163.732 294.223 162.032 292.291C161.016 291.093 160.256 289.699 159.8 288.196C159.548 287.339 159.41 286.454 159.387 285.562C159.387 285.305 159.387 285.16 159.387 285.026V284.602V283.743C159.454 281.455 159.688 279.223 159.956 277.047C160.538 272.663 161.366 268.315 162.433 264.023C162.924 261.88 163.494 259.76 164.107 257.662C164.721 255.564 165.346 253.488 166.116 251.334L174.654 254.225Z" fill="#FFC3BD"/>
<path d="M170.056 240.978C166.251 242.094 161.697 255.207 161.697 255.207L176.428 265.742C176.428 265.742 181.796 254.827 180.201 249.917C178.56 244.806 174.386 239.661 170.056 240.978Z" fill="#3F40EA"/>
<path d="M176.205 295.349L175.234 298.697C175.101 298.965 175.413 299.233 175.848 299.233H214.908C215.243 299.233 215.533 299.066 215.556 298.853L215.89 295.505C215.89 295.271 215.622 295.07 215.243 295.07H176.819C176.701 295.059 176.583 295.079 176.475 295.128C176.368 295.177 176.275 295.253 176.205 295.349Z" fill="#263238"/>
<path d="M181.361 299.646H180.334C180.122 299.646 179.966 299.534 179.977 299.412L180.468 294.948C180.468 294.814 180.658 294.713 180.859 294.713H181.908C182.12 294.713 182.276 294.814 182.254 294.948L181.774 299.412C181.74 299.534 181.562 299.646 181.361 299.646Z" fill="white"/>
<path d="M211.973 299.646H210.924C210.712 299.646 210.556 299.534 210.578 299.412L211.058 294.948C211.058 294.814 211.248 294.713 211.449 294.713H212.487C212.688 294.713 212.844 294.814 212.833 294.948L212.342 299.412C212.353 299.534 212.174 299.646 211.973 299.646Z" fill="white"/>
<path d="M196.66 299.646H195.634C195.433 299.646 195.277 299.534 195.288 299.412L195.768 294.948C195.768 294.814 195.968 294.713 196.169 294.713H197.196C197.397 294.713 197.553 294.814 197.542 294.948L197.062 299.412C197.051 299.534 196.872 299.646 196.66 299.646Z" fill="white"/>
<path d="M197.432 208.29L199.128 207.464C199.128 207.464 198.458 209.016 197.432 208.29Z" fill="#263238"/>
<path d="M175.022 294.524L184.887 292.448L180.423 300.807C180.423 300.807 174.43 300.807 172.611 297.459L175.022 294.524Z" fill="#FFC3BD"/>
<path d="M191.929 295.907L187.789 302.704L178.883 300.706L184.898 292.448L191.929 295.907Z" fill="#FFC3BD"/>
<path d="M319.935 282.047C320.17 282.605 320.337 283.163 320.516 283.743C320.694 284.323 320.873 284.859 321.051 285.428C321.409 286.544 321.743 287.66 322.167 288.776C322.592 289.892 322.949 291.008 323.395 292.035C323.618 292.582 323.841 293.151 324.065 293.675L324.411 294.49L324.578 294.892C324.578 295.015 324.712 295.182 324.634 295.215L321.766 299.825C321.397 299.679 321.219 299.646 320.984 299.557L320.337 299.3C319.935 299.11 319.523 298.921 319.154 298.709C318.409 298.287 317.696 297.81 317.023 297.28C315.732 296.23 314.574 295.027 313.574 293.698C313.08 293.05 312.622 292.376 312.202 291.678C311.787 290.994 311.414 290.286 311.086 289.557C310.717 288.843 310.449 288.095 310.148 287.325C309.887 286.593 309.664 285.848 309.479 285.093L319.935 282.047Z" fill="#FF8B7B"/>
<path d="M325.202 227.664C325.202 227.664 317.97 254.448 326.419 312.134C342.165 311.799 368.626 311.185 376.293 311.018C376.482 302.983 370.556 263.61 377.487 225.633C372.497 224.766 367.45 224.267 362.387 224.137C354.978 223.87 347.559 224.03 340.168 224.617C335.107 225.241 330.103 226.259 325.202 227.664Z" fill="#F5F5F5"/>
<path d="M359.654 199.228C358.404 206.404 357.288 219.528 362.388 224.193C362.388 224.193 361.183 229.45 351.061 232.117C349.575 232.543 348.009 232.608 346.493 232.308C344.977 232.007 343.555 231.348 342.345 230.387C339.053 227.653 340.169 224.673 340.169 224.673C348.103 222.597 347.768 216.683 346.262 211.158L359.654 199.228Z" fill="#FF8B7B"/>
<path d="M343.728 234.918C343.945 235.575 344.206 236.216 344.509 236.838C344.633 237.086 344.825 237.295 345.061 237.441C345.298 237.587 345.57 237.664 345.848 237.663C346.819 237.663 348.214 237.663 349.051 237.663C349.267 237.651 349.479 237.592 349.671 237.492C349.863 237.392 350.032 237.253 350.167 237.083C350.741 236.442 351.204 235.71 351.54 234.918C351.662 234.282 347.645 231.336 347.645 231.336C347.645 231.336 343.56 233.713 343.728 234.918Z" fill="#3F40EA"/>
<path d="M361.127 222.385C359.866 224.215 353.315 229.204 347.59 231.313C349.567 232.971 351.037 235.152 351.831 237.607C351.831 237.607 362.991 229.729 364.709 224.07C363.091 223.39 361.127 222.385 361.127 222.385Z" fill="white"/>
<path d="M341.285 223.479C341.43 226.035 341.91 229.204 347.59 231.291C345.613 232.948 344.143 235.13 343.349 237.585C343.349 237.585 336.865 231.882 337.368 224.617C338.639 224.129 339.95 223.749 341.285 223.479Z" fill="white"/>
<path d="M351.072 260.218C350.76 253.823 349.755 241.681 348.84 236.112H346.195C344.276 240.398 341.53 257.015 340.894 260.128C340.258 263.242 342.959 270.262 346.218 276.868C348.651 269.559 351.385 266.612 351.072 260.218Z" fill="#3F40EA"/>
<path opacity="0.2" d="M354.197 204.094L346.273 211.159C346.642 212.444 346.899 213.758 347.043 215.087C350.079 214.585 354.186 211.147 354.443 207.956C354.6 206.664 354.517 205.355 354.197 204.094Z" fill="black"/>
<path d="M349.084 179.285C352.332 182.812 349.531 186.841 339.163 191.74C336.697 186.305 338.203 177.232 341.551 175.647C344.899 174.062 346.25 176.227 349.084 179.285Z" fill="#263238"/>
<path d="M364.005 190.378C361.371 199.719 360.3 205.311 354.474 209.138C345.703 214.886 334.956 208.022 334.744 198.079C334.565 189.151 338.895 175.368 348.973 173.616C351.193 173.218 353.478 173.395 355.611 174.128C357.744 174.862 359.655 176.128 361.161 177.808C362.667 179.487 363.719 181.523 364.216 183.723C364.714 185.924 364.641 188.214 364.005 190.378Z" fill="#FF8B7B"/>
<path d="M349.308 189.91C349.141 190.68 348.594 191.215 348.092 191.104C347.59 190.992 347.322 190.289 347.489 189.519C347.657 188.749 348.192 188.213 348.695 188.314C349.197 188.414 349.42 189.14 349.308 189.91Z" fill="#263238"/>
<path d="M340.547 188.024C340.379 188.794 339.833 189.329 339.33 189.218C338.828 189.106 338.549 188.403 338.717 187.622C338.884 186.841 339.431 186.316 339.933 186.428C340.435 186.539 340.714 187.254 340.547 188.024Z" fill="#263238"/>
<path d="M343.326 189.006C341.897 191.162 340.177 193.111 338.215 194.798C339.331 196.371 341.753 196.282 341.753 196.282L343.326 189.006Z" fill="#FF5652"/>
<path d="M343.26 198.905C344.288 199.157 345.362 199.159 346.392 198.911C347.421 198.662 348.375 198.17 349.175 197.476C349.217 197.431 349.241 197.371 349.241 197.309C349.241 197.247 349.217 197.187 349.175 197.141C349.131 197.1 349.073 197.077 349.013 197.077C348.953 197.077 348.895 197.1 348.851 197.141C348.103 197.775 347.216 198.224 346.262 198.451C345.308 198.678 344.314 198.676 343.361 198.447C343.33 198.439 343.298 198.438 343.267 198.443C343.236 198.447 343.206 198.458 343.18 198.475C343.153 198.491 343.13 198.513 343.112 198.539C343.093 198.564 343.081 198.593 343.074 198.624C343.067 198.655 343.067 198.687 343.072 198.717C343.078 198.748 343.09 198.778 343.107 198.804C343.125 198.83 343.147 198.853 343.174 198.87C343.2 198.887 343.229 198.899 343.26 198.905Z" fill="#263238"/>
<path d="M352.298 187.667C352.396 187.701 352.502 187.701 352.599 187.667C352.711 187.615 352.798 187.522 352.842 187.408C352.886 187.293 352.883 187.165 352.834 187.053C352.542 186.377 352.091 185.782 351.52 185.317C350.949 184.853 350.274 184.533 349.553 184.386C349.492 184.374 349.43 184.376 349.371 184.39C349.311 184.404 349.255 184.43 349.205 184.467C349.156 184.503 349.115 184.55 349.085 184.603C349.054 184.656 349.035 184.715 349.028 184.776C349.015 184.897 349.048 185.018 349.12 185.115C349.193 185.213 349.3 185.279 349.419 185.301C349.985 185.426 350.514 185.685 350.96 186.056C351.407 186.427 351.758 186.898 351.986 187.432C352.018 187.491 352.063 187.542 352.117 187.583C352.171 187.623 352.233 187.652 352.298 187.667Z" fill="#263238"/>
<path d="M337.2 184.207C337.286 184.225 337.375 184.218 337.458 184.189C337.541 184.159 337.614 184.108 337.669 184.04C338.014 183.572 338.465 183.193 338.985 182.933C339.505 182.673 340.079 182.54 340.66 182.544C340.782 182.553 340.904 182.514 340.998 182.435C341.092 182.356 341.151 182.243 341.162 182.12C341.171 181.999 341.134 181.879 341.057 181.786C340.98 181.692 340.869 181.632 340.749 181.618C340.013 181.601 339.284 181.761 338.622 182.083C337.96 182.405 337.384 182.881 336.943 183.47C336.906 183.518 336.878 183.572 336.861 183.631C336.845 183.689 336.84 183.75 336.847 183.81C336.854 183.871 336.873 183.929 336.903 183.982C336.933 184.034 336.974 184.081 337.022 184.118C337.075 184.158 337.136 184.189 337.2 184.207Z" fill="#263238"/>
<path d="M363.928 223.278C363.928 223.278 350.391 260.363 344.956 273.833C343.628 292.213 346.262 322.301 346.262 322.301H379.508C379.508 322.301 381.327 232.608 378.046 225.209C374.709 224.093 367.711 222.809 363.928 223.278Z" fill="#263238"/>
<path d="M337.758 224.093C337.758 224.093 340.146 253.555 344.454 271.478C348.762 289.401 347.333 322.301 347.333 322.301H321.665C321.665 322.301 321.141 234.617 324.433 227.195C327.044 225.309 333.986 223.624 337.758 224.093Z" fill="#263238"/>
<path d="M356.383 267.148C344.174 266.434 331.831 265.675 327.68 267.148C328.706 267.059 333.159 298.496 332.144 298.586H360.847C359.876 285.975 359.508 271.043 356.383 267.148Z" fill="white"/>
<path d="M389.238 283.955C388.606 286.138 387.63 288.206 386.348 290.082C385.118 291.953 383.613 293.627 381.884 295.048C380.222 296.449 378.369 297.606 376.382 298.485L374.886 299.066C374.373 299.233 373.871 299.389 373.357 299.535C372.282 299.814 371.184 299.997 370.076 300.081L368.402 294.914C368.592 294.68 368.96 294.39 369.239 294.111L370.143 293.274C370.746 292.705 371.326 292.158 371.873 291.566C372.947 290.473 373.942 289.306 374.853 288.073C375.322 287.504 375.679 286.857 376.092 286.276C376.505 285.696 376.828 285.06 377.118 284.424C377.81 283.196 378.234 281.879 378.837 280.607L389.238 283.955Z" fill="#FF8B7B"/>
<path d="M372.565 286.522L369.652 290.528C369.652 290.528 376.616 292.76 376.616 298.586H380.065C380.065 298.586 380.645 289.223 372.565 286.522Z" fill="white"/>
<path d="M376.661 224.774C379.44 224.774 382.821 226.526 384.942 231.336C387.062 236.146 393.513 259.559 394.495 269.336C395.477 279.112 398.412 298.586 388.368 298.586H378.837C378.837 290.45 370.791 287.426 370.791 287.426C373.354 285.272 375.798 282.981 378.112 280.563C378.391 276.043 374.976 233.501 376.661 224.774Z" fill="#263238"/>
<path d="M372.163 294.423L364.351 287.415L362.008 299.635C362.008 299.635 368.782 303.318 371.806 300.996L372.163 294.423Z" fill="#FF8B7B"/>
<path d="M355.166 290.406L353.068 299.635H361.996L364.34 287.426L355.166 290.406Z" fill="#FF8B7B"/>
<path d="M320.593 290.528L328.248 288.542L330.369 299.635C330.369 299.635 323.606 303.318 320.57 300.996L320.593 290.528Z" fill="#FF8B7B"/>
<path d="M321.599 286.522L323.451 289.189C323.451 289.189 318.05 292.749 318.05 298.586H314.099C314.099 298.586 313.519 289.223 321.599 286.522Z" fill="white"/>
<path d="M326.206 226.213C323.427 226.213 320.124 228.255 318.004 233.065C315.883 237.875 306.844 259.559 305.85 269.335C304.857 279.112 301.956 298.586 312 298.586H315.348C315.348 290.45 323.461 286.522 323.461 286.522C323.461 286.522 323.171 283.922 322.345 279.826C322.021 275.317 327.869 234.929 326.206 226.213Z" fill="#263238"/>
<path d="M337.245 291.867L339.31 299.635H330.37L328.25 288.542L337.245 291.867Z" fill="#FF8B7B"/>
<path d="M362.053 181.172C357.299 181.73 356.808 186.618 361.495 197.075C366.908 194.552 371.673 186.673 370.144 183.303C368.615 179.933 366.205 180.692 362.053 181.172Z" fill="#263238"/>
<path d="M367.521 181.227C367.521 181.227 370.144 180.993 370.49 178.694C370.892 180.312 370.825 182.41 367.521 181.227Z" fill="#263238"/>
<path d="M367.901 184.81C367.186 187.343 356.294 181.64 352.545 179.966C348.795 178.292 335.436 180.334 338.36 171.775C340.972 164.175 350.435 168.293 350.435 168.293C348.014 168.081 347.534 169.878 350.625 170C353.716 170.123 358.917 170.112 361.361 173.348C363.805 176.585 370.512 175.435 367.901 184.81Z" fill="#263238"/>
<path d="M366.873 198.927C365.717 201.079 363.754 202.684 361.416 203.391C358.314 204.295 356.729 201.527 357.555 198.581C358.303 195.925 360.825 192.253 363.949 192.644C367.074 193.035 368.28 196.282 366.873 198.927Z" fill="#FF8B7B"/>
<path d="M302.938 353.203H377.498C379.304 353.203 380.768 351.739 380.768 349.933V348.281C380.768 346.475 379.304 345.011 377.498 345.011H302.938C301.132 345.011 299.668 346.475 299.668 348.281V349.933C299.668 351.739 301.132 353.203 302.938 353.203Z" fill="#3F40EA"/>
<path d="M302.994 444.514H299.668L303.496 353.203H308.105L302.994 444.514Z" fill="#3F40EA"/>
<path opacity="0.6" d="M302.994 444.514H299.668L303.496 353.203H308.105L302.994 444.514Z" fill="white"/>
<path d="M333.618 444.514H336.943L333.115 353.203H328.518L333.618 444.514Z" fill="#3F40EA"/>
<path opacity="0.6" d="M333.618 444.514H336.943L333.115 353.203H328.518L333.618 444.514Z" fill="white"/>
<path d="M346.82 444.514H343.494L347.322 353.203H351.92L346.82 444.514Z" fill="#3F40EA"/>
<path opacity="0.6" d="M346.82 444.514H343.494L347.322 353.203H351.92L346.82 444.514Z" fill="white"/>
<path d="M377.443 444.514H380.769L376.941 353.203H372.332L377.443 444.514Z" fill="#3F40EA"/>
<path opacity="0.6" d="M377.443 444.514H380.769L376.941 353.203H372.332L377.443 444.514Z" fill="white"/>
<g opacity="0.3">
<path d="M303.496 353.203H308.105L307.881 357.087H303.328L303.496 353.203Z" fill="#3F40EA"/>
<path d="M333.281 357.087H328.728L328.516 353.203H333.114L333.281 357.087Z" fill="#3F40EA"/>
<path d="M351.92 353.203L351.708 357.087H347.154L347.322 353.203H351.92Z" fill="#3F40EA"/>
<path d="M377.107 357.087H372.542L372.33 353.203H376.939L377.107 357.087Z" fill="#3F40EA"/>
</g>
<path d="M287.08 451.478L278.175 450.295L277.84 429.325L286.734 430.508L287.08 451.478Z" fill="#FF8B7B"/>
<path d="M277.371 446.512L287.415 446.646C287.585 446.643 287.749 446.706 287.872 446.823C287.995 446.94 288.068 447.101 288.073 447.271L288.453 455.25C288.453 455.457 288.412 455.662 288.332 455.853C288.252 456.044 288.135 456.217 287.987 456.363C287.84 456.508 287.665 456.623 287.473 456.7C287.281 456.777 287.075 456.815 286.868 456.812C283.364 456.712 281.902 456.5 277.482 456.12C273.165 455.806 268.867 455.273 264.604 454.525C260.999 453.755 261.803 450.116 263.432 450.128C267.293 450.128 273.242 449.012 275.797 447.047C276.247 446.698 276.801 446.509 277.371 446.512Z" fill="#263238"/>
<path opacity="0.2" d="M286.734 430.519L277.84 429.325L278.007 439.425L286.902 440.307L286.734 430.519Z" fill="black"/>
<path d="M331.207 320.024C331.207 320.024 266.903 325.281 269.648 350.848C273.587 387.587 274.86 433.611 274.86 433.611L291.276 434.124C291.276 434.124 297.157 389.116 293.642 360.468C311.074 353.303 358.225 351.205 362.008 335.648C365.099 322.915 362.008 316.442 362.008 316.442L331.207 320.024Z" fill="#263238"/>
<path opacity="0.3" d="M327.188 324.756C327.188 324.756 309.444 345.369 304.076 357.399C300.524 358.187 297.036 359.239 293.641 360.546C293.971 363.332 294.142 366.134 294.155 368.939C281.6 354.152 288.586 329.588 327.188 324.756Z" fill="black"/>
<path d="M292.973 438.231L273.89 436.869L272.74 429.671L293.9 430.921L292.973 438.231Z" fill="#3F40EA"/>
<path d="M272.494 447.516C272.356 447.369 272.261 447.188 272.217 446.992C272.174 446.795 272.185 446.591 272.248 446.4C272.273 446.269 272.331 446.147 272.417 446.045C272.503 445.943 272.614 445.866 272.739 445.82C273.855 445.407 276.355 447.17 276.645 447.371C276.676 447.396 276.7 447.429 276.713 447.466C276.727 447.504 276.731 447.544 276.724 447.583C276.716 447.623 276.698 447.66 276.67 447.69C276.642 447.719 276.607 447.74 276.567 447.75C275.78 447.929 274.976 448.026 274.168 448.041C273.564 448.079 272.968 447.892 272.494 447.516ZM272.885 446.188C272.824 446.212 272.77 446.251 272.729 446.302C272.688 446.353 272.661 446.414 272.65 446.478C272.604 446.604 272.593 446.74 272.619 446.872C272.644 447.004 272.705 447.126 272.795 447.226C273.208 447.65 274.38 447.717 275.998 447.416C274.96 446.757 273.476 445.987 272.885 446.21V446.188Z" fill="#3F40EA"/>
<path d="M276.412 447.717C275.53 447.181 274.18 445.284 274.436 444.313C274.474 444.139 274.569 443.982 274.707 443.869C274.845 443.755 275.017 443.692 275.195 443.688C275.355 443.667 275.518 443.683 275.671 443.736C275.824 443.788 275.963 443.875 276.077 443.989C276.97 444.882 276.735 447.449 276.724 447.561C276.724 447.597 276.714 447.632 276.694 447.662C276.674 447.691 276.646 447.715 276.612 447.728H276.512L276.412 447.717ZM275.24 444.101C274.938 444.101 274.871 444.28 274.838 444.402C274.693 445.05 275.563 446.478 276.333 447.148C276.467 446.161 276.275 445.158 275.787 444.291C275.729 444.23 275.66 444.182 275.583 444.149C275.506 444.116 275.424 444.1 275.34 444.101H275.24Z" fill="#3F40EA"/>
<path d="M324.678 449.067L315.705 448.967L311.844 428.153L320.805 428.265L324.678 449.067Z" fill="#FF8B7B"/>
<path d="M315.37 447.773L325.325 446.3C325.407 446.283 325.493 446.284 325.575 446.301C325.658 446.318 325.736 446.352 325.806 446.4C325.876 446.447 325.935 446.508 325.981 446.579C326.026 446.65 326.058 446.73 326.072 446.813L327.724 454.625C327.785 455.037 327.681 455.457 327.435 455.794C327.188 456.13 326.819 456.356 326.407 456.422C322.925 456.879 321.24 456.924 316.854 457.538C314.165 457.928 308.886 458.955 305.125 458.91C301.364 458.866 301.509 455.149 303.105 454.837C306.888 454.078 311.709 450.842 313.919 448.509C314.308 448.109 314.818 447.85 315.37 447.773Z" fill="#263238"/>
<path d="M310.716 449.558C310.547 449.432 310.417 449.259 310.342 449.062C310.267 448.864 310.25 448.649 310.292 448.442C310.296 448.308 310.334 448.178 310.403 448.063C310.471 447.948 310.567 447.852 310.683 447.784C311.709 447.204 314.477 448.543 314.79 448.699C314.824 448.72 314.852 448.75 314.872 448.785C314.891 448.82 314.901 448.86 314.901 448.9C314.901 448.94 314.887 448.979 314.863 449.011C314.839 449.043 314.806 449.067 314.767 449.078C314.02 449.386 313.242 449.611 312.446 449.748C311.866 449.903 311.249 449.836 310.716 449.558ZM310.895 448.186C310.838 448.219 310.79 448.266 310.757 448.322C310.724 448.379 310.706 448.444 310.705 448.509C310.682 448.64 310.694 448.775 310.739 448.9C310.784 449.025 310.861 449.137 310.962 449.224C311.442 449.569 312.613 449.447 314.153 448.9C313.026 448.398 311.442 447.873 310.895 448.186Z" fill="#3F40EA"/>
<path d="M314.613 449.112C313.653 448.721 312.057 447.058 312.113 446.065C312.125 445.887 312.196 445.717 312.315 445.584C312.435 445.45 312.595 445.361 312.771 445.329C312.928 445.286 313.092 445.278 313.252 445.305C313.412 445.332 313.564 445.393 313.697 445.485C314.713 446.221 314.892 448.833 314.903 448.911C314.902 448.946 314.893 448.979 314.878 449.01C314.863 449.041 314.841 449.068 314.813 449.09C314.785 449.101 314.753 449.101 314.724 449.09C314.708 449.101 314.69 449.109 314.671 449.113C314.652 449.117 314.632 449.117 314.613 449.112ZM312.883 445.764C312.593 445.842 312.537 445.998 312.537 446.121C312.537 446.779 313.586 448.052 314.445 448.587C314.345 447.75 314.066 446.3 313.452 445.864C313.387 445.813 313.311 445.775 313.23 445.754C313.15 445.733 313.066 445.729 312.983 445.742L312.883 445.764Z" fill="#3F40EA"/>
<path opacity="0.2" d="M320.805 428.265L311.844 428.165L314.053 440.061L322.948 439.726L320.805 428.265Z" fill="black"/>
<path d="M352.946 317.513C352.946 317.513 289.691 330.905 294.244 349.933C300.818 377.309 309.388 436.981 309.388 436.981L325.76 435.731C325.76 435.731 326.43 380.969 319.577 352.946C336.128 351.038 376.773 347.545 379.317 337.144C381.549 327.959 378.837 314.545 378.837 314.545C378.837 314.545 327.267 319.991 322.256 322.357C317.245 324.723 352.946 317.513 352.946 317.513Z" fill="#263238"/>
<path d="M327.681 436.501L308.005 437.796L306.32 429.37L327.937 428.365L327.681 436.501Z" fill="#3F40EA"/>
<path d="M149.354 309.3H448.108V456.243C448.108 457.534 447.595 458.771 446.682 459.684C445.77 460.596 444.532 461.109 443.242 461.109H154.198C153.559 461.109 152.926 460.983 152.336 460.739C151.745 460.494 151.209 460.136 150.757 459.684C150.305 459.232 149.947 458.696 149.702 458.105C149.458 457.515 149.332 456.882 149.332 456.243V309.3H149.354Z" fill="#3F40EA"/>
<path opacity="0.2" d="M149.354 309.3H448.108V456.243C448.108 457.534 447.595 458.771 446.682 459.684C445.77 460.596 444.532 461.109 443.242 461.109H154.198C153.559 461.109 152.926 460.983 152.336 460.739C151.745 460.494 151.209 460.136 150.757 459.684C150.305 459.232 149.947 458.696 149.702 458.105C149.458 457.515 149.332 456.882 149.332 456.243V309.3H149.354Z" fill="black"/>
<path d="M111.6 309.3H410.354V456.243C410.354 457.534 409.841 458.771 408.928 459.684C408.016 460.596 406.778 461.109 405.488 461.109H116.444C115.153 461.109 113.916 460.596 113.003 459.684C112.091 458.771 111.578 457.534 111.578 456.243V309.3H111.6Z" fill="#3F40EA"/>
<path d="M450.587 298.139H141.645V309.299H450.587C452.067 309.299 453.486 308.712 454.532 307.665C455.579 306.619 456.167 305.199 456.167 303.719C456.167 302.239 455.579 300.82 454.532 299.774C453.486 298.727 452.067 298.139 450.587 298.139Z" fill="#3F40EA"/>
<path opacity="0.3" d="M450.587 298.139H141.645V309.299H450.587C452.067 309.299 453.486 308.712 454.532 307.665C455.579 306.619 456.167 305.199 456.167 303.719C456.167 302.239 455.579 300.82 454.532 299.774C453.486 298.727 452.067 298.139 450.587 298.139Z" fill="white"/>
<path d="M410.778 298.139H107.416C105.936 298.139 104.517 298.727 103.47 299.774C102.424 300.82 101.836 302.239 101.836 303.719C101.836 305.199 102.424 306.619 103.47 307.665C104.517 308.712 105.936 309.299 107.416 309.299H410.778C412.258 309.299 413.677 308.712 414.724 307.665C415.77 306.619 416.358 305.199 416.358 303.719C416.358 302.239 415.77 300.82 414.724 299.774C413.677 298.727 412.258 298.139 410.778 298.139Z" fill="#3F40EA"/>
<path opacity="0.6" d="M410.778 298.139H107.416C105.936 298.139 104.517 298.727 103.47 299.774C102.424 300.82 101.836 302.239 101.836 303.719C101.836 305.199 102.424 306.619 103.47 307.665C104.517 308.712 105.936 309.299 107.416 309.299H410.778C412.258 309.299 413.677 308.712 414.724 307.665C415.77 306.619 416.358 305.199 416.358 303.719C416.358 302.239 415.77 300.82 414.724 299.774C413.677 298.727 412.258 298.139 410.778 298.139Z" fill="white"/>
<path opacity="0.7" d="M180.603 298.139H160.259L154.188 309.299H174.532L180.603 298.139Z" fill="white"/>
<path opacity="0.7" d="M200.011 298.139H189.833L183.762 309.299H193.928L200.011 298.139Z" fill="white"/>
<path opacity="0.7" d="M302.236 298.139H257.161L251.09 309.299H296.165L302.236 298.139Z" fill="white"/>
<path opacity="0.7" d="M321.643 298.139H311.477L305.395 309.299H315.572L321.643 298.139Z" fill="white"/>
<path opacity="0.7" d="M385.59 298.139H381.718L375.646 309.299H379.508L385.59 298.139Z" fill="white"/>
<g opacity="0.3">
<path d="M178.561 364.932H190.268L202.187 387.386L205.535 364.932H217.353L211.271 405.521H199.441L187.578 383.201L184.23 405.521H172.445L178.561 364.932Z" fill="black"/>
<path d="M225.645 364.932H259.259L257.953 373.592H236.916L235.945 380.043H255.464L254.225 388.323H234.707L233.512 396.325H255.163L253.779 405.521H219.562L225.645 364.932Z" fill="black"/>
<path d="M262.439 364.932H274.347L275.24 387.654L284.916 364.932H296.79L299.68 387.62L307.37 364.932H319.177L304.156 405.521H291.88L288.598 379.965L277.673 405.521H265.397L262.439 364.932Z" fill="black"/>
<path d="M317.057 392.073L329.109 391.325C328.981 392.869 329.294 394.417 330.013 395.789C330.581 396.621 331.36 397.286 332.27 397.718C333.18 398.149 334.188 398.331 335.192 398.245C336.732 398.322 338.254 397.878 339.511 396.984C340.003 396.647 340.425 396.217 340.75 395.717C341.076 395.217 341.299 394.657 341.408 394.071C341.486 393.558 341.439 393.033 341.272 392.542C341.105 392.051 340.823 391.606 340.448 391.247C339.644 390.414 337.621 389.629 334.377 388.893C329.065 387.65 325.389 386.006 323.351 383.96C322.339 382.956 321.593 381.717 321.178 380.353C320.763 378.99 320.693 377.545 320.974 376.148C321.328 373.973 322.261 371.934 323.674 370.244C325.299 368.285 327.402 366.778 329.779 365.869C333.054 364.693 336.524 364.151 340.002 364.274C345.21 364.274 349.019 365.237 351.429 367.164C353.84 369.091 354.993 372.141 354.889 376.315L342.97 377.007C343.017 376.284 342.918 375.56 342.68 374.875C342.443 374.191 342.071 373.561 341.586 373.023C340.47 372.106 339.042 371.658 337.602 371.773C336.387 371.706 335.182 372.031 334.165 372.699C333.789 372.957 333.468 373.288 333.221 373.671C332.974 374.054 332.805 374.482 332.725 374.931C332.679 375.253 332.714 375.58 332.827 375.884C332.94 376.188 333.128 376.459 333.373 376.672C333.886 377.208 335.214 377.699 337.357 378.168C342.669 379.351 346.419 380.545 348.606 381.75C350.54 382.713 352.107 384.28 353.07 386.214C353.898 388.1 354.151 390.189 353.795 392.218C353.387 394.866 352.268 397.354 350.559 399.416C348.761 401.634 346.425 403.356 343.774 404.416C340.569 405.636 337.157 406.216 333.73 406.124C326.833 406.124 322.253 404.796 319.992 402.139C318.865 400.737 318.025 399.126 317.522 397.399C317.018 395.671 316.86 393.862 317.057 392.073Z" fill="black"/>
</g>
<path d="M175.514 364.932H187.232L199.14 387.386L202.488 364.932H214.306L208.224 405.521H196.417L184.553 383.201L181.205 405.521H169.432L175.514 364.932Z" fill="white"/>
<path d="M222.633 364.932H256.247L254.952 373.592H233.904L232.945 380.043H252.452L251.213 388.323H231.695L230.5 396.325H252.151L250.778 405.521H216.506L222.633 364.932Z" fill="white"/>
<path d="M259.426 364.932H271.345L272.226 387.654L281.902 364.932H293.776L296.667 387.62L304.356 364.932H316.208L301.187 405.521H288.911L285.562 379.965L274.648 405.521H262.372L259.426 364.932Z" fill="white"/>
<path d="M314.055 392.073L326.096 391.325C325.965 392.871 326.283 394.421 327.012 395.789C327.577 396.621 328.354 397.287 329.262 397.718C330.17 398.15 331.177 398.331 332.179 398.245C333.723 398.322 335.248 397.878 336.509 396.984C337.002 396.649 337.422 396.218 337.746 395.718C338.07 395.218 338.291 394.658 338.395 394.071C338.476 393.558 338.431 393.032 338.264 392.541C338.096 392.049 337.812 391.605 337.435 391.247C336.632 390.414 334.608 389.629 331.364 388.893C326.052 387.65 322.376 386.006 320.338 383.96C319.329 382.954 318.584 381.715 318.169 380.352C317.755 378.989 317.683 377.545 317.961 376.148C318.315 373.973 319.248 371.934 320.662 370.244C322.288 368.282 324.395 366.775 326.777 365.869C330.049 364.693 333.514 364.152 336.989 364.274C342.197 364.274 346.006 365.237 348.416 367.164C350.861 369.095 352.01 372.164 351.898 376.371L339.98 377.063C340.026 376.34 339.927 375.615 339.69 374.931C339.452 374.247 339.08 373.617 338.596 373.079C337.479 372.162 336.051 371.714 334.612 371.829C333.4 371.761 332.198 372.086 331.185 372.755C330.806 373.011 330.482 373.34 330.233 373.724C329.984 374.107 329.814 374.537 329.735 374.987C329.689 375.309 329.725 375.638 329.84 375.942C329.955 376.247 330.145 376.517 330.393 376.728C330.895 377.264 332.223 377.755 334.377 378.224C339.682 379.407 343.428 380.601 345.615 381.806C347.549 382.769 349.116 384.336 350.079 386.27C350.908 388.156 351.16 390.245 350.805 392.274C350.401 394.923 349.282 397.412 347.568 399.472C345.77 401.69 343.434 403.411 340.783 404.472C337.579 405.691 334.166 406.271 330.739 406.179C323.842 406.179 319.263 404.851 317.001 402.195C315.865 400.787 315.02 399.167 314.514 397.429C314.008 395.692 313.852 393.871 314.055 392.073Z" fill="white"/>
<path d="M244.662 283.118H235.388C235.08 283.118 234.83 283.368 234.83 283.676V297.582C234.83 297.89 235.08 298.14 235.388 298.14H244.662C244.97 298.14 245.22 297.89 245.22 297.582V283.676C245.22 283.368 244.97 283.118 244.662 283.118Z" fill="#3F40EA"/>
<path d="M233.959 296.354C231.817 296.354 230.143 293.843 230.143 290.629C230.143 287.415 231.817 284.904 233.959 284.904C236.102 284.904 237.776 287.426 237.776 290.629C237.776 293.832 236.091 296.354 233.959 296.354ZM233.959 286.578C232.944 286.578 231.817 288.241 231.817 290.629C231.817 293.017 232.933 294.68 233.959 294.68C234.986 294.68 236.102 293.017 236.102 290.629C236.102 288.241 234.964 286.578 233.959 286.578Z" fill="#3F40EA"/>
<path d="M148.003 207.208C150.76 207.208 153.003 202.665 153.003 197.063C153.003 191.461 150.771 186.919 148.003 186.919H140.973V207.208H148.003Z" fill="#3F40EA"/>
<path opacity="0.8" d="M152.166 191.461H141.006V195.467H152.891C152.811 194.108 152.567 192.763 152.166 191.461Z" fill="white"/>
<path d="M145.972 197.063C145.972 202.643 143.74 207.208 140.972 207.208C138.205 207.208 135.973 202.665 135.973 197.063C135.973 191.461 138.205 186.919 140.972 186.919C143.74 186.919 145.972 191.461 145.972 197.063Z" fill="#3F40EA"/>
<path opacity="0.2" d="M145.972 197.063C145.972 202.643 143.74 207.208 140.972 207.208C138.205 207.208 135.973 202.665 135.973 197.063C135.973 191.461 138.205 186.919 140.972 186.919C143.74 186.919 145.972 191.461 145.972 197.063Z" fill="black"/>
<path d="M92.0917 182.968H67.7518C66.0691 182.968 64.7051 184.332 64.7051 186.015V208.111C64.7051 209.794 66.0691 211.158 67.7518 211.158H92.0917C93.7744 211.158 95.1384 209.794 95.1384 208.111V186.015C95.1384 184.332 93.7744 182.968 92.0917 182.968Z" fill="#3F40EA"/>
<path opacity="0.2" d="M92.0917 182.968H67.7518C66.0691 182.968 64.7051 184.332 64.7051 186.015V208.111C64.7051 209.794 66.0691 211.158 67.7518 211.158H92.0917C93.7744 211.158 95.1384 209.794 95.1384 208.111V186.015C95.1384 184.332 93.7744 182.968 92.0917 182.968Z" fill="black"/>
<path d="M133.317 182.968H88.9002C87.2176 182.968 85.8535 184.332 85.8535 186.015V208.111C85.8535 209.794 87.2176 211.158 88.9002 211.158H133.317C135 211.158 136.364 209.794 136.364 208.111V186.015C136.364 184.332 135 182.968 133.317 182.968Z" fill="#3F40EA"/>
<path d="M84.1684 175.603L77.3496 182.968H97.047L103.855 175.603H84.1684Z" fill="#3F40EA"/>
<path opacity="0.2" d="M84.1684 175.603L77.3496 182.968H97.047L103.855 175.603H84.1684Z" fill="black"/>
<path d="M123.719 182.968H91.0312L97.8388 175.603H116.9L123.719 182.968Z" fill="#3F40EA"/>
<path d="M75.977 175.603L69.1582 157.78H95.6632L102.482 175.603H75.977Z" fill="#3F40EA"/>
<path opacity="0.2" d="M75.977 175.603L69.1582 157.78H95.6632L102.482 175.603H75.977Z" fill="black"/>
<path d="M129.142 157.78H89.6582L96.4658 175.603H122.335L129.142 157.78Z" fill="#3F40EA"/>
<path opacity="0.5" d="M78.12 172.801L73.4551 160.581H87.5055L92.1704 172.801H78.12Z" fill="#3F40EA"/>
<path opacity="0.2" d="M112.125 197.811H110.094V207.208H112.125V197.811Z" fill="black"/>
<path opacity="0.2" d="M118.932 197.811H116.9V207.208H118.932V197.811Z" fill="black"/>
<path opacity="0.2" d="M125.75 197.811H123.719V207.208H125.75V197.811Z" fill="black"/>
<path opacity="0.2" d="M132.558 197.811H130.527V207.208H132.558V197.811Z" fill="black"/>
<path opacity="0.2" d="M108.721 197.811H106.689V207.208H108.721V197.811Z" fill="black"/>
<path opacity="0.2" d="M115.527 197.811H113.496V207.208H115.527V197.811Z" fill="black"/>
<path opacity="0.2" d="M122.336 197.811H120.305V207.208H122.336V197.811Z" fill="black"/>
<path opacity="0.2" d="M129.154 197.811H127.123V207.208H129.154V197.811Z" fill="black"/>
<path d="M136.363 200.88H138.93C139.435 200.88 139.935 200.78 140.402 200.587C140.868 200.393 141.292 200.109 141.649 199.752C142.005 199.394 142.288 198.969 142.48 198.502C142.672 198.035 142.771 197.535 142.769 197.03C142.769 196.012 142.365 195.035 141.645 194.315C140.925 193.595 139.948 193.191 138.93 193.191H136.363V200.88Z" fill="#3F40EA"/>
<path opacity="0.7" d="M136.363 200.88H138.93C139.435 200.88 139.935 200.78 140.402 200.587C140.868 200.393 141.292 200.109 141.649 199.752C142.005 199.394 142.288 198.969 142.48 198.502C142.672 198.035 142.771 197.535 142.769 197.03C142.769 196.012 142.365 195.035 141.645 194.315C140.925 193.595 139.948 193.191 138.93 193.191H136.363V200.88Z" fill="white"/>
<path opacity="0.8" d="M81.0541 186.919H69.4923C68.4815 186.919 67.6621 187.738 67.6621 188.749V192.354C67.6621 193.364 68.4815 194.184 69.4923 194.184H81.0541C82.0649 194.184 82.8843 193.364 82.8843 192.354V188.749C82.8843 187.738 82.0649 186.919 81.0541 186.919Z" fill="#3F40EA"/>
<path d="M119.969 211.169H79.916V213.524H119.969V211.169Z" fill="#3F40EA"/>
<path opacity="0.7" d="M119.969 211.169H79.916V213.524H119.969V211.169Z" fill="white"/>
<path d="M117.347 218.212H82.5831C81.337 218.212 80.142 217.717 79.2609 216.835C78.3798 215.954 77.8848 214.759 77.8848 213.513H122.09C122.091 214.134 121.969 214.75 121.731 215.323C121.492 215.897 121.142 216.417 120.701 216.855C120.26 217.292 119.736 217.637 119.16 217.87C118.584 218.103 117.968 218.219 117.347 218.212Z" fill="#3F40EA"/>
<path d="M112.604 218.211H87.293V225.789H112.604V218.211Z" fill="#3F40EA"/>
<path d="M110.852 270.273H89.034C87.7977 270.27 86.6129 269.778 85.7387 268.903C84.8645 268.029 84.3721 266.844 84.3691 265.608C84.3691 264.371 84.8606 263.184 85.7355 262.309C86.6103 261.435 87.7968 260.943 89.034 260.943H110.852C111.465 260.942 112.073 261.061 112.64 261.295C113.208 261.529 113.723 261.872 114.158 262.305C114.592 262.739 114.937 263.254 115.172 263.82C115.407 264.387 115.528 264.994 115.528 265.608C115.525 266.846 115.031 268.033 114.154 268.907C113.278 269.782 112.09 270.273 110.852 270.273Z" fill="#3F40EA"/>
<path d="M106.688 225.8H93.207V260.932H106.688V225.8Z" fill="#3F40EA"/>
<path opacity="0.7" d="M106.688 225.8H93.207V260.932H106.688V225.8Z" fill="white"/>
<path d="M96.1094 270.273H103.787V462.392C103.787 463.404 103.385 464.375 102.67 465.091C101.954 465.807 100.983 466.209 99.9707 466.209C98.9585 466.209 97.9877 465.807 97.2719 465.091C96.5561 464.375 96.154 463.404 96.154 462.392V270.273H96.1094Z" fill="#3F40EA"/>
<path opacity="0.2" d="M96.1094 270.273H103.787V462.392C103.787 463.404 103.385 464.375 102.67 465.091C101.954 465.807 100.983 466.209 99.9707 466.209C98.9585 466.209 97.9877 465.807 97.2719 465.091C96.5561 464.375 96.154 463.404 96.154 462.392V270.273H96.1094Z" fill="black"/>
<path d="M80.2843 466.209C79.7576 466.209 79.2366 466.1 78.7541 465.889C78.2715 465.678 77.8379 465.369 77.4804 464.982C77.123 464.596 76.8495 464.139 76.6771 463.641C76.5047 463.144 76.4371 462.616 76.4787 462.091L91.8125 270.273H99.4795L84.0898 462.705C84.0114 463.66 83.5764 464.551 82.8713 465.2C82.1662 465.849 81.2427 466.209 80.2843 466.209Z" fill="#3F40EA"/>
<path opacity="0.2" d="M80.2843 466.209C79.7576 466.209 79.2366 466.1 78.7541 465.889C78.2715 465.678 77.8379 465.369 77.4804 464.982C77.123 464.596 76.8495 464.139 76.6771 463.641C76.5047 463.144 76.4371 462.616 76.4787 462.091L91.8125 270.273H99.4795L84.0898 462.705C84.0114 463.66 83.5764 464.551 82.8713 465.2C82.1662 465.849 81.2427 466.209 80.2843 466.209Z" fill="black"/>
<path d="M119.601 466.209C120.128 466.209 120.649 466.1 121.131 465.889C121.614 465.678 122.048 465.369 122.405 464.982C122.762 464.596 123.036 464.139 123.208 463.641C123.381 463.144 123.448 462.616 123.407 462.091L108.073 270.273H100.439L115.818 462.705C115.899 463.655 116.331 464.541 117.031 465.189C117.731 465.838 118.647 466.201 119.601 466.209Z" fill="#3F40EA"/>
<path opacity="0.2" d="M119.601 466.209C120.128 466.209 120.649 466.1 121.131 465.889C121.614 465.678 122.048 465.369 122.405 464.982C122.762 464.596 123.036 464.139 123.208 463.641C123.381 463.144 123.448 462.616 123.407 462.091L108.073 270.273H100.439L115.818 462.705C115.899 463.655 116.331 464.541 117.031 465.189C117.731 465.838 118.647 466.201 119.601 466.209Z" fill="black"/>
<path d="M427.563 127.536H426.313C424.28 127.452 422.332 126.698 420.772 125.392C419.212 124.087 418.127 122.302 417.686 120.316L413.747 100.15C413.524 99.2787 413.507 98.3675 413.698 97.4889C413.89 96.6102 414.283 95.7882 414.847 95.0883C415.412 94.3884 416.132 93.8298 416.95 93.4569C417.769 93.0841 418.662 92.9072 419.561 92.9405H420.856C422.887 93.0243 424.833 93.7764 426.393 95.0801C427.953 96.3837 429.039 98.1658 429.482 100.15L433.422 120.316C433.645 121.191 433.661 122.107 433.468 122.99C433.274 123.872 432.877 124.698 432.308 125.399C431.738 126.101 431.013 126.66 430.189 127.031C429.365 127.402 428.466 127.575 427.563 127.536Z" fill="#3F40EA"/>
<path opacity="0.5" d="M427.563 127.536H426.313C424.28 127.452 422.332 126.698 420.772 125.392C419.212 124.087 418.127 122.302 417.686 120.316L413.747 100.15C413.524 99.2787 413.507 98.3675 413.698 97.4889C413.89 96.6102 414.283 95.7882 414.847 95.0883C415.412 94.3884 416.132 93.8298 416.95 93.4569C417.769 93.0841 418.662 92.9072 419.561 92.9405H420.856C422.887 93.0243 424.833 93.7764 426.393 95.0801C427.953 96.3837 429.039 98.1658 429.482 100.15L433.422 120.316C433.645 121.191 433.661 122.107 433.468 122.99C433.274 123.872 432.877 124.698 432.308 125.399C431.738 126.101 431.013 126.66 430.189 127.031C429.365 127.402 428.466 127.575 427.563 127.536Z" fill="white"/>
<path d="M500.326 122.883H426.425L421.492 97.5833H495.394L500.326 122.883Z" fill="#3F40EA"/>
<path opacity="0.2" d="M500.326 122.883H426.425L421.492 97.5833H495.394L500.326 122.883Z" fill="black"/>
<path d="M486.878 88.2869H412.977L421.492 97.5831H495.393L486.878 88.2869Z" fill="#3F40EA"/>
<path d="M495.448 132.179H421.547L426.424 122.883H500.325L495.448 132.179Z" fill="#3F40EA"/>
<path opacity="0.4" d="M495.448 132.179H421.547L426.424 122.883H500.325L495.448 132.179Z" fill="black"/>
<path d="M412.976 88.2869H410.633L419.148 97.5831L424.081 122.883L419.204 132.179H421.547L426.424 122.883L421.491 97.5831L412.976 88.2869Z" fill="#3F40EA"/>
<path opacity="0.5" d="M412.976 88.2869H410.633L419.148 97.5831L424.081 122.883L419.204 132.179H421.547L426.424 122.883L421.491 97.5831L412.976 88.2869Z" fill="black"/>
<path opacity="0.4" d="M460.908 116.254C464.23 116.254 466.923 113.561 466.923 110.239C466.923 106.917 464.23 104.223 460.908 104.223C457.586 104.223 454.893 106.917 454.893 110.239C454.893 113.561 457.586 116.254 460.908 116.254Z" fill="black"/>
<path d="M463.33 450.128C462.689 450.125 462.074 449.869 461.621 449.415C461.167 448.962 460.911 448.347 460.908 447.706V112.716C460.911 112.075 461.167 111.461 461.621 111.007C462.074 110.553 462.689 110.297 463.33 110.294C463.973 110.294 464.59 110.549 465.046 111.003C465.502 111.457 465.76 112.073 465.763 112.716V447.706C465.76 448.349 465.502 448.965 465.046 449.419C464.59 449.873 463.973 450.128 463.33 450.128Z" fill="#3F40EA"/>
<path opacity="0.5" d="M463.33 450.128C462.689 450.125 462.074 449.869 461.621 449.415C461.167 448.962 460.911 448.347 460.908 447.706V112.716C460.911 112.075 461.167 111.461 461.621 111.007C462.074 110.553 462.689 110.297 463.33 110.294C463.973 110.294 464.59 110.549 465.046 111.003C465.502 111.457 465.76 112.073 465.763 112.716V447.706C465.76 448.349 465.502 448.965 465.046 449.419C464.59 449.873 463.973 450.128 463.33 450.128Z" fill="black"/>
<path d="M464.614 450.674H462.059V466.209H464.614V450.674Z" fill="#3F40EA"/>
<path opacity="0.2" d="M464.614 450.674H462.059V466.209H464.614V450.674Z" fill="black"/>
<path d="M453.599 466.209H450.418L459.859 450.674H463.051L453.599 466.209Z" fill="#3F40EA"/>
<path opacity="0.2" d="M453.599 466.209H450.418L459.859 450.674H463.051L453.599 466.209Z" fill="black"/>
<path d="M473.062 466.209H476.254L466.802 450.674H463.621L473.062 466.209Z" fill="#3F40EA"/>
<path opacity="0.2" d="M473.062 466.209H476.254L466.802 450.674H463.621L473.062 466.209Z" fill="black"/>
<path d="M466.678 451.88H459.982C459.342 451.88 458.728 451.626 458.274 451.174C457.82 450.723 457.563 450.109 457.561 449.469C457.563 448.828 457.82 448.213 458.273 447.76C458.727 447.306 459.341 447.05 459.982 447.047H466.678C467.319 447.05 467.932 447.307 468.383 447.761C468.835 448.214 469.089 448.829 469.089 449.469C469.089 449.786 469.026 450.099 468.905 450.392C468.784 450.684 468.607 450.95 468.383 451.174C468.159 451.397 467.893 451.575 467.601 451.696C467.308 451.817 466.995 451.88 466.678 451.88Z" fill="#3F40EA"/>
</svg>
