<svg width="538" height="443" viewBox="0 0 538 443" fill="none" xmlns="http://www.w3.org/2000/svg">
<path d="M524.901 183.576H33.2425C31.1549 183.576 29.1528 184.591 27.6766 186.398C26.2004 188.205 25.3711 190.656 25.3711 193.211C25.3711 195.767 26.2004 198.217 27.6766 200.024C29.1528 201.831 31.1549 202.847 33.2425 202.847H47.1688V433.357C47.1688 435.912 47.9981 438.363 49.4743 440.17C50.9505 441.977 52.9526 442.992 55.0402 442.992C57.1278 442.992 59.13 441.977 60.6062 440.17C62.0823 438.363 62.9116 435.912 62.9116 433.357L63.0312 202.847H457.637L494.021 433.357C494.021 435.912 494.851 438.363 496.327 440.17C497.803 441.977 499.805 442.992 501.893 442.992C503.98 442.992 505.983 441.977 507.459 440.17C508.935 438.363 509.764 435.912 509.764 433.357L512.054 202.847H524.901C526.989 202.847 528.991 201.831 530.467 200.024C531.944 198.217 532.773 195.767 532.773 193.211C532.773 190.656 531.944 188.205 530.467 186.398C528.991 184.591 526.989 183.576 524.901 183.576Z" fill="#5800FF"/>
<path d="M118.464 140.641V181.445H34.9518C32.7631 181.538 30.5809 181.103 28.5296 180.163C26.4784 179.224 24.5984 177.8 22.9969 175.971C21.3954 174.143 20.1039 171.946 19.196 169.506C18.288 167.067 17.7815 164.432 17.7054 161.753C17.6293 159.074 17.9849 156.402 18.7522 153.891C19.5194 151.38 20.6831 149.079 22.1769 147.119C23.6707 145.158 25.4653 143.577 27.4583 142.466C29.4512 141.354 31.6035 140.734 33.7921 140.641C34.1786 140.625 34.5651 140.625 34.9518 140.641L118.464 140.641Z" fill="#F2F2F2"/>
<path d="M120.515 181.131C120.515 181.547 120.379 181.946 120.139 182.241C119.899 182.535 119.573 182.7 119.233 182.7H33.4639C28.8077 182.696 24.3434 180.429 21.0522 176.398C17.7609 172.366 15.9121 166.9 15.9121 161.2C15.9121 155.5 17.7609 150.034 21.0522 146.002C24.3434 141.971 28.8077 139.704 33.4639 139.7H119.233C119.401 139.699 119.568 139.739 119.724 139.818C119.88 139.897 120.022 140.012 120.141 140.158C120.261 140.304 120.356 140.477 120.42 140.668C120.485 140.858 120.518 141.063 120.518 141.269C120.518 141.476 120.485 141.68 120.42 141.871C120.356 142.061 120.261 142.234 120.141 142.38C120.022 142.526 119.88 142.642 119.724 142.72C119.568 142.799 119.401 142.839 119.233 142.838H33.4639C29.4896 142.846 25.6801 144.784 22.872 148.226C20.0638 151.669 18.4866 156.335 18.4866 161.2C18.4866 166.065 20.0638 170.731 22.872 174.174C25.6801 177.617 29.4896 179.554 33.4639 179.562H119.233C119.573 179.562 119.899 179.727 120.139 180.022C120.379 180.316 120.515 180.715 120.515 181.131Z" fill="#6C63FF"/>
<path d="M118.464 150.058H28.7207C28.6528 150.058 28.5876 150.026 28.5393 149.967C28.491 149.909 28.4635 149.83 28.4629 149.747C28.4623 149.664 28.4886 149.584 28.536 149.524C28.5834 149.465 28.6481 149.431 28.7159 149.43H118.464C118.531 149.431 118.596 149.464 118.643 149.523C118.691 149.582 118.718 149.661 118.718 149.744C118.718 149.826 118.691 149.906 118.643 149.965C118.596 150.023 118.531 150.057 118.464 150.058Z" fill="#CCCCCC"/>
<path d="M118.464 157.591H28.7207C28.6528 157.591 28.5876 157.559 28.5393 157.5C28.491 157.442 28.4635 157.363 28.4629 157.28C28.4623 157.197 28.4886 157.117 28.536 157.057C28.5834 156.998 28.6481 156.964 28.7159 156.963H118.464C118.531 156.964 118.596 156.997 118.643 157.056C118.691 157.115 118.718 157.194 118.718 157.277C118.718 157.359 118.691 157.439 118.643 157.498C118.596 157.556 118.531 157.59 118.464 157.591Z" fill="#CCCCCC"/>
<path d="M118.464 165.124H28.7207C28.6528 165.124 28.5876 165.092 28.5393 165.033C28.491 164.975 28.4635 164.896 28.4629 164.813C28.4623 164.73 28.4886 164.65 28.536 164.59C28.5834 164.531 28.6481 164.497 28.7159 164.496H118.464C118.531 164.497 118.596 164.53 118.643 164.589C118.691 164.648 118.718 164.727 118.718 164.81C118.718 164.892 118.691 164.972 118.643 165.031C118.596 165.089 118.531 165.123 118.464 165.124Z" fill="#CCCCCC"/>
<path d="M118.464 172.657H28.7207C28.6528 172.657 28.5876 172.625 28.5393 172.566C28.491 172.508 28.4635 172.429 28.4629 172.346C28.4623 172.263 28.4886 172.183 28.536 172.123C28.5834 172.064 28.6481 172.03 28.7159 172.029H118.464C118.531 172.03 118.596 172.063 118.643 172.122C118.691 172.181 118.718 172.26 118.718 172.343C118.718 172.425 118.691 172.505 118.643 172.564C118.596 172.622 118.531 172.656 118.464 172.657Z" fill="#CCCCCC"/>
<path d="M102.722 97.6525V138.456H19.2096C14.7894 138.644 10.4891 136.675 7.25475 132.982C4.02042 129.289 2.117 124.175 1.96322 118.764C1.80944 113.353 3.4179 108.089 6.43475 104.13C9.45161 100.171 13.6297 97.8407 18.05 97.6525C18.4364 97.636 18.8229 97.636 19.2096 97.6525H102.722Z" fill="#F2F2F2"/>
<path d="M104.773 138.142C104.773 138.558 104.638 138.957 104.397 139.252C104.157 139.546 103.831 139.711 103.491 139.711H17.7222C13.064 139.711 8.59647 137.446 5.30258 133.414C2.00869 129.382 0.158203 123.913 0.158203 118.211C0.158203 112.509 2.00869 107.04 5.30258 103.008C8.59647 98.9759 13.064 96.7107 17.7222 96.7107H103.491C103.659 96.7107 103.826 96.7513 103.982 96.8302C104.137 96.909 104.279 97.0246 104.398 97.1703C104.517 97.3161 104.611 97.4891 104.675 97.6795C104.74 97.8699 104.773 98.074 104.773 98.2801C104.773 98.4862 104.74 98.6902 104.675 98.8806C104.611 99.071 104.517 99.244 104.398 99.3898C104.279 99.5355 104.137 99.6511 103.982 99.7299C103.826 99.8088 103.659 99.8494 103.491 99.8494H17.7222C13.744 99.8494 9.9287 101.784 7.11567 105.227C4.30264 108.671 2.7223 113.341 2.7223 118.211C2.7223 123.081 4.30264 127.751 7.11567 131.195C9.9287 134.638 13.744 136.573 17.7222 136.573H103.491C103.831 136.573 104.157 136.738 104.397 137.032C104.638 137.327 104.773 137.726 104.773 138.142Z" fill="#3F3D56"/>
<path d="M102.722 107.069H12.9785C12.9107 107.069 12.8455 107.037 12.7971 106.978C12.7488 106.92 12.7213 106.841 12.7207 106.758C12.7201 106.675 12.7464 106.595 12.7938 106.535C12.8412 106.476 12.906 106.442 12.9738 106.441H102.722C102.789 106.442 102.854 106.475 102.901 106.534C102.949 106.593 102.975 106.672 102.975 106.755C102.975 106.837 102.949 106.917 102.901 106.976C102.854 107.034 102.789 107.068 102.722 107.069Z" fill="#CCCCCC"/>
<path d="M102.722 114.602H12.9785C12.9107 114.602 12.8455 114.57 12.7971 114.511C12.7488 114.453 12.7213 114.374 12.7207 114.291C12.7201 114.208 12.7464 114.128 12.7938 114.068C12.8412 114.009 12.906 113.975 12.9738 113.974H102.722C102.789 113.975 102.854 114.008 102.901 114.067C102.949 114.126 102.975 114.205 102.975 114.288C102.975 114.37 102.949 114.45 102.901 114.509C102.854 114.567 102.789 114.601 102.722 114.602Z" fill="#CCCCCC"/>
<path d="M102.722 122.135H12.9785C12.9107 122.135 12.8455 122.103 12.7971 122.044C12.7488 121.986 12.7213 121.907 12.7207 121.824C12.7201 121.741 12.7464 121.661 12.7938 121.601C12.8412 121.542 12.906 121.508 12.9738 121.507H102.722C102.789 121.508 102.854 121.541 102.901 121.6C102.949 121.659 102.975 121.738 102.975 121.821C102.975 121.903 102.949 121.983 102.901 122.042C102.854 122.1 102.789 122.134 102.722 122.135Z" fill="#CCCCCC"/>
<path d="M102.722 129.667H12.9785C12.9107 129.668 12.8455 129.635 12.7971 129.577C12.7488 129.519 12.7213 129.439 12.7207 129.356C12.7201 129.273 12.7464 129.193 12.7938 129.134C12.8412 129.075 12.906 129.041 12.9738 129.04H102.722C102.789 129.04 102.854 129.074 102.901 129.133C102.949 129.191 102.975 129.271 102.975 129.353C102.975 129.436 102.949 129.515 102.901 129.574C102.854 129.633 102.789 129.666 102.722 129.667Z" fill="#CCCCCC"/>
<path d="M199.872 327.962V292.385C199.872 290.812 199.361 289.304 198.453 288.192C197.544 287.08 196.312 286.455 195.028 286.455H84.8283C83.5436 286.455 82.3116 287.08 81.4032 288.192C80.4948 289.304 79.9844 290.812 79.9844 292.385V327.962H199.872Z" fill="#5800FF"/>
<path d="M199.872 341.303H79.9844V387.257H199.872V341.303Z" fill="#5800FF"/>
<path d="M79.9844 400.599V436.176C79.9844 437.748 80.4948 439.257 81.4032 440.369C82.3116 441.481 83.5436 442.105 84.8283 442.105H195.028C196.312 442.105 197.544 441.481 198.453 440.369C199.361 439.257 199.872 437.748 199.872 436.176V400.599H79.9844Z" fill="#5800FF"/>
<path d="M139.322 313.138C141.329 313.138 142.955 311.147 142.955 308.691C142.955 306.235 141.329 304.244 139.322 304.244C137.316 304.244 135.689 306.235 135.689 308.691C135.689 311.147 137.316 313.138 139.322 313.138Z" fill="white"/>
<path d="M139.322 372.433C141.329 372.433 142.955 370.442 142.955 367.986C142.955 365.53 141.329 363.539 139.322 363.539C137.316 363.539 135.689 365.53 135.689 367.986C135.689 370.442 137.316 372.433 139.322 372.433Z" fill="white"/>
<path d="M139.518 430.473C141.524 430.473 143.151 428.482 143.151 426.026C143.151 423.57 141.524 421.579 139.518 421.579C137.511 421.579 135.885 423.57 135.885 426.026C135.885 428.482 137.511 430.473 139.518 430.473Z" fill="white"/>
<path d="M186.279 245.89V286.694H102.767C98.3484 286.878 94.051 284.908 90.8192 281.215C87.5873 277.523 85.6854 272.41 85.5316 267.002C85.3777 261.594 86.9845 256.332 89.9987 252.373C93.0129 248.414 97.1879 246.082 101.606 245.89C101.993 245.874 102.38 245.874 102.767 245.89H186.279Z" fill="#F2F2F2"/>
<path d="M188.33 286.38C188.33 286.796 188.195 287.195 187.954 287.49C187.714 287.784 187.388 287.949 187.048 287.949H101.279C96.6221 287.951 92.1551 285.688 88.8606 281.659C85.5661 277.629 83.7137 272.163 83.7109 266.462C83.7081 260.761 85.5551 255.292 88.8457 251.258C92.1362 247.224 96.601 244.954 101.258 244.949H187.048C187.217 244.948 187.384 244.988 187.54 245.067C187.696 245.146 187.837 245.261 187.957 245.407C188.076 245.553 188.171 245.726 188.236 245.917C188.3 246.107 188.334 246.312 188.334 246.518C188.334 246.725 188.3 246.929 188.236 247.12C188.171 247.31 188.076 247.483 187.957 247.629C187.837 247.775 187.696 247.891 187.54 247.969C187.384 248.048 187.217 248.088 187.048 248.087H101.279C97.3045 248.094 93.4942 250.031 90.6854 253.474C87.8766 256.917 86.299 261.583 86.299 266.449C86.299 271.315 87.8766 275.981 90.6854 279.424C93.4942 282.867 97.3045 284.804 101.279 284.811H187.048C187.388 284.811 187.714 284.976 187.954 285.271C188.195 285.565 188.33 285.964 188.33 286.38Z" fill="#3F3D56"/>
<path d="M186.28 255.306H96.5371C96.4692 255.307 96.404 255.274 96.3557 255.216C96.3074 255.158 96.2799 255.078 96.2793 254.995C96.2787 254.912 96.3049 254.832 96.3524 254.773C96.3998 254.714 96.4645 254.68 96.5323 254.679H186.28C186.348 254.68 186.412 254.713 186.46 254.772C186.507 254.831 186.534 254.91 186.534 254.993C186.534 255.075 186.507 255.155 186.46 255.213C186.412 255.272 186.348 255.306 186.28 255.306Z" fill="#CCCCCC"/>
<path d="M186.28 262.84H96.5371C96.4692 262.84 96.404 262.808 96.3557 262.749C96.3074 262.691 96.2799 262.612 96.2793 262.529C96.2787 262.446 96.3049 262.366 96.3524 262.306C96.3998 262.247 96.4645 262.213 96.5323 262.212H186.28C186.348 262.213 186.412 262.246 186.46 262.305C186.507 262.364 186.534 262.443 186.534 262.526C186.534 262.608 186.507 262.688 186.46 262.747C186.412 262.805 186.348 262.839 186.28 262.84Z" fill="#CCCCCC"/>
<path d="M186.28 270.373H96.5371C96.4692 270.373 96.404 270.341 96.3557 270.282C96.3074 270.224 96.2799 270.145 96.2793 270.062C96.2787 269.979 96.3049 269.899 96.3524 269.839C96.3998 269.78 96.4645 269.746 96.5323 269.745H186.28C186.348 269.746 186.412 269.779 186.46 269.838C186.507 269.897 186.534 269.976 186.534 270.059C186.534 270.141 186.507 270.221 186.46 270.28C186.412 270.338 186.348 270.372 186.28 270.373Z" fill="#CCCCCC"/>
<path d="M186.28 277.906H96.5371C96.4692 277.906 96.404 277.874 96.3557 277.815C96.3074 277.757 96.2799 277.678 96.2793 277.595C96.2787 277.512 96.3049 277.432 96.3524 277.372C96.3998 277.313 96.4645 277.279 96.5323 277.278H186.28C186.348 277.279 186.412 277.312 186.46 277.371C186.507 277.43 186.534 277.509 186.534 277.592C186.534 277.674 186.507 277.754 186.46 277.813C186.412 277.871 186.348 277.905 186.28 277.906Z" fill="#CCCCCC"/>
<path d="M88.1985 84.0405H50.1495C49.7884 84.0401 49.4321 84.1415 49.1082 84.3369L39.5049 90.2219C39.1889 90.3864 38.9194 90.661 38.7299 91.0116C38.5405 91.3621 38.4395 91.7732 38.4395 92.1935C38.4395 92.6138 38.5405 93.0249 38.7299 93.3755C38.9194 93.726 39.1889 94.0006 39.5049 94.1651L49.1082 100.05C49.4321 100.245 49.7884 100.347 50.1495 100.347H88.1985C88.7228 100.384 89.238 100.166 89.6324 99.742C90.0269 99.3174 90.2688 98.7198 90.3059 98.0785V86.3084C90.2688 85.6671 90.0269 85.0695 89.6324 84.645C89.238 84.2205 88.7228 84.0033 88.1985 84.0405Z" fill="#3F3D56"/>
<path d="M90.307 86.3085V98.0785C90.2699 98.7199 90.028 99.3175 89.6336 99.7421C89.2391 100.167 88.7239 100.384 88.1996 100.347H80.6191V84.0405H88.1996C88.7239 84.0033 89.2391 84.2205 89.6336 84.6451C90.028 85.0696 90.2699 85.6672 90.307 86.3085Z" fill="#6C63FF"/>
<path d="M303.495 182.649L299.477 180.579L296.722 155.926H260.022L257.035 180.478L253.44 182.678C253.269 182.783 253.131 182.956 253.049 183.169C252.968 183.383 252.947 183.623 252.992 183.852C253.036 184.081 253.142 184.285 253.293 184.431C253.443 184.577 253.63 184.657 253.822 184.657H303.164C303.361 184.657 303.552 184.573 303.704 184.421C303.857 184.268 303.961 184.055 304 183.819C304.039 183.582 304.01 183.337 303.918 183.124C303.826 182.91 303.676 182.743 303.495 182.649Z" fill="#E6E6E6"/>
<path d="M368.712 159.206H188.433C187.487 159.203 186.581 158.742 185.912 157.922C185.244 157.102 184.869 155.992 184.869 154.834V123.715H372.276V154.834C372.276 155.992 371.9 157.102 371.232 157.922C370.564 158.742 369.658 159.203 368.712 159.206Z" fill="#5800FF"/>
<path d="M372.465 138.422H184.705V5.27049C184.706 3.87313 185.16 2.53347 185.968 1.54541C186.775 0.557349 187.869 0.00156355 189.011 0H368.159C369.3 0.00156352 370.395 0.557351 371.202 1.54541C372.009 2.53347 372.463 3.87313 372.465 5.27049L372.465 138.422Z" fill="#3F3D56"/>
<path d="M361.25 128.758H195.919C195.039 128.757 194.195 128.329 193.573 127.567C192.951 126.805 192.601 125.773 192.6 124.695V13.7275C192.601 12.6502 192.951 11.6174 193.573 10.8556C194.195 10.0938 195.039 9.6653 195.919 9.66406H361.25C362.13 9.6653 362.974 10.0938 363.596 10.8556C364.219 11.6174 364.569 12.6502 364.57 13.7275V124.695C364.569 125.773 364.219 126.805 363.596 127.567C362.974 128.329 362.13 128.757 361.25 128.758Z" fill="white"/>
<path d="M317.706 167.913C318.773 166.706 320.044 165.801 321.428 165.26C322.812 164.719 324.277 164.556 325.718 164.783C327.159 165.01 328.542 165.621 329.77 166.573C330.997 167.525 332.039 168.795 332.822 170.293L355.185 165.426L360.916 181.341L329.256 187.671C327.113 189.115 324.611 189.546 322.226 188.882C319.84 188.219 317.736 186.508 316.312 184.072C314.888 181.637 314.244 178.647 314.501 175.669C314.757 172.69 315.898 169.931 317.706 167.913Z" fill="#FFB6B6"/>
<path d="M338.41 188.233L361.724 187.878L364.675 187.829L412.108 187.097C412.108 187.097 424.989 172.055 436.205 156.567L434.633 142.648C433.099 128.988 427.564 116.475 419.056 107.438C402.992 120.578 393.676 146.586 393.676 146.586L364.266 155.197L361.324 156.058L343.05 161.403L338.41 188.233Z" fill="#6C63FF"/>
<path d="M457.756 273.785H414.238C414.238 276.068 366.666 277.92 366.666 277.92C365.617 278.888 364.661 279.998 363.816 281.229C361.276 284.936 359.888 289.623 359.897 294.461V297.769C359.898 303.252 361.678 308.509 364.845 312.386C368.012 316.263 372.308 318.442 376.787 318.444H457.756C462.234 318.44 466.528 316.26 469.695 312.383C472.862 308.507 474.642 303.251 474.646 297.769V294.461C474.64 288.98 472.859 283.725 469.692 279.85C466.526 275.974 462.234 273.793 457.756 273.785Z" fill="#E4E4E4"/>
<path d="M426.111 317.623H408.545V441.736H426.111V317.623Z" fill="#E4E4E4"/>
<path d="M358.549 440.981C358.549 443.304 385.167 441.88 418.002 441.88C450.837 441.88 477.455 443.304 477.455 440.981C477.455 438.658 450.837 420.234 418.002 420.234C385.167 420.234 358.549 438.658 358.549 440.981Z" fill="#E4E4E4"/>
<path d="M346.749 426.8L333.676 426.799L327.457 365.073L346.751 365.074L346.749 426.8Z" fill="#FFB6B6"/>
<path d="M350.083 442.312L307.93 442.31V441.657C307.93 436.331 309.659 431.222 312.736 427.456C315.813 423.69 319.986 421.574 324.337 421.573H324.338L350.084 421.575L350.083 442.312Z" fill="#2F2E41"/>
<path d="M308.111 426.8L295.038 426.799L288.818 365.073L308.112 365.074L308.111 426.8Z" fill="#FFB6B6"/>
<path d="M311.444 442.312L269.291 442.31V441.657C269.291 436.331 271.02 431.222 274.097 427.456C277.174 423.69 281.347 421.574 285.698 421.573H285.699L311.445 421.575L311.444 442.312Z" fill="#2F2E41"/>
<path d="M425.217 71.4372C437.771 71.4372 447.947 58.9796 447.947 43.6124C447.947 28.2452 437.771 15.7876 425.217 15.7876C412.663 15.7876 402.486 28.2452 402.486 43.6124C402.486 58.9796 412.663 71.4372 425.217 71.4372Z" fill="#FFB6B6"/>
<path d="M462.006 234.257C462.006 234.257 469.633 283.625 440.614 289.911C411.596 296.198 369.706 300.616 369.706 300.616L350.895 408.051L325.623 405.289C325.623 405.289 328.984 275.962 337.25 265.843C345.515 255.725 397.757 225.429 397.757 225.429L462.006 234.257Z" fill="#2F2E41"/>
<path d="M405.33 213.567L392.638 229.152C392.638 229.152 300.999 247.221 297.464 273.13C292.127 312.247 285.822 397.309 285.822 397.309L313.374 394.779L324.179 298.087L368.262 285.812L418.417 252.353L405.33 213.567Z" fill="#2F2E41"/>
<path d="M447.09 27.0029C444.847 21.8205 441.995 11.4922 437.467 9.57669C434.951 8.55584 432.352 7.87796 429.715 7.55539L422.017 11.1797L426.207 7.19096C425.391 7.13147 424.576 7.08284 423.761 7.04507L418.567 9.4904L421.225 6.96045C416.382 6.89962 411.384 7.51594 407.632 11.1243C404.434 14.2005 401.265 25.8536 400.752 30.7931C400.204 35.5184 400.396 40.3282 401.317 44.9658L402.632 46.4968C403.093 45.2054 403.439 43.8574 403.664 42.4758C404.136 39.8944 405.042 37.4616 406.324 35.3324C407.606 33.2031 409.236 31.4242 411.111 30.109L411.183 30.0596C413.389 28.5397 416.066 28.6098 418.596 28.7213L430.611 29.2505C433.502 29.3779 436.614 29.6018 438.868 31.8214C440.3 33.4589 441.427 35.456 442.17 37.676C443.289 40.4428 445.478 50.8784 445.478 50.8784C445.478 50.8784 446.716 48.9085 447.309 50.3747C448.261 46.5494 448.84 42.5997 449.033 38.608C449.222 34.5985 448.553 30.5981 447.09 27.0029Z" fill="#2F2E41"/>
<path d="M526.591 55.8315C525.141 55.9484 523.73 56.453 522.456 57.3098C521.183 58.1666 520.079 59.3548 519.221 60.7907C518.363 62.2265 517.773 63.8751 517.492 65.6204C517.211 67.3656 517.247 69.1649 517.595 70.8917L499.316 87.3968L504.801 103.441L530.347 79.6884C532.678 78.7791 534.655 76.8547 535.905 74.2799C537.154 71.7051 537.588 68.6587 537.125 65.718C536.662 62.7774 535.334 60.1467 533.393 58.3246C531.451 56.5024 529.031 55.6153 526.591 55.8315Z" fill="#FFB6B6"/>
<path d="M523.649 89.5268L477.826 151.824C477.826 151.824 455.912 143.237 438.965 133.927L431.351 105.302C429.583 98.6612 428.829 91.679 429.125 84.7041C452.619 77.0514 479.946 105.526 479.946 105.526L514.246 72.6372L523.649 89.5268Z" fill="#6C63FF"/>
<path d="M416.727 238.858C408.551 235.401 400.098 231.827 390.98 230.485L390.588 230.427L390.696 229.963C400.135 189.394 397.779 163.442 393.153 124.459C392.17 116.051 393.434 107.478 396.757 100.021C400.08 92.5642 405.284 86.6226 411.592 83.0833L411.648 83.0523L437.69 81.0266L437.75 81.0222L456.69 87.8411C459.415 88.8293 461.799 90.8837 463.479 93.6896C465.158 96.4955 466.04 99.8981 465.989 103.376C465.784 116.196 466.219 130.51 466.68 145.663C467.713 179.659 468.782 214.813 462.717 237.622L462.686 237.741L462.605 237.819C457.029 243.377 450.045 246.381 442.855 246.311C434.353 246.311 425.678 242.643 416.727 238.858Z" fill="#6C63FF"/>
</svg>
