<svg width="430" height="494" viewBox="0 0 430 494" fill="none" xmlns="http://www.w3.org/2000/svg">
<path d="M215.878 173.263C255.135 173.263 286.96 141.007 286.96 101.218C286.96 61.428 255.135 29.1721 215.878 29.1721C176.621 29.1721 144.796 61.428 144.796 101.218C144.796 141.007 176.621 173.263 215.878 173.263Z" fill="#FEB8B8"/>
<path d="M283.925 39.046C273.227 21.531 256.483 8.62486 236.914 2.81198L228.13 9.27519V0.882899C223.431 0.157629 218.674 -0.121766 213.923 0.0483888L206.344 6.96224V0.622794C195.124 2.02868 184.314 5.76346 174.597 11.5916C164.879 17.4198 156.465 25.2149 149.884 34.4854C133.426 58.4078 130.648 91.689 146.835 115.803C151.278 102.034 156.672 89.1146 161.116 75.3467C164.608 75.8267 168.148 75.844 171.645 75.3982L177.05 62.679L178.561 74.8599C195.318 73.3884 220.171 70.1562 236.056 67.1951L234.511 57.85L243.753 65.6152C248.619 64.4858 251.509 63.4607 251.271 62.6777C263.085 81.8824 277.544 94.1481 289.357 113.353C293.844 86.2731 299.008 63.7569 283.925 39.046Z" fill="#2F2E41"/>
<path d="M370.327 287.069C367.865 272.162 365.325 256.968 358.439 243.539C353.914 234.743 346.73 226.361 337.047 224.622C335.139 224.451 333.265 224.014 331.477 223.324C328.639 221.949 290.51 200.047 284.45 196.233C279.246 192.958 271.032 186.894 266.891 186.894C262.724 186.802 246.747 190.544 184.387 185.639C184.387 185.639 167.256 192.433 154 200.672C153.799 200.539 89.2758 235.403 86.8518 235.311C82.2611 235.117 77.9939 238.074 75.3622 241.799C72.7312 245.523 71.4969 250.134 70.2046 254.592C84.2976 286.172 97.1919 317.792 111.286 349.372C111.946 350.561 112.297 351.899 112.306 353.261C112.022 354.675 111.423 356.005 110.552 357.151C103.641 368.323 103.86 382.374 104.615 395.505C105.371 408.635 106.305 422.504 100.474 434.273C98.8874 437.505 96.8246 440.462 95.3159 443.693C91.7829 451.012 90.5061 474.418 92.5696 482.28L351.106 489.733C345.547 474.358 370.327 287.069 370.327 287.069Z" fill="#6C63FF"/>
<path d="M48.6931 350.219C48.1797 354.011 48.128 357.853 48.5392 361.658L52.2272 415.733C52.5734 420.83 52.9142 425.914 53.3827 430.998C54.2676 440.864 55.5895 450.652 57.2301 460.426C57.2671 461.814 57.8419 463.13 58.8282 464.085C59.8146 465.041 61.132 465.558 62.4913 465.523C78.7255 469.03 95.4986 468.89 112.067 467.934C137.349 466.493 202.031 463.768 205.983 458.527C209.934 453.285 207.632 444.808 202.479 440.57C197.326 436.332 111.969 425.999 111.969 425.999C112.803 419.252 115.319 412.897 117.706 406.49C121.993 395.126 125.997 383.39 126.074 371.217C126.151 359.044 121.659 346.246 111.892 339.272C103.858 333.547 93.5144 332.485 83.7243 332.721C76.6012 332.93 64.2939 331.188 57.7878 334.031C52.6394 336.346 49.655 345.072 48.6931 350.219Z" fill="#FBBEBE"/>
<path d="M69.2524 254.867C68.0004 256.184 67.0295 257.744 66.3993 259.451C56.0087 282.974 49.8713 308.168 48.2746 333.852C48.3027 335.105 48.0153 336.344 47.4392 337.455C46.8711 338.194 46.2387 338.881 45.5496 339.508C44.9487 340.224 44.494 341.051 44.2114 341.943C43.9289 342.835 43.8241 343.774 43.9029 344.707C43.9817 345.64 44.2426 346.548 44.6707 347.379C45.0989 348.211 45.6859 348.949 46.3982 349.553C46.515 349.652 46.6349 349.747 46.7579 349.838C48.8788 345.829 53.956 344.518 58.469 344.17C80.0771 342.453 101.184 352.551 122.857 351.789C121.328 346.481 119.129 341.381 117.882 336.01C112.367 312.161 126.122 286.194 117.689 263.223C116.004 258.626 113.19 254.106 108.755 252.092C106.919 251.348 104.998 250.837 103.035 250.571C97.559 249.577 86.6573 245.329 81.3626 247.034C79.4082 247.667 78.6375 249.512 77.0176 250.628C74.5567 252.207 71.2921 252.788 69.2524 254.867Z" fill="#6C63FF"/>
<path d="M369.58 334.022C363.074 331.195 350.766 332.927 343.643 332.719C333.853 332.485 323.509 333.54 315.475 339.232C305.709 346.164 301.217 358.887 301.294 370.988C301.371 383.089 305.375 394.756 309.662 406.052C312.048 412.421 314.564 418.738 315.398 425.446C315.398 425.446 230.041 435.717 224.889 439.931C219.736 444.144 217.433 452.571 221.385 457.781C225.337 462.991 348.642 468.222 364.876 464.736C366.236 464.771 367.553 464.257 368.539 463.307C369.526 462.357 370.101 461.049 370.138 459.669C371.778 449.953 373.1 440.223 373.985 430.415C374.453 425.361 374.794 420.307 375.14 415.241L378.828 361.485C379.24 357.703 379.188 353.883 378.675 350.114C377.713 344.997 374.728 336.323 369.58 334.022Z" fill="#FBBEBE"/>
<path d="M350.35 250.628C348.73 249.512 347.959 247.667 346.005 247.034C340.71 245.329 329.809 249.577 324.332 250.571C322.37 250.837 320.448 251.348 318.612 252.092C314.178 254.106 311.363 258.626 309.679 263.223C301.246 286.194 315.001 312.161 309.486 336.01C308.239 341.381 306.04 346.481 304.51 351.789C326.183 352.551 347.29 342.453 368.899 344.17C373.411 344.518 378.489 345.829 380.61 349.838C380.732 349.747 380.852 349.652 380.969 349.553C381.682 348.949 382.269 348.211 382.697 347.379C383.125 346.548 383.386 345.64 383.465 344.707C383.543 343.774 383.439 342.835 383.156 341.943C382.874 341.051 382.419 340.224 381.818 339.508C381.129 338.881 380.496 338.194 379.928 337.455C379.352 336.344 379.065 335.105 379.093 333.852C377.496 308.168 371.359 282.974 360.968 259.451C360.338 257.744 359.367 256.184 358.115 254.867C356.075 252.788 352.811 252.207 350.35 250.628Z" fill="#6C63FF"/>
<path d="M195.255 467.633C205.675 467.633 214.123 458.926 214.123 448.185C214.123 437.444 205.675 428.737 195.255 428.737C184.835 428.737 176.388 437.444 176.388 448.185C176.388 458.926 184.835 467.633 195.255 467.633Z" fill="#FBBEBE"/>
<path d="M238.255 467.633C249.16 467.633 258 458.926 258 448.185C258 437.444 249.16 428.737 238.255 428.737C227.351 428.737 218.51 437.444 218.51 448.185C218.51 458.926 227.351 467.633 238.255 467.633Z" fill="#FBBEBE"/>
<path d="M357.729 492.385H91.5781C88.4708 492.381 85.4918 491.141 83.2945 488.935C81.0972 486.729 79.8611 483.738 79.8574 480.618V318.513C79.8611 315.393 81.0972 312.402 83.2945 310.196C85.4918 307.99 88.4708 306.75 91.5781 306.746H357.729C360.836 306.75 363.815 307.99 366.012 310.196C368.21 312.402 369.446 315.393 369.449 318.513V480.618C369.446 483.738 368.21 486.729 366.012 488.935C363.815 491.141 360.836 492.381 357.729 492.385Z" fill="#3F3D56"/>
<path d="M224.653 406.638C229.015 406.638 232.551 403.076 232.551 398.682C232.551 394.288 229.015 390.726 224.653 390.726C220.291 390.726 216.755 394.288 216.755 398.682C216.755 403.076 220.291 406.638 224.653 406.638Z" fill="white"/>
<path d="M430 457.909H0V486.6H25.434V493.269H404.576V486.6H430V457.909Z" fill="#F1F1F1"/>
<path d="M150.061 128.179C138.429 128.179 129 118.206 129 105.903V94.7644C129 82.4613 138.429 72.4878 150.061 72.4878L150.061 128.179Z" fill="#6C63FF"/>
<path d="M283.449 72.4878C295.081 72.4878 304.51 82.4613 304.51 94.7644V105.903C304.51 118.206 295.081 128.179 283.449 128.179V72.4878Z" fill="#6C63FF"/>
<path d="M294.857 96.3554H291.548C291.548 50.11 257.406 12.4864 215.439 12.4864C173.472 12.4864 139.33 50.11 139.33 96.3554H136.021C136.021 48.0992 171.648 8.83995 215.439 8.83995C259.231 8.83997 294.857 48.0992 294.857 96.3554Z" fill="#6C63FF"/>
</svg>
