<svg width="585" height="422" viewBox="0 0 585 422" fill="none" xmlns="http://www.w3.org/2000/svg">
<path d="M210.355 243.272C230.267 205.27 268.248 176.091 308.455 178.902C278.797 213.893 261.503 259.138 259.633 306.631C258.972 324.95 259.996 345.4 248.785 359.117C241.81 367.653 231.148 371.786 220.664 372.653C210.18 373.52 199.699 371.465 189.355 369.419L186.846 370.255C185.891 326.554 190.444 281.274 210.355 243.272Z" fill="#F0F0F0"/>
<path d="M310.273 180.65C280.116 196.303 254.402 222.445 238.617 254.327C235.204 261.22 232.298 268.533 231.031 276.264C229.763 284 230.649 291.363 233.099 298.709C235.339 305.426 238.352 312.016 239.039 319.203C239.763 326.778 237.178 333.86 232.525 339.482C226.831 346.359 219.186 350.621 211.574 354.509C203.124 358.826 194.282 363.165 188.297 371.221C187.572 372.197 186.209 370.926 186.933 369.952C197.347 355.936 215.173 353.301 227.535 342.01C233.303 336.742 237.633 329.567 237.36 321.16C237.121 313.809 234.019 307.01 231.697 300.231C229.258 293.112 228.042 285.955 228.916 278.366C229.811 270.602 232.457 263.152 235.692 256.195C242.986 240.506 252.968 226.102 264.404 213.651C277.546 199.339 292.862 187.556 309.69 178.813C310.732 178.272 311.308 180.113 310.273 180.65Z" fill="white"/>
<path d="M242.039 242.803C237.731 239.166 234.683 233.881 233.439 227.889C232.196 221.898 232.837 215.592 235.25 210.096C235.741 208.986 237.258 209.816 236.766 210.927C234.512 216.04 233.914 221.914 235.082 227.491C236.251 233.067 239.107 237.977 243.136 241.336C244.011 242.067 242.909 243.53 242.039 242.803Z" fill="white"/>
<path d="M231.226 293.75C242.408 291.91 252.564 285.392 259.668 275.495C260.371 274.514 261.686 275.794 260.984 276.774C253.574 287.058 242.993 293.817 231.353 295.703C230.243 295.882 230.122 293.928 231.226 293.75Z" fill="white"/>
<path d="M276.916 199.542C278.51 201.526 280.517 203.035 282.758 203.932C284.999 204.83 287.403 205.088 289.754 204.684C290.96 204.472 291.09 206.594 289.893 206.804C287.293 207.238 284.638 206.949 282.161 205.963C279.683 204.978 277.458 203.326 275.679 201.152C275.497 200.962 275.385 200.702 275.366 200.424C275.348 200.145 275.425 199.869 275.581 199.652C275.746 199.44 275.979 199.309 276.229 199.289C276.479 199.268 276.726 199.359 276.916 199.542Z" fill="white"/>
<path d="M390.001 299.334C389.29 299.477 388.579 299.62 387.861 299.778C378.311 301.752 368.924 304.564 359.794 308.185C359.084 308.453 358.368 308.736 357.666 309.026C335.755 318.005 315.573 331.315 298.145 348.278C291.216 355.035 284.772 362.354 278.867 370.17C270.713 380.966 262.665 393.374 252.01 400.413C250.906 401.161 249.761 401.834 248.58 402.429L187.2 374.839C187.09 374.7 186.973 374.576 186.862 374.438L184.364 373.457C184.643 373.031 184.94 372.596 185.219 372.17C185.379 371.922 185.554 371.68 185.714 371.432C185.826 371.268 185.938 371.105 186.03 370.951C186.067 370.896 186.104 370.842 186.135 370.803C186.227 370.649 186.328 370.516 186.414 370.377C188.07 367.937 189.744 365.506 191.438 363.083C191.443 363.068 191.443 363.068 191.463 363.059C204.408 344.634 218.886 327.219 235.344 312.739C235.839 312.303 236.339 311.852 236.863 311.429C244.314 304.947 252.242 299.135 260.568 294.053C265.134 291.285 269.828 288.77 274.629 286.517C287.046 280.722 300.227 277.079 313.689 275.722C340.525 273.022 367.859 279.652 388.441 297.922C388.967 298.389 389.48 298.851 390.001 299.334Z" fill="#F0F0F0"/>
<path d="M388.837 299.765C356.459 292.587 321.802 296.826 291.804 312.251C285.318 315.586 279.001 319.594 273.743 325.02C268.483 330.449 265.124 336.995 263.007 344.557C261.072 351.47 259.814 358.79 256.396 365.062C252.794 371.673 246.855 375.706 240.093 377.194C231.82 379.016 223.449 377.433 215.312 375.57C206.277 373.502 196.922 371.195 187.769 373.778C186.66 374.091 186.287 372.165 187.394 371.853C203.319 367.359 218.812 376.961 234.77 375.957C242.216 375.488 249.579 372.529 253.995 365.542C257.857 359.432 259.159 351.884 261.065 344.866C263.065 337.496 266.05 330.899 270.92 325.33C275.901 319.632 282.091 315.341 288.471 311.838C302.86 303.935 318.658 298.844 334.525 296.29C352.762 293.353 371.318 293.895 389.39 297.893C390.509 298.141 389.949 300.012 388.837 299.765Z" fill="white"/>
<path d="M300.07 307.819C298.354 301.59 298.714 294.895 301.083 288.93C303.452 282.965 307.677 278.118 313.004 275.254C314.084 274.679 314.949 276.492 313.868 277.068C308.904 279.725 304.968 284.24 302.772 289.8C300.576 295.36 300.265 301.598 301.893 307.387C302.246 308.646 300.42 309.071 300.07 307.819Z" fill="white"/>
<path d="M262.561 339.592C272.646 347.167 284.442 349.25 295.597 345.425C296.702 345.045 297.074 347.417 295.971 347.797C284.357 351.747 272.084 349.546 261.602 341.631C260.603 340.876 261.567 338.841 262.561 339.592Z" fill="white"/>
<path d="M351.617 296.546C351.818 299.187 352.583 301.729 353.843 303.943C355.103 306.158 356.819 307.976 358.836 309.234C359.872 309.875 358.877 311.644 357.848 311.007C355.625 309.605 353.732 307.595 352.336 305.152C350.939 302.708 350.08 299.906 349.835 296.991C349.792 296.718 349.84 296.437 349.97 296.204C350.1 295.971 350.301 295.804 350.534 295.737C350.77 295.679 351.016 295.732 351.219 295.884C351.422 296.035 351.565 296.273 351.617 296.546Z" fill="white"/>
<path d="M272.898 344.018C264.339 299.195 253.64 284.251 253.64 284.251L249.552 280.818L244.637 276.683L244.661 276.152L243.495 275.722L243.221 275.492L242.772 275.119L242.7 275.203L242.548 275.374L220.305 267.185L192.087 256.804L179.02 238.409C176.891 235.413 174.152 232.992 171.015 231.335C167.878 229.678 164.429 228.83 160.94 228.858L119.208 229.192C113.565 229.237 108.142 231.567 104.005 235.723L76.5758 263.279L33.8352 285.387L33.7631 285.309L33.3143 285.656L26.7105 289.076L26.983 290.612L22.8956 293.807C22.8956 293.807 12.1965 307.712 3.63714 349.419C1.45974 360.031 0.387948 382.796 0.00108716 410.848C-0.0183448 412.267 0.222894 413.676 0.710771 414.993C1.19865 416.311 1.92343 417.51 2.84298 418.521C3.76253 419.532 4.8585 420.335 6.06716 420.883C7.27582 421.431 8.57306 421.714 9.88345 421.714H238.169L266.662 421.714C267.972 421.714 269.268 421.431 270.476 420.884C271.684 420.336 272.779 419.534 273.698 418.524C274.618 417.514 275.343 416.317 275.831 415.001C276.32 413.685 276.562 412.277 276.545 410.859C276.167 380.334 275.095 355.527 272.898 344.018Z" fill="#3F3D56"/>
<path d="M301.78 38.5714C292.893 38.5714 284.37 42.3643 278.086 49.1156C271.803 55.8669 268.272 65.0236 268.272 74.5714C268.272 84.1192 271.803 93.276 278.086 100.027C284.37 106.779 292.893 110.571 301.78 110.571H551.492C560.379 110.571 568.901 106.779 575.185 100.027C581.469 93.276 585 84.1192 585 74.5714C585 65.0236 581.469 55.8669 575.185 49.1156C568.901 42.3643 560.379 38.5714 551.492 38.5714H301.78Z" fill="#E5E5E5"/>
<path d="M302.036 45C294.962 45 288.178 48.0478 283.176 53.473C278.174 58.8981 275.364 66.2562 275.364 73.9286C275.364 81.6009 278.174 88.959 283.176 94.3842C288.178 99.8093 294.962 102.857 302.036 102.857H551.237C558.311 102.857 565.095 99.8093 570.097 94.3842C575.099 88.959 577.909 81.6009 577.909 73.9286C577.909 66.2562 575.099 58.8981 570.097 53.473C565.095 48.0478 558.311 45 551.237 45H302.036Z" fill="white"/>
<path d="M146.545 212.143C177.222 212.143 202.09 185.664 202.09 153C202.09 120.336 177.222 93.8571 146.545 93.8571C115.868 93.8571 90.9995 120.336 90.9995 153C90.9995 185.664 115.868 212.143 146.545 212.143Z" fill="#9E616A"/>
<path d="M90.0762 95.1847C92.8552 92.7728 96.1032 90.5536 99.6563 90.6784C103.209 90.803 106.812 94.2943 106.076 98.0781C112.602 85.5064 122.99 75.8373 135.416 70.768C147.842 65.6987 161.512 65.5532 174.027 70.357C182.858 73.7466 191.518 80.5279 193.546 90.4739C194.067 93.0271 194.179 95.8267 195.644 97.8999C197.492 100.514 201.026 101.105 203.937 100.186C203.966 100.176 203.995 100.167 204.024 100.158C204.516 99.9751 205.046 99.9571 205.548 100.106C206.049 100.255 206.497 100.565 206.835 100.994C207.173 101.423 207.385 101.953 207.443 102.515C207.501 103.077 207.403 103.645 207.161 104.145L204.662 109.215C207.812 109.979 211.085 109.903 214.202 108.994C214.72 108.846 215.267 108.877 215.768 109.08C216.27 109.284 216.701 109.652 217.002 110.133C217.304 110.614 217.462 111.185 217.453 111.767C217.445 112.35 217.271 112.915 216.956 113.386C208.717 125.692 194.953 133.64 180.906 133.546C170.923 133.48 160.836 129.736 151.12 132.234C147.361 133.201 143.849 135.07 140.841 137.706C137.833 140.342 135.406 143.677 133.737 147.466C132.068 151.256 131.2 155.404 131.197 159.606C131.194 163.808 132.055 167.957 133.718 171.75C130.733 168.198 124.963 169.039 121.91 172.521C118.857 176.004 118.067 181.202 118.374 186.003C118.845 193.346 121.489 200.266 124.277 207C100.904 206.199 78.7962 188.361 71.3549 164.234C63.8823 140.006 71.7138 111.122 90.0762 95.1847Z" fill="#2F2E41"/>
<path opacity="0.2" d="M53.1813 330.429L68.6925 420.846L77.9995 421.714L53.1813 330.429Z" fill="black"/>
<path opacity="0.2" d="M222.183 325.286L206.672 420.797L197.365 421.714L222.183 325.286Z" fill="black"/>
<path d="M103.026 63.8077C100.188 65.1078 97.2259 63.6829 95.9837 60.4199C94.7226 57.1069 95.9005 53.7438 98.7845 52.4228C101.669 51.1017 104.578 52.53 105.859 55.8964C107.122 59.2124 105.957 62.4655 103.026 63.8077ZM97.5889 45.9018L95.3319 46.9356C94.7681 47.1907 94.1375 47.2045 93.5649 46.9741C92.9923 46.7437 92.5193 46.286 92.2396 45.6914L92.128 45.4519C89.6995 40.6478 89.4215 34.8091 91.3059 28.107C93.0516 22.095 93.7767 17.8667 92.3185 14.0362C90.6326 9.60731 87.0325 8.21996 82.4416 10.2297C80.661 11.0453 80.0944 11.0323 78.6932 12.557C78.3884 12.8927 78.0251 13.1577 77.6249 13.336C77.2248 13.5144 76.796 13.6026 76.3641 13.5952C75.9466 13.5898 75.5343 13.4923 75.1519 13.3084C74.7695 13.1244 74.4248 12.8579 74.1383 12.5247C73.5864 11.8826 73.2772 11.0347 73.2732 10.1522C73.2691 9.26967 73.5705 8.41835 74.1165 7.77015C76.4717 5.06572 79.3124 2.92618 82.4594 1.48652C92.3233 -3.03151 97.2888 3.63872 99.5612 9.60795C101.784 15.4465 100.533 20.8638 98.5246 27.8796C96.8412 33.7094 96.9393 38.0292 98.8515 42.3244C98.9896 42.6491 99.0664 43.001 99.0774 43.3591C99.0883 43.7172 99.0332 44.0741 98.9152 44.4082C98.7973 44.7423 98.619 45.0469 98.3911 45.3035C98.1632 45.5602 97.8903 45.7637 97.5889 45.9018Z" fill="#6C63FF"/>
<path d="M358.061 93.8571H307.323C307.162 93.8583 307.002 93.8259 306.853 93.7618C306.704 93.6977 306.568 93.6031 306.454 93.4836C306.339 93.3641 306.249 93.222 306.187 93.0655C306.125 92.9089 306.093 92.741 306.093 92.5714C306.093 92.4018 306.125 92.2339 306.187 92.0774C306.249 91.9208 306.339 91.7787 306.454 91.6592C306.568 91.5397 306.704 91.4452 306.853 91.3811C307.002 91.317 307.162 91.2846 307.323 91.2857H358.061C358.384 91.288 358.692 91.4245 358.92 91.6654C359.147 91.9062 359.275 92.2319 359.275 92.5714C359.275 92.9109 359.147 93.2366 358.92 93.4775C358.692 93.7183 358.384 93.8548 358.061 93.8571Z" fill="#6C63FF"/>
<path d="M419.552 93.8571H371.084C370.93 93.8583 370.778 93.8259 370.635 93.7618C370.493 93.6977 370.363 93.6031 370.254 93.4836C370.145 93.3641 370.058 93.222 369.999 93.0655C369.939 92.9089 369.909 92.741 369.909 92.5714C369.909 92.4019 369.939 92.2339 369.999 92.0774C370.058 91.9208 370.145 91.7787 370.254 91.6592C370.363 91.5397 370.493 91.4452 370.635 91.3811C370.778 91.317 370.93 91.2846 371.084 91.2857H419.552C419.706 91.2846 419.858 91.317 420.001 91.3811C420.144 91.4452 420.273 91.5397 420.382 91.6592C420.492 91.7787 420.578 91.9208 420.638 92.0774C420.697 92.2339 420.727 92.4019 420.727 92.5714C420.727 92.741 420.697 92.9089 420.638 93.0655C420.578 93.222 420.492 93.3641 420.382 93.4836C420.273 93.6031 420.144 93.6977 420.001 93.7618C419.858 93.8259 419.706 93.8583 419.552 93.8571Z" fill="#6C63FF"/>
<path d="M484.496 93.8571H433.759C433.436 93.8548 433.127 93.7183 432.9 93.4775C432.673 93.2366 432.545 92.9109 432.545 92.5714C432.545 92.2319 432.673 91.9062 432.9 91.6654C433.127 91.4245 433.436 91.288 433.759 91.2857H484.496C484.657 91.2846 484.817 91.317 484.967 91.3811C485.116 91.4452 485.251 91.5397 485.366 91.6592C485.48 91.7787 485.571 91.9208 485.633 92.0774C485.695 92.2339 485.727 92.4018 485.727 92.5714C485.727 92.741 485.695 92.9089 485.633 93.0655C485.571 93.222 485.48 93.3641 485.366 93.4836C485.251 93.6031 485.116 93.6977 484.967 93.7618C484.817 93.8259 484.658 93.8583 484.496 93.8571Z" fill="#6C63FF"/>
<path d="M545.968 93.8571H495.215C494.892 93.8548 494.583 93.7183 494.356 93.4775C494.128 93.2366 494.001 92.9109 494.001 92.5714C494.001 92.2319 494.128 91.9062 494.356 91.6653C494.583 91.4245 494.892 91.288 495.215 91.2857H545.968C546.291 91.288 546.6 91.4245 546.827 91.6653C547.055 91.9062 547.182 92.2319 547.182 92.5714C547.182 92.9109 547.055 93.2366 546.827 93.4775C546.6 93.7183 546.291 93.8548 545.968 93.8571Z" fill="#6C63FF"/>
<path d="M332.683 82.2857C337.578 82.2857 341.546 77.3928 341.546 71.3571C341.546 65.3215 337.578 60.4286 332.683 60.4286C327.788 60.4286 323.819 65.3215 323.819 71.3571C323.819 77.3928 327.788 82.2857 332.683 82.2857Z" fill="#6C63FF"/>
<path d="M395.318 82.2857C400.866 82.2857 405.363 77.3928 405.363 71.3571C405.363 65.3215 400.866 60.4286 395.318 60.4286C389.77 60.4286 385.272 65.3215 385.272 71.3571C385.272 77.3928 389.77 82.2857 395.318 82.2857Z" fill="#6C63FF"/>
<path d="M459.137 82.2857C464.033 82.2857 468.001 77.3928 468.001 71.3571C468.001 65.3215 464.033 60.4286 459.137 60.4286C454.242 60.4286 450.274 65.3215 450.274 71.3571C450.274 77.3928 454.242 82.2857 459.137 82.2857Z" fill="#6C63FF"/>
<path d="M522.956 82.2857C527.851 82.2857 531.82 77.3928 531.82 71.3571C531.82 65.3215 527.851 60.4286 522.956 60.4286C518.061 60.4286 514.092 65.3215 514.092 71.3571C514.092 77.3928 518.061 82.2857 522.956 82.2857Z" fill="#6C63FF"/>
</svg>
