<svg width="500" height="374" viewBox="0 0 500 374" fill="none" xmlns="http://www.w3.org/2000/svg">
<path d="M500 328.398H0V328.648H500V328.398Z" fill="#EBEBEB"/>
<path d="M433.796 339.042H400.674V339.292H433.796V339.042Z" fill="#EBEBEB"/>
<path d="M313.075 338.917H304.382V339.167H313.075V338.917Z" fill="#EBEBEB"/>
<path d="M449.901 344.494H430.709V344.744H449.901V344.494Z" fill="#EBEBEB"/>
<path d="M114.607 347.806H71.4141V348.056H114.607V347.806Z" fill="#EBEBEB"/>
<path d="M110.889 336.888H104.556V337.138H110.889V336.888Z" fill="#EBEBEB"/>
<path d="M248.444 337.956H187.546V338.206H248.444V337.956Z" fill="#EBEBEB"/>
<path d="M237.014 283.8H43.915C40.768 283.8 38.207 281.239 38.207 278.092V6.6599C38.207 3.5129 40.768 0.951904 43.915 0.951904H237.014C240.16 0.951904 242.721 3.5129 242.721 6.6599V278.092C242.721 281.239 240.16 283.8 237.014 283.8ZM43.915 1.2029C40.905 1.2029 38.457 3.6509 38.457 6.6609V278.093C38.457 281.103 40.905 283.551 43.915 283.551H237.014C240.023 283.551 242.471 281.103 242.471 278.093V6.6599C242.471 3.6509 240.023 1.2019 237.014 1.2019L43.915 1.2029Z" fill="#EBEBEB"/>
<path d="M453.31 283.8H260.212C257.065 283.8 254.505 281.239 254.505 278.092V6.6599C254.505 3.5129 257.066 0.951904 260.212 0.951904H453.31C456.458 0.951904 459.018 3.5129 459.018 6.6599V278.092C459.019 281.239 456.458 283.8 453.31 283.8ZM260.212 1.2029C257.203 1.2029 254.755 3.6509 254.755 6.6609V278.093C254.755 281.103 257.203 283.551 260.212 283.551H453.31C456.32 283.551 458.768 281.103 458.768 278.093V6.6599C458.768 3.6509 456.32 1.2019 453.31 1.2019L260.212 1.2029Z" fill="#EBEBEB"/>
<path d="M428.889 42.333H71.1108V191.222H428.889V42.333Z" fill="#F0F0F0"/>
<path d="M421.889 184.223V49.3337L78.1117 49.3337V184.223L421.889 184.223Z" fill="#FAFAFA"/>
<path d="M123.368 184.222L158.633 49.333H184.633L149.367 184.222H123.368Z" fill="white"/>
<path d="M155.367 184.222L190.633 49.333H202.265L167 184.222H155.367Z" fill="white"/>
<path d="M212.274 184.222L247.539 49.333H273.539L238.274 184.222H212.274Z" fill="white"/>
<path d="M277.829 184.222L313.094 49.333H324.727L289.462 184.222H277.829Z" fill="white"/>
<path d="M170.208 184.222L170.208 49.3333H168.43L168.43 184.222H170.208Z" fill="#E0E0E0"/>
<path d="M79.8887 184.223L79.8887 49.3335H78.1107L78.1107 184.223H79.8887Z" fill="#E0E0E0"/>
<path d="M168.43 184.222L168.43 49.333H161.43L161.43 184.222H168.43Z" fill="#F0F0F0"/>
<path d="M257 184.222V49.3333H255.222L255.222 184.222H257Z" fill="#E0E0E0"/>
<path d="M255.222 184.222L255.222 49.3333H248.222L248.222 184.222H255.222Z" fill="#F0F0F0"/>
<path d="M343.833 184.222V49.333H342.055V184.222H343.833Z" fill="#E0E0E0"/>
<path d="M342.056 184.222V49.333H335.056V184.222H342.056Z" fill="#F0F0F0"/>
<path d="M430.666 191.222V42.333H428.888V191.222H430.666Z" fill="#E0E0E0"/>
<path d="M434.667 32.111H65.3328C64.4778 32.111 63.7778 31.411 63.7778 30.556C63.7778 29.7 64.4778 29 65.3328 29H434.666C435.521 29 436.222 29.7 436.222 30.556C436.222 31.411 435.522 32.111 434.667 32.111Z" fill="#E0E0E0"/>
<path d="M142.334 26H66.7778V297.667H142.334V26Z" fill="#F5F5F5"/>
<path d="M107.722 299.889H101.389L103.167 28.2219H106L107.722 299.889Z" fill="#E6E6E6"/>
<path d="M86.7498 299.889H83.6948L84.5518 28.2219H85.9188L86.7498 299.889Z" fill="#E6E6E6"/>
<path d="M128.75 299.889H125.695L126.552 28.2219H127.919L128.75 299.889Z" fill="#E6E6E6"/>
<path d="M432.318 26H356.762V297.667H432.318V26Z" fill="#F5F5F5"/>
<path d="M386.373 299.889H380.04L381.817 28.2219H384.651L386.373 299.889Z" fill="#E6E6E6"/>
<path d="M372.401 299.889H369.345L370.203 28.2219H371.57L372.401 299.889Z" fill="#E6E6E6"/>
<path d="M404.734 299.889H401.678L402.536 28.2219H403.903L404.734 299.889Z" fill="#E6E6E6"/>
<path d="M420.29 299.889H417.235L418.093 28.2219H419.46L420.29 299.889Z" fill="#E6E6E6"/>
<path d="M325.215 326.696H339.418V245.319H325.215V326.696Z" fill="#E6E6E6"/>
<path d="M160.581 326.696H330.674V245.319H160.581V326.696Z" fill="#F0F0F0"/>
<path d="M326.855 326.697H321.735H167.931V328.398H321.735H326.855H332.074V326.697H326.855Z" fill="#E0E0E0"/>
<path opacity="0.5" d="M165.435 283.246H325.823V250.41L165.435 250.41V283.246Z" fill="#FAFAFA"/>
<path opacity="0.5" d="M165.435 321.389H325.823V288.553H165.435V321.389Z" fill="#FAFAFA"/>
<path d="M189.747 266.828C189.747 268.821 188.131 270.437 186.137 270.437C184.143 270.437 182.528 268.821 182.528 266.828C182.528 264.835 184.144 263.218 186.137 263.218C188.13 263.218 189.747 264.834 189.747 266.828Z" fill="#E0E0E0"/>
<path d="M308.728 266.828C308.728 268.821 307.112 270.437 305.119 270.437C303.126 270.437 301.509 268.821 301.509 266.828C301.509 264.835 303.125 263.218 305.119 263.218C307.112 263.218 308.728 264.834 308.728 266.828Z" fill="#E0E0E0"/>
<path d="M186.138 308.58C188.131 308.58 189.747 306.964 189.747 304.971C189.747 302.978 188.131 301.362 186.138 301.362C184.145 301.362 182.529 302.978 182.529 304.971C182.529 306.964 184.145 308.58 186.138 308.58Z" fill="#E0E0E0"/>
<path d="M308.728 304.971C308.728 306.964 307.112 308.58 305.119 308.58C303.126 308.58 301.509 306.964 301.509 304.971C301.509 302.978 303.125 301.362 305.119 301.362C307.112 301.362 308.728 302.978 308.728 304.971Z" fill="#E0E0E0"/>
<path d="M249.238 266.828C249.238 268.821 247.622 270.437 245.629 270.437C243.636 270.437 242.02 268.821 242.02 266.828C242.02 264.835 243.636 263.218 245.629 263.218C247.622 263.218 249.238 264.834 249.238 266.828Z" fill="#E0E0E0"/>
<path d="M245.628 308.58C247.621 308.58 249.237 306.964 249.237 304.971C249.237 302.978 247.621 301.362 245.628 301.362C243.635 301.362 242.019 302.978 242.019 304.971C242.019 306.964 243.635 308.58 245.628 308.58Z" fill="#E0E0E0"/>
<path d="M320.161 231.497C320.161 239.131 313.972 245.32 306.338 245.32C298.704 245.32 292.515 239.131 292.515 231.497H320.161Z" fill="#F0F0F0"/>
<path d="M210.889 229.03C210.889 238.027 203.596 245.32 194.599 245.32C185.602 245.32 178.309 238.027 178.309 229.03H210.889Z" fill="#F0F0F0"/>
<path d="M280.917 235.73C280.917 241.026 276.624 245.32 271.328 245.32C266.032 245.32 261.739 241.027 261.739 235.73H280.917Z" fill="#F0F0F0"/>
<path d="M232.343 57.648C193.768 55.395 153.405 32.654 115.584 54.591C87.1861 71.063 83.0301 103.379 91.3471 133.653C113.19 213.161 235.477 226.614 304.382 206.665C375.747 186.003 456.279 115.285 410.124 43.34C391.101 13.687 357.949 8.45804 321.779 18.286C291.049 26.635 262.575 59.414 232.343 57.648Z" fill="#407BFF"/>
<path opacity="0.9" d="M232.343 57.648C193.768 55.395 153.405 32.654 115.584 54.591C87.1861 71.063 83.0301 103.379 91.3471 133.653C113.19 213.161 235.477 226.614 304.382 206.665C375.747 186.003 456.279 115.285 410.124 43.34C391.101 13.687 357.949 8.45804 321.779 18.286C291.049 26.635 262.575 59.414 232.343 57.648Z" fill="white"/>
<path d="M250 373.561C357.082 373.561 443.889 368.492 443.889 362.238C443.889 355.985 357.082 350.915 250 350.915C142.918 350.915 56.1108 355.985 56.1108 362.238C56.1108 368.492 142.918 373.561 250 373.561Z" fill="#F5F5F5"/>
<path d="M348.149 61.3649C346.015 59.2339 341.916 51.1609 345.849 47.4139C349.782 43.6669 353.28 47.0649 353.552 48.9059C353.823 50.7459 353.095 66.3029 348.149 61.3649Z" fill="#263238"/>
<path d="M347.246 351.652L338.325 351.73L335.892 331.091L344.812 331.013L347.246 351.652Z" fill="#FF8B7B"/>
<path d="M338.307 350.697L348.049 350.611C348.414 350.608 348.748 350.858 348.854 351.213L351.209 359.122C351.453 359.942 350.887 360.726 350.044 360.719C346.525 360.69 341.432 360.529 337.015 360.567C331.85 360.612 329.547 360.933 323.49 360.986C319.828 361.018 318.534 357.327 320.042 356.978C326.906 355.391 330.457 355.178 336.209 351.408C336.835 351.001 337.537 350.704 338.307 350.697Z" fill="#263238"/>
<path opacity="0.2" d="M335.894 331.097L337.147 341.735L346.071 341.657L344.818 331.019L335.894 331.097Z" fill="black"/>
<path d="M334.624 352.289C335.628 352.289 336.717 352.106 337.481 351.944C337.569 351.925 337.636 351.853 337.647 351.763C337.658 351.673 337.611 351.587 337.53 351.547C337.106 351.34 333.359 349.541 332.334 350.18C332.137 350.302 332.033 350.499 332.033 350.749C332.033 351.17 332.192 351.513 332.506 351.768C332.984 352.157 333.773 352.289 334.624 352.289ZM336.76 351.654C334.829 351.994 333.361 351.92 332.772 351.442C332.558 351.269 332.455 351.043 332.455 350.751C332.455 350.621 332.506 350.572 332.557 350.54C333.107 350.197 335.225 350.959 336.76 351.654Z" fill="#6720FF"/>
<path d="M337.437 351.949C337.484 351.949 337.53 351.934 337.568 351.904C337.629 351.856 337.658 351.779 337.645 351.703C337.618 351.54 336.943 347.705 334.819 347.942C334.258 348.004 334.101 348.287 334.068 348.513C333.921 349.515 336.211 351.446 337.354 351.932C337.38 351.943 337.409 351.949 337.437 351.949ZM334.999 348.354C336.277 348.354 336.919 350.438 337.138 351.352C335.962 350.686 334.398 349.172 334.485 348.574C334.491 348.531 334.511 348.401 334.865 348.361C334.911 348.357 334.955 348.354 334.999 348.354Z" fill="#6720FF"/>
<path d="M340.944 106.427L340.02 107.387L339.161 108.241C338.589 108.801 338 109.326 337.414 109.854C336.237 110.901 335.038 111.913 333.811 112.893C331.349 114.841 328.756 116.646 326.015 118.27C324.645 119.083 323.235 119.849 321.797 120.578C320.349 121.293 318.856 121.945 317.336 122.554C314.28 123.754 311.052 124.691 307.661 125.197L306.916 125.309C306.451 125.365 306.005 125.412 305.472 125.398C304.469 125.4 303.29 125.194 302.216 124.758C301.121 124.331 300.177 123.668 299.451 122.987C298.695 122.288 298.219 121.602 297.793 120.928C297.016 119.613 296.64 118.466 296.361 117.424C296.09 116.381 295.94 115.431 295.835 114.52C295.624 112.703 295.621 111.046 295.684 109.426C295.751 107.814 295.88 106.254 296.06 104.719C296.442 101.655 296.977 98.6878 297.639 95.7638C298.311 92.8308 299.056 89.9918 300.018 87.0928L306.59 88.3848C306.349 94.0108 306.08 99.7688 306.261 105.205C306.328 107.897 306.577 110.611 307.058 112.735C307.181 113.253 307.326 113.723 307.472 114.067C307.612 114.408 307.777 114.619 307.77 114.531C307.754 114.451 307.702 114.361 307.497 114.135C307.308 113.934 306.97 113.694 306.559 113.509C306.159 113.331 305.706 113.262 305.426 113.243C305.256 113.246 305.168 113.234 305.063 113.248C304.954 113.269 305.122 113.23 305.169 113.216L305.385 113.16C307.689 112.598 309.989 111.713 312.265 110.663C314.53 109.573 316.766 108.301 318.948 106.879C321.122 105.443 323.258 103.891 325.321 102.228C326.358 101.405 327.375 100.552 328.363 99.6768L329.817 98.3558L330.523 97.7048L331.13 97.1248L340.944 106.427Z" fill="#FF8B7B"/>
<path d="M346.229 102.899C345.889 93.4738 338.146 90.1928 328.451 96.6168C319.253 102.723 316.116 105.474 316.116 105.474L322.391 125.611C322.391 125.611 334.412 121.802 341.332 114.319C346.028 109.242 346.345 106.111 346.229 102.899Z" fill="#263238"/>
<path opacity="0.2" d="M334.42 106.92C334.42 106.92 328.63 115.2 326.58 124C328.88 123.01 331.85 121.57 334.78 119.68L334.42 106.92Z" fill="black"/>
<path d="M306.26 91.372L309.617 83.784L300.114 81C300.114 81 298.48 84.63 299.409 90.86L306.26 91.372Z" fill="#FF8B7B"/>
<path d="M310.628 74.8818L302.364 75.8658L300.115 80.9988L309.618 83.7828L310.628 74.8818Z" fill="#FF8B7B"/>
<path d="M334.484 171.256C334.484 171.256 328.336 222.719 327.663 250.228C326.963 278.841 332.572 336.552 332.572 336.552L348.68 336.21C348.68 336.21 350.617 274.432 352.955 246.122C355.503 215.259 361.904 170.673 361.904 170.673L334.484 171.256Z" fill="#6720FF"/>
<path opacity="0.6" d="M334.484 171.256C334.484 171.256 328.336 222.719 327.663 250.228C326.963 278.841 332.572 336.552 332.572 336.552L348.68 336.21C348.68 336.21 350.617 274.432 352.955 246.122C355.503 215.259 361.904 170.673 361.904 170.673L334.484 171.256Z" fill="white"/>
<path opacity="0.2" d="M353.67 185.83C346.47 201.7 348.4 237.15 352.49 252.35C352.64 250.14 352.8 248.05 352.96 246.12C354.63 225.78 357.98 199.49 360.07 183.92C358.11 181.08 355.92 180.86 353.67 185.83Z" fill="black"/>
<path d="M350.66 336.933L331.718 337.312L330.325 331.019L350.429 330.974L350.66 336.933Z" fill="#6720FF"/>
<path d="M387.043 351.652L378.122 351.73L375.689 331.091L384.609 331.013L387.043 351.652Z" fill="#FF8B7B"/>
<path d="M378.104 350.697L387.846 350.611C388.211 350.608 388.545 350.858 388.651 351.213L391.006 359.122C391.25 359.942 390.684 360.726 389.841 360.719C386.322 360.69 381.229 360.529 376.812 360.567C371.648 360.612 369.344 360.933 363.287 360.986C359.625 361.018 358.332 357.327 359.839 356.978C366.703 355.391 370.254 355.178 376.006 351.408C376.632 351.001 377.334 350.704 378.104 350.697Z" fill="#263238"/>
<path opacity="0.2" d="M375.691 331.097L376.944 341.735L385.868 341.657L384.616 331.019L375.691 331.097Z" fill="black"/>
<path d="M374.421 352.289C375.425 352.289 376.514 352.106 377.278 351.944C377.366 351.925 377.433 351.853 377.444 351.763C377.455 351.673 377.408 351.587 377.327 351.547C376.903 351.34 373.156 349.541 372.131 350.18C371.934 350.302 371.83 350.499 371.83 350.749C371.83 351.17 371.989 351.513 372.303 351.768C372.781 352.157 373.57 352.289 374.421 352.289ZM376.557 351.654C374.626 351.994 373.158 351.92 372.569 351.442C372.355 351.269 372.252 351.043 372.253 350.751C372.253 350.621 372.304 350.572 372.355 350.54C372.904 350.197 375.022 350.959 376.557 351.654Z" fill="#6720FF"/>
<path d="M377.234 351.949C377.281 351.949 377.327 351.934 377.365 351.904C377.426 351.856 377.455 351.779 377.442 351.703C377.415 351.54 376.74 347.705 374.616 347.942C374.055 348.004 373.898 348.287 373.865 348.513C373.718 349.515 376.008 351.446 377.152 351.932C377.177 351.943 377.206 351.949 377.234 351.949ZM374.796 348.354C376.074 348.354 376.716 350.438 376.935 351.352C375.759 350.686 374.195 349.172 374.283 348.574C374.289 348.531 374.308 348.401 374.663 348.361C374.708 348.357 374.752 348.354 374.796 348.354Z" fill="#6720FF"/>
<path d="M350.203 170.921C350.203 170.921 354.654 226.286 357.897 253.611C361.271 282.033 372.37 336.551 372.37 336.551L388.479 336.209C388.479 336.209 384.058 274.307 382.349 245.952C380.485 215.04 380.005 170.24 380.005 170.24L350.203 170.921Z" fill="#6720FF"/>
<path opacity="0.6" d="M350.203 170.921C350.203 170.921 354.654 226.286 357.897 253.611C361.271 282.033 372.37 336.551 372.37 336.551L388.479 336.209C388.479 336.209 384.058 274.307 382.349 245.952C380.485 215.04 380.005 170.24 380.005 170.24L350.203 170.921Z" fill="white"/>
<path d="M390.457 336.933L371.515 337.312L370.122 331.019L390.226 330.974L390.457 336.933Z" fill="#6720FF"/>
<path d="M333.37 94.1549C333.37 94.1549 326.776 118.613 334.484 171.256C348.858 170.95 373.009 170.389 380.003 170.24C380.176 162.91 374.769 126.971 381.097 92.3159C381.097 92.3159 375.115 91.1639 367.315 90.9539C361.213 90.7899 352.384 90.7839 347.036 91.3869C339.985 92.1819 333.37 94.1549 333.37 94.1549Z" fill="#263238"/>
<path opacity="0.2" d="M378.34 116.98L370.89 110.81C371.38 115.63 375.74 127.44 378.04 133.42C377.98 128.2 378.05 122.67 378.34 116.98Z" fill="black"/>
<path d="M351.689 108.335L343.563 124.417C342.778 125.97 344.467 127.651 345.978 126.82L351.289 123.9C351.872 123.579 352.591 123.627 353.14 124.023L358.366 127.79C359.77 128.802 361.593 127.405 361.009 125.765L354.896 108.589C354.373 107.118 352.384 106.96 351.689 108.335Z" fill="white"/>
<path d="M364.819 68.1628C363.679 74.7148 362.657 86.6968 367.315 90.9538C367.315 90.9538 365.956 96.8848 353.548 98.9048C345.211 96.2298 347.036 91.3868 347.036 91.3868C354.275 89.4938 353.972 84.0998 352.597 79.0568L364.819 68.1628Z" fill="#FF8B7B"/>
<path opacity="0.2" d="M359.837 72.6079L352.603 79.0509C352.933 80.2439 353.195 81.4559 353.305 82.6369C356.076 82.1759 359.83 79.0439 360.063 76.1269C360.178 74.6729 360.088 73.2789 359.837 72.6079Z" fill="black"/>
<path d="M368.788 60.0898C366.384 68.6108 365.411 73.7208 360.087 77.2068C352.08 82.4518 342.277 76.1848 342.086 67.1168C341.914 58.9548 345.874 46.3908 355.073 44.7878C364.136 43.2088 371.191 51.5688 368.788 60.0898Z" fill="#FF8B7B"/>
<path d="M363.663 65.307C362.542 62.589 361.735 53.632 366.396 51.434C371.058 49.237 375.917 54.603 374.694 57.139C372.796 61.078 366.261 71.605 363.663 65.307Z" fill="#263238"/>
<path d="M366.448 54.5899C365.302 51.6289 351.586 49.8939 349.668 46.6609C347.387 42.8159 356.744 42.3569 363.173 44.3129C368.823 46.0329 372.59 47.6859 371.93 51.8879C371.555 54.2669 366.448 54.5899 366.448 54.5899Z" fill="#263238"/>
<path d="M369.425 51.497C369.425 51.497 372.397 52.323 374.073 50.116C373.552 52.295 371.016 54.501 369.425 51.497Z" fill="#263238"/>
<path d="M355.703 42.2509C351.579 39.0479 345.971 42.8119 346.503 46.9809C347.035 51.1499 360.92 54.3229 360.92 54.3229C360.92 54.3229 361.172 46.4979 355.703 42.2509Z" fill="#263238"/>
<path d="M346.512 47.0409C347.143 49.9559 349.271 52.2539 353.578 53.9459C349.548 51.1129 348.155 46.6399 348.155 46.6399L346.512 47.0409Z" fill="#263238"/>
<path d="M355.165 59.6628C355.013 60.3658 354.516 60.8548 354.057 60.7558C353.597 60.6558 353.348 60.0048 353.501 59.3018C353.653 58.5988 354.15 58.1098 354.609 58.2088C355.068 58.3088 355.317 58.9598 355.165 59.6628Z" fill="#263238"/>
<path d="M347.216 57.9389C347.064 58.6419 346.567 59.1319 346.108 59.0319C345.648 58.9319 345.399 58.2809 345.552 57.5779C345.705 56.8749 346.201 56.3859 346.66 56.4849C347.12 56.5849 347.369 57.2349 347.216 57.9389Z" fill="#263238"/>
<path d="M349.668 58.8369C349.668 58.8369 347.189 62.5469 345.004 64.1229C345.996 65.5539 348.226 65.4819 348.226 65.4819L349.668 58.8369Z" fill="#FF5652"/>
<path d="M349.85 67.8658L349.854 67.8668C353.163 68.5848 355.171 66.6448 355.255 66.5618C355.338 66.4798 355.339 66.3468 355.257 66.2638C355.175 66.1808 355.042 66.1798 354.959 66.2618C354.94 66.2808 353.022 68.1218 349.945 67.4548C349.831 67.4298 349.718 67.5028 349.694 67.6168C349.668 67.7288 349.738 67.8398 349.85 67.8658Z" fill="#263238"/>
<path d="M358.107 57.6169C358.196 57.6379 358.293 57.6309 358.383 57.5889C358.595 57.4909 358.687 57.2399 358.589 57.0279C357.606 54.9069 355.678 54.6059 355.597 54.5939C355.366 54.5609 355.152 54.7209 355.118 54.9519C355.085 55.1819 355.247 55.3959 355.474 55.4299C355.538 55.4399 357.038 55.6909 357.823 57.3829C357.879 57.5059 357.986 57.5879 358.107 57.6169Z" fill="#263238"/>
<path d="M344.32 54.4519C344.476 54.4889 344.646 54.4359 344.751 54.3019C345.915 52.8199 347.467 52.9389 347.483 52.9399C347.716 52.9609 347.921 52.7889 347.941 52.5559C347.961 52.3229 347.785 52.1179 347.557 52.0979C347.475 52.0909 345.53 51.9409 344.085 53.7789C343.941 53.9629 343.973 54.2279 344.157 54.3719C344.207 54.4119 344.263 54.4379 344.32 54.4519Z" fill="#263238"/>
<path d="M383.28 99.1628C385.099 102.337 386.624 105.415 388.195 108.587C389.742 111.745 391.19 114.953 392.552 118.214C393.91 121.476 395.213 124.775 396.352 128.171C397.528 131.543 398.562 135.014 399.403 138.597L400.011 141.33C400.275 142.618 400.384 143.94 400.351 145.227C400.292 147.814 399.631 150.208 398.756 152.291C396.971 156.479 394.34 159.577 391.644 162.287C388.903 164.966 385.981 167.222 382.949 169.223C381.442 170.236 379.876 171.139 378.308 172.02C376.72 172.907 375.183 173.705 373.433 174.482L370.108 168.668C371.314 167.713 372.649 166.639 373.888 165.59C375.144 164.53 376.342 163.408 377.534 162.31C379.889 160.081 382.11 157.77 383.964 155.362C385.829 152.989 387.319 150.451 387.989 148.219C388.326 147.103 388.415 146.096 388.35 145.251C388.316 144.826 388.239 144.433 388.115 144.053L387.442 141.809C385.538 135.746 382.998 129.626 380.237 123.598C378.87 120.575 377.412 117.575 375.951 114.576C374.506 111.597 372.926 108.564 371.456 105.726L383.28 99.1628Z" fill="#FF8B7B"/>
<path d="M381.444 92.3849C389.779 94.1949 395.583 115.946 395.583 115.946L380.666 129.479C380.666 129.479 373.379 121.821 369.639 111.452C365.72 100.587 372.516 90.4459 381.444 92.3849Z" fill="#263238"/>
<path d="M371.871 167.682L362.283 167.783L368.228 177.448C368.228 177.448 375.056 175.76 375.668 172.33L371.871 167.682Z" fill="#FF8B7B"/>
<path d="M356.307 173.487L361.602 181.25L368.228 177.448L362.283 167.783L356.307 173.487Z" fill="#FF8B7B"/>
<path d="M371.408 67.89C370.294 70.001 368.309 71.401 366.426 71.951C363.593 72.777 362.143 70.252 362.903 67.56C363.587 65.138 365.884 61.789 368.741 62.144C371.554 62.493 372.681 65.475 371.408 67.89Z" fill="#FF8B7B"/>
<path d="M286.4 233.376L275.741 234.149L275.813 235.146L286.472 234.373L286.4 233.376Z" fill="#6720FF"/>
<path d="M295.985 232.686L290.75 233.065L290.822 234.063L296.058 233.683L295.985 232.686Z" fill="#6720FF"/>
<path d="M341.954 115.272L165.442 128.04C157.803 128.593 152.005 135.295 152.557 142.934L158.577 226.154C159.13 233.793 165.832 239.591 173.471 239.038L183.455 238.316C184.969 238.207 186.284 239.345 186.394 240.858L187.51 256.283C187.607 257.622 189.274 258.175 190.152 257.16L206.89 237.811C207.593 236.998 208.591 236.498 209.663 236.42L349.984 226.27C357.623 225.717 363.421 219.015 362.869 211.376L356.849 128.156C356.296 120.518 349.594 114.72 341.954 115.272Z" fill="#6720FF"/>
<path opacity="0.2" d="M165.442 128.04C157.803 128.592 152.005 135.295 152.557 142.934L158.577 226.154C159.13 233.793 165.832 239.591 173.471 239.039L174.94 238.933C179.962 238.57 184.114 234.879 185.063 229.934L205.168 125.168L165.442 128.04Z" fill="black"/>
<path d="M162.996 100.598C162.95 102.411 163.079 103.918 163.227 104.982C151.491 109.032 140.597 108.135 135.077 107.21C135.345 106.23 135.761 104.39 135.9 101.976C135.724 103.686 134.753 105.758 134.069 107.044C132.293 106.702 131.295 106.415 131.295 106.415C131.295 106.415 133.108 96.5661 129.834 89.4181C126.56 82.2601 128.188 78.2651 130.666 77.1271C135.271 62.9871 152.556 65.2251 158.41 70.9591C165.827 78.2371 165.873 98.7491 167.186 103.438C166.104 103.909 165.031 104.344 163.959 104.723C163.486 103.464 163.024 101.911 162.996 100.598Z" fill="#263238"/>
<path d="M170.148 122.613L171.052 125.459C171.376 126.439 171.712 127.423 172.062 128.405C172.734 130.38 173.431 132.358 174.177 134.324C174.933 136.286 175.648 138.269 176.432 140.23L177.587 143.182L177.878 143.92L177.945 144.088L177.954 144.115C177.958 144.144 177.959 144.144 177.952 144.141C177.952 144.141 177.752 143.961 177.532 143.886C177.311 143.809 177.218 143.875 177.356 143.88C177.478 143.892 177.749 143.859 178.065 143.768C178.708 143.592 179.513 143.208 180.308 142.765C181.934 141.872 183.564 140.656 185.189 139.419C186.81 138.163 188.4 136.808 189.956 135.403C191.541 134.035 193.087 132.562 194.601 131.145L197.67 133.739C196.392 135.576 195.034 137.259 193.638 138.971C192.21 140.644 190.725 142.282 189.143 143.874C187.556 145.472 185.855 146.977 183.862 148.388C182.841 149.077 181.762 149.745 180.383 150.289C179.69 150.556 178.916 150.797 177.97 150.907C177.044 151.016 175.85 150.972 174.646 150.459C173.432 149.968 172.431 149.011 171.848 148.115C171.694 147.888 171.554 147.66 171.446 147.445L171.177 146.914L170.819 146.181C170.342 145.204 169.859 144.228 169.405 143.238C168.492 141.262 167.583 139.278 166.757 137.255C165.919 135.237 165.115 133.199 164.35 131.135C163.983 130.098 163.627 129.052 163.282 127.996C162.927 126.92 162.62 125.919 162.304 124.694L170.148 122.613Z" fill="#FFC3BD"/>
<path d="M167.782 113.731C171.228 114.609 173.639 128.792 173.639 128.792L164.142 135.251C164.142 135.251 155.036 120.943 157.687 117.154C160.448 113.207 162.753 112.45 167.782 113.731Z" fill="#6720FF"/>
<path d="M167.782 113.731C171.228 114.609 173.639 128.792 173.639 128.792L164.142 135.251C164.142 135.251 155.036 120.943 157.687 117.154C160.448 113.207 162.753 112.45 167.782 113.731Z" fill="#6720FF"/>
<path opacity="0.4" d="M167.782 113.731C171.228 114.609 173.639 128.792 173.639 128.792L164.142 135.251C164.142 135.251 155.036 120.943 157.687 117.154C160.448 113.207 162.753 112.45 167.782 113.731Z" fill="white"/>
<path opacity="0.3" d="M167.471 116.898L170.118 131.194L164.78 134.814L167.471 116.898Z" fill="black"/>
<path d="M194.427 131.518L197.596 123.885L201.507 131.518C201.507 131.518 198.968 135.318 195.618 134.391L194.427 131.518Z" fill="#FFC3BD"/>
<path d="M201.089 123.088L206.111 125.113L201.506 131.518L197.595 123.884L201.089 123.088Z" fill="#FFC3BD"/>
<path d="M149.135 352.45H157.497L158.056 333.084H149.693L149.135 352.45Z" fill="#FFC3BD"/>
<path d="M93.0103 327.505L100.704 330.781L110.765 314.017L103.071 310.741L93.0103 327.505Z" fill="#FFC3BD"/>
<path d="M102.179 329.642L94.1751 324.723C93.8841 324.544 93.5231 324.601 93.3071 324.86L88.5031 330.632C88.0051 331.231 88.1881 332.2 88.8671 332.601C91.6871 334.268 93.1321 334.931 96.6521 337.094C98.8171 338.425 101.843 340.594 104.833 342.432C107.758 344.23 109.8 341.411 108.719 340.378C103.874 335.746 104.01 333.548 103.1 330.812C102.937 330.319 102.605 329.904 102.179 329.642Z" fill="#263238"/>
<path d="M157.784 351.481H148.389C148.047 351.481 147.77 351.718 147.722 352.052L146.652 359.485C146.541 360.256 147.204 360.986 147.993 360.972C151.268 360.916 152.847 360.723 156.978 360.723C159.52 360.723 164.777 360.987 168.287 360.987C171.72 360.987 171.984 357.516 170.522 357.202C163.969 355.792 161.39 353.849 159.182 351.995C158.784 351.661 158.284 351.481 157.784 351.481Z" fill="#263238"/>
<path opacity="0.2" d="M158.054 333.09L157.768 343.072H149.402L149.688 333.09H158.054Z" fill="black"/>
<path opacity="0.2" d="M103.066 310.745L110.763 314.022L105.574 322.662L97.877 319.384L103.066 310.745Z" fill="black"/>
<path d="M167.782 113.731C167.782 113.731 171.766 115.134 163.786 164.202C150.309 164.202 136.381 164.202 129.824 164.202C130.394 150.38 130.41 141.856 123.804 113.489C123.804 113.489 130.92 111.941 138.226 111.589C143.941 111.314 148.624 111.131 153.648 111.59C160.27 112.193 167.782 113.731 167.782 113.731Z" fill="#6720FF"/>
<path opacity="0.4" d="M167.782 113.731C167.782 113.731 171.766 115.134 163.786 164.202C150.309 164.202 136.381 164.202 129.824 164.202C130.394 150.38 130.41 141.856 123.804 113.489C123.804 113.489 130.92 111.941 138.226 111.589C143.941 111.314 148.624 111.131 153.648 111.59C160.27 112.193 167.782 113.731 167.782 113.731Z" fill="white"/>
<path d="M138.224 111.584C143.939 111.316 148.619 111.131 153.649 111.593C154.481 111.667 155.332 111.76 156.174 111.861C156.738 112.832 157.164 114.136 156.636 115.468C155.554 118.159 151.651 118.473 148.803 118.473C138.288 118.473 136.513 112.332 136.438 112.074L136.336 111.704C136.966 111.658 137.595 111.612 138.224 111.584Z" fill="white"/>
<path d="M139.753 94.2231C140.726 99.1851 141.697 108.277 138.225 111.588C138.225 111.588 139.582 116.622 148.802 116.622C158.94 116.622 153.647 111.589 153.647 111.589C148.114 110.268 148.256 106.162 149.22 102.307L139.753 94.2231Z" fill="#FFC3BD"/>
<path d="M140.763 90.6912C139.574 94.6212 141.217 103.922 143.67 107.519C138.837 104.754 137.205 96.3092 137.205 96.3092L140.763 90.6912Z" fill="#263238"/>
<path opacity="0.2" d="M143.612 97.5222L149.215 102.303C148.984 103.216 148.804 104.141 148.739 105.04C146.625 104.735 143.721 102.414 143.497 100.201C143.386 99.0972 143.432 98.0362 143.612 97.5222Z" fill="black"/>
<path d="M135.173 85.3601C137.108 93.4301 137.755 96.8881 142.611 100.351C149.916 105.56 159.406 101.419 159.921 92.9331C160.385 85.2951 157.142 73.3801 148.586 71.5371C140.156 69.7211 133.237 77.2901 135.173 85.3601Z" fill="#FFC3BD"/>
<path d="M163.786 164.201C163.786 164.201 170.382 228.617 169.834 254.118C169.264 280.643 159.544 341.138 159.544 341.138H148.236C148.236 341.138 150.026 282.193 149.026 256.143C147.936 227.744 138.915 164.201 138.915 164.201H163.786Z" fill="#6720FF"/>
<path opacity="0.4" d="M163.786 164.201C163.786 164.201 170.382 228.617 169.834 254.118C169.264 280.643 159.544 341.138 159.544 341.138H148.236C148.236 341.138 150.026 282.193 149.026 256.143C147.936 227.744 138.915 164.201 138.915 164.201H163.786Z" fill="black"/>
<path d="M147.256 341.544H160.524L161.497 337.312L146.639 336.794L147.256 341.544Z" fill="#6720FF"/>
<path opacity="0.2" d="M149.136 180.229C157.478 197.01 150.811 227.621 147.861 239.01C146.348 221.905 143.798 200.997 141.81 185.642C143.074 176.955 145.289 172.492 149.136 180.229Z" fill="black"/>
<path d="M154.817 164.201C154.817 164.201 147.124 231.17 141.314 252.67C134.416 278.196 108.19 321.674 108.19 321.674L97.6982 317.207C97.6982 317.207 113.934 267.85 119.208 254.402C130.464 225.701 120.829 182.93 129.824 164.202L154.817 164.201Z" fill="#6720FF"/>
<path opacity="0.4" d="M154.817 164.201C154.817 164.201 147.124 231.17 141.314 252.67C134.416 278.196 108.19 321.674 108.19 321.674L97.6982 317.207C97.6982 317.207 113.934 267.85 119.208 254.402C130.464 225.701 120.829 182.93 129.824 164.202L154.817 164.201Z" fill="black"/>
<path d="M96.2554 317.241L109.271 322.783L112.399 319.281L97.3824 312.071L96.2554 317.241Z" fill="#6720FF"/>
<path d="M147.948 85.4652C148.065 86.1292 148.511 86.6062 148.946 86.5302C149.38 86.4542 149.638 85.8532 149.521 85.1892C149.404 84.5252 148.958 84.0482 148.523 84.1242C148.089 84.2012 147.831 84.8012 147.948 85.4652Z" fill="#263238"/>
<path d="M155.457 84.1461C155.574 84.8101 156.02 85.2871 156.455 85.2111C156.889 85.1351 157.147 84.5341 157.03 83.8701C156.913 83.2061 156.467 82.7291 156.032 82.8051C155.598 82.8811 155.34 83.4811 155.457 84.1461Z" fill="#263238"/>
<path d="M155.847 82.875L157.362 82.135C157.362 82.135 156.762 83.525 155.847 82.875Z" fill="#263238"/>
<path d="M153.673 85.6362C153.673 85.6362 155.303 88.2982 156.786 89.4602C156.053 90.4332 154.496 90.3212 154.496 90.3212L153.673 85.6362Z" fill="#ED847E"/>
<path d="M151.488 93.4471C151.843 93.4481 152.22 93.4171 152.619 93.3471C152.727 93.3281 152.799 93.2251 152.78 93.1171C152.761 93.0101 152.661 92.9381 152.55 92.9561C149.637 93.4701 147.915 91.6721 147.898 91.6531C147.823 91.5731 147.698 91.5681 147.618 91.6431C147.538 91.7181 147.533 91.8431 147.608 91.9231C147.674 91.9951 149.059 93.4441 151.488 93.4471Z" fill="#263238"/>
<path d="M138 80.6252C138.167 83.0672 139 86.9582 139 86.9582C139 86.9582 144.005 80.6352 144.827 77.2442C144.313 79.9672 143.682 81.0952 143.682 81.0952C143.682 81.0952 150.412 79.6332 151.068 75.1902C151.004 78.8112 150.413 81.0952 150.413 81.0952C150.413 81.0952 156.833 78.5792 156.243 74.3152C155.653 70.0512 145.789 68.4072 141.268 69.8452C136.747 71.2842 132.279 75.9602 133.613 82.3812C134.947 88.8022 137.518 91.2132 137.518 91.2132C137.518 91.2132 135.637 84.7352 138 80.6252Z" fill="#263238"/>
<path d="M134.821 91.4421C135.468 93.0361 136.791 94.1831 138.102 94.7131C140.074 95.5091 141.295 93.8031 140.944 91.8181C140.628 90.0321 139.221 87.4651 137.147 87.5141C135.104 87.5621 134.081 89.6201 134.821 91.4421Z" fill="#FFC3BD"/>
<path d="M139.213 77.552C138.211 81.534 140.292 90.747 142.912 94.224C137.954 91.69 135.925 83.332 135.925 83.332L139.213 77.552Z" fill="#263238"/>
<path d="M145.264 83.1902C145.364 83.1602 145.452 83.0902 145.503 82.9892C146.295 81.4102 147.74 81.2282 147.757 81.2262C147.971 81.2002 148.13 81.0052 148.106 80.7872C148.081 80.5702 147.885 80.4142 147.667 80.4382C147.591 80.4472 145.777 80.6732 144.794 82.6332C144.696 82.8282 144.775 83.0662 144.971 83.1652C145.066 83.2122 145.17 83.2192 145.264 83.1902Z" fill="#263238"/>
<path d="M158.189 80.092C158.287 80.092 158.386 80.0561 158.463 79.9831C158.621 79.8321 158.627 79.5811 158.477 79.4231C156.966 77.8371 155.164 78.15 155.087 78.165C154.872 78.205 154.73 78.411 154.77 78.627C154.81 78.842 155.016 78.9831 155.231 78.9451C155.301 78.9321 156.702 78.709 157.904 79.971C157.981 80.051 158.085 80.092 158.189 80.092Z" fill="#263238"/>
<path d="M127.927 125.36C126.539 129.753 125.213 134.366 124.084 138.9C122.999 143.455 122.023 148.046 121.594 152.527L121.511 153.368C121.493 153.64 121.483 153.702 121.483 153.935C121.487 154.345 121.517 154.83 121.587 155.348C121.704 156.378 121.903 157.49 122.136 158.606C122.615 160.842 123.187 163.139 123.819 165.423C124.422 167.72 125.077 170.022 125.764 172.317L127.796 179.224L124.079 180.75C121.8 176.389 119.821 171.946 117.97 167.369C117.082 165.067 116.21 162.748 115.492 160.302C115.13 159.076 114.789 157.83 114.521 156.474C114.389 155.801 114.282 155.083 114.219 154.287C114.187 153.917 114.181 153.374 114.188 153.043L114.223 152.075C114.289 149.483 114.566 146.965 114.922 144.472C115.254 141.973 115.746 139.53 116.267 137.096C117.326 132.216 118.606 127.51 120.256 122.728L127.927 125.36Z" fill="#FFC3BD"/>
<path d="M123.803 113.488C120.4 114.523 116.314 126.239 116.314 126.239L129.515 135.677C129.515 135.677 134.329 125.896 132.899 121.498C131.41 116.919 127.686 112.308 123.803 113.488Z" fill="#6720FF"/>
<path opacity="0.4" d="M123.803 113.488C120.4 114.523 116.314 126.239 116.314 126.239L129.515 135.677C129.515 135.677 134.329 125.896 132.899 121.498C131.41 116.919 127.686 112.308 123.803 113.488Z" fill="white"/>
<path d="M105.56 332.818C105.872 332.721 106.111 332.488 106.27 332.123C106.405 331.814 106.321 331.582 106.226 331.442C105.628 330.558 102.606 330.624 102.263 330.635C102.185 330.637 102.114 330.686 102.085 330.76C102.056 330.833 102.073 330.917 102.129 330.973C102.917 331.759 104.395 333.046 105.439 332.848C105.48 332.841 105.521 332.83 105.56 332.818ZM102.755 331.026C103.964 331.035 105.583 331.199 105.898 331.665C105.938 331.723 105.975 331.811 105.907 331.965C105.782 332.252 105.602 332.413 105.365 332.459C104.801 332.567 103.843 332.036 102.755 331.026Z" fill="#6720FF"/>
<path d="M103.642 330.786C104.563 330.5 105.54 329.992 105.751 329.421C105.815 329.248 105.863 328.912 105.472 328.601C105.224 328.404 104.937 328.332 104.619 328.387C103.428 328.597 102.153 330.642 102.099 330.729C102.062 330.789 102.06 330.864 102.093 330.926C102.126 330.988 102.19 331.028 102.261 331.03C102.597 331.043 103.11 330.952 103.642 330.786ZM104.565 328.808C104.607 328.795 104.648 328.785 104.689 328.778C104.893 328.743 105.069 328.786 105.226 328.911C105.425 329.07 105.413 329.193 105.38 329.283C105.177 329.833 103.659 330.491 102.65 330.615C103.082 329.994 103.878 329.022 104.565 328.808Z" fill="#6720FF"/>
<path d="M160.924 352.943C161.755 352.943 162.522 352.814 162.952 352.428C163.225 352.183 163.345 351.858 163.309 351.464C163.288 351.228 163.172 351.046 162.973 350.937C161.948 350.375 158.615 352.078 158.239 352.274C158.164 352.313 158.122 352.394 158.134 352.478C158.146 352.561 158.209 352.628 158.292 352.644C159.002 352.785 160.003 352.943 160.924 352.943ZM162.414 351.213C162.567 351.213 162.693 351.235 162.784 351.285C162.865 351.33 162.906 351.396 162.915 351.5C162.939 351.767 162.864 351.975 162.686 352.134C162.179 352.59 160.802 352.671 158.95 352.362C160.098 351.811 161.621 351.213 162.414 351.213Z" fill="#6720FF"/>
<path d="M158.33 352.648C158.358 352.648 158.386 352.642 158.411 352.63C159.408 352.18 161.379 350.376 161.225 349.429C161.188 349.205 161.03 348.926 160.481 348.87C160.072 348.832 159.706 348.944 159.384 349.212C158.333 350.088 158.14 352.338 158.132 352.434C158.126 352.504 158.158 352.572 158.215 352.612C158.25 352.635 158.29 352.648 158.33 352.648ZM160.322 349.258C160.362 349.258 160.401 349.26 160.442 349.264C160.804 349.301 160.827 349.445 160.835 349.492C160.928 350.061 159.59 351.479 158.574 352.095C158.671 351.44 158.95 350.089 159.639 349.516C159.846 349.343 160.071 349.258 160.322 349.258Z" fill="#6720FF"/>
<path d="M129.315 162.208L128.447 165.248C128.328 165.484 128.608 165.724 129 165.724H163.954C164.26 165.724 164.514 165.574 164.533 165.382L164.839 162.342C164.86 162.131 164.595 161.953 164.26 161.953H129.868C129.615 161.953 129.391 162.057 129.315 162.208Z" fill="#263238"/>
<path d="M133.934 166.054H133.013C132.829 166.054 132.69 165.96 132.702 165.844L133.134 161.894C133.147 161.778 133.307 161.684 133.49 161.684H134.411C134.594 161.684 134.734 161.779 134.722 161.894L134.29 165.844C134.277 165.959 134.117 166.054 133.934 166.054Z" fill="#6720FF"/>
<path opacity="0.4" d="M133.934 166.054H133.013C132.829 166.054 132.69 165.96 132.702 165.844L133.134 161.894C133.147 161.778 133.307 161.684 133.49 161.684H134.411C134.594 161.684 134.734 161.779 134.722 161.894L134.29 165.844C134.277 165.959 134.117 166.054 133.934 166.054Z" fill="black"/>
<path d="M161.365 166.054H160.444C160.26 166.054 160.121 165.96 160.133 165.844L160.565 161.894C160.578 161.778 160.738 161.684 160.922 161.684H161.843C162.026 161.684 162.166 161.779 162.154 161.894L161.722 165.844C161.709 165.959 161.548 166.054 161.365 166.054Z" fill="#6720FF"/>
<path opacity="0.4" d="M161.365 166.054H160.444C160.26 166.054 160.121 165.96 160.133 165.844L160.565 161.894C160.578 161.778 160.738 161.684 160.922 161.684H161.843C162.026 161.684 162.166 161.779 162.154 161.894L161.722 165.844C161.709 165.959 161.548 166.054 161.365 166.054Z" fill="black"/>
<path d="M147.649 166.054H146.728C146.544 166.054 146.405 165.96 146.417 165.844L146.849 161.894C146.862 161.778 147.022 161.684 147.206 161.684H148.127C148.31 161.684 148.45 161.779 148.438 161.894L148.006 165.844C147.993 165.959 147.833 166.054 147.649 166.054Z" fill="#6720FF"/>
<path opacity="0.4" d="M147.649 166.054H146.728C146.544 166.054 146.405 165.96 146.417 165.844L146.849 161.894C146.862 161.778 147.022 161.684 147.206 161.684H148.127C148.31 161.684 148.45 161.779 148.438 161.894L148.006 165.844C147.993 165.959 147.833 166.054 147.649 166.054Z" fill="black"/>
<path d="M148.338 84.1951L149.853 83.4551C149.853 83.4551 149.253 84.8451 148.338 84.1951Z" fill="#263238"/>
<path d="M127.512 178.094L134.68 183.593L126.374 185.416C126.374 185.416 122.836 181.377 124.06 178.123L127.512 178.094Z" fill="#FFC3BD"/>
<path d="M136.436 190.401L129.399 191.551L125.555 184.326L134.68 183.593L136.436 190.401Z" fill="#FFC3BD"/>
<path d="M203 151.662L212.156 151L212.665 158.03L211.918 172.281L206.256 172.691L203.509 158.693L203 151.662ZM205.001 174.94L213.547 174.322L214.094 181.878L205.548 182.496L205.001 174.94Z" fill="white"/>
<path d="M232.349 189.985C231.675 188.192 231.075 186.428 230.551 184.694C230.029 182.983 229.608 181.443 229.286 180.075C228.965 178.707 228.773 177.689 228.711 177.02C228.545 175.252 228.68 173.612 229.117 172.1C229.554 170.589 230.175 169.241 230.98 168.057C231.782 166.849 232.673 165.813 233.653 164.95C234.631 164.062 235.591 163.382 236.535 162.908C237.501 162.407 238.33 162.125 239.023 162.06C239.62 162.004 240.158 162.086 240.637 162.306C241.115 162.526 241.606 162.999 242.108 163.723C242.609 164.447 243.169 165.528 243.786 166.964C244.367 168.284 244.895 169.283 245.368 169.962C245.84 170.616 246.326 171.053 246.829 171.271C247.329 171.465 247.89 171.533 248.511 171.475C249.013 171.428 249.385 171.537 249.627 171.804C249.891 172.044 250.04 172.356 250.076 172.738C250.112 173.12 249.978 173.495 249.675 173.86C249.37 174.202 248.954 174.398 248.429 174.447C247.497 174.535 246.68 174.443 245.98 174.171C245.303 173.897 244.699 173.495 244.168 172.967L244.928 172.209C244.706 172.928 244.39 173.537 243.978 174.033C243.589 174.504 243.129 174.872 242.6 175.139C242.094 175.403 241.543 175.563 240.945 175.619C240.252 175.684 239.523 175.62 238.758 175.427C237.995 175.257 237.232 174.967 236.47 174.557C235.707 174.122 234.968 173.576 234.256 172.92C233.567 172.262 232.942 171.501 232.379 170.637L232.744 170.676C232.162 171.67 231.815 172.727 231.703 173.847C231.589 174.942 231.571 175.908 231.65 176.744C231.712 177.413 231.864 178.255 232.103 179.269C232.345 180.307 232.629 181.401 232.954 182.552C233.302 183.7 233.662 184.836 234.032 185.958C234.429 187.102 234.79 188.129 235.117 189.038L232.349 189.985ZM240.956 172.653C241.386 172.613 241.725 172.497 241.972 172.305C242.243 172.111 242.411 171.842 242.475 171.498C242.539 171.155 242.464 170.74 242.25 170.254C241.883 169.421 241.549 168.693 241.25 168.07C240.948 167.423 240.657 166.896 240.378 166.488C240.121 166.055 239.862 165.741 239.603 165.549C239.344 165.356 239.083 165.272 238.82 165.297C238.557 165.321 238.228 165.412 237.833 165.57C237.462 165.725 237.061 165.944 236.629 166.225C236.222 166.505 235.807 166.845 235.387 167.246C234.967 167.647 234.576 168.105 234.214 168.621L234.223 168.331C234.852 169.381 235.572 170.242 236.382 170.913C237.216 171.582 238.032 172.06 238.83 172.346C239.65 172.607 240.359 172.709 240.956 172.653ZM248.411 174.449L248.494 171.476C249.163 171.414 249.711 171.218 250.139 170.888C250.566 170.559 250.963 170.04 251.33 169.33C251.698 168.621 252.08 167.681 252.476 166.511C253.026 164.917 253.598 163.694 254.193 162.842C254.812 161.989 255.443 161.387 256.085 161.038C256.751 160.686 257.418 160.479 258.087 160.416C258.9 160.34 259.673 160.485 260.406 160.85C261.137 161.191 261.798 161.683 262.389 162.327C262.979 162.971 263.457 163.697 263.822 164.507C264.209 165.29 264.441 166.088 264.517 166.9C264.651 168.334 264.508 169.504 264.087 170.412C263.664 171.295 263.076 171.965 262.323 172.421C261.592 172.851 260.808 173.106 259.972 173.184C259.231 173.254 258.262 173.2 257.064 173.023C255.89 172.844 254.364 172.252 252.486 171.247L253.672 168.857C254.913 169.488 256.012 169.903 256.971 170.103C257.951 170.276 258.752 170.333 259.374 170.275C260.067 170.21 260.607 170.063 260.995 169.834C261.382 169.581 261.652 169.254 261.808 168.854C261.963 168.453 262.018 168.014 261.973 167.537C261.908 166.844 261.676 166.166 261.276 165.505C260.877 164.843 260.393 164.31 259.825 163.905C259.28 163.498 258.721 163.322 258.148 163.376C257.718 163.416 257.311 163.575 256.927 163.852C256.543 164.129 256.167 164.61 255.797 165.295C255.427 165.981 255.025 166.959 254.59 168.229C254.137 169.573 253.684 170.652 253.23 171.466C252.798 172.254 252.335 172.852 251.843 173.259C251.351 173.667 250.823 173.946 250.258 174.095C249.72 174.266 249.104 174.384 248.411 174.449ZM288.713 170.669C287.279 170.804 286.085 170.795 285.131 170.644C284.2 170.49 283.449 170.187 282.876 169.734C282.327 169.28 281.909 168.68 281.622 167.936C281.357 167.165 281.15 166.244 281.002 165.173L278.446 145.635L281.385 145.359L283.833 163.751C283.991 164.917 284.184 165.815 284.411 166.445C284.661 167.048 285.107 167.44 285.751 167.621C286.419 167.799 287.433 167.824 288.795 167.697C289.297 167.65 289.669 167.759 289.911 168.026C290.175 168.266 290.324 168.578 290.36 168.96C290.396 169.342 290.262 169.717 289.959 170.082C289.654 170.424 289.238 170.62 288.713 170.669ZM272.333 172.206C271.687 172.266 271.025 172.268 270.344 172.211C269.69 172.176 269.23 172.147 268.962 172.124L269.091 169.255C270.76 169.316 272.316 169.206 273.761 168.926C275.205 168.646 276.433 168.121 277.446 167.351C278.48 166.555 279.243 165.435 279.734 163.991C280.225 162.546 280.367 160.713 280.158 158.491L282.282 162.631C282.136 164.163 281.825 165.47 281.348 166.551C280.869 167.608 280.277 168.496 279.573 169.212C278.89 169.903 278.135 170.456 277.306 170.871C276.477 171.287 275.638 171.594 274.789 171.794C273.94 171.995 273.121 172.132 272.333 172.206ZM279.65 166.566C279.198 165.861 278.58 165.051 277.795 164.136C277.008 163.198 276.07 162.189 274.98 161.11C273.891 160.031 272.665 158.916 271.304 157.767C269.966 156.614 268.52 155.46 266.966 154.305L268.709 152.08C270.428 153.437 271.958 154.716 273.3 155.916C274.663 157.09 275.865 158.207 276.904 159.266C277.942 160.302 278.838 161.254 279.595 162.123C280.351 162.993 280.992 163.788 281.518 164.51L279.65 166.566ZM288.7 170.671L288.782 167.698C289.547 167.626 290.164 167.52 290.633 167.38C291.099 167.215 291.468 166.904 291.738 166.444C292.03 165.959 292.275 165.225 292.472 164.242C292.669 163.26 292.878 161.89 293.099 160.134L295.858 160.634C295.8 161.05 295.736 161.526 295.666 162.063C295.594 162.576 295.536 163.111 295.491 163.67C295.445 164.205 295.443 164.699 295.486 165.153C295.542 165.75 295.813 166.195 296.298 166.487C296.783 166.779 297.623 166.869 298.818 166.757C299.535 166.689 300.115 166.575 300.558 166.413C301.001 166.251 301.344 165.929 301.588 165.448C301.856 164.965 302.063 164.211 302.208 163.185C302.352 162.159 302.474 160.761 302.574 158.992L305.345 159.238C305.313 159.675 305.279 160.209 305.242 160.839C305.204 161.469 305.167 162.1 305.13 162.73C305.114 163.334 305.125 163.839 305.163 164.245C305.195 164.58 305.297 164.896 305.469 165.193C305.663 165.464 305.995 165.662 306.465 165.786C306.959 165.909 307.671 165.926 308.603 165.839C309.296 165.774 309.886 165.634 310.372 165.42C310.882 165.203 311.247 164.856 311.467 164.377C311.711 163.896 311.795 163.25 311.719 162.437C311.634 161.529 311.313 160.414 310.755 159.093C310.219 157.745 309.624 156.415 308.97 155.102L311.773 153.754C312.155 154.49 312.524 155.335 312.878 156.29C313.257 157.243 313.587 158.188 313.868 159.126C314.148 160.064 314.322 160.891 314.39 161.608C314.493 162.707 314.44 163.689 314.232 164.552C314.023 165.415 313.682 166.146 313.208 166.745C312.732 167.32 312.125 167.787 311.387 168.145C310.647 168.48 309.799 168.692 308.843 168.781C307.72 168.887 306.788 168.842 306.046 168.646C305.305 168.45 304.718 168.108 304.287 167.618C303.853 167.104 303.537 166.435 303.339 165.61L304.558 165.495C304.2 166.565 303.795 167.387 303.342 167.96C302.89 168.532 302.302 168.949 301.579 169.21C300.854 169.446 299.882 169.622 298.664 169.736C298.066 169.792 297.412 169.757 296.701 169.631C296.014 169.503 295.394 169.187 294.841 168.685C294.285 168.158 293.907 167.338 293.706 166.224L294.761 165.908C294.469 167.165 294.053 168.12 293.511 168.773C292.992 169.4 292.335 169.848 291.54 170.115C290.746 170.382 289.799 170.568 288.7 170.671Z" fill="white"/>
<path d="M212.885 205.242L213.292 205.201L213.348 205.766L212.941 205.807L212.885 205.242ZM210.415 209.782L212.256 204.665L213.794 204.511L216.611 209.163L215.277 209.297L213.054 205.567L213.19 205.554L211.772 209.647L210.415 209.782ZM223.515 209.227L223.64 210.471L218.574 210.977L218.45 209.733L223.515 209.227ZM227.67 203.764L228.077 203.724L228.134 204.289L227.727 204.33L227.67 203.764ZM225.2 208.305L227.042 203.188L228.579 203.034L231.397 207.686L230.063 207.819L227.84 204.09L227.976 204.076L226.557 208.17L225.2 208.305ZM237.62 213.476C237.594 213.221 237.588 212.948 237.602 212.657C237.626 212.355 237.669 212.034 237.731 211.696C237.803 211.346 237.895 210.977 238.007 210.591L239.198 210.922C239.121 211.23 239.054 211.521 238.995 211.795C238.947 212.067 238.914 212.323 238.895 212.56C238.886 212.797 238.893 213.022 238.914 213.234C238.958 213.68 239.092 214.047 239.313 214.336C239.547 214.634 239.849 214.866 240.219 215.033C240.59 215.2 241.003 215.308 241.458 215.359C241.924 215.409 242.411 215.409 242.921 215.358C243.537 215.296 244.104 215.186 244.624 215.027C245.155 214.867 245.612 214.666 245.995 214.424C246.39 214.191 246.692 213.936 246.9 213.658C247.109 213.391 247.199 213.114 247.17 212.827C247.157 212.689 247.091 212.567 246.973 212.461C246.855 212.355 246.685 212.259 246.462 212.174C246.239 212.089 245.974 212.014 245.668 211.948C245.36 211.872 245.01 211.799 244.617 211.731L244.787 210.38C245.36 210.537 245.867 210.669 246.306 210.775C246.744 210.87 247.127 210.945 247.454 210.998C247.781 211.051 248.063 211.087 248.301 211.106C248.538 211.115 248.736 211.111 248.895 211.095C249.118 211.073 249.283 211.121 249.391 211.238C249.509 211.344 249.577 211.482 249.594 211.652C249.611 211.822 249.552 211.989 249.418 212.152C249.284 212.305 249.099 212.393 248.866 212.416C248.802 212.423 248.739 212.429 248.675 212.436C248.611 212.442 248.542 212.449 248.468 212.456C248.404 212.463 248.341 212.469 248.277 212.475C248.308 212.569 248.331 212.641 248.347 212.693C248.364 212.756 248.377 212.835 248.387 212.931C248.426 213.323 248.326 213.719 248.087 214.118C247.859 214.516 247.5 214.89 247.009 215.239C246.52 215.599 245.913 215.906 245.188 216.161C244.474 216.414 243.644 216.588 242.7 216.683C241.861 216.766 241.067 216.706 240.318 216.502C239.58 216.308 238.967 215.962 238.478 215.464C237.988 214.966 237.702 214.304 237.62 213.476ZM248.871 212.416L248.9 211.094C249.526 211.032 250.012 210.962 250.358 210.884C250.703 210.796 250.941 210.649 251.07 210.444C251.198 210.227 251.241 209.906 251.199 209.482C251.173 209.217 251.099 208.908 250.978 208.555C250.856 208.192 250.705 207.811 250.526 207.411C250.346 207.01 250.157 206.617 249.958 206.229L251.199 205.623C251.371 205.949 251.537 206.323 251.698 206.747C251.868 207.169 252.018 207.589 252.145 208.005C252.272 208.421 252.352 208.788 252.384 209.106C252.437 209.637 252.407 210.096 252.296 210.482C252.195 210.867 252.002 211.192 251.718 211.456C251.433 211.72 251.052 211.93 250.575 212.085C250.108 212.239 249.54 212.349 248.871 212.416ZM252.117 215.131C251.894 215.153 251.695 215.092 251.52 214.949C251.357 214.815 251.264 214.642 251.243 214.43C251.222 214.218 251.278 214.025 251.41 213.851C251.554 213.675 251.737 213.577 251.96 213.555C252.172 213.533 252.36 213.595 252.525 213.739C252.7 213.883 252.798 214.06 252.819 214.273C252.841 214.485 252.779 214.673 252.635 214.838C252.502 215.012 252.329 215.109 252.117 215.131ZM249.936 215.349C249.713 215.371 249.514 215.31 249.339 215.167C249.176 215.033 249.083 214.86 249.062 214.648C249.041 214.436 249.097 214.243 249.229 214.068C249.373 213.893 249.556 213.795 249.779 213.772C249.991 213.751 250.179 213.813 250.344 213.957C250.519 214.1 250.617 214.278 250.638 214.491C250.659 214.703 250.598 214.891 250.453 215.056C250.321 215.23 250.148 215.327 249.936 215.349ZM256.921 210.293C257.452 210.24 257.866 210.145 258.163 210.008C258.471 209.87 258.684 209.694 258.802 209.478C258.929 209.251 258.979 208.999 258.951 208.724C258.93 208.511 258.846 208.262 258.7 207.977C258.564 207.69 258.383 207.376 258.155 207.034C257.927 206.682 257.666 206.317 257.371 205.939C257.085 205.549 256.778 205.157 256.449 204.761L257.476 203.934C257.952 204.519 258.373 205.078 258.737 205.609C259.1 206.131 259.412 206.625 259.673 207.092C259.933 207.548 260.148 207.982 260.317 208.394C260.513 208.846 260.712 209.175 260.914 209.38C261.128 209.583 261.338 209.707 261.546 209.751C261.753 209.784 261.942 209.792 262.111 209.775C262.334 209.752 262.505 209.8 262.624 209.916C262.742 210.022 262.809 210.16 262.826 210.33C262.843 210.5 262.785 210.667 262.651 210.83C262.516 210.983 262.332 211.071 262.099 211.094C261.748 211.129 261.397 211.1 261.045 211.007C260.702 210.902 260.394 210.713 260.12 210.44C259.845 210.156 259.634 209.765 259.488 209.265L260.074 208.692C260.116 209.116 260.067 209.539 259.927 209.961C259.786 210.371 259.489 210.728 259.037 211.03C258.596 211.332 257.934 211.527 257.053 211.615C256.671 211.653 256.297 211.658 255.929 211.63C255.573 211.602 255.24 211.544 254.931 211.457C254.621 211.359 254.346 211.236 254.106 211.089L254.634 209.927C254.86 210.043 255.17 210.146 255.565 210.236C255.96 210.325 256.412 210.344 256.921 210.293ZM262.102 211.094L262.131 209.773C262.428 209.743 262.671 209.654 262.86 209.507C263.049 209.359 263.224 209.127 263.386 208.811C263.547 208.495 263.714 208.076 263.887 207.555C264.127 206.845 264.378 206.3 264.64 205.92C264.913 205.539 265.192 205.27 265.476 205.113C265.771 204.955 266.068 204.861 266.365 204.831C266.726 204.795 267.069 204.857 267.396 205.018C267.722 205.167 268.017 205.384 268.281 205.669C268.546 205.953 268.76 206.275 268.925 206.634C269.099 206.981 269.204 207.335 269.24 207.696C269.303 208.332 269.243 208.853 269.058 209.257C268.872 209.651 268.613 209.95 268.279 210.155C267.956 210.348 267.608 210.464 267.237 210.501C266.908 210.534 266.477 210.512 265.944 210.437C265.422 210.36 264.742 210.101 263.905 209.66L264.425 208.595C264.978 208.872 265.468 209.053 265.895 209.139C266.331 209.214 266.687 209.237 266.963 209.209C267.271 209.179 267.511 209.112 267.683 209.009C267.853 208.895 267.973 208.749 268.041 208.571C268.109 208.393 268.132 208.198 268.111 207.985C268.08 207.677 267.975 207.377 267.796 207.084C267.616 206.791 267.4 206.556 267.146 206.377C266.903 206.198 266.654 206.121 266.4 206.146C266.209 206.165 266.028 206.237 265.858 206.361C265.688 206.485 265.522 206.7 265.36 207.006C265.198 207.312 265.021 207.747 264.831 208.313C264.634 208.912 264.435 209.392 264.236 209.755C264.046 210.107 263.842 210.374 263.624 210.556C263.407 210.739 263.173 210.864 262.922 210.932C262.683 211.009 262.41 211.063 262.102 211.094ZM271.748 213.748L271.331 212.471C271.959 212.323 272.531 212.142 273.046 211.93C273.572 211.728 274.012 211.464 274.366 211.139C274.73 210.813 274.995 210.406 275.16 209.918C275.326 209.43 275.374 208.835 275.304 208.135C275.271 207.806 275.208 207.496 275.114 207.205C275.02 206.904 274.897 206.643 274.747 206.422C274.596 206.201 274.423 206.031 274.229 205.911C274.046 205.79 273.842 205.74 273.62 205.763C273.375 205.787 273.162 205.905 272.979 206.116C272.806 206.316 272.676 206.564 272.588 206.863C272.51 207.16 272.486 207.452 272.514 207.738C272.537 207.961 272.599 208.153 272.701 208.315C272.812 208.464 272.978 208.571 273.199 208.635C273.42 208.698 273.7 208.713 274.04 208.679C274.347 208.649 274.652 208.586 274.953 208.492C275.265 208.396 275.528 208.284 275.74 208.156L275.915 209.264C275.678 209.47 275.388 209.627 275.046 209.737C274.713 209.845 274.372 209.916 274.022 209.951C273.619 209.992 273.253 209.985 272.927 209.932C272.61 209.878 272.333 209.782 272.094 209.646C271.865 209.497 271.679 209.301 271.537 209.058C271.405 208.814 271.322 208.522 271.289 208.182C271.248 207.779 271.272 207.369 271.359 206.953C271.445 206.527 271.587 206.132 271.787 205.769C271.987 205.406 272.241 205.107 272.55 204.873C272.858 204.627 273.213 204.485 273.616 204.444C274.041 204.402 274.424 204.476 274.764 204.667C275.104 204.848 275.398 205.113 275.648 205.464C275.897 205.814 276.098 206.217 276.251 206.674C276.404 207.13 276.505 207.608 276.555 208.106C276.654 209.094 276.537 209.963 276.205 210.714C275.884 211.475 275.347 212.108 274.593 212.612C273.85 213.115 272.902 213.494 271.748 213.748ZM279.044 209.321L277.59 197.985L278.88 197.857L280.334 209.192L279.044 209.321ZM291.203 211.837C290.598 211.897 290.017 211.87 289.458 211.754C288.901 211.649 288.394 211.458 287.938 211.182C287.492 210.905 287.124 210.55 286.835 210.118C286.557 209.696 286.389 209.193 286.33 208.609C286.305 208.354 286.299 208.082 286.313 207.791C286.336 207.488 286.379 207.168 286.442 206.829C286.514 206.479 286.606 206.111 286.717 205.724L287.908 206.056C287.832 206.363 287.764 206.654 287.706 206.928C287.658 207.201 287.625 207.456 287.606 207.694C287.597 207.931 287.603 208.155 287.625 208.367C287.679 208.909 287.868 209.351 288.191 209.694C288.526 210.035 288.946 210.272 289.452 210.404C289.97 210.545 290.526 210.586 291.121 210.526C291.842 210.454 292.439 210.309 292.91 210.09C293.382 209.882 293.748 209.626 294.007 209.322C294.267 209.028 294.439 208.71 294.523 208.37C294.617 208.028 294.648 207.687 294.614 207.347C294.567 206.88 294.486 206.444 294.37 206.037C294.265 205.63 294.135 205.235 293.979 204.854C293.832 204.461 293.675 204.064 293.506 203.663L294.761 203.184C294.918 203.576 295.041 203.896 295.13 204.144C295.218 204.382 295.285 204.574 295.332 204.719C295.389 204.863 295.44 204.992 295.483 205.106C295.639 205.487 295.801 205.766 295.969 205.942C296.146 206.106 296.339 206.21 296.547 206.254C296.764 206.286 297.006 206.288 297.271 206.262C297.483 206.241 297.666 206.196 297.82 206.127C297.985 206.057 298.126 205.914 298.244 205.698C298.372 205.482 298.467 205.145 298.529 204.689C298.601 204.232 298.646 203.611 298.664 202.826L299.897 202.928C299.884 203.123 299.87 203.36 299.855 203.64C299.84 203.92 299.825 204.2 299.811 204.481C299.805 204.749 299.812 204.974 299.83 205.154C299.844 205.303 299.891 205.443 299.968 205.574C300.055 205.694 300.203 205.781 300.412 205.835C300.632 205.889 300.949 205.894 301.363 205.853C301.692 205.82 301.971 205.771 302.2 205.705C302.439 205.628 302.612 205.487 302.721 205.283C302.839 205.068 302.876 204.748 302.834 204.323C302.807 204.058 302.734 203.749 302.613 203.397C302.491 203.034 302.34 202.652 302.161 202.252C301.981 201.852 301.792 201.458 301.592 201.071L302.834 200.464C303.006 200.79 303.172 201.165 303.332 201.588C303.503 202.011 303.652 202.43 303.78 202.846C303.907 203.262 303.987 203.629 304.018 203.948C304.072 204.489 304.044 204.953 303.932 205.339C303.831 205.724 303.665 206.046 303.434 206.305C303.203 206.564 302.917 206.764 302.577 206.906C302.247 207.035 301.881 207.12 301.477 207.16C301.106 207.197 300.779 207.198 300.496 207.162C300.225 207.125 299.987 207.052 299.783 206.944C299.589 206.824 299.429 206.668 299.302 206.477C299.186 206.274 299.092 206.037 299.022 205.765L299.564 205.711C299.432 206.11 299.272 206.442 299.084 206.708C298.895 206.963 298.658 207.163 298.373 207.31C298.097 207.444 297.746 207.533 297.322 207.575C296.993 207.608 296.707 207.594 296.465 207.532C296.222 207.46 296.014 207.363 295.841 207.241C295.678 207.107 295.545 206.954 295.442 206.782C295.338 206.6 295.255 206.415 295.193 206.228L295.927 206.975C295.925 207.49 295.859 208.011 295.73 208.538C295.611 209.065 295.382 209.559 295.042 210.022C294.714 210.494 294.239 210.89 293.617 211.21C292.995 211.529 292.19 211.738 291.203 211.837ZM298.103 198.653C297.88 198.676 297.681 198.621 297.507 198.488C297.343 198.344 297.25 198.165 297.229 197.953C297.208 197.741 297.263 197.547 297.396 197.373C297.539 197.198 297.722 197.1 297.945 197.077C298.158 197.056 298.346 197.118 298.51 197.262C298.686 197.405 298.784 197.583 298.805 197.795C298.826 198.008 298.765 198.201 298.622 198.377C298.488 198.54 298.315 198.632 298.103 198.653ZM297.195 200.513C296.972 200.535 296.774 200.48 296.6 200.347C296.435 200.203 296.342 200.025 296.321 199.812C296.3 199.6 296.356 199.407 296.488 199.233C296.632 199.058 296.815 198.959 297.038 198.937C297.25 198.916 297.438 198.977 297.603 199.122C297.778 199.265 297.876 199.443 297.897 199.655C297.919 199.867 297.857 200.061 297.714 200.236C297.58 200.399 297.407 200.492 297.195 200.513ZM299.36 200.297C299.137 200.319 298.939 200.264 298.765 200.131C298.6 199.987 298.508 199.808 298.486 199.596C298.465 199.384 298.521 199.191 298.654 199.017C298.797 198.841 298.98 198.743 299.203 198.72C299.415 198.699 299.604 198.761 299.768 198.905C299.943 199.048 300.041 199.226 300.063 199.439C300.084 199.651 300.023 199.845 299.879 200.02C299.746 200.183 299.573 200.275 299.36 200.297ZM306.388 210.287L305.971 209.011C306.599 208.862 307.171 208.682 307.686 208.469C308.212 208.267 308.652 208.003 309.006 207.678C309.37 207.353 309.635 206.945 309.8 206.457C309.966 205.969 310.014 205.375 309.944 204.674C309.872 203.952 309.679 203.366 309.366 202.915C309.053 202.464 308.684 202.259 308.26 202.302C308.037 202.324 307.838 202.43 307.664 202.619C307.49 202.808 307.354 203.052 307.255 203.351C307.167 203.649 307.14 203.968 307.174 204.308C307.193 204.499 307.251 204.654 307.349 204.773C307.445 204.881 307.577 204.964 307.743 205.023C307.92 205.069 308.137 205.096 308.395 205.102C308.653 205.109 308.951 205.095 309.291 205.061L312.65 204.725C312.873 204.703 313.039 204.751 313.147 204.869C313.265 204.975 313.332 205.113 313.349 205.283C313.366 205.452 313.308 205.619 313.174 205.783C313.039 205.935 312.855 206.023 312.621 206.047L308.816 206.427C308.339 206.475 307.886 206.45 307.458 206.354C307.041 206.256 306.691 206.076 306.408 205.815C306.134 205.543 305.973 205.167 305.925 204.69C305.881 204.244 305.907 203.813 306.005 203.395C306.102 202.968 306.251 202.583 306.453 202.241C306.664 201.888 306.919 201.6 307.218 201.377C307.528 201.153 307.874 201.022 308.256 200.984C308.745 200.935 309.194 201.035 309.605 201.283C310.016 201.531 310.362 201.936 310.643 202.498C310.923 203.049 311.107 203.765 311.195 204.646C311.294 205.633 311.177 206.502 310.845 207.253C310.524 208.014 309.987 208.647 309.233 209.151C308.49 209.654 307.542 210.033 306.388 210.287ZM312.616 206.047L312.629 204.727C313.181 204.672 313.718 204.576 314.24 204.438C314.763 204.3 315.27 204.126 315.764 203.916C316.258 203.706 316.727 203.466 317.172 203.196C317.626 202.915 318.05 202.605 318.445 202.265C318.145 202.049 317.805 201.868 317.426 201.724C317.047 201.579 316.636 201.481 316.191 201.429C315.756 201.365 315.299 201.357 314.822 201.405C314.652 201.422 314.493 201.443 314.346 201.469C314.198 201.494 314.052 201.53 313.906 201.577C313.76 201.613 313.593 201.662 313.406 201.723L313.031 200.539C313.309 200.425 313.589 200.333 313.871 200.262C314.153 200.18 314.426 200.126 314.691 200.1C315.243 200.044 315.749 200.064 316.209 200.157C316.667 200.24 317.086 200.359 317.466 200.514C317.857 200.668 318.221 200.824 318.558 200.984C318.907 201.142 319.241 201.274 319.563 201.382C319.883 201.478 320.208 201.51 320.537 201.477L320.872 201.444L321.098 202.579C320.641 202.625 320.228 202.73 319.859 202.896C319.49 203.061 319.129 203.263 318.778 203.502C318.436 203.729 318.075 203.974 317.694 204.238C317.311 204.49 316.886 204.742 316.418 204.992C315.949 205.232 315.403 205.447 314.778 205.638C314.165 205.828 313.444 205.965 312.616 206.047ZM314.543 198.458C314.321 198.48 314.122 198.425 313.948 198.292C313.784 198.148 313.691 197.97 313.669 197.758C313.648 197.545 313.704 197.352 313.837 197.178C313.98 197.003 314.163 196.904 314.386 196.882C314.598 196.861 314.787 196.922 314.951 197.067C315.126 197.21 315.224 197.388 315.246 197.6C315.267 197.812 315.206 198.006 315.062 198.181C314.929 198.345 314.756 198.437 314.543 198.458Z" fill="white"/>
</svg>
