<svg width="500" height="374" viewBox="0 0 500 374" fill="none" xmlns="http://www.w3.org/2000/svg">
<g clip-path="url(#clip0_147_528)">
<path d="M500 328.398H0V328.648H500V328.398Z" fill="#6B2DE2"/>
<path d="M433.798 339.042H400.676V339.292H433.798V339.042Z" fill="#6B2DE2"/>
<path d="M313.076 338.917H304.383V339.167H313.076V338.917Z" fill="#6B2DE2"/>
<path d="M449.903 344.494H430.711V344.744H449.903V344.494Z" fill="#6B2DE2"/>
<path d="M114.607 347.806H71.4141V348.056H114.607V347.806Z" fill="#6B2DE2"/>
<path d="M110.888 336.888H104.555V337.138H110.888V336.888Z" fill="#6B2DE2"/>
<path d="M248.445 337.956H187.547V338.206H248.445V337.956Z" fill="#6B2DE2"/>
<path d="M237.014 283.8H43.915C40.768 283.8 38.207 281.239 38.207 278.092V6.66014C38.207 3.51314 40.768 0.952148 43.915 0.952148H237.014C240.16 0.952148 242.721 3.51314 242.721 6.66014V278.092C242.721 281.239 240.16 283.8 237.014 283.8ZM43.915 1.20314C40.905 1.20314 38.457 3.65114 38.457 6.66114V278.093C38.457 281.103 40.905 283.551 43.915 283.551H237.014C240.023 283.551 242.471 281.103 242.471 278.093V6.66014C242.471 3.65114 240.023 1.20214 237.014 1.20214L43.915 1.20314Z" fill="#6B2DE2"/>
<path d="M453.309 283.8H260.211C257.064 283.8 254.504 281.239 254.504 278.092V6.66014C254.504 3.51314 257.065 0.952148 260.211 0.952148H453.309C456.457 0.952148 459.017 3.51314 459.017 6.66014V278.092C459.018 281.239 456.457 283.8 453.309 283.8ZM260.211 1.20314C257.202 1.20314 254.754 3.65114 254.754 6.66114V278.093C254.754 281.103 257.202 283.551 260.211 283.551H453.309C456.319 283.551 458.767 281.103 458.767 278.093V6.66014C458.767 3.65114 456.319 1.20214 453.309 1.20214L260.211 1.20314Z" fill="#6B2DE2"/>
<path d="M428.888 42.333H71.1094V191.222H428.888V42.333Z" fill="#5800FF"/>
<path d="M421.891 184.223V49.334H78.1133V184.223H421.891Z" fill="#FAFAFA"/>
<path d="M123.367 184.222L158.632 49.333H184.632L149.366 184.222H123.367Z" fill="#E8DCFF"/>
<path d="M155.367 184.222L190.633 49.333H202.265L167 184.222H155.367Z" fill="#E8DCFF"/>
<path d="M212.273 184.222L247.538 49.333H273.538L238.273 184.222H212.273Z" fill="#E8DCFF"/>
<path d="M277.828 184.222L313.093 49.333H324.726L289.461 184.222H277.828Z" fill="#E8DCFF"/>
<path d="M170.208 184.222V49.333H168.43V184.222H170.208Z" fill="#E7E0FF"/>
<path d="M79.8874 184.223V49.334H78.1094V184.223H79.8874Z" fill="#E7E0FF"/>
<path d="M168.43 184.222V49.333H161.43V184.222H168.43Z" fill="#5800FF"/>
<path d="M257.001 184.222V49.333H255.223V184.222H257.001Z" fill="#E7E0FF"/>
<path d="M255.223 184.222V49.333H248.223V184.222H255.223Z" fill="#5800FF"/>
<path d="M343.833 184.222V49.333H342.055V184.222H343.833Z" fill="#E7E0FF"/>
<path d="M342.055 184.222V49.333H335.055V184.222H342.055Z" fill="#5800FF"/>
<path d="M430.665 191.222V42.333H428.887V191.222H430.665Z" fill="#E7E0FF"/>
<path d="M434.667 32.111H65.3323C64.4773 32.111 63.7773 31.411 63.7773 30.556C63.7773 29.7 64.4773 29 65.3323 29H434.666C435.521 29 436.222 29.7 436.222 30.556C436.222 31.411 435.522 32.111 434.667 32.111Z" fill="#E7E0FF"/>
<path d="M142.334 26H66.7773V297.667H142.334V26Z" fill="#9F81FF"/>
<path d="M107.724 299.889H101.391L103.169 28.2217H106.002L107.724 299.889Z" fill="#DCB7FA"/>
<path d="M86.7503 299.889H83.6953L84.5523 28.2217H85.9193L86.7503 299.889Z" fill="#DCB7FA"/>
<path d="M128.75 299.889H125.695L126.552 28.2217H127.919L128.75 299.889Z" fill="#DCB7FA"/>
<path d="M432.318 26H356.762V297.667H432.318V26Z" fill="#9F81FF"/>
<path d="M386.372 299.889H380.039L381.816 28.2217H384.65L386.372 299.889Z" fill="#DCB7FA"/>
<path d="M372.4 299.889H369.344L370.202 28.2217H371.569L372.4 299.889Z" fill="#DCB7FA"/>
<path d="M404.736 299.889H401.68L402.538 28.2217H403.905L404.736 299.889Z" fill="#DCB7FA"/>
<path d="M420.289 299.889H417.234L418.092 28.2217H419.459L420.289 299.889Z" fill="#DCB7FA"/>
<path d="M325.215 326.696H339.418V245.319H325.215V326.696Z" fill="#DCB7FA"/>
<path d="M160.582 326.696H330.675V245.319H160.582V326.696Z" fill="#5800FF"/>
<path d="M326.854 326.697H321.734H167.93V328.398H321.734H326.854H332.073V326.697H326.854Z" fill="#E7E0FF"/>
<path opacity="0.5" d="M165.434 283.246H325.822V250.41H165.434V283.246Z" fill="#FAFAFA"/>
<path opacity="0.5" d="M165.434 321.389H325.822V288.553H165.434V321.389Z" fill="#FAFAFA"/>
<path d="M189.746 266.828C189.746 268.821 188.13 270.437 186.136 270.437C184.142 270.437 182.527 268.821 182.527 266.828C182.527 264.835 184.143 263.218 186.136 263.218C188.129 263.218 189.746 264.834 189.746 266.828Z" fill="#E7E0FF"/>
<path d="M308.727 266.828C308.727 268.821 307.111 270.437 305.118 270.437C303.125 270.437 301.508 268.821 301.508 266.828C301.508 264.835 303.124 263.218 305.118 263.218C307.111 263.218 308.727 264.834 308.727 266.828Z" fill="#E7E0FF"/>
<path d="M186.136 308.58C188.129 308.58 189.745 306.964 189.745 304.971C189.745 302.978 188.129 301.362 186.136 301.362C184.143 301.362 182.527 302.978 182.527 304.971C182.527 306.964 184.143 308.58 186.136 308.58Z" fill="#E7E0FF"/>
<path d="M308.727 304.971C308.727 306.964 307.111 308.58 305.118 308.58C303.125 308.58 301.508 306.964 301.508 304.971C301.508 302.978 303.124 301.362 305.118 301.362C307.111 301.362 308.727 302.978 308.727 304.971Z" fill="#E7E0FF"/>
<path d="M249.238 266.828C249.238 268.821 247.622 270.437 245.629 270.437C243.636 270.437 242.02 268.821 242.02 266.828C242.02 264.835 243.636 263.218 245.629 263.218C247.622 263.218 249.238 264.834 249.238 266.828Z" fill="#E7E0FF"/>
<path d="M245.629 308.58C247.622 308.58 249.238 306.964 249.238 304.971C249.238 302.978 247.622 301.362 245.629 301.362C243.636 301.362 242.02 302.978 242.02 304.971C242.02 306.964 243.636 308.58 245.629 308.58Z" fill="#E7E0FF"/>
<path d="M320.162 231.497C320.162 239.131 313.973 245.32 306.339 245.32C298.705 245.32 292.516 239.131 292.516 231.497H320.162Z" fill="#5800FF"/>
<path d="M210.889 229.03C210.889 238.027 203.596 245.32 194.599 245.32C185.602 245.32 178.309 238.027 178.309 229.03H210.889Z" fill="#5800FF"/>
<path d="M280.916 235.73C280.916 241.026 276.623 245.32 271.327 245.32C266.031 245.32 261.738 241.027 261.738 235.73H280.916Z" fill="#5800FF"/>
<path d="M232.341 57.6478C193.766 55.3948 153.403 32.6538 115.582 54.5908C87.1842 71.0628 83.0282 103.379 91.3452 133.653C113.188 213.161 235.475 226.614 304.38 206.665C375.745 186.003 456.277 115.285 410.122 43.3398C391.099 13.6868 357.947 8.45781 321.777 18.2858C291.047 26.6348 262.573 59.4138 232.341 57.6478Z" fill="#C1ADFF"/>
<path d="M249.999 373.561C357.081 373.561 443.888 368.492 443.888 362.238C443.888 355.985 357.081 350.915 249.999 350.915C142.917 350.915 56.1094 355.985 56.1094 362.238C56.1094 368.492 142.917 373.561 249.999 373.561Z" fill="#9F81FF"/>
<path d="M348.148 61.3646C346.014 59.2336 341.915 51.1606 345.848 47.4136C349.781 43.6666 353.279 47.0646 353.551 48.9056C353.822 50.7456 353.094 66.3026 348.148 61.3646Z" fill="#263238"/>
<path d="M347.245 351.652L338.324 351.73L335.891 331.091L344.811 331.013L347.245 351.652Z" fill="#FF8B7B"/>
<path d="M338.308 350.697L348.05 350.611C348.415 350.608 348.749 350.858 348.855 351.213L351.21 359.122C351.454 359.942 350.888 360.726 350.045 360.719C346.526 360.69 341.433 360.529 337.016 360.567C331.851 360.612 329.548 360.933 323.491 360.986C319.829 361.018 318.535 357.327 320.043 356.978C326.907 355.391 330.458 355.178 336.21 351.408C336.836 351.001 337.538 350.704 338.308 350.697Z" fill="#263238"/>
<path opacity="0.2" d="M335.895 331.097L337.148 341.735L346.072 341.657L344.819 331.019L335.895 331.097Z" fill="black"/>
<path d="M334.622 352.289C335.626 352.289 336.715 352.106 337.479 351.944C337.567 351.925 337.634 351.853 337.645 351.763C337.656 351.673 337.609 351.587 337.528 351.547C337.104 351.34 333.357 349.541 332.332 350.18C332.135 350.302 332.031 350.499 332.031 350.749C332.031 351.17 332.19 351.513 332.504 351.768C332.982 352.157 333.771 352.289 334.622 352.289ZM336.758 351.654C334.827 351.994 333.359 351.92 332.77 351.442C332.556 351.269 332.453 351.043 332.453 350.751C332.453 350.621 332.504 350.572 332.555 350.54C333.105 350.197 335.223 350.959 336.758 351.654Z" fill="#6720FF"/>
<path d="M337.438 351.949C337.485 351.949 337.531 351.934 337.569 351.904C337.63 351.856 337.659 351.779 337.646 351.703C337.619 351.54 336.944 347.705 334.82 347.942C334.259 348.004 334.102 348.287 334.069 348.513C333.922 349.515 336.212 351.446 337.355 351.932C337.381 351.943 337.41 351.949 337.438 351.949ZM335 348.354C336.278 348.354 336.92 350.438 337.139 351.352C335.963 350.686 334.399 349.172 334.486 348.574C334.492 348.531 334.512 348.401 334.866 348.361C334.912 348.357 334.956 348.354 335 348.354Z" fill="#6720FF"/>
<path d="M340.944 106.427L340.02 107.387L339.161 108.241C338.589 108.801 338 109.326 337.414 109.854C336.237 110.901 335.038 111.913 333.811 112.893C331.349 114.841 328.756 116.646 326.015 118.27C324.645 119.083 323.235 119.849 321.797 120.578C320.349 121.293 318.856 121.945 317.336 122.554C314.28 123.754 311.052 124.691 307.661 125.197L306.916 125.309C306.451 125.365 306.005 125.412 305.472 125.398C304.469 125.4 303.29 125.194 302.216 124.758C301.121 124.331 300.177 123.668 299.451 122.987C298.695 122.288 298.219 121.602 297.793 120.928C297.016 119.613 296.64 118.466 296.361 117.424C296.09 116.381 295.94 115.431 295.835 114.52C295.624 112.703 295.621 111.046 295.684 109.426C295.751 107.814 295.88 106.254 296.06 104.719C296.442 101.655 296.977 98.6878 297.639 95.7638C298.311 92.8308 299.056 89.9918 300.018 87.0928L306.59 88.3848C306.349 94.0108 306.08 99.7688 306.261 105.205C306.328 107.897 306.577 110.611 307.058 112.735C307.181 113.253 307.326 113.723 307.472 114.067C307.612 114.408 307.777 114.619 307.77 114.531C307.754 114.451 307.702 114.361 307.497 114.135C307.308 113.934 306.97 113.694 306.559 113.509C306.159 113.331 305.706 113.262 305.426 113.243C305.256 113.246 305.168 113.234 305.063 113.248C304.954 113.269 305.122 113.23 305.169 113.216L305.385 113.16C307.689 112.598 309.989 111.713 312.265 110.663C314.53 109.573 316.766 108.301 318.948 106.879C321.122 105.443 323.258 103.891 325.321 102.228C326.358 101.405 327.375 100.552 328.363 99.6768L329.817 98.3558L330.523 97.7048L331.13 97.1248L340.944 106.427Z" fill="#FF8B7B"/>
<path d="M346.23 102.899C345.89 93.4738 338.147 90.1928 328.452 96.6168C319.254 102.723 316.117 105.474 316.117 105.474L322.392 125.611C322.392 125.611 334.413 121.802 341.333 114.319C346.029 109.242 346.346 106.111 346.23 102.899Z" fill="#263238"/>
<path opacity="0.2" d="M334.418 106.92C334.418 106.92 328.628 115.2 326.578 124C328.878 123.01 331.848 121.57 334.778 119.68L334.418 106.92Z" fill="black"/>
<path d="M306.262 91.372L309.619 83.784L300.116 81C300.116 81 298.482 84.63 299.411 90.86L306.262 91.372Z" fill="#FF8B7B"/>
<path d="M310.626 74.8818L302.362 75.8658L300.113 80.9988L309.616 83.7828L310.626 74.8818Z" fill="#FF8B7B"/>
<path d="M334.483 171.256C334.483 171.256 328.335 222.719 327.662 250.228C326.962 278.841 332.571 336.552 332.571 336.552L348.679 336.21C348.679 336.21 350.616 274.432 352.954 246.122C355.502 215.259 361.903 170.673 361.903 170.673L334.483 171.256Z" fill="#6720FF"/>
<path opacity="0.6" d="M334.483 171.256C334.483 171.256 328.335 222.719 327.662 250.228C326.962 278.841 332.571 336.552 332.571 336.552L348.679 336.21C348.679 336.21 350.616 274.432 352.954 246.122C355.502 215.259 361.903 170.673 361.903 170.673L334.483 171.256Z" fill="#E8DCFF"/>
<path opacity="0.2" d="M353.668 185.83C346.468 201.7 348.398 237.15 352.488 252.35C352.638 250.14 352.798 248.05 352.958 246.12C354.628 225.78 357.978 199.49 360.068 183.92C358.108 181.08 355.918 180.86 353.668 185.83Z" fill="black"/>
<path d="M350.659 336.933L331.717 337.312L330.324 331.019L350.428 330.974L350.659 336.933Z" fill="#6720FF"/>
<path d="M387.042 351.652L378.121 351.73L375.688 331.091L384.608 331.013L387.042 351.652Z" fill="#FF8B7B"/>
<path d="M378.105 350.697L387.847 350.611C388.212 350.608 388.546 350.858 388.652 351.213L391.007 359.122C391.251 359.942 390.685 360.726 389.842 360.719C386.323 360.69 381.23 360.529 376.813 360.567C371.649 360.612 369.345 360.933 363.288 360.986C359.626 361.018 358.333 357.327 359.84 356.978C366.704 355.391 370.255 355.178 376.007 351.408C376.633 351.001 377.335 350.704 378.105 350.697Z" fill="#263238"/>
<path opacity="0.2" d="M375.691 331.097L376.944 341.735L385.868 341.657L384.616 331.019L375.691 331.097Z" fill="black"/>
<path d="M374.419 352.289C375.423 352.289 376.512 352.106 377.276 351.944C377.364 351.925 377.431 351.853 377.442 351.763C377.453 351.673 377.406 351.587 377.325 351.547C376.901 351.34 373.154 349.541 372.129 350.18C371.932 350.302 371.828 350.499 371.828 350.749C371.828 351.17 371.987 351.513 372.301 351.768C372.779 352.157 373.568 352.289 374.419 352.289ZM376.555 351.654C374.624 351.994 373.156 351.92 372.567 351.442C372.353 351.269 372.25 351.043 372.251 350.751C372.251 350.621 372.302 350.572 372.353 350.54C372.902 350.197 375.02 350.959 376.555 351.654Z" fill="#6720FF"/>
<path d="M377.235 351.949C377.282 351.949 377.328 351.934 377.366 351.904C377.427 351.856 377.456 351.779 377.443 351.703C377.416 351.54 376.741 347.705 374.617 347.942C374.056 348.004 373.899 348.287 373.866 348.513C373.719 349.515 376.009 351.446 377.153 351.932C377.178 351.943 377.207 351.949 377.235 351.949ZM374.797 348.354C376.075 348.354 376.717 350.438 376.936 351.352C375.76 350.686 374.196 349.172 374.284 348.574C374.29 348.531 374.309 348.401 374.664 348.361C374.709 348.357 374.753 348.354 374.797 348.354Z" fill="#6720FF"/>
<path d="M350.203 170.921C350.203 170.921 354.654 226.286 357.897 253.611C361.271 282.033 372.37 336.551 372.37 336.551L388.479 336.209C388.479 336.209 384.058 274.307 382.349 245.952C380.485 215.04 380.005 170.24 380.005 170.24L350.203 170.921Z" fill="#6720FF"/>
<path opacity="0.6" d="M350.203 170.921C350.203 170.921 354.654 226.286 357.897 253.611C361.271 282.033 372.37 336.551 372.37 336.551L388.479 336.209C388.479 336.209 384.058 274.307 382.349 245.952C380.485 215.04 380.005 170.24 380.005 170.24L350.203 170.921Z" fill="#E8DCFF"/>
<path d="M390.456 336.933L371.514 337.312L370.121 331.019L390.225 330.974L390.456 336.933Z" fill="#6720FF"/>
<path d="M333.369 94.1552C333.369 94.1552 326.775 118.613 334.483 171.256C348.857 170.95 373.008 170.389 380.002 170.24C380.175 162.91 374.768 126.971 381.096 92.3162C381.096 92.3162 375.114 91.1642 367.314 90.9542C361.212 90.7902 352.383 90.7842 347.035 91.3872C339.984 92.1822 333.369 94.1552 333.369 94.1552Z" fill="#263238"/>
<path opacity="0.2" d="M378.341 116.98L370.891 110.81C371.381 115.63 375.741 127.44 378.041 133.42C377.981 128.2 378.051 122.67 378.341 116.98Z" fill="black"/>
<path d="M351.688 108.335L343.562 124.417C342.777 125.97 344.466 127.651 345.977 126.82L351.288 123.9C351.871 123.579 352.59 123.627 353.139 124.023L358.365 127.79C359.769 128.802 361.592 127.405 361.008 125.765L354.895 108.589C354.372 107.118 352.383 106.96 351.688 108.335Z" fill="#E8DCFF"/>
<path d="M364.819 68.1631C363.679 74.7151 362.657 86.6971 367.315 90.9541C367.315 90.9541 365.956 96.8851 353.548 98.9051C345.211 96.2301 347.036 91.3871 347.036 91.3871C354.275 89.4941 353.972 84.1001 352.597 79.0571L364.819 68.1631Z" fill="#FF8B7B"/>
<path opacity="0.2" d="M359.836 72.6074L352.602 79.0504C352.932 80.2434 353.194 81.4554 353.304 82.6364C356.075 82.1754 359.829 79.0434 360.062 76.1264C360.177 74.6724 360.087 73.2784 359.836 72.6074Z" fill="black"/>
<path d="M368.789 60.0901C366.385 68.6111 365.412 73.7211 360.088 77.2071C352.081 82.4521 342.278 76.1851 342.087 67.1171C341.915 58.9551 345.875 46.3911 355.074 44.7881C364.137 43.2091 371.192 51.5691 368.789 60.0901Z" fill="#FF8B7B"/>
<path d="M363.662 65.3065C362.541 62.5885 361.734 53.6315 366.395 51.4335C371.057 49.2365 375.916 54.6025 374.693 57.1385C372.795 61.0775 366.26 71.6045 363.662 65.3065Z" fill="#263238"/>
<path d="M366.447 54.5901C365.301 51.6291 351.585 49.8941 349.667 46.6611C347.386 42.8161 356.743 42.3571 363.172 44.3131C368.822 46.0331 372.589 47.6861 371.929 51.8881C371.554 54.2671 366.447 54.5901 366.447 54.5901Z" fill="#263238"/>
<path d="M369.426 51.4972C369.426 51.4972 372.398 52.3232 374.074 50.1162C373.553 52.2952 371.017 54.5012 369.426 51.4972Z" fill="#263238"/>
<path d="M355.704 42.2507C351.58 39.0477 345.972 42.8117 346.504 46.9807C347.036 51.1497 360.921 54.3226 360.921 54.3226C360.921 54.3226 361.173 46.4977 355.704 42.2507Z" fill="#263238"/>
<path d="M346.512 47.0406C347.143 49.9556 349.271 52.2536 353.578 53.9456C349.548 51.1126 348.155 46.6396 348.155 46.6396L346.512 47.0406Z" fill="#263238"/>
<path d="M355.166 59.663C355.014 60.366 354.517 60.855 354.058 60.756C353.598 60.656 353.349 60.005 353.502 59.302C353.654 58.599 354.151 58.11 354.61 58.209C355.069 58.309 355.318 58.96 355.166 59.663Z" fill="#263238"/>
<path d="M347.217 57.9394C347.065 58.6424 346.568 59.1324 346.109 59.0324C345.649 58.9324 345.4 58.2814 345.553 57.5784C345.706 56.8754 346.202 56.3864 346.661 56.4854C347.121 56.5854 347.37 57.2354 347.217 57.9394Z" fill="#263238"/>
<path d="M349.668 58.8369C349.668 58.8369 347.189 62.5469 345.004 64.1229C345.996 65.5539 348.226 65.4819 348.226 65.4819L349.668 58.8369Z" fill="#FF5652"/>
<path d="M349.849 67.866L349.853 67.867C353.162 68.585 355.17 66.645 355.254 66.562C355.337 66.48 355.338 66.3471 355.256 66.2641C355.174 66.1811 355.041 66.1801 354.958 66.2621C354.939 66.2811 353.021 68.1221 349.944 67.4551C349.83 67.4301 349.717 67.503 349.693 67.617C349.667 67.729 349.737 67.84 349.849 67.866Z" fill="#263238"/>
<path d="M358.107 57.6172C358.196 57.6382 358.293 57.6312 358.383 57.5892C358.595 57.4912 358.687 57.2402 358.589 57.0282C357.606 54.9072 355.678 54.6062 355.597 54.5942C355.366 54.5612 355.152 54.7212 355.118 54.9522C355.085 55.1822 355.247 55.3962 355.474 55.4302C355.538 55.4402 357.038 55.6912 357.823 57.3832C357.879 57.5062 357.986 57.5882 358.107 57.6172Z" fill="#263238"/>
<path d="M344.321 54.4514C344.477 54.4884 344.647 54.4354 344.752 54.3014C345.916 52.8194 347.468 52.9384 347.484 52.9394C347.717 52.9604 347.922 52.7884 347.942 52.5554C347.962 52.3224 347.786 52.1174 347.558 52.0974C347.476 52.0904 345.531 51.9404 344.086 53.7784C343.942 53.9624 343.974 54.2274 344.158 54.3714C344.208 54.4114 344.264 54.4374 344.321 54.4514Z" fill="#263238"/>
<path d="M383.281 99.1631C385.1 102.337 386.625 105.415 388.196 108.587C389.743 111.745 391.191 114.953 392.553 118.214C393.911 121.476 395.214 124.775 396.353 128.171C397.529 131.543 398.563 135.014 399.404 138.597L400.012 141.33C400.276 142.618 400.385 143.94 400.352 145.227C400.293 147.814 399.632 150.208 398.757 152.291C396.972 156.479 394.341 159.577 391.645 162.287C388.904 164.966 385.982 167.222 382.95 169.223C381.443 170.236 379.877 171.139 378.309 172.02C376.721 172.907 375.184 173.705 373.434 174.482L370.109 168.668C371.315 167.713 372.65 166.639 373.889 165.59C375.145 164.53 376.343 163.408 377.535 162.31C379.89 160.081 382.111 157.77 383.965 155.362C385.83 152.989 387.32 150.451 387.99 148.219C388.327 147.103 388.416 146.096 388.351 145.251C388.317 144.826 388.24 144.433 388.116 144.053L387.443 141.809C385.539 135.746 382.999 129.626 380.238 123.598C378.871 120.575 377.413 117.575 375.952 114.576C374.507 111.597 372.927 108.564 371.457 105.726L383.281 99.1631Z" fill="#FF8B7B"/>
<path d="M381.443 92.3852C389.778 94.1952 395.582 115.946 395.582 115.946L380.665 129.479C380.665 129.479 373.378 121.821 369.638 111.452C365.719 100.587 372.515 90.4462 381.443 92.3852Z" fill="#263238"/>
<path d="M371.869 167.682L362.281 167.783L368.226 177.448C368.226 177.448 375.054 175.76 375.666 172.33L371.869 167.682Z" fill="#FF8B7B"/>
<path d="M356.309 173.487L361.604 181.25L368.23 177.448L362.285 167.783L356.309 173.487Z" fill="#FF8B7B"/>
<path d="M371.409 67.8902C370.295 70.0012 368.31 71.4012 366.427 71.9512C363.594 72.7772 362.144 70.2522 362.904 67.5602C363.588 65.1382 365.885 61.7892 368.742 62.1442C371.555 62.4932 372.682 65.4752 371.409 67.8902Z" fill="#FF8B7B"/>
<path d="M286.401 233.376L275.742 234.149L275.814 235.146L286.473 234.373L286.401 233.376Z" fill="#6720FF"/>
<path d="M295.985 232.686L290.75 233.065L290.822 234.063L296.058 233.683L295.985 232.686Z" fill="#6720FF"/>
<path d="M341.953 115.272L165.441 128.04C157.802 128.593 152.004 135.295 152.556 142.934L158.576 226.154C159.129 233.793 165.831 239.591 173.47 239.038L183.454 238.316C184.968 238.207 186.283 239.345 186.393 240.858L187.509 256.283C187.606 257.622 189.273 258.175 190.151 257.16L206.889 237.811C207.592 236.998 208.59 236.498 209.662 236.42L349.983 226.27C357.622 225.717 363.42 219.015 362.868 211.376L356.848 128.156C356.295 120.518 349.593 114.72 341.953 115.272Z" fill="#6720FF"/>
<path opacity="0.2" d="M165.441 128.04C157.802 128.592 152.004 135.295 152.556 142.934L158.576 226.154C159.129 233.793 165.831 239.591 173.47 239.039L174.939 238.933C179.961 238.57 184.113 234.879 185.062 229.934L205.167 125.168L165.441 128.04Z" fill="black"/>
<path d="M162.997 100.598C162.951 102.411 163.08 103.918 163.228 104.982C151.492 109.032 140.598 108.135 135.078 107.21C135.346 106.23 135.762 104.39 135.901 101.976C135.725 103.686 134.754 105.758 134.07 107.044C132.294 106.702 131.296 106.415 131.296 106.415C131.296 106.415 133.109 96.5659 129.835 89.4179C126.561 82.2599 128.189 78.2649 130.667 77.1269C135.272 62.9869 152.557 65.2249 158.411 70.9589C165.828 78.2369 165.874 98.7489 167.187 103.438C166.105 103.909 165.032 104.344 163.96 104.723C163.487 103.464 163.025 101.911 162.997 100.598Z" fill="#263238"/>
<path d="M170.149 122.613L171.053 125.459C171.377 126.439 171.713 127.423 172.063 128.405C172.735 130.38 173.432 132.358 174.178 134.324C174.934 136.286 175.649 138.269 176.433 140.23L177.588 143.182L177.879 143.92L177.946 144.088L177.955 144.115C177.959 144.144 177.96 144.144 177.953 144.141C177.953 144.141 177.753 143.961 177.533 143.886C177.312 143.809 177.219 143.875 177.357 143.88C177.479 143.892 177.75 143.859 178.066 143.768C178.709 143.592 179.514 143.208 180.309 142.765C181.935 141.872 183.565 140.656 185.19 139.419C186.811 138.163 188.401 136.808 189.957 135.403C191.542 134.035 193.088 132.562 194.602 131.145L197.671 133.739C196.393 135.576 195.035 137.259 193.639 138.971C192.211 140.644 190.726 142.282 189.144 143.874C187.557 145.472 185.856 146.977 183.863 148.388C182.842 149.077 181.763 149.745 180.384 150.289C179.691 150.556 178.917 150.797 177.971 150.907C177.045 151.016 175.851 150.972 174.647 150.459C173.433 149.968 172.432 149.011 171.849 148.115C171.695 147.888 171.555 147.66 171.447 147.445L171.178 146.914L170.82 146.181C170.343 145.204 169.86 144.228 169.406 143.238C168.493 141.262 167.584 139.278 166.758 137.255C165.92 135.237 165.116 133.199 164.351 131.135C163.984 130.098 163.628 129.052 163.283 127.996C162.928 126.92 162.621 125.919 162.305 124.694L170.149 122.613Z" fill="#FFC3BD"/>
<path d="M167.782 113.731C171.228 114.609 173.639 128.792 173.639 128.792L164.142 135.251C164.142 135.251 155.036 120.943 157.687 117.154C160.448 113.207 162.753 112.45 167.782 113.731Z" fill="#6720FF"/>
<path d="M167.782 113.731C171.228 114.609 173.639 128.792 173.639 128.792L164.142 135.251C164.142 135.251 155.036 120.943 157.687 117.154C160.448 113.207 162.753 112.45 167.782 113.731Z" fill="#6720FF"/>
<path opacity="0.4" d="M167.782 113.731C171.228 114.609 173.639 128.792 173.639 128.792L164.142 135.251C164.142 135.251 155.036 120.943 157.687 117.154C160.448 113.207 162.753 112.45 167.782 113.731Z" fill="#E8DCFF"/>
<path opacity="0.3" d="M167.472 116.898L170.119 131.194L164.781 134.814L167.472 116.898Z" fill="black"/>
<path d="M194.426 131.518L197.595 123.885L201.506 131.518C201.506 131.518 198.967 135.318 195.617 134.391L194.426 131.518Z" fill="#FFC3BD"/>
<path d="M201.088 123.088L206.11 125.113L201.505 131.518L197.594 123.884L201.088 123.088Z" fill="#FFC3BD"/>
<path d="M149.137 352.45H157.499L158.058 333.084H149.695L149.137 352.45Z" fill="#FFC3BD"/>
<path d="M93.0117 327.505L100.705 330.781L110.766 314.017L103.072 310.741L93.0117 327.505Z" fill="#FFC3BD"/>
<path d="M102.178 329.642L94.1737 324.723C93.8827 324.544 93.5217 324.601 93.3057 324.86L88.5017 330.632C88.0037 331.231 88.1867 332.2 88.8657 332.601C91.6857 334.268 93.1307 334.931 96.6507 337.094C98.8157 338.425 101.842 340.594 104.832 342.432C107.757 344.23 109.799 341.411 108.718 340.378C103.873 335.746 104.009 333.548 103.099 330.812C102.936 330.319 102.604 329.904 102.178 329.642Z" fill="#263238"/>
<path d="M157.785 351.481H148.39C148.048 351.481 147.771 351.718 147.723 352.052L146.653 359.485C146.542 360.256 147.205 360.986 147.994 360.972C151.269 360.916 152.848 360.723 156.979 360.723C159.521 360.723 164.778 360.987 168.288 360.987C171.721 360.987 171.985 357.516 170.523 357.202C163.97 355.792 161.391 353.849 159.183 351.995C158.785 351.661 158.285 351.481 157.785 351.481Z" fill="#263238"/>
<path opacity="0.2" d="M158.054 333.09L157.768 343.072H149.402L149.688 333.09H158.054Z" fill="black"/>
<path opacity="0.2" d="M103.068 310.745L110.765 314.022L105.576 322.662L97.8789 319.384L103.068 310.745Z" fill="black"/>
<path d="M167.783 113.731C167.783 113.731 171.767 115.134 163.787 164.202C150.31 164.202 136.382 164.202 129.825 164.202C130.395 150.38 130.411 141.856 123.805 113.489C123.805 113.489 130.921 111.941 138.227 111.589C143.942 111.314 148.625 111.131 153.649 111.59C160.271 112.193 167.783 113.731 167.783 113.731Z" fill="#6720FF"/>
<path opacity="0.4" d="M167.783 113.731C167.783 113.731 171.767 115.134 163.787 164.202C150.31 164.202 136.382 164.202 129.825 164.202C130.395 150.38 130.411 141.856 123.805 113.489C123.805 113.489 130.921 111.941 138.227 111.589C143.942 111.314 148.625 111.131 153.649 111.59C160.271 112.193 167.783 113.731 167.783 113.731Z" fill="#E8DCFF"/>
<path d="M138.224 111.584C143.939 111.316 148.619 111.131 153.649 111.593C154.481 111.667 155.332 111.76 156.174 111.861C156.738 112.832 157.164 114.136 156.636 115.468C155.554 118.159 151.651 118.473 148.803 118.473C138.288 118.473 136.513 112.332 136.438 112.074L136.336 111.704C136.966 111.658 137.595 111.612 138.224 111.584Z" fill="#E8DCFF"/>
<path d="M139.755 94.2227C140.728 99.1847 141.699 108.277 138.227 111.588C138.227 111.588 139.584 116.622 148.804 116.622C158.942 116.622 153.649 111.589 153.649 111.589C148.116 110.268 148.258 106.162 149.222 102.307L139.755 94.2227Z" fill="#FFC3BD"/>
<path d="M140.761 90.6914C139.572 94.6214 141.215 103.922 143.668 107.519C138.835 104.754 137.203 96.3094 137.203 96.3094L140.761 90.6914Z" fill="#263238"/>
<path opacity="0.2" d="M143.612 97.5225L149.215 102.303C148.984 103.216 148.804 104.141 148.739 105.04C146.625 104.735 143.721 102.414 143.497 100.201C143.386 99.0975 143.432 98.0365 143.612 97.5225Z" fill="black"/>
<path d="M135.172 85.3598C137.107 93.4298 137.754 96.8878 142.61 100.351C149.915 105.56 159.405 101.419 159.92 92.9328C160.384 85.2948 157.141 73.3799 148.585 71.5369C140.155 69.7209 133.236 77.2898 135.172 85.3598Z" fill="#FFC3BD"/>
<path d="M163.785 164.201C163.785 164.201 170.381 228.617 169.833 254.118C169.263 280.643 159.543 341.138 159.543 341.138H148.235C148.235 341.138 150.025 282.193 149.025 256.143C147.935 227.744 138.914 164.201 138.914 164.201H163.785Z" fill="#6720FF"/>
<path opacity="0.4" d="M163.785 164.201C163.785 164.201 170.381 228.617 169.833 254.118C169.263 280.643 159.543 341.138 159.543 341.138H148.235C148.235 341.138 150.025 282.193 149.025 256.143C147.935 227.744 138.914 164.201 138.914 164.201H163.785Z" fill="black"/>
<path d="M147.258 341.544H160.526L161.499 337.312L146.641 336.794L147.258 341.544Z" fill="#6720FF"/>
<path opacity="0.2" d="M149.135 180.229C157.477 197.01 150.81 227.621 147.86 239.01C146.347 221.905 143.797 200.997 141.809 185.642C143.073 176.955 145.288 172.492 149.135 180.229Z" fill="black"/>
<path d="M154.818 164.201C154.818 164.201 147.125 231.17 141.315 252.67C134.417 278.196 108.191 321.674 108.191 321.674L97.6992 317.207C97.6992 317.207 113.935 267.85 119.209 254.402C130.465 225.701 120.83 182.93 129.825 164.202L154.818 164.201Z" fill="#6720FF"/>
<path opacity="0.4" d="M154.818 164.201C154.818 164.201 147.125 231.17 141.315 252.67C134.417 278.196 108.191 321.674 108.191 321.674L97.6992 317.207C97.6992 317.207 113.935 267.85 119.209 254.402C130.465 225.701 120.83 182.93 129.825 164.202L154.818 164.201Z" fill="black"/>
<path d="M96.2539 317.241L109.27 322.783L112.398 319.281L97.3809 312.071L96.2539 317.241Z" fill="#6720FF"/>
<path d="M147.946 85.4652C148.063 86.1292 148.509 86.6062 148.944 86.5302C149.378 86.4542 149.636 85.8532 149.519 85.1892C149.402 84.5252 148.956 84.0482 148.521 84.1242C148.087 84.2012 147.829 84.8012 147.946 85.4652Z" fill="#263238"/>
<path d="M155.458 84.1458C155.575 84.8098 156.021 85.2868 156.456 85.2108C156.89 85.1348 157.148 84.5338 157.031 83.8698C156.914 83.2058 156.468 82.7288 156.033 82.8048C155.599 82.8808 155.341 83.4808 155.458 84.1458Z" fill="#263238"/>
<path d="M155.848 82.8748L157.363 82.1348C157.363 82.1348 156.763 83.5248 155.848 82.8748Z" fill="#263238"/>
<path d="M153.672 85.6357C153.672 85.6357 155.302 88.2977 156.785 89.4597C156.052 90.4327 154.495 90.3207 154.495 90.3207L153.672 85.6357Z" fill="#ED847E"/>
<path d="M151.488 93.4471C151.843 93.4481 152.22 93.4171 152.619 93.3471C152.727 93.3281 152.799 93.2251 152.78 93.1171C152.761 93.0101 152.661 92.9381 152.55 92.9561C149.637 93.4701 147.915 91.6721 147.898 91.6531C147.823 91.5731 147.698 91.5681 147.618 91.6431C147.538 91.7181 147.533 91.8431 147.608 91.9231C147.674 91.9951 149.059 93.4441 151.488 93.4471Z" fill="#263238"/>
<path d="M138.002 80.6252C138.169 83.0672 139.002 86.9582 139.002 86.9582C139.002 86.9582 144.007 80.6352 144.829 77.2442C144.315 79.9672 143.684 81.0952 143.684 81.0952C143.684 81.0952 150.414 79.6332 151.07 75.1902C151.006 78.8112 150.415 81.0952 150.415 81.0952C150.415 81.0952 156.835 78.5792 156.245 74.3152C155.655 70.0512 145.791 68.4072 141.27 69.8452C136.749 71.2842 132.281 75.9602 133.615 82.3812C134.949 88.8022 137.52 91.2132 137.52 91.2132C137.52 91.2132 135.639 84.7352 138.002 80.6252Z" fill="#263238"/>
<path d="M134.822 91.4424C135.469 93.0364 136.792 94.1834 138.103 94.7134C140.075 95.5094 141.296 93.8034 140.945 91.8184C140.629 90.0324 139.222 87.4654 137.148 87.5144C135.105 87.5624 134.082 89.6204 134.822 91.4424Z" fill="#FFC3BD"/>
<path d="M139.214 77.5518C138.212 81.5338 140.293 90.7468 142.913 94.2238C137.955 91.6898 135.926 83.3318 135.926 83.3318L139.214 77.5518Z" fill="#263238"/>
<path d="M145.262 83.19C145.362 83.16 145.45 83.09 145.501 82.989C146.293 81.41 147.738 81.228 147.755 81.226C147.969 81.2 148.128 81.005 148.104 80.787C148.079 80.57 147.883 80.414 147.665 80.438C147.589 80.447 145.775 80.673 144.792 82.633C144.694 82.828 144.773 83.066 144.969 83.165C145.064 83.212 145.168 83.219 145.262 83.19Z" fill="#263238"/>
<path d="M158.187 80.0915C158.285 80.0915 158.384 80.0556 158.461 79.9826C158.619 79.8316 158.625 79.5806 158.475 79.4226C156.964 77.8366 155.162 78.1495 155.085 78.1645C154.87 78.2045 154.728 78.4105 154.768 78.6265C154.808 78.8415 155.014 78.9826 155.229 78.9446C155.299 78.9316 156.7 78.7085 157.902 79.9705C157.979 80.0505 158.083 80.0915 158.187 80.0915Z" fill="#263238"/>
<path d="M127.925 125.36C126.537 129.753 125.211 134.366 124.082 138.9C122.997 143.455 122.021 148.046 121.592 152.527L121.509 153.368C121.491 153.64 121.481 153.702 121.481 153.935C121.485 154.345 121.515 154.83 121.585 155.348C121.702 156.378 121.901 157.49 122.134 158.606C122.613 160.842 123.185 163.139 123.817 165.423C124.42 167.72 125.075 170.022 125.762 172.317L127.794 179.224L124.077 180.75C121.798 176.389 119.819 171.946 117.968 167.369C117.08 165.067 116.208 162.748 115.49 160.302C115.128 159.076 114.787 157.83 114.519 156.474C114.387 155.801 114.28 155.083 114.217 154.287C114.185 153.917 114.179 153.374 114.186 153.043L114.221 152.075C114.287 149.483 114.564 146.965 114.92 144.472C115.252 141.973 115.744 139.53 116.265 137.096C117.324 132.216 118.604 127.51 120.254 122.728L127.925 125.36Z" fill="#FFC3BD"/>
<path d="M123.801 113.488C120.398 114.523 116.312 126.239 116.312 126.239L129.513 135.677C129.513 135.677 134.327 125.896 132.897 121.498C131.408 116.919 127.684 112.308 123.801 113.488Z" fill="#6720FF"/>
<path opacity="0.4" d="M123.801 113.488C120.398 114.523 116.312 126.239 116.312 126.239L129.513 135.677C129.513 135.677 134.327 125.896 132.897 121.498C131.408 116.919 127.684 112.308 123.801 113.488Z" fill="#E8DCFF"/>
<path d="M105.559 332.818C105.871 332.721 106.11 332.488 106.269 332.123C106.404 331.814 106.32 331.582 106.225 331.442C105.627 330.558 102.605 330.624 102.262 330.635C102.184 330.637 102.113 330.686 102.084 330.76C102.055 330.833 102.072 330.917 102.128 330.973C102.916 331.759 104.394 333.046 105.438 332.848C105.479 332.841 105.52 332.83 105.559 332.818ZM102.754 331.026C103.963 331.035 105.582 331.199 105.897 331.665C105.937 331.723 105.974 331.811 105.906 331.965C105.781 332.252 105.601 332.413 105.364 332.459C104.8 332.567 103.842 332.036 102.754 331.026Z" fill="#6720FF"/>
<path d="M103.643 330.786C104.564 330.5 105.541 329.992 105.752 329.421C105.816 329.248 105.864 328.912 105.473 328.601C105.225 328.404 104.938 328.332 104.62 328.387C103.429 328.597 102.154 330.642 102.1 330.729C102.063 330.789 102.061 330.864 102.094 330.926C102.127 330.988 102.191 331.028 102.262 331.03C102.598 331.043 103.111 330.952 103.643 330.786ZM104.566 328.808C104.608 328.795 104.649 328.785 104.69 328.778C104.894 328.743 105.07 328.786 105.227 328.911C105.426 329.07 105.414 329.193 105.381 329.283C105.178 329.833 103.66 330.491 102.651 330.615C103.083 329.994 103.879 329.022 104.566 328.808Z" fill="#6720FF"/>
<path d="M160.925 352.943C161.756 352.943 162.523 352.814 162.953 352.428C163.226 352.183 163.346 351.858 163.31 351.464C163.289 351.228 163.173 351.046 162.974 350.937C161.949 350.375 158.616 352.078 158.24 352.274C158.165 352.313 158.123 352.394 158.135 352.478C158.147 352.561 158.21 352.628 158.293 352.644C159.003 352.785 160.004 352.943 160.925 352.943ZM162.415 351.213C162.568 351.213 162.694 351.235 162.785 351.285C162.866 351.33 162.907 351.396 162.916 351.5C162.94 351.767 162.865 351.975 162.687 352.134C162.18 352.59 160.803 352.671 158.951 352.362C160.099 351.811 161.622 351.213 162.415 351.213Z" fill="#6720FF"/>
<path d="M158.332 352.649C158.36 352.649 158.388 352.642 158.413 352.63C159.41 352.18 161.381 350.376 161.227 349.429C161.19 349.205 161.032 348.926 160.483 348.87C160.074 348.832 159.708 348.944 159.386 349.212C158.335 350.088 158.142 352.338 158.134 352.434C158.128 352.504 158.16 352.572 158.217 352.612C158.252 352.635 158.292 352.649 158.332 352.649ZM160.324 349.258C160.364 349.258 160.403 349.261 160.444 349.265C160.806 349.302 160.829 349.445 160.837 349.492C160.93 350.061 159.592 351.479 158.576 352.095C158.673 351.44 158.952 350.089 159.641 349.516C159.848 349.343 160.073 349.258 160.324 349.258Z" fill="#6720FF"/>
<path d="M129.314 162.208L128.446 165.248C128.327 165.484 128.607 165.724 128.999 165.724H163.953C164.259 165.724 164.513 165.574 164.532 165.382L164.838 162.342C164.859 162.131 164.594 161.953 164.259 161.953H129.867C129.614 161.953 129.39 162.057 129.314 162.208Z" fill="#263238"/>
<path d="M133.936 166.054H133.015C132.831 166.054 132.692 165.96 132.704 165.844L133.136 161.894C133.149 161.778 133.309 161.684 133.492 161.684H134.413C134.596 161.684 134.736 161.779 134.724 161.894L134.292 165.844C134.279 165.959 134.119 166.054 133.936 166.054Z" fill="#6720FF"/>
<path opacity="0.4" d="M133.936 166.054H133.015C132.831 166.054 132.692 165.96 132.704 165.844L133.136 161.894C133.149 161.778 133.309 161.684 133.492 161.684H134.413C134.596 161.684 134.736 161.779 134.724 161.894L134.292 165.844C134.279 165.959 134.119 166.054 133.936 166.054Z" fill="black"/>
<path d="M161.366 166.054H160.445C160.261 166.054 160.122 165.96 160.134 165.844L160.566 161.894C160.579 161.778 160.739 161.684 160.923 161.684H161.844C162.027 161.684 162.167 161.779 162.155 161.894L161.723 165.844C161.71 165.959 161.549 166.054 161.366 166.054Z" fill="#6720FF"/>
<path opacity="0.4" d="M161.366 166.054H160.445C160.261 166.054 160.122 165.96 160.134 165.844L160.566 161.894C160.579 161.778 160.739 161.684 160.923 161.684H161.844C162.027 161.684 162.167 161.779 162.155 161.894L161.723 165.844C161.71 165.959 161.549 166.054 161.366 166.054Z" fill="black"/>
<path d="M147.651 166.054H146.73C146.546 166.054 146.407 165.96 146.419 165.844L146.851 161.894C146.864 161.778 147.024 161.684 147.208 161.684H148.129C148.312 161.684 148.452 161.779 148.44 161.894L148.008 165.844C147.995 165.959 147.835 166.054 147.651 166.054Z" fill="#6720FF"/>
<path opacity="0.4" d="M147.651 166.054H146.73C146.546 166.054 146.407 165.96 146.419 165.844L146.851 161.894C146.864 161.778 147.024 161.684 147.208 161.684H148.129C148.312 161.684 148.452 161.779 148.44 161.894L148.008 165.844C147.995 165.959 147.835 166.054 147.651 166.054Z" fill="black"/>
<path d="M148.34 84.1951L149.855 83.4551C149.855 83.4551 149.255 84.8451 148.34 84.1951Z" fill="#263238"/>
<path d="M127.51 178.094L134.678 183.593L126.372 185.416C126.372 185.416 122.834 181.377 124.058 178.123L127.51 178.094Z" fill="#FFC3BD"/>
<path d="M136.436 190.401L129.399 191.551L125.555 184.326L134.68 183.593L136.436 190.401Z" fill="#FFC3BD"/>
<path d="M203 151.662L212.156 151L212.665 158.03L211.918 172.281L206.256 172.691L203.509 158.693L203 151.662ZM205.001 174.94L213.547 174.322L214.094 181.878L205.548 182.496L205.001 174.94Z" fill="#E8DCFF"/>
<path d="M232.347 189.985C231.673 188.192 231.073 186.428 230.549 184.694C230.027 182.983 229.606 181.443 229.284 180.075C228.963 178.707 228.771 177.689 228.709 177.02C228.543 175.252 228.678 173.612 229.115 172.1C229.552 170.589 230.173 169.241 230.978 168.057C231.78 166.849 232.671 165.813 233.651 164.95C234.629 164.062 235.589 163.382 236.533 162.908C237.499 162.407 238.328 162.125 239.021 162.06C239.618 162.004 240.156 162.086 240.635 162.306C241.113 162.526 241.604 162.999 242.106 163.723C242.607 164.447 243.167 165.528 243.784 166.964C244.365 168.284 244.893 169.283 245.366 169.962C245.838 170.616 246.324 171.053 246.827 171.271C247.327 171.465 247.888 171.533 248.509 171.475C249.011 171.428 249.383 171.537 249.625 171.804C249.889 172.044 250.038 172.356 250.074 172.738C250.11 173.12 249.976 173.495 249.673 173.86C249.368 174.202 248.952 174.398 248.427 174.447C247.495 174.535 246.678 174.443 245.978 174.171C245.301 173.897 244.697 173.495 244.166 172.967L244.926 172.209C244.704 172.928 244.388 173.537 243.976 174.033C243.587 174.504 243.127 174.872 242.598 175.139C242.092 175.403 241.541 175.563 240.943 175.619C240.25 175.684 239.521 175.62 238.756 175.427C237.993 175.257 237.23 174.967 236.468 174.557C235.705 174.122 234.966 173.576 234.254 172.92C233.565 172.262 232.94 171.501 232.377 170.637L232.742 170.676C232.16 171.67 231.813 172.727 231.701 173.847C231.587 174.942 231.569 175.908 231.648 176.744C231.71 177.413 231.862 178.255 232.101 179.269C232.343 180.307 232.627 181.401 232.952 182.552C233.3 183.7 233.66 184.836 234.03 185.958C234.427 187.102 234.788 188.129 235.115 189.038L232.347 189.985ZM240.954 172.653C241.384 172.613 241.723 172.497 241.97 172.305C242.241 172.111 242.409 171.842 242.473 171.498C242.537 171.155 242.462 170.74 242.248 170.254C241.881 169.421 241.547 168.693 241.248 168.07C240.946 167.423 240.655 166.896 240.376 166.488C240.119 166.055 239.86 165.741 239.601 165.549C239.342 165.356 239.081 165.272 238.818 165.297C238.555 165.321 238.226 165.412 237.831 165.57C237.46 165.725 237.059 165.944 236.627 166.225C236.22 166.505 235.805 166.845 235.385 167.246C234.965 167.647 234.574 168.105 234.212 168.621L234.221 168.331C234.85 169.381 235.57 170.242 236.38 170.913C237.214 171.582 238.03 172.06 238.828 172.346C239.648 172.607 240.357 172.709 240.954 172.653ZM248.409 174.449L248.492 171.476C249.161 171.414 249.709 171.218 250.137 170.888C250.564 170.559 250.961 170.04 251.328 169.33C251.696 168.621 252.078 167.681 252.474 166.511C253.024 164.917 253.596 163.694 254.191 162.842C254.81 161.989 255.441 161.387 256.083 161.038C256.749 160.686 257.416 160.479 258.085 160.416C258.898 160.34 259.671 160.485 260.404 160.85C261.135 161.191 261.796 161.683 262.387 162.327C262.977 162.971 263.455 163.697 263.82 164.507C264.207 165.29 264.439 166.088 264.515 166.9C264.649 168.334 264.506 169.504 264.085 170.412C263.662 171.295 263.074 171.965 262.321 172.421C261.59 172.851 260.806 173.106 259.97 173.184C259.229 173.254 258.26 173.2 257.062 173.023C255.888 172.844 254.362 172.252 252.484 171.247L253.67 168.857C254.911 169.488 256.01 169.903 256.969 170.103C257.949 170.276 258.75 170.333 259.372 170.275C260.065 170.21 260.605 170.063 260.993 169.834C261.38 169.581 261.65 169.254 261.806 168.854C261.961 168.453 262.016 168.014 261.971 167.537C261.906 166.844 261.674 166.166 261.274 165.505C260.875 164.843 260.391 164.31 259.823 163.905C259.278 163.498 258.719 163.322 258.146 163.376C257.716 163.416 257.309 163.575 256.925 163.852C256.541 164.129 256.165 164.61 255.795 165.295C255.425 165.981 255.023 166.959 254.588 168.229C254.135 169.573 253.682 170.652 253.228 171.466C252.796 172.254 252.333 172.852 251.841 173.259C251.349 173.667 250.821 173.946 250.256 174.095C249.718 174.266 249.102 174.384 248.409 174.449ZM288.711 170.669C287.277 170.804 286.083 170.795 285.129 170.644C284.198 170.49 283.447 170.187 282.874 169.734C282.325 169.28 281.907 168.68 281.62 167.936C281.355 167.165 281.148 166.244 281 165.173L278.444 145.635L281.383 145.359L283.831 163.751C283.989 164.917 284.182 165.815 284.409 166.445C284.659 167.048 285.105 167.44 285.749 167.621C286.417 167.799 287.431 167.824 288.793 167.697C289.295 167.65 289.667 167.759 289.909 168.026C290.173 168.266 290.322 168.578 290.358 168.96C290.394 169.342 290.26 169.717 289.957 170.082C289.652 170.424 289.236 170.62 288.711 170.669ZM272.331 172.206C271.685 172.266 271.023 172.268 270.342 172.211C269.688 172.176 269.228 172.147 268.96 172.124L269.089 169.255C270.758 169.316 272.314 169.206 273.759 168.926C275.203 168.646 276.431 168.121 277.444 167.351C278.478 166.555 279.241 165.435 279.732 163.991C280.223 162.546 280.365 160.713 280.156 158.491L282.28 162.631C282.134 164.163 281.823 165.47 281.346 166.551C280.867 167.608 280.275 168.496 279.571 169.212C278.888 169.903 278.133 170.456 277.304 170.871C276.475 171.287 275.636 171.594 274.787 171.794C273.938 171.995 273.119 172.132 272.331 172.206ZM279.648 166.566C279.196 165.861 278.578 165.051 277.793 164.136C277.006 163.198 276.068 162.189 274.978 161.11C273.889 160.031 272.663 158.916 271.302 157.767C269.964 156.614 268.518 155.46 266.964 154.305L268.707 152.08C270.426 153.437 271.956 154.716 273.298 155.916C274.661 157.09 275.863 158.207 276.902 159.266C277.94 160.302 278.836 161.254 279.593 162.123C280.349 162.993 280.99 163.788 281.516 164.51L279.648 166.566ZM288.698 170.671L288.78 167.698C289.545 167.626 290.162 167.52 290.631 167.38C291.097 167.215 291.466 166.904 291.736 166.444C292.028 165.959 292.273 165.225 292.47 164.242C292.667 163.26 292.876 161.89 293.097 160.134L295.856 160.634C295.798 161.05 295.734 161.526 295.664 162.063C295.592 162.576 295.534 163.111 295.489 163.67C295.443 164.205 295.441 164.699 295.484 165.153C295.54 165.75 295.811 166.195 296.296 166.487C296.781 166.779 297.621 166.869 298.816 166.757C299.533 166.689 300.113 166.575 300.556 166.413C300.999 166.251 301.342 165.929 301.586 165.448C301.854 164.965 302.061 164.211 302.206 163.185C302.35 162.159 302.472 160.761 302.572 158.992L305.343 159.238C305.311 159.675 305.277 160.209 305.24 160.839C305.202 161.469 305.165 162.1 305.128 162.73C305.112 163.334 305.123 163.839 305.161 164.245C305.193 164.58 305.295 164.896 305.467 165.193C305.661 165.464 305.993 165.662 306.463 165.786C306.957 165.909 307.669 165.926 308.601 165.839C309.294 165.774 309.884 165.634 310.37 165.42C310.88 165.203 311.245 164.856 311.465 164.377C311.709 163.896 311.793 163.25 311.717 162.437C311.632 161.529 311.311 160.414 310.753 159.093C310.217 157.745 309.622 156.415 308.968 155.102L311.771 153.754C312.153 154.49 312.522 155.335 312.876 156.29C313.255 157.243 313.585 158.188 313.866 159.126C314.146 160.064 314.32 160.891 314.388 161.608C314.491 162.707 314.438 163.689 314.23 164.552C314.021 165.415 313.68 166.146 313.206 166.745C312.73 167.32 312.123 167.787 311.385 168.145C310.645 168.48 309.797 168.692 308.841 168.781C307.718 168.887 306.786 168.842 306.044 168.646C305.303 168.45 304.716 168.108 304.285 167.618C303.851 167.104 303.535 166.435 303.337 165.61L304.556 165.495C304.198 166.565 303.793 167.387 303.34 167.96C302.888 168.532 302.3 168.949 301.577 169.21C300.852 169.446 299.88 169.622 298.662 169.736C298.064 169.792 297.41 169.757 296.699 169.631C296.012 169.503 295.392 169.187 294.839 168.685C294.283 168.158 293.905 167.338 293.704 166.224L294.759 165.908C294.467 167.165 294.051 168.12 293.509 168.773C292.99 169.4 292.333 169.848 291.538 170.115C290.744 170.382 289.797 170.568 288.698 170.671Z" fill="#E8DCFF"/>
<path d="M212.884 205.242L213.291 205.201L213.347 205.766L212.94 205.807L212.884 205.242ZM210.414 209.782L212.255 204.665L213.793 204.511L216.61 209.163L215.276 209.297L213.053 205.567L213.189 205.554L211.771 209.647L210.414 209.782ZM223.514 209.227L223.639 210.471L218.573 210.977L218.449 209.733L223.514 209.227ZM227.669 203.764L228.076 203.724L228.133 204.289L227.726 204.33L227.669 203.764ZM225.199 208.305L227.041 203.188L228.578 203.034L231.396 207.686L230.062 207.819L227.839 204.09L227.975 204.076L226.556 208.17L225.199 208.305ZM237.619 213.476C237.593 213.221 237.587 212.948 237.601 212.657C237.625 212.355 237.668 212.034 237.73 211.696C237.802 211.346 237.894 210.977 238.006 210.591L239.197 210.922C239.12 211.23 239.053 211.521 238.994 211.795C238.946 212.067 238.913 212.323 238.894 212.56C238.885 212.797 238.892 213.022 238.913 213.234C238.957 213.68 239.091 214.047 239.312 214.336C239.546 214.634 239.848 214.866 240.218 215.033C240.589 215.2 241.002 215.308 241.457 215.359C241.923 215.409 242.41 215.409 242.92 215.358C243.536 215.296 244.103 215.186 244.623 215.027C245.154 214.867 245.611 214.666 245.994 214.424C246.389 214.191 246.691 213.936 246.899 213.658C247.108 213.391 247.198 213.114 247.169 212.827C247.156 212.689 247.09 212.567 246.972 212.461C246.854 212.355 246.684 212.259 246.461 212.174C246.238 212.089 245.973 212.014 245.667 211.948C245.359 211.872 245.009 211.799 244.616 211.731L244.786 210.38C245.359 210.537 245.866 210.669 246.305 210.775C246.743 210.87 247.126 210.945 247.453 210.998C247.78 211.051 248.062 211.087 248.3 211.106C248.537 211.115 248.735 211.111 248.894 211.095C249.117 211.073 249.282 211.121 249.39 211.238C249.508 211.344 249.576 211.482 249.593 211.652C249.61 211.822 249.551 211.989 249.417 212.152C249.283 212.305 249.098 212.393 248.865 212.416C248.801 212.423 248.738 212.429 248.674 212.436C248.61 212.442 248.541 212.449 248.467 212.456C248.403 212.463 248.34 212.469 248.276 212.475C248.307 212.569 248.33 212.641 248.346 212.693C248.363 212.756 248.376 212.835 248.386 212.931C248.425 213.323 248.325 213.719 248.086 214.118C247.858 214.516 247.499 214.89 247.008 215.239C246.519 215.599 245.912 215.906 245.187 216.161C244.473 216.414 243.643 216.588 242.699 216.683C241.86 216.766 241.066 216.706 240.317 216.502C239.579 216.308 238.966 215.962 238.477 215.464C237.987 214.966 237.701 214.304 237.619 213.476ZM248.87 212.416L248.899 211.094C249.525 211.032 250.011 210.962 250.357 210.884C250.702 210.796 250.94 210.649 251.069 210.444C251.197 210.227 251.24 209.906 251.198 209.482C251.172 209.217 251.098 208.908 250.977 208.555C250.855 208.192 250.704 207.811 250.525 207.411C250.345 207.01 250.156 206.617 249.957 206.229L251.198 205.623C251.37 205.949 251.536 206.323 251.697 206.747C251.867 207.169 252.017 207.589 252.144 208.005C252.271 208.421 252.351 208.788 252.383 209.106C252.436 209.637 252.406 210.096 252.295 210.482C252.194 210.867 252.001 211.192 251.717 211.456C251.432 211.72 251.051 211.93 250.574 212.085C250.107 212.239 249.539 212.349 248.87 212.416ZM252.116 215.131C251.893 215.153 251.694 215.092 251.519 214.949C251.356 214.815 251.263 214.642 251.242 214.43C251.221 214.218 251.277 214.025 251.409 213.851C251.553 213.675 251.736 213.577 251.959 213.555C252.171 213.533 252.359 213.595 252.524 213.739C252.699 213.883 252.797 214.06 252.818 214.273C252.84 214.485 252.778 214.673 252.634 214.838C252.501 215.012 252.328 215.109 252.116 215.131ZM249.935 215.349C249.712 215.371 249.513 215.31 249.338 215.167C249.175 215.033 249.082 214.86 249.061 214.648C249.04 214.436 249.096 214.243 249.228 214.068C249.372 213.893 249.555 213.795 249.778 213.772C249.99 213.751 250.178 213.813 250.343 213.957C250.518 214.1 250.616 214.278 250.637 214.491C250.658 214.703 250.597 214.891 250.452 215.056C250.32 215.23 250.147 215.327 249.935 215.349ZM256.92 210.293C257.451 210.24 257.865 210.145 258.162 210.008C258.47 209.87 258.683 209.694 258.801 209.478C258.928 209.251 258.978 208.999 258.95 208.724C258.929 208.511 258.845 208.262 258.699 207.977C258.563 207.69 258.382 207.376 258.154 207.034C257.926 206.682 257.665 206.317 257.37 205.939C257.084 205.549 256.777 205.157 256.448 204.761L257.475 203.934C257.951 204.519 258.372 205.078 258.736 205.609C259.099 206.131 259.411 206.625 259.672 207.092C259.932 207.548 260.147 207.982 260.316 208.394C260.512 208.846 260.711 209.175 260.913 209.38C261.127 209.583 261.337 209.707 261.545 209.751C261.752 209.784 261.941 209.792 262.11 209.775C262.333 209.752 262.504 209.8 262.623 209.916C262.741 210.022 262.808 210.16 262.825 210.33C262.842 210.5 262.784 210.667 262.65 210.83C262.515 210.983 262.331 211.071 262.098 211.094C261.747 211.129 261.396 211.1 261.044 211.007C260.701 210.902 260.393 210.713 260.119 210.44C259.844 210.156 259.633 209.765 259.487 209.265L260.073 208.692C260.115 209.116 260.066 209.539 259.926 209.961C259.785 210.371 259.488 210.728 259.036 211.03C258.595 211.332 257.933 211.527 257.052 211.615C256.67 211.653 256.296 211.658 255.928 211.63C255.572 211.602 255.239 211.544 254.93 211.457C254.62 211.359 254.345 211.236 254.105 211.089L254.633 209.927C254.859 210.043 255.169 210.146 255.564 210.236C255.959 210.325 256.411 210.344 256.92 210.293ZM262.101 211.094L262.13 209.773C262.427 209.743 262.67 209.654 262.859 209.507C263.048 209.359 263.223 209.127 263.385 208.811C263.546 208.495 263.713 208.076 263.886 207.555C264.126 206.845 264.377 206.3 264.639 205.92C264.912 205.539 265.191 205.27 265.475 205.113C265.77 204.955 266.067 204.861 266.364 204.831C266.725 204.795 267.068 204.857 267.395 205.018C267.721 205.167 268.016 205.384 268.28 205.669C268.545 205.953 268.759 206.275 268.924 206.634C269.098 206.981 269.203 207.335 269.239 207.696C269.302 208.332 269.242 208.853 269.057 209.257C268.871 209.651 268.612 209.95 268.278 210.155C267.955 210.348 267.607 210.464 267.236 210.501C266.907 210.534 266.476 210.512 265.943 210.437C265.421 210.36 264.741 210.101 263.904 209.66L264.424 208.595C264.977 208.872 265.467 209.053 265.894 209.139C266.33 209.214 266.686 209.237 266.962 209.209C267.27 209.179 267.51 209.112 267.682 209.009C267.852 208.895 267.972 208.749 268.04 208.571C268.108 208.393 268.131 208.198 268.11 207.985C268.079 207.677 267.974 207.377 267.795 207.084C267.615 206.791 267.399 206.556 267.145 206.377C266.902 206.198 266.653 206.121 266.399 206.146C266.208 206.165 266.027 206.237 265.857 206.361C265.687 206.485 265.521 206.7 265.359 207.006C265.197 207.312 265.02 207.747 264.83 208.313C264.633 208.912 264.434 209.392 264.235 209.755C264.045 210.107 263.841 210.374 263.623 210.556C263.406 210.739 263.172 210.864 262.921 210.932C262.682 211.009 262.409 211.063 262.101 211.094ZM271.747 213.748L271.33 212.471C271.958 212.323 272.53 212.142 273.045 211.93C273.571 211.728 274.011 211.464 274.365 211.139C274.729 210.813 274.994 210.406 275.159 209.918C275.325 209.43 275.373 208.835 275.303 208.135C275.27 207.806 275.207 207.496 275.113 207.205C275.019 206.904 274.896 206.643 274.746 206.422C274.595 206.201 274.422 206.031 274.228 205.911C274.045 205.79 273.841 205.74 273.619 205.763C273.374 205.787 273.161 205.905 272.978 206.116C272.805 206.316 272.675 206.564 272.587 206.863C272.509 207.16 272.485 207.452 272.513 207.738C272.536 207.961 272.598 208.153 272.7 208.315C272.811 208.464 272.977 208.571 273.198 208.635C273.419 208.698 273.699 208.713 274.039 208.679C274.346 208.649 274.651 208.586 274.952 208.492C275.264 208.396 275.527 208.284 275.739 208.156L275.914 209.264C275.677 209.47 275.387 209.627 275.045 209.737C274.712 209.845 274.371 209.916 274.021 209.951C273.618 209.992 273.252 209.985 272.926 209.932C272.609 209.878 272.332 209.782 272.093 209.646C271.864 209.497 271.678 209.301 271.536 209.058C271.404 208.814 271.321 208.522 271.288 208.182C271.247 207.779 271.271 207.369 271.358 206.953C271.444 206.527 271.586 206.132 271.786 205.769C271.986 205.406 272.24 205.107 272.549 204.873C272.857 204.627 273.212 204.485 273.615 204.444C274.04 204.402 274.423 204.476 274.763 204.667C275.103 204.848 275.397 205.113 275.647 205.464C275.896 205.814 276.097 206.217 276.25 206.674C276.403 207.13 276.504 207.608 276.554 208.106C276.653 209.094 276.536 209.963 276.204 210.714C275.883 211.475 275.346 212.108 274.592 212.612C273.849 213.115 272.901 213.494 271.747 213.748ZM279.043 209.321L277.589 197.985L278.879 197.857L280.333 209.192L279.043 209.321ZM291.202 211.837C290.597 211.897 290.016 211.87 289.457 211.754C288.9 211.649 288.393 211.458 287.937 211.182C287.491 210.905 287.123 210.55 286.834 210.118C286.556 209.696 286.388 209.193 286.329 208.609C286.304 208.354 286.298 208.082 286.312 207.791C286.335 207.488 286.378 207.168 286.441 206.829C286.513 206.479 286.605 206.111 286.716 205.724L287.907 206.056C287.831 206.363 287.763 206.654 287.705 206.928C287.657 207.201 287.624 207.456 287.605 207.694C287.596 207.931 287.602 208.155 287.624 208.367C287.678 208.909 287.867 209.351 288.19 209.694C288.525 210.035 288.945 210.272 289.451 210.404C289.969 210.545 290.525 210.586 291.12 210.526C291.841 210.454 292.438 210.309 292.909 210.09C293.381 209.882 293.747 209.626 294.006 209.322C294.266 209.028 294.438 208.71 294.522 208.37C294.616 208.028 294.647 207.687 294.613 207.347C294.566 206.88 294.485 206.444 294.369 206.037C294.264 205.63 294.134 205.235 293.978 204.854C293.831 204.461 293.674 204.064 293.505 203.663L294.76 203.184C294.917 203.576 295.04 203.896 295.129 204.144C295.217 204.382 295.284 204.574 295.331 204.719C295.388 204.863 295.439 204.992 295.482 205.106C295.638 205.487 295.8 205.766 295.968 205.942C296.145 206.106 296.338 206.21 296.546 206.254C296.763 206.286 297.005 206.288 297.27 206.262C297.482 206.241 297.665 206.196 297.819 206.127C297.984 206.057 298.125 205.914 298.243 205.698C298.371 205.482 298.466 205.145 298.528 204.689C298.6 204.232 298.645 203.611 298.663 202.826L299.896 202.928C299.883 203.123 299.869 203.36 299.854 203.64C299.839 203.92 299.824 204.2 299.81 204.481C299.804 204.749 299.811 204.974 299.829 205.154C299.843 205.303 299.89 205.443 299.967 205.574C300.054 205.694 300.202 205.781 300.411 205.835C300.631 205.889 300.948 205.894 301.362 205.853C301.691 205.82 301.97 205.771 302.199 205.705C302.438 205.628 302.611 205.487 302.72 205.283C302.838 205.068 302.875 204.748 302.833 204.323C302.806 204.058 302.733 203.749 302.612 203.397C302.49 203.034 302.339 202.652 302.16 202.252C301.98 201.852 301.791 201.458 301.591 201.071L302.833 200.464C303.005 200.79 303.171 201.165 303.331 201.588C303.502 202.011 303.651 202.43 303.779 202.846C303.906 203.262 303.986 203.629 304.017 203.948C304.071 204.489 304.043 204.953 303.931 205.339C303.83 205.724 303.664 206.046 303.433 206.305C303.202 206.564 302.916 206.764 302.576 206.906C302.246 207.035 301.88 207.12 301.476 207.16C301.105 207.197 300.778 207.198 300.495 207.162C300.224 207.125 299.986 207.052 299.782 206.944C299.588 206.824 299.428 206.668 299.301 206.477C299.185 206.274 299.091 206.037 299.021 205.765L299.563 205.711C299.431 206.11 299.271 206.442 299.083 206.708C298.894 206.963 298.657 207.163 298.372 207.31C298.096 207.444 297.745 207.533 297.321 207.575C296.992 207.608 296.706 207.594 296.464 207.532C296.221 207.46 296.013 207.363 295.84 207.241C295.677 207.107 295.544 206.954 295.441 206.782C295.337 206.6 295.254 206.415 295.192 206.228L295.926 206.975C295.924 207.49 295.858 208.011 295.729 208.538C295.61 209.065 295.381 209.559 295.041 210.022C294.713 210.494 294.238 210.89 293.616 211.21C292.994 211.529 292.189 211.738 291.202 211.837ZM298.102 198.653C297.879 198.676 297.68 198.621 297.506 198.488C297.342 198.344 297.249 198.165 297.228 197.953C297.207 197.741 297.262 197.547 297.395 197.373C297.538 197.198 297.721 197.1 297.944 197.077C298.157 197.056 298.345 197.118 298.509 197.262C298.685 197.405 298.783 197.583 298.804 197.795C298.825 198.008 298.764 198.201 298.621 198.377C298.487 198.54 298.314 198.632 298.102 198.653ZM297.194 200.513C296.971 200.535 296.773 200.48 296.599 200.347C296.434 200.203 296.341 200.025 296.32 199.812C296.299 199.6 296.355 199.407 296.487 199.233C296.631 199.058 296.814 198.959 297.037 198.937C297.249 198.916 297.437 198.977 297.602 199.122C297.777 199.265 297.875 199.443 297.896 199.655C297.918 199.867 297.856 200.061 297.713 200.236C297.579 200.399 297.406 200.492 297.194 200.513ZM299.359 200.297C299.136 200.319 298.938 200.264 298.764 200.131C298.599 199.987 298.507 199.808 298.485 199.596C298.464 199.384 298.52 199.191 298.653 199.017C298.796 198.841 298.979 198.743 299.202 198.72C299.414 198.699 299.603 198.761 299.767 198.905C299.942 199.048 300.04 199.226 300.062 199.439C300.083 199.651 300.022 199.845 299.878 200.02C299.745 200.183 299.572 200.275 299.359 200.297ZM306.387 210.287L305.97 209.011C306.598 208.862 307.17 208.682 307.685 208.469C308.211 208.267 308.651 208.003 309.005 207.678C309.369 207.353 309.634 206.945 309.799 206.457C309.965 205.969 310.013 205.375 309.943 204.674C309.871 203.952 309.678 203.366 309.365 202.915C309.052 202.464 308.683 202.259 308.259 202.302C308.036 202.324 307.837 202.43 307.663 202.619C307.489 202.808 307.353 203.052 307.254 203.351C307.166 203.649 307.139 203.968 307.173 204.308C307.192 204.499 307.25 204.654 307.348 204.773C307.444 204.881 307.576 204.964 307.742 205.023C307.919 205.069 308.136 205.096 308.394 205.102C308.652 205.109 308.95 205.095 309.29 205.061L312.649 204.725C312.872 204.703 313.038 204.751 313.146 204.869C313.264 204.975 313.331 205.113 313.348 205.283C313.365 205.452 313.307 205.619 313.173 205.783C313.038 205.935 312.854 206.023 312.62 206.047L308.815 206.427C308.338 206.475 307.885 206.45 307.457 206.354C307.04 206.256 306.69 206.076 306.407 205.815C306.133 205.543 305.972 205.167 305.924 204.69C305.88 204.244 305.906 203.813 306.004 203.395C306.101 202.968 306.25 202.583 306.452 202.241C306.663 201.888 306.918 201.6 307.217 201.377C307.527 201.153 307.873 201.022 308.255 200.984C308.744 200.935 309.193 201.035 309.604 201.283C310.015 201.531 310.361 201.936 310.642 202.498C310.922 203.049 311.106 203.765 311.194 204.646C311.293 205.633 311.176 206.502 310.844 207.253C310.523 208.014 309.986 208.647 309.232 209.151C308.489 209.654 307.541 210.033 306.387 210.287ZM312.615 206.047L312.628 204.727C313.18 204.672 313.717 204.576 314.239 204.438C314.762 204.3 315.269 204.126 315.763 203.916C316.257 203.706 316.726 203.466 317.171 203.196C317.625 202.915 318.049 202.605 318.444 202.265C318.144 202.049 317.804 201.868 317.425 201.724C317.046 201.579 316.635 201.481 316.19 201.429C315.755 201.365 315.298 201.357 314.821 201.405C314.651 201.422 314.492 201.443 314.345 201.469C314.197 201.494 314.051 201.53 313.905 201.577C313.759 201.613 313.592 201.662 313.405 201.723L313.03 200.539C313.308 200.425 313.588 200.333 313.87 200.262C314.152 200.18 314.425 200.126 314.69 200.1C315.242 200.044 315.748 200.064 316.208 200.157C316.666 200.24 317.085 200.359 317.465 200.514C317.856 200.668 318.22 200.824 318.557 200.984C318.906 201.142 319.24 201.274 319.562 201.382C319.882 201.478 320.207 201.51 320.536 201.477L320.871 201.444L321.097 202.579C320.64 202.625 320.227 202.73 319.858 202.896C319.489 203.061 319.128 203.263 318.777 203.502C318.435 203.729 318.074 203.974 317.693 204.238C317.31 204.49 316.885 204.742 316.417 204.992C315.948 205.232 315.402 205.447 314.777 205.638C314.164 205.828 313.443 205.965 312.615 206.047ZM314.542 198.458C314.32 198.48 314.121 198.425 313.947 198.292C313.783 198.148 313.69 197.97 313.668 197.758C313.647 197.545 313.703 197.352 313.836 197.178C313.979 197.003 314.162 196.904 314.385 196.882C314.597 196.861 314.786 196.922 314.95 197.067C315.125 197.21 315.223 197.388 315.245 197.6C315.266 197.812 315.205 198.006 315.061 198.181C314.928 198.345 314.755 198.437 314.542 198.458Z" fill="#E8DCFF"/>
</g>
<defs>
<clipPath id="clip0_147_528">
<rect width="500" height="374" fill="white"/>
</clipPath>
</defs>
</svg>
