<svg width="61" height="61" viewBox="0 0 61 61" fill="none" xmlns="http://www.w3.org/2000/svg">
<path d="M36.6111 42.7222H48.2222C51.6448 42.7222 53.3562 42.7222 54.6633 42.0561C55.8131 41.4704 56.7481 40.5354 57.3339 39.3856C58 38.0784 58 36.367 58 32.9444V12.7778C58 9.35525 58 7.64396 57.3339 6.33673C56.7481 5.18683 55.8131 4.25195 54.6633 3.66608C53.3562 3 51.6448 3 48.2222 3H21.9444C18.5219 3 16.8106 3 15.5034 3.66608C14.3535 4.25195 13.4186 5.18683 12.8327 6.33673C12.2075 7.56375 12.1692 9.14671 12.1668 12.1667M48.8333 12.1667L33.5556 27.4444L24.3889 18.2778M48.8333 12.1667V21.3333M48.8333 12.1667H39.6667M21.3333 30.5C21.3333 33.8752 18.5973 36.6111 15.2222 36.6111C11.8471 36.6111 9.11111 33.8752 9.11111 30.5C9.11111 27.1248 11.8471 24.3889 15.2222 24.3889C18.5973 24.3889 21.3333 27.1248 21.3333 30.5ZM15.2222 45.7778C18.0638 45.7778 19.4846 45.7778 20.6503 46.0901C23.8136 46.9377 26.2846 49.4087 27.1322 52.5718C27.4444 53.7375 27.4444 55.1583 27.4444 58H3C3 55.1583 3 53.7375 3.31234 52.5718C4.15995 49.4087 6.63082 46.9377 9.79415 46.0901C10.9598 45.7778 12.3806 45.7778 15.2222 45.7778Z" stroke="#3F40EA" stroke-width="6" stroke-linecap="round" stroke-linejoin="round"/>
</svg>
