<svg width="61" height="61" viewBox="0 0 61 61" fill="none" xmlns="http://www.w3.org/2000/svg">
<path d="M38.5882 51.125L45.0588 58L58 44.25M25.6471 58H13.3529C9.72909 58 7.91713 58 6.53301 57.2506C5.31547 56.5917 4.3256 55.5398 3.70526 54.2463C3 52.7757 3 50.8503 3 47V14C3 10.1497 3 8.22445 3.70526 6.75382C4.3256 5.46018 5.31547 4.40845 6.53301 3.74934C7.91713 3 9.72909 3 13.3529 3H44.4118C48.0356 3 49.8477 3 51.2318 3.74934C52.4492 4.40845 53.4392 5.46018 54.0594 6.75382C54.7647 8.22445 54.7647 10.1497 54.7647 14V30.5M12.7059 58C12.7059 56.8227 12.8173 55.6732 13.0295 54.5625C14.5283 46.7174 21.0563 40.8125 28.8824 40.8125M35.3529 23.625C35.3529 27.4221 32.4561 30.5 28.8824 30.5C25.3086 30.5 22.4118 27.4221 22.4118 23.625C22.4118 19.828 25.3086 16.75 28.8824 16.75C32.4561 16.75 35.3529 19.828 35.3529 23.625Z" stroke="#3F40EA" stroke-width="6" stroke-linecap="round" stroke-linejoin="round"/>
</svg>
