<svg width="56" height="61" viewBox="0 0 56 61" fill="none" xmlns="http://www.w3.org/2000/svg">
<path d="M3 58C3 47.2246 11.1491 38.3103 21.75 36.8278M52.6019 40.2894C52.3888 40.3019 52.1741 40.3083 51.9584 40.3083C48.7569 40.3083 45.8366 38.9101 43.625 36.6111C41.4134 38.9101 38.4931 40.308 35.2916 40.308C35.0759 40.308 34.8613 40.3016 34.6481 40.2891C34.3881 41.4551 34.25 42.6779 34.25 43.938C34.25 50.7036 38.2337 56.3882 43.625 58C49.0163 56.3882 53 50.7036 53 43.938C53 42.6779 52.8619 41.4551 52.6019 40.2894ZM37.375 15.2222C37.375 21.9724 31.7784 27.4444 24.875 27.4444C17.9714 27.4444 12.375 21.9724 12.375 15.2222C12.375 8.47207 17.9714 3 24.875 3C31.7784 3 37.375 8.47207 37.375 15.2222Z" stroke="#3F40EA" stroke-width="6" stroke-linecap="round" stroke-linejoin="round"/>
</svg>
