<svg width="16" height="15" viewBox="0 0 16 15" fill="none" xmlns="http://www.w3.org/2000/svg">
<path d="M7.41472 1.87643C7.59403 1.36939 7.68364 1.11587 7.81624 1.04561C7.93094 0.984796 8.06904 0.984796 8.18383 1.04561C8.31635 1.11587 8.40596 1.36939 8.58527 1.87643L9.77052 5.22849C9.82157 5.3728 9.84705 5.44496 9.89305 5.49869C9.93364 5.54616 9.98546 5.58315 10.0439 5.60645C10.1101 5.63284 10.1878 5.63439 10.3431 5.6375L13.9523 5.70981C14.4982 5.72074 14.7712 5.72622 14.8802 5.82844C14.9744 5.91691 15.0171 6.04606 14.9937 6.17212C14.9668 6.31778 14.7492 6.47989 14.3141 6.80425L11.4374 8.94818C11.3135 9.04054 11.2517 9.08668 11.2139 9.14622C11.1805 9.19891 11.1607 9.25876 11.1562 9.32059C11.1512 9.39064 11.1737 9.46374 11.2187 9.61L12.264 13.0068C12.4221 13.5206 12.5012 13.7775 12.436 13.9109C12.3795 14.0264 12.2678 14.1062 12.1386 14.1233C11.9893 14.143 11.7652 13.9898 11.317 13.6831L8.35391 11.6562C8.22635 11.5689 8.16261 11.5253 8.09329 11.5083C8.03202 11.4934 7.96797 11.4934 7.90678 11.5083C7.83746 11.5253 7.77364 11.5689 7.64607 11.6562L4.683 13.6831C4.2348 13.9898 4.0107 14.143 3.86145 14.1233C3.73228 14.1062 3.62051 14.0264 3.56406 13.9109C3.49883 13.7775 3.57789 13.5206 3.73601 13.0068L4.78135 9.61C4.82635 9.46374 4.84885 9.39064 4.84379 9.32059C4.83931 9.25876 4.81953 9.19891 4.78615 9.14622C4.74838 9.08668 4.68646 9.04054 4.56262 8.94818L1.68599 6.80425C1.25086 6.47989 1.0333 6.31778 1.00629 6.17212C0.982906 6.04606 1.0256 5.91691 1.11988 5.82844C1.22881 5.72622 1.50178 5.72075 2.0477 5.70981L5.65685 5.6375C5.81222 5.63439 5.88992 5.63284 5.95611 5.60645C6.01458 5.58315 6.06638 5.54616 6.10699 5.49869C6.15296 5.44496 6.17848 5.3728 6.2295 5.22849L7.41472 1.87643Z" fill="#3F40EA" stroke="#3F40EA" stroke-linecap="round" stroke-linejoin="round"/>
</svg>
