<svg width="123" height="123" viewBox="0 0 123 123" fill="none" xmlns="http://www.w3.org/2000/svg">
<g clip-path="url(#clip0_4_2781)">
<path opacity="0.1" d="M109.943 70.5594C107.637 68.2531 104.349 67.7919 102.598 69.5423L96.9452 75.1955C95.7271 76.4137 93.4326 76.0944 91.8242 74.4859C90.2157 72.8774 89.8964 70.583 91.1145 69.3649L120.256 40.2233C122.006 38.4729 121.545 35.185 119.239 32.8788C116.933 30.5725 113.645 30.1113 111.894 31.8617L87.9331 55.823C86.7149 57.0412 84.4205 56.7219 82.8121 55.1134C81.2036 53.505 80.8843 51.2105 82.1024 49.9924L82.5873 49.5075C84.3377 47.7571 83.8765 44.4692 81.5702 42.1629C79.264 39.8567 75.9761 39.3954 74.2257 41.1458L40.8738 74.4977C39.1234 76.2481 39.5846 79.536 41.8909 81.8423C44.1971 84.1485 47.485 84.6098 49.2354 82.8594L55.6574 76.4374C56.8756 75.2192 59.17 75.5385 60.7785 77.147C62.3869 78.7554 62.7063 81.0499 61.4881 82.268L29.8156 113.941C28.0652 115.691 28.5265 118.979 30.8327 121.285C33.139 123.591 36.4269 124.053 38.1772 122.302L64.6695 95.8099C65.8877 94.5917 68.1821 94.911 69.7906 96.5195C71.3991 98.1279 71.7184 100.422 70.5002 101.641L69.2584 102.882C67.508 104.633 67.9693 107.921 70.2755 110.227C72.5818 112.533 75.8696 112.994 77.62 111.244L110.96 77.9039C112.711 76.1535 112.249 72.8656 109.943 70.5594Z" fill="white"/>
<path opacity="0.1" d="M81.5585 42.163C79.2522 39.8567 75.9644 39.3955 74.214 41.1458L68.5607 46.7991C67.3425 48.0173 65.0481 47.6979 63.4396 46.0895C61.8312 44.481 61.5119 42.1866 62.73 40.9684L91.8716 11.8269C93.622 10.0765 93.1607 6.78862 90.8545 4.48237C88.5482 2.17612 85.2603 1.71488 83.5099 3.46526L59.5486 27.4384C58.3304 28.6566 56.036 28.3373 54.4275 26.7288C52.8191 25.1204 52.4997 22.8259 53.7179 21.6078L54.2028 21.1229C55.9532 19.3725 55.492 16.0846 53.1857 13.7783C50.8795 11.4721 47.5916 11.0108 45.8412 12.7612L12.4893 46.1013C10.7389 47.8517 11.2001 51.1396 13.5064 53.4458C15.8126 55.7521 19.1005 56.2133 20.8509 54.463L27.2729 48.0409C28.4911 46.8228 30.7855 47.1421 32.394 48.7505C34.0024 50.359 34.3218 52.6534 33.1036 53.8716L1.43108 85.5441C-0.319305 87.2945 0.141944 90.5824 2.44819 92.8886C4.75444 95.1949 8.04233 95.6561 9.79272 93.9057L36.285 67.4134C37.5032 66.1953 39.7976 66.5146 41.4061 68.123C43.0145 69.7315 43.3339 72.0259 42.1157 73.2441L40.8739 74.4859C39.1235 76.2363 39.5847 79.5242 41.891 81.8305C44.1972 84.1367 47.4851 84.5979 49.2355 82.8476L82.5756 49.5075C84.326 47.7689 83.8647 44.481 81.5585 42.163Z" fill="white"/>
<path d="M24.3045 67.0941C25.5325 67.0941 26.528 66.0987 26.528 64.8707C26.528 63.6427 25.5325 62.6472 24.3045 62.6472C23.0765 62.6472 22.0811 63.6427 22.0811 64.8707C22.0811 66.0987 23.0765 67.0941 24.3045 67.0941Z" fill="white"/>
<path d="M85.5559 28.6685C86.9733 28.6685 88.1224 27.5194 88.1224 26.102C88.1224 24.6846 86.9733 23.5356 85.5559 23.5356C84.1385 23.5356 82.9895 24.6846 82.9895 26.102C82.9895 27.5194 84.1385 28.6685 85.5559 28.6685Z" fill="white"/>
<path d="M27.0719 76.6621H24.9076V74.4978C24.9076 74.143 24.6237 73.8591 24.2689 73.8591C23.9141 73.8591 23.6303 74.143 23.6303 74.4978V76.6621H21.4778C21.123 76.6621 20.8391 76.946 20.8391 77.3008C20.8391 77.6556 21.123 77.9394 21.4778 77.9394H23.6421V80.1037C23.6421 80.4586 23.9259 80.7424 24.2807 80.7424C24.6356 80.7424 24.9194 80.4586 24.9194 80.1037V77.9394H27.0837C27.4385 77.9394 27.7224 77.6556 27.7224 77.3008C27.7106 76.946 27.4267 76.6621 27.0719 76.6621Z" fill="white"/>
<mask id="mask0_4_2781" style="mask-type:luminance" maskUnits="userSpaceOnUse" x="38" y="40" width="47" height="47">
<path d="M38.2363 40.6609H84.4678V86.9988H38.2363V40.6609Z" fill="white"/>
</mask>
<g mask="url(#mask0_4_2781)">
<path d="M65.9586 63.7944C67.5079 63.7944 68.797 62.6354 68.9981 61.1334L71.8129 59.0282C72.1559 58.768 72.2268 58.2949 71.9666 57.9519C71.7064 57.6089 71.2334 57.538 70.8904 57.7982L68.9271 59.2647C68.6314 58.3304 67.7681 57.6444 66.7273 57.6444H63.6523C62.375 57.6444 61.3461 58.6852 61.3461 59.9507C61.3461 58.6734 60.3053 57.6444 59.0398 57.6444H55.9648C54.924 57.6444 54.0607 58.3304 53.765 59.2647L51.8017 57.7982C51.4587 57.538 50.9738 57.6089 50.7255 57.9519C50.4653 58.2949 50.5362 58.7798 50.8792 59.0282L53.694 61.1334C53.8951 62.6354 55.1724 63.7944 56.7336 63.7944H58.2711C59.9741 63.7944 61.3461 62.4107 61.3461 60.7194C61.3461 62.4225 62.7298 63.7944 64.4211 63.7944H65.9586ZM59.7967 60.7194C59.7967 61.571 59.1108 62.2569 58.2592 62.2569H56.7217C55.8702 62.2569 55.1842 61.571 55.1842 60.7194V59.9507C55.1841 59.8497 55.2039 59.7496 55.2424 59.6563C55.281 59.563 55.3376 59.4781 55.409 59.4067C55.4805 59.3353 55.5653 59.2787 55.6586 59.2401C55.7519 59.2015 55.852 59.1818 55.953 59.1819H59.028C59.129 59.1818 59.229 59.2015 59.3223 59.2401C59.4157 59.2787 59.5005 59.3353 59.5719 59.4067C59.6433 59.4781 59.7 59.563 59.7385 59.6563C59.7771 59.7496 59.7969 59.8497 59.7967 59.9507V60.7194ZM62.8717 60.7194V59.9507C62.8716 59.8497 62.8913 59.7496 62.9299 59.6563C62.9685 59.563 63.0251 59.4781 63.0965 59.4067C63.168 59.3353 63.2528 59.2787 63.3461 59.2401C63.4394 59.2015 63.5395 59.1818 63.6405 59.1819H66.7155C66.8165 59.1818 66.9165 59.2015 67.0098 59.2401C67.1032 59.2787 67.188 59.3353 67.2594 59.4067C67.3308 59.4781 67.3875 59.563 67.426 59.6563C67.4646 59.7496 67.4844 59.8497 67.4842 59.9507V60.7194C67.4842 61.571 66.7983 62.2569 65.9467 62.2569H64.4092C63.5695 62.2569 62.8717 61.571 62.8717 60.7194Z" fill="white"/>
</g>
<mask id="mask1_4_2781" style="mask-type:luminance" maskUnits="userSpaceOnUse" x="38" y="40" width="47" height="47">
<path d="M38.2363 40.6609H84.4678V86.9988H38.2363V40.6609Z" fill="white"/>
</mask>
<g mask="url(#mask1_4_2781)">
<path d="M84.4085 85.9344L83.6161 82.8003C83.2258 81.6176 80.8841 77.7975 67.4842 77.6911V76.8868C67.4842 76.683 67.4032 76.4874 67.259 76.3433C67.1149 76.1991 66.9193 76.1181 66.7154 76.1181C66.5116 76.1181 66.316 76.1991 66.1719 76.3433C66.0277 76.4874 65.9467 76.683 65.9467 76.8868V78.448C65.9467 78.9211 65.7929 83.0368 61.3224 83.0368C56.8636 83.0368 56.7099 78.8856 56.698 78.4125V76.875C56.698 76.6711 56.617 76.4756 56.4729 76.3314C56.3287 76.1873 56.1332 76.1063 55.9293 76.1063C55.7254 76.1063 55.5299 76.1873 55.3857 76.3314C55.2415 76.4756 55.1605 76.6711 55.1605 76.875V77.6556C45.1786 77.7384 40.1877 79.3232 39.0168 82.8476L38.248 85.9226C38.1416 86.3366 38.4018 86.7505 38.8039 86.8569C39.2178 86.9634 39.6318 86.715 39.7382 86.3011L40.4952 83.2734C41.394 80.5887 46.2076 79.2522 55.2197 79.1813C55.5035 81.3811 56.9937 84.5625 61.3224 84.5625C65.651 84.5625 67.153 81.4047 67.4251 79.2049C77.9747 79.2877 81.641 81.7714 82.1259 83.2024L82.8947 86.2774C82.9775 86.6322 83.2968 86.8569 83.6398 86.8569C83.6989 86.8569 83.7699 86.8451 83.829 86.8333C84.2666 86.7623 84.515 86.3484 84.4085 85.9344Z" fill="white"/>
</g>
<path d="M43.5348 44.5402L61.2397 46.8464C61.2752 46.8464 61.3107 46.8582 61.3343 46.8582C61.3698 46.8582 61.4053 46.8582 61.4289 46.8464L78.2705 44.6466V47.3195C77.7856 47.8635 76.733 49.2118 76.733 50.702C76.733 52.3932 78.1167 53.0082 79.0392 53.0082C79.9617 53.0082 81.3455 52.3932 81.3455 50.702C81.3455 49.2236 80.2929 47.8635 79.808 47.3195V43.7714C79.808 43.665 79.7843 43.5704 79.7488 43.4876C79.737 43.4521 79.7133 43.4284 79.7015 43.4048C79.666 43.3456 79.6424 43.2983 79.5951 43.251C79.5714 43.2274 79.5359 43.2037 79.5005 43.1801C79.4532 43.1446 79.4177 43.1091 79.3585 43.0855C79.3231 43.0618 79.2757 43.0618 79.2403 43.05C79.2048 43.0381 79.1693 43.0145 79.1338 43.0145L61.4289 40.7082C61.358 40.6964 61.2988 40.6964 61.2279 40.7082L43.523 43.0145C43.1445 43.0618 42.8488 43.393 42.8488 43.7832C42.8607 44.1617 43.1445 44.4929 43.5348 44.5402ZM79.8198 50.702C79.8198 51.317 79.4058 51.4589 79.051 51.4707C78.6962 51.4589 78.2823 51.317 78.2823 50.702C78.2823 50.0633 78.6726 49.3537 79.051 48.8215C79.4177 49.3537 79.8198 50.0633 79.8198 50.702ZM61.3343 42.2457L73.0903 43.7832L61.3343 45.3207L49.5783 43.7832L61.3343 42.2457ZM63.1083 68.6316C63.0847 68.6553 62.5052 69.1875 61.3343 69.1875C60.1871 69.1875 59.5957 68.6671 59.5603 68.6316C59.4893 68.5608 59.405 68.5048 59.3122 68.467C59.2193 68.4292 59.1199 68.4103 59.0197 68.4114C58.9194 68.4125 58.8204 68.4336 58.7284 68.4734C58.6365 68.5133 58.5534 68.5711 58.484 68.6434C58.1883 68.9391 58.1883 69.4358 58.484 69.7315C58.5905 69.8379 59.5366 70.725 61.3343 70.725C63.1438 70.725 64.09 69.8261 64.1846 69.7315C64.4803 69.4358 64.4803 68.9628 64.1846 68.6553C63.9008 68.3478 63.4158 68.3478 63.1083 68.6316ZM49.0225 56.2252C48.1236 56.5445 47.485 57.396 47.485 58.4013V61.4763C47.485 62.5526 48.2182 63.4514 49.2117 63.7116C49.6257 64.9298 50.761 68.2177 51.4115 69.5186C52.6297 71.9668 56.1068 76.1062 61.3343 76.1062C66.5736 76.1062 70.0389 71.9668 71.2571 69.5186C71.9076 68.2177 73.043 64.9298 73.4569 63.7116C74.4504 63.4514 75.1955 62.5526 75.1955 61.4763V58.4013C75.1955 57.396 74.5568 56.5445 73.658 56.2252V55.3263C73.658 55.1224 73.577 54.9269 73.4328 54.7827C73.2886 54.6386 73.0931 54.5576 72.8892 54.5576C72.6853 54.5576 72.4898 54.6386 72.3456 54.7827C72.2015 54.9269 72.1205 55.1224 72.1205 55.3263V56.8638C72.1203 56.9648 72.1401 57.0648 72.1787 57.1582C72.2172 57.2515 72.2739 57.3363 72.3453 57.4078C72.4167 57.4792 72.5015 57.5358 72.5948 57.5744C72.6882 57.6129 72.7882 57.6327 72.8892 57.6326C72.9902 57.6324 73.0902 57.6522 73.1836 57.6908C73.2769 57.7293 73.3617 57.786 73.4331 57.8574C73.5046 57.9288 73.5612 58.0136 73.5998 58.1069C73.6383 58.2003 73.6581 58.3003 73.658 58.4013V61.4763C73.6581 61.5773 73.6383 61.6773 73.5998 61.7707C73.5612 61.864 73.5046 61.9488 73.4331 62.0203C73.3617 62.0917 73.2769 62.1483 73.1836 62.1869C73.0902 62.2254 72.9902 62.2452 72.8892 62.2451C72.5581 62.2451 72.2624 62.4579 72.1559 62.7773C72.1441 62.8246 70.6184 67.3661 69.8852 68.8327C69.7669 69.0692 66.9521 74.5687 61.3343 74.5687C55.7165 74.5687 52.9017 69.0692 52.7834 68.8327C52.0502 67.3543 50.5363 62.8246 50.5127 62.7773C50.4062 62.4579 50.1106 62.2451 49.7794 62.2451C49.6784 62.2452 49.5784 62.2254 49.485 62.1869C49.3917 62.1483 49.3069 62.0917 49.2355 62.0203C49.164 61.9488 49.1074 61.864 49.0689 61.7707C49.0303 61.6773 49.0105 61.5773 49.0106 61.4763V58.4013C49.0105 58.3003 49.0303 58.2003 49.0689 58.1069C49.1074 58.0136 49.164 57.9288 49.2355 57.8574C49.3069 57.786 49.3917 57.7293 49.485 57.6908C49.5784 57.6522 49.6784 57.6324 49.7794 57.6326C49.8804 57.6327 49.9804 57.6129 50.0738 57.5744C50.1671 57.5358 50.2519 57.4792 50.3233 57.4078C50.3948 57.3363 50.4514 57.2515 50.49 57.1582C50.5285 57.0648 50.5483 56.9648 50.5481 56.8638V55.3263C50.5481 55.1224 50.4672 54.9269 50.323 54.7827C50.1788 54.6386 49.9833 54.5576 49.7794 54.5576C49.5755 54.5576 49.38 54.6386 49.2358 54.7827C49.0916 54.9269 49.0106 55.1224 49.0106 55.3263V56.2252H49.0225ZM49.7912 46.0895C49.6902 46.0893 49.5902 46.1091 49.4969 46.1477C49.4035 46.1863 49.3187 46.2429 49.2473 46.3143C49.1759 46.3857 49.1193 46.4705 49.0807 46.5639C49.0421 46.6572 49.0223 46.7572 49.0225 46.8582V52.2513C49.0225 52.547 49.1881 52.8072 49.4482 52.9373C49.6493 53.0319 54.3091 55.3263 61.3461 55.3263C68.3713 55.3263 73.043 53.0319 73.244 52.9373C73.3711 52.873 73.4781 52.775 73.5532 52.654C73.6283 52.533 73.6686 52.3937 73.6698 52.2513V46.8582C73.6698 46.6544 73.5888 46.4588 73.4446 46.3147C73.3005 46.1705 73.1049 46.0895 72.901 46.0895C72.6972 46.0895 72.5016 46.1705 72.3574 46.3147C72.2133 46.4588 72.1323 46.6544 72.1323 46.8582V51.7546C70.855 52.2986 66.8338 53.7888 61.358 53.7888C55.8821 53.7888 51.8491 52.2868 50.5836 51.7546V46.8582C50.56 46.4325 50.217 46.0895 49.7912 46.0895ZM88.0277 33.5293H35.2796C33.1271 33.5293 31.3767 35.2797 31.3767 37.4322V90.1803C31.3767 92.3328 33.1271 94.0831 35.2796 94.0831H88.0277C90.1802 94.0831 91.9306 92.3328 91.9306 90.1803V37.4322C91.9306 35.2797 90.1802 33.5293 88.0277 33.5293ZM90.1565 90.1803C90.1565 91.3511 89.1985 92.3091 88.0277 92.3091H35.2796C34.1087 92.3091 33.1507 91.3511 33.1507 90.1803V45.5928H33.1744C33.1744 45.5573 33.1626 45.5218 33.1507 45.4863C33.1271 45.2853 33.1271 45.0842 33.1507 44.895C33.1271 44.6821 33.1271 44.4574 33.1626 44.2445C33.1626 44.2327 33.1507 44.209 33.1507 44.1972C33.1271 44.0316 33.1271 43.866 33.1389 43.7005V37.4322C33.1389 36.2613 34.0969 35.3033 35.2678 35.3033H88.0159C89.1867 35.3033 90.1447 36.2613 90.1447 37.4322V43.7832C90.1565 43.8897 90.1565 43.9961 90.1447 44.1026V44.6229C90.1568 44.8208 90.1449 45.0193 90.1092 45.2143C90.121 45.2498 90.121 45.2853 90.1329 45.3207C90.1565 45.4863 90.1565 45.6519 90.1447 45.8175L90.1565 90.1803Z" fill="white"/>
</g>
<defs>
<clipPath id="clip0_4_2781">
<rect width="122.799" height="123" fill="white"/>
</clipPath>
</defs>
</svg>
