<svg width="123" height="123" viewBox="0 0 123 123" fill="none" xmlns="http://www.w3.org/2000/svg">
<g clip-path="url(#clip0_4_2803)">
<path opacity="0.1" d="M110.122 70.5543C107.812 68.2479 104.518 67.7866 102.765 69.5371L97.1015 75.1909C95.8813 76.4092 93.5828 76.0899 91.9716 74.4813C90.3603 72.8726 90.0405 70.578 91.2608 69.3597L120.453 40.2154C122.206 38.4648 121.744 35.1766 119.434 32.8701C117.124 30.5637 113.83 30.1024 112.077 31.8529L88.0738 55.8166C86.8535 57.0349 84.5551 56.7155 82.9439 55.1069C81.3326 53.4983 81.0127 51.2036 82.233 49.9854L82.7188 49.5004C84.4722 47.7498 84.0101 44.4616 81.6999 42.1552C79.3896 39.8487 76.096 39.3874 74.3426 41.138L40.9329 74.4931C39.1795 76.2436 39.6415 79.5318 41.9518 81.8383C44.262 84.1448 47.5556 84.6061 49.309 82.8555L55.7422 76.4329C56.9624 75.2146 59.2608 75.534 60.8721 77.1426C62.4833 78.7512 62.8032 81.0458 61.5829 82.2641L29.8555 113.94C28.1021 115.69 28.5642 118.978 30.8744 121.285C33.1847 123.591 36.4782 124.053 38.2317 122.302L64.7699 95.8073C65.9902 94.589 68.2886 94.9083 69.8998 96.5169C71.5111 98.1256 71.831 100.42 70.6107 101.638L69.3667 102.88C67.6133 104.631 68.0753 107.919 70.3856 110.226C72.6958 112.532 75.9894 112.993 77.7428 111.243L111.141 77.8996C112.894 76.149 112.432 72.8608 110.122 70.5543Z" fill="white"/>
<path opacity="0.1" d="M81.688 42.1552C79.3778 39.8487 76.0842 39.3874 74.3308 41.138L68.6677 46.7918C67.4474 48.0101 65.149 47.6907 63.5378 46.0821C61.9265 44.4735 61.6066 42.1788 62.8269 40.9605L92.019 11.8162C93.7724 10.0656 93.3104 6.77745 91.0001 4.47098C88.6899 2.1645 85.3963 1.70321 83.6428 3.45377L59.64 27.4292C58.4197 28.6475 56.1213 28.3282 54.51 26.7196C52.8988 25.1109 52.5789 22.8163 53.7992 21.598L54.2849 21.1131C56.0383 19.3625 55.5763 16.0743 53.266 13.7678C50.9558 11.4614 47.6622 11.0001 45.9088 12.7506L12.499 46.0939C10.7456 47.8445 11.2077 51.1327 13.5179 53.4391C15.8282 55.7456 19.1218 56.2069 20.8752 54.4564L27.3083 48.0337C28.5286 46.8154 30.827 47.1348 32.4383 48.7434C34.0495 50.352 34.3694 52.6467 33.1491 53.865L1.42169 85.5405C-0.331727 87.2911 0.130321 90.5793 2.44057 92.8857C4.75082 95.1922 8.0444 95.6535 9.79782 93.9029L36.3361 67.4081C37.5564 66.1898 39.8548 66.5092 41.466 68.1178C43.0773 69.7264 43.3971 72.021 42.1768 73.2393L40.9329 74.4813C39.1794 76.2318 39.6415 79.52 41.9517 81.8265C44.262 84.133 47.5556 84.5943 49.309 82.8437L82.7069 49.5004C84.4603 47.7617 83.9983 44.4735 81.688 42.1552Z" fill="white"/>
<path d="M24.3345 67.0888C25.5646 67.0888 26.5618 66.0932 26.5618 64.8651C26.5618 63.637 25.5646 62.6414 24.3345 62.6414C23.1044 62.6414 22.1072 63.637 22.1072 64.8651C22.1072 66.0932 23.1044 67.0888 24.3345 67.0888Z" fill="white"/>
<path d="M85.6925 28.6594C87.1123 28.6594 88.2634 27.5102 88.2634 26.0927C88.2634 24.6751 87.1123 23.526 85.6925 23.526C84.2726 23.526 83.1216 24.6751 83.1216 26.0927C83.1216 27.5102 84.2726 28.6594 85.6925 28.6594Z" fill="white"/>
<path d="M27.1069 76.6576H24.9388V74.4931C24.9388 74.1383 24.6545 73.8544 24.299 73.8544C23.9436 73.8544 23.6593 74.1383 23.6593 74.4931V76.6576H21.503C21.1476 76.6576 20.8633 76.9415 20.8633 77.2963C20.8633 77.6512 21.1476 77.9351 21.503 77.9351H23.6711V80.0996C23.6711 80.4544 23.9555 80.7383 24.3109 80.7383C24.6663 80.7383 24.9506 80.4544 24.9506 80.0996V77.9351H27.1187C27.4741 77.9351 27.7585 77.6512 27.7585 77.2963C27.7466 76.9415 27.4623 76.6576 27.1069 76.6576ZM88.1685 33.5207H35.329C33.1728 33.5207 31.4193 35.2712 31.4193 37.424V90.1771C31.4193 92.3298 33.1728 94.0804 35.329 94.0804H88.1685C90.3248 94.0804 92.0782 92.3298 92.0782 90.1771V37.424C92.0782 35.2712 90.3248 33.5207 88.1685 33.5207ZM90.3011 90.1771C90.3011 91.3481 89.3414 92.3062 88.1685 92.3062H35.329C34.1561 92.3062 33.1965 91.3481 33.1965 90.1771V45.5853H33.2202C33.2202 45.5498 33.2083 45.5143 33.1965 45.4789C33.1728 45.2778 33.1728 45.0767 33.1965 44.8875C33.1728 44.6746 33.1728 44.4498 33.2083 44.2369C33.2083 44.2251 33.1965 44.2014 33.1965 44.1896C33.1728 44.024 33.1728 43.8584 33.1846 43.6928V37.424C33.1846 36.253 34.1442 35.2949 35.3171 35.2949H88.1567C89.3296 35.2949 90.2892 36.253 90.2892 37.424V43.7756C90.3011 43.8821 90.3011 43.9885 90.2892 44.095V44.6154C90.3014 44.8133 90.2894 45.0118 90.2537 45.2068C90.2655 45.2423 90.2655 45.2778 90.2774 45.3133C90.3011 45.4789 90.3011 45.6445 90.2892 45.81L90.3011 90.1771ZM43.1246 80.7028C43.2312 80.7028 43.326 80.6792 43.4326 80.6437C45.8614 79.591 49.9606 79.0351 55.6236 79.0114L56.1686 80.1114C56.3582 80.4899 56.8202 80.6437 57.1875 80.4544C57.5666 80.2652 57.7206 79.8157 57.5311 79.4372L56.7728 77.9114C56.6425 77.6512 56.3819 77.4856 56.0857 77.4856C49.8776 77.4856 45.5415 78.0652 42.8166 79.248C42.4256 79.4136 42.2597 79.863 42.4256 80.2534C42.4873 80.3868 42.5858 80.5 42.7096 80.5796C42.8334 80.6592 42.9774 80.702 43.1246 80.7028ZM82.7424 82.0394H81.2141V78.2426C81.2141 78.0415 81.1312 77.8523 80.989 77.7103L76.4277 73.1447C76.5699 72.849 76.6528 72.5178 76.6528 72.163C76.6528 70.9092 75.6339 69.8801 74.3663 69.8801C73.1104 69.8801 72.0797 70.8974 72.0797 72.163C72.0797 73.4167 73.0986 74.4458 74.3663 74.4458C74.7217 74.4458 75.0416 74.363 75.3496 74.221L79.6976 78.5619V82.0512H40.1035C39.2623 82.0512 38.5752 82.7373 38.5752 83.577V85.8599C38.5752 86.2738 38.9188 86.6169 39.3334 86.6169C39.7481 86.6169 40.0917 86.2738 40.0917 85.8599V83.577H82.7305V85.8599C82.7305 86.2738 83.0741 86.6169 83.4888 86.6169C83.5884 86.6172 83.6872 86.5978 83.7793 86.5599C83.8714 86.5219 83.9552 86.4662 84.0256 86.3958C84.0961 86.3255 84.1519 86.2419 84.1899 86.1499C84.2279 86.0579 84.2473 85.9594 84.247 85.8599V83.577C84.2707 82.7254 83.5836 82.0394 82.7424 82.0394ZM74.3781 72.92C73.9635 72.92 73.6199 72.5769 73.6199 72.163C73.6199 71.749 73.9635 71.406 74.3781 71.406C74.7928 71.406 75.1364 71.749 75.1364 72.163C75.1364 72.5769 74.7928 72.92 74.3781 72.92ZM49.463 63.7296C50.0198 65.1726 51.8562 69.821 53.1831 71.82L53.3015 71.9974C54.2849 73.4759 55.9198 75.9598 61.4289 75.9598C66.9379 75.9598 68.5729 73.4877 69.5562 71.9974L69.6747 71.82C71.0016 69.821 72.8379 65.1726 73.3948 63.7296C74.39 63.4812 75.1245 62.5822 75.1245 61.5177V58.4779C75.1245 57.4843 74.4847 56.6446 73.5962 56.3252V52.3983C73.5962 49.3939 72.0086 43.8584 66.156 43.3143C66.1442 42.9595 66.0257 42.6638 65.8954 42.4509C65.149 41.2444 63.0401 40.9842 61.417 40.9842C47.8636 40.9842 47.7096 53.7822 47.7096 53.9123C47.7096 54.3263 48.0531 54.6693 48.4678 54.6693C48.8825 54.6693 49.226 54.3263 49.226 53.9123C49.226 53.451 49.4037 42.51 61.4052 42.51C63.5614 42.51 64.4263 42.9713 64.5921 43.2552C64.6158 43.2907 64.6751 43.3971 64.5329 43.6928C64.4144 43.9294 64.4263 44.2133 64.5684 44.438C64.7106 44.6627 64.9476 44.7928 65.2201 44.7928C71.9731 44.7928 72.0679 52.0907 72.0679 52.3983V56.9639C72.0679 57.3779 72.4114 57.7209 72.8261 57.7209C73.2408 57.7209 73.5843 58.0639 73.5843 58.4779V61.5177C73.5843 61.9317 73.2408 62.2747 72.8261 62.2747C72.5062 62.2747 72.2219 62.4758 72.1153 62.7715C72.0916 62.8306 69.8405 68.792 68.3833 70.9802L68.253 71.1694C67.3407 72.5533 66.0849 74.4458 61.3933 74.4458C56.7018 74.4458 55.4459 72.5533 54.5337 71.1694L54.4034 70.9802C52.9461 68.8038 50.6951 62.8306 50.6714 62.7715C50.5648 62.4758 50.2804 62.2747 49.9606 62.2747C49.5459 62.2747 49.2023 61.9317 49.2023 61.5177V58.4779C49.2023 58.2768 49.2853 58.0876 49.4156 57.9456C49.6881 58.5607 50.2568 59.1284 51.2045 59.2112L53.811 61.1629C54.0124 62.6414 55.2801 63.7887 56.8202 63.7887H58.3485C60.0309 63.7887 61.3933 62.4285 61.3933 60.7489C61.3933 62.4285 62.7558 63.7887 64.4381 63.7887H65.9664C67.5066 63.7887 68.7624 62.6414 68.9757 61.1629L71.7598 59.0811C72.0916 58.8327 72.1626 58.3478 71.9138 58.0166C71.6651 57.6854 71.1793 57.6145 70.8476 57.8628L68.9046 59.3177C68.6203 58.3951 67.7554 57.7091 66.7365 57.7091H63.6917C62.4359 57.7091 61.4052 58.7263 61.4052 59.9919C61.4052 58.7381 60.3745 57.7091 59.1186 57.7091H56.0738C55.055 57.7091 54.1901 58.3833 53.9058 59.3177L52.4485 58.2295C53.0527 56.7865 53.5859 54.6456 53.7399 53.1434C56.1449 53.0961 63.0875 52.8123 66.1678 50.8843C66.8668 53.5811 69.1179 55.8521 69.2245 55.9704C69.3678 56.1124 69.5616 56.192 69.7635 56.192C69.9655 56.192 70.1592 56.1124 70.3026 55.9704C70.4448 55.8272 70.5247 55.6338 70.5247 55.4322C70.5247 55.2306 70.4448 55.0371 70.3026 54.894C70.2789 54.8703 67.4829 52.0434 67.4829 49.3466C67.4833 49.1804 67.429 49.0186 67.3284 48.8862C67.2278 48.7537 67.0865 48.6578 66.9261 48.6133C66.5944 48.5187 66.2508 48.6606 66.0731 48.9563C64.9594 50.8015 57.768 51.6295 53.0172 51.6295C52.6025 51.6295 52.259 51.9725 52.259 52.3864C52.259 53.6166 51.6784 56.0886 51.0505 57.6026C50.8136 57.4607 50.7425 57.1886 50.7306 56.9521C50.7306 56.5381 50.3871 56.1951 49.9724 56.1951C48.7166 56.1951 47.6859 57.2123 47.6859 58.4779V61.5177C47.7214 62.5941 48.4678 63.493 49.463 63.7296ZM62.9572 60.0037C62.9572 59.5897 63.3008 59.2467 63.7154 59.2467H66.7602C67.1749 59.2467 67.5185 59.5897 67.5185 60.0037V60.7607C67.5185 61.6005 66.8313 62.2865 65.9901 62.2865H64.4737C63.6325 62.2865 62.9453 61.6005 62.9453 60.7607V60.0037H62.9572ZM55.3393 60.0037C55.3393 59.5897 55.6829 59.2467 56.0975 59.2467H59.1423C59.557 59.2467 59.9006 59.5897 59.9006 60.0037V60.7607C59.9006 61.6005 59.2134 62.2865 58.3722 62.2865H56.8439C56.0028 62.2865 55.3156 61.6005 55.3156 60.7607V60.0037H55.3393ZM65.2319 68.3662C65.2319 67.9522 64.8883 67.6092 64.4737 67.6092C64.4618 67.6092 63.0994 67.5973 61.7606 66.9231C61.5473 66.8167 61.2986 66.8167 61.0853 66.9231C59.7584 67.5855 58.3959 67.6092 58.3841 67.6092C57.9694 67.6092 57.6259 67.9522 57.6259 68.3662C57.6259 68.7801 57.9694 69.1232 58.3841 69.1232C58.4433 69.1232 59.8887 69.1113 61.4289 68.4371C62.969 69.1113 64.4144 69.1232 64.4737 69.1232C64.8883 69.1232 65.2319 68.7801 65.2319 68.3662ZM66.7602 77.5211C66.4759 77.5211 66.2152 77.6867 66.0849 77.9351L65.3267 79.4254C65.1371 79.8039 65.2793 80.2534 65.6584 80.4426C65.765 80.5017 65.8835 80.5254 66.002 80.5254C66.2745 80.5254 66.547 80.3716 66.6773 80.1114L67.2223 79.0351C71.3807 79.0469 74.7335 79.3544 77.186 79.9577C77.6006 80.0641 78.0034 79.8039 78.1101 79.4017C78.2167 78.9996 77.956 78.5856 77.5532 78.4791C74.8876 77.8286 71.2741 77.4856 66.7602 77.5211ZM60.6706 78.2426V79.7684C60.6706 80.1824 61.0142 80.5254 61.4289 80.5254C61.8435 80.5254 62.1871 80.1824 62.1871 79.7684V78.2426C62.1871 77.8286 61.8435 77.4856 61.4289 77.4856C61.3292 77.4853 61.2305 77.5046 61.1383 77.5426C61.0462 77.5805 60.9625 77.6363 60.892 77.7066C60.8216 77.777 60.7657 77.8605 60.7277 77.9525C60.6897 78.0445 60.6703 78.1431 60.6706 78.2426ZM60.6706 69.8801C60.256 69.8801 59.9124 70.2232 59.9124 70.6371C59.9124 71.0511 60.256 71.3941 60.6706 71.3941H62.199C62.2986 71.3945 62.3974 71.3751 62.4895 71.3372C62.5816 71.2992 62.6653 71.2435 62.7358 71.1731C62.8063 71.1028 62.8621 71.0192 62.9001 70.9272C62.9381 70.8352 62.9575 70.7366 62.9572 70.6371C62.9572 70.2232 62.6136 69.8801 62.199 69.8801H60.6706Z" fill="white"/>
</g>
<defs>
<clipPath id="clip0_4_2803">
<rect width="123" height="123" fill="white"/>
</clipPath>
</defs>
</svg>
