<svg width="431" height="373" viewBox="0 0 431 373" fill="none" xmlns="http://www.w3.org/2000/svg">
<path d="M363.459 125.668C362.567 114.462 371.474 125.668 372.366 170.54C372.366 159.322 372.366 148.117 372.366 136.886C373.256 125.668 375.039 136.886 376.818 136.886C376.818 148.116 376.818 159.322 377.711 159.322C378.6 159.322 380.383 159.322 381.272 159.322L381.029 136.776C381.92 136.776 384.834 136.887 385.727 136.887C386.616 159.323 388.397 159.323 388.397 136.887C389.289 148.117 390.179 148.117 391.961 148.117C392.853 181.758 392.853 249.65 392.853 238.445C395.08 249.657 395.302 269.279 395.078 290.306C394.921 300.819 394.759 311.683 394.604 322.023C394.575 324.608 394.546 327.16 394.518 329.665C394.506 333.562 394.494 337.388 394.482 341.119C394.478 349.465 394.52 357.397 394.632 364.839C394.658 366.687 394.685 368.539 394.713 370.525C375.468 370.774 355.706 371.03 335.554 371.29C321.099 371.46 306.365 371.553 291.443 371.595C261.598 371.678 231 371.556 200.382 371.428C169.763 371.301 139.124 371.169 109.195 371.235C94.231 371.268 79.444 371.35 64.926 371.507C44.235 371.752 23.928 371.992 4.134 372.226C3.921 372.229 3.708 372.232 3.488 372.235C3.333 360.966 3.177 349.654 3.02 338.303C2.983 335.706 2.947 333.107 2.91 330.506L2.802 325.823C2.733 322.698 2.664 319.569 2.595 316.434C2.353 303.895 2.11 291.28 1.866 278.604C1.431 253.253 1.094 227.663 0.832001 201.973C0.571001 176.283 0.385998 150.495 0.253998 124.746C0.200998 111.872 0.148001 99.0072 0.0950012 86.1712C0.0630012 66.0082 0.032 45.8882 0 25.8382C44.131 25.8162 87.792 25.7942 130.513 25.7722C130.513 27.5532 119.295 30.2242 130.513 31.1162C175.372 33.7872 175.372 37.3512 175.372 40.9142C175.372 42.6962 141.731 40.9142 152.936 42.6962C119.295 42.6962 117.49 43.5872 151.169 45.3672C162.387 47.1502 152.936 45.3672 164.142 48.0392C175.372 50.7122 152.936 53.3842 164.142 56.0542C175.372 56.0542 166.284 56.0542 177.501 56.0542C188.697 57.8382 173.88 67.3912 166.981 67.4092C166.981 67.4092 122.028 67.7592 97.021 67.8942C84.518 67.9632 72.007 68.0312 59.49 68.1002L50.101 68.1522L45.406 68.1782L44.232 68.1842L44.125 68.1902L43.93 68.2032L42.466 68.3062L42.57 69.8252L42.583 70.0022L42.586 70.0462L42.589 70.4292L42.595 71.6222L42.621 76.3962L42.673 85.9452C42.741 98.6782 42.809 111.415 42.878 124.157C43.009 149.641 43.14 175.141 43.272 200.652C43.393 226.163 43.513 251.685 43.634 277.212L43.799 315.505L43.877 331.548C43.902 331.643 43.927 331.717 43.952 331.77C44.07 331.742 44.16 331.714 44.223 331.688L66.512 331.611C81.374 331.565 96.235 331.519 111.093 331.473C140.809 331.406 170.514 331.339 200.199 331.272C229.884 331.244 259.548 331.216 289.182 331.188C303.999 331.191 318.809 331.193 333.61 331.196C340.97 331.202 348.328 331.208 355.683 331.214L355.425 331.241L355.448 331.415L355.461 331.491L355.475 325.24C355.497 315.725 355.519 306.215 355.541 296.711C355.603 277.703 355.665 258.716 355.727 239.754C355.929 201.829 356.131 170.162 356.332 132.434L363.459 125.668Z" fill="#6720FF"/>
<path d="M410.376 31.2741L405.196 34.2691L402.605 35.7661C401.743 36.2691 400.907 36.8221 400.057 37.3471L389.891 43.7261C362.988 61.1391 337.533 81.1971 313.6 103.099C301.65 114.074 290.033 125.455 278.778 137.215C267.563 149.016 256.694 161.168 246.193 173.627C235.693 186.085 225.562 198.855 215.838 211.869L212.23 216.771L210.427 219.222L207.373 223.507L204.159 228.025L202.552 230.284C202.017 231.036 201.497 231.753 200.875 232.693L193.709 243.311C193.108 244.176 192.521 245.114 191.934 246.056L190.171 248.864L186.644 254.479L179.539 265.922C174.907 273.406 170.275 280.888 165.646 288.367C160.786 275.538 155.928 262.714 151.073 249.897L149.259 245.099C148.964 244.252 148.635 243.631 148.32 242.913L147.368 240.82L145.464 236.634L144.512 234.542L144.036 233.496L143.797 232.976L143.524 232.524L139.158 225.292C138.43 224.088 137.714 222.869 136.94 221.724L135.334 219.417C129.787 211.414 123.309 203.592 116.475 195.979C102.729 180.784 87.2451 166.381 71.2811 153.097C69.4941 151.53 68.1321 150.262 67.1641 149.279C66.2081 148.3 65.5731 147.543 65.4351 147.126C65.1121 146.574 65.1361 146.245 65.4491 146.105C65.6051 146.035 65.8341 146.012 66.1271 146.031C66.2981 146.059 66.3661 146.009 66.5281 146.029C66.6891 146.048 66.8631 146.076 67.0501 146.113C70.1091 146.74 76.8081 150.034 83.2581 153.701C78.9511 151.285 80.6481 149.207 76.2901 146.84C77.1211 145.802 80.1431 145.915 84.9371 147.859C89.7151 149.812 96.2951 153.583 103.931 159.955C100.264 156.608 96.5481 153.317 92.7671 150.087C89.5571 146.187 94.5021 148.044 95.6621 146.705C99.4821 149.962 103.209 153.305 103.805 152.641C104.397 151.978 105.584 150.648 106.177 149.984C102.425 146.595 94.7381 140.003 90.8051 136.823C94.7161 140.029 98.5621 143.315 99.1381 142.645C99.7171 141.968 100.876 140.615 101.456 139.936C105.627 142.918 110.28 147.309 114.821 151.807C119.369 156.301 123.799 160.906 127.739 164.215L129.628 162.329C126.294 158.364 121.662 153.872 116.859 149.598C112.059 145.316 107.094 141.245 103.192 137.909C107.674 140.58 108.247 139.94 109.424 138.59C115.557 143.363 120.995 148.943 126.436 154.504C131.884 160.073 137.331 165.614 143.636 170.5C140.083 166.642 136.462 162.866 132.78 159.181C138.044 161.285 144.65 167.742 151.018 175.409C152.603 177.337 154.208 179.291 155.743 181.321C156.516 182.327 157.287 183.331 158.052 184.328C158.803 185.345 159.548 186.354 160.284 187.35C161.777 189.316 163.169 191.321 164.554 193.169C165.251 194.087 165.914 195.01 166.565 195.899C166.895 196.34 167.219 196.773 167.538 197.199C167.7 197.41 167.86 197.619 168.019 197.827L168.139 197.982C168.176 198.029 168.233 198.105 168.222 198.082L168.245 198.08C170.106 199.77 171.349 201.277 172.15 203.086L172.299 203.421C172.319 203.528 172.359 203.424 172.395 203.36L172.505 203.167L172.946 202.417C173.243 201.93 173.54 201.462 173.845 201.005C174.147 200.547 174.462 200.105 174.776 199.66L175.825 198.245C178.228 195.054 180.642 191.849 183.057 188.643C186.511 184.166 189.958 179.682 193.482 175.289C207.463 157.614 221.909 140.771 235.02 124.932C244.817 112.98 255.322 101.155 266.541 89.7511C267.937 88.3191 269.335 86.8851 270.734 85.4501L275.04 81.2371C277.931 78.4421 280.791 75.6021 283.744 72.8481C286.722 70.1171 289.704 67.3831 292.688 64.6471L294.933 62.6011L297.229 60.6071L301.834 56.6291C307.919 51.2631 314.308 46.2251 320.607 41.1181C323.794 38.6071 327.055 36.1881 330.273 33.7321C331.888 32.5101 333.501 31.2901 335.113 30.0711C336.739 28.8701 338.405 27.7191 340.047 26.5451C343.345 24.2121 346.634 21.8851 349.913 19.5661C353.27 17.3471 356.616 15.1351 359.95 12.9321C361.62 11.8341 363.286 10.7381 364.949 9.64513C366.63 8.57713 368.343 7.55913 370.033 6.51813C373.424 4.45013 376.799 2.39213 380.158 0.344128C381.051 1.88513 377.977 6.88613 382.869 4.94913C392.571 0.943131 397.853 -0.173871 400.885 0.0211295C403.931 0.243129 404.791 1.87013 405.622 3.42513C406.41 4.89913 392.256 14.7461 397.542 13.7921C397.542 13.7921 401.745 12.1951 404.565 12.1251C410.2 12.0241 402.798 19.2491 408.413 19.1561C409.498 18.5651 410.82 17.7601 412.334 16.9941C413.844 16.2201 415.491 15.3761 417.139 14.5311C420.433 12.8411 423.726 11.1521 425.921 10.0261C431.067 9.40413 425.832 22.5941 430.19 20.3651L410.376 31.2741Z" fill="#6720FF"/>
</svg>
