<svg width="87" height="71" viewBox="0 0 87 71" fill="none" xmlns="http://www.w3.org/2000/svg">
<path d="M21.75 19.1159H10.875V27.3081H21.75V19.1159ZM19.0312 24.5774H13.5938V21.8466H19.0312V24.5774ZM21.75 30.0389H10.875V38.2311H21.75V30.0389ZM19.0312 35.5003H13.5938V32.7696H19.0312V35.5003ZM16.3125 40.9618C11.8075 40.9618 8.15625 44.6292 8.15625 49.1541C8.15625 53.6789 11.8075 57.3463 16.3125 57.3463C20.8175 57.3463 24.4688 53.6789 24.4688 49.1541C24.4688 44.6292 20.8175 40.9618 16.3125 40.9618ZM16.3125 54.6155C13.3137 54.6155 10.875 52.1661 10.875 49.1541C10.875 46.142 13.3137 43.6926 16.3125 43.6926C19.3113 43.6926 21.75 46.142 21.75 49.1541C21.75 52.1661 19.3113 54.6155 16.3125 54.6155ZM58.8501 26.3414L60.7722 28.2721L55.3347 33.7335L53.4126 31.8029L58.8501 26.3414ZM84.2812 5.46217H79.9693L75.3284 0.80079C74.2654 -0.26693 72.5471 -0.26693 71.4841 0.80079L66.8432 5.46217H2.71875C1.218 5.46217 0 6.68554 0 8.19291V68.2693C0 69.7766 1.218 71 2.71875 71H84.2812C85.782 71 87 69.7766 87 68.2693V8.19291C87 6.68554 85.782 5.46217 84.2812 5.46217ZM43.5 32.7696V43.6926H54.375L76.125 21.8466V57.3463H29.9062V19.1159H57.0938L43.5 32.7696ZM46.2188 34.7002L52.4528 40.9618H46.2188V34.7002ZM54.7719 39.4299L47.7412 32.3682L73.4062 6.5927L80.4369 13.6544L54.7719 39.4299ZM5.4375 65.5385V10.9237H65.25L59.8125 16.3851H27.1875V60.077H78.8438V19.1159L81.5625 16.3851V65.5385H5.4375Z" fill="#e3d4ff"/>
</svg>