<svg xmlns="http://www.w3.org/2000/svg" viewBox="0 0 750 500"><g id="freepik--Character--inject-14"><path d="M438.79,245.09a39.38,39.38,0,0,1,18.56,24c4.83,17.28,19.6,62.28,19.6,62.28s8.44,9.93,9.34,17.28-.9,25.14-3.62,28.46a7.63,7.63,0,0,1-6.58,2.77l-35.53-3.37-14-93.68Z" style="fill:#3F40EA"></path><path d="M321.31,243.46s-25.41,8-31.74,14.9l20.8,96.76L310,385.66H430.48c0-1.51,1.08-101.38,1.08-101.38l7.23-39.19L396,237.56l-8.44-6.64-47.63,2.42-7.24,7.23Z" style="fill:#3F40EA"></path><g style="opacity:0.30000000000000004"><path d="M331,327.41c-.37-.82-.91-1.71-1.79-1.89-1.45-.3-2.42,1.41-2.91,2.81a127.56,127.56,0,0,1-15.82,30.89l-.31,14.86c7-5.91,13.94-12.24,18.42-20.25S334.74,335.77,331,327.41Z"></path></g><path d="M289.57,258.36s-8.37,11.41-11.84,18.86-32.28,70-34,76.47-6.2,26.81,6.95,31.53h27.07l27.16-54.93,1.39-63.75Z" style="fill:#3F40EA"></path><path d="M279.46,345.54s-.6-.53-1.85-1.24a21,21,0,0,0-5.68-2.06,27.35,27.35,0,0,0-4.14-.58A16.5,16.5,0,0,0,263,342a17.67,17.67,0,0,0-9.11,5.72,24.84,24.84,0,0,0-5.16,9.59,47.85,47.85,0,0,0-1.62,8.85c-.26,2.56-.35,4.65-.44,6.08,0,.68-.08,1.23-.1,1.66a2.1,2.1,0,0,1-.08.58,4.36,4.36,0,0,1,0-.58c0-.44,0-1,0-1.66,0-1.45.06-3.53.27-6.11a46.17,46.17,0,0,1,1.53-9,24.88,24.88,0,0,1,5.23-9.8,18,18,0,0,1,9.4-5.84,16.35,16.35,0,0,1,4.88-.27,26.33,26.33,0,0,1,4.19.65,19.75,19.75,0,0,1,5.7,2.24,10,10,0,0,1,1.35,1A2.84,2.84,0,0,1,279.46,345.54Z" style="fill:#263238"></path><path d="M266.63,334.6a3.52,3.52,0,0,1,.91-.14,16.18,16.18,0,0,1,2.51,0,20.9,20.9,0,0,1,3.69.55,22,22,0,0,1,8.21,3.92,20.47,20.47,0,0,1,2.75,2.52,16.17,16.17,0,0,1,1.55,2,3.42,3.42,0,0,1,.46.8c-.08.06-.82-1-2.28-2.52a24.55,24.55,0,0,0-2.77-2.39,25,25,0,0,0-3.84-2.3,26.36,26.36,0,0,0-4.2-1.54,24,24,0,0,0-3.6-.64C267.94,334.59,266.63,334.7,266.63,334.6Z" style="fill:#263238"></path><path d="M291.09,331.59a5.58,5.58,0,0,1-1.25-.09c-.8-.1-1.95-.22-3.39-.33a57.92,57.92,0,0,0-22.13,2.65c-1.37.44-2.47.83-3.22,1.12a6.3,6.3,0,0,1-1.19.39,5,5,0,0,1,1.11-.58c.73-.35,1.82-.79,3.18-1.28a51.08,51.08,0,0,1,22.29-2.66c1.43.15,2.59.32,3.38.49A6.57,6.57,0,0,1,291.09,331.59Z" style="fill:#263238"></path><path d="M368.18,278.14a1.42,1.42,0,0,1-.28-.33l-.74-1-2.72-3.76c-2.33-3.3-5.59-7.9-9.42-13.3l.42-.06c-1.46,4.28-3.07,9-4.76,14l-.11.31-.28-.18-.56-.36a28.82,28.82,0,0,1-5.89-5,35.06,35.06,0,0,1-4.21-5.82A49.07,49.07,0,0,1,335,251.47a78,78,0,0,1-1.75-8c-.16-.9-.28-1.63-.38-2.18a3.47,3.47,0,0,0-.13-.55c0-.12-.07-.18-.06-.19s.41,1,.77,2.89.93,4.61,1.91,7.9a49.39,49.39,0,0,0,4.69,11.06,35.7,35.7,0,0,0,4.17,5.72A28.37,28.37,0,0,0,350,273l.55.36-.38.14c1.71-5,3.33-9.69,4.81-14l.15-.44.27.38c3.76,5.45,7,10.09,9.27,13.41,1.09,1.62,2,2.91,2.61,3.85l.67,1A2.36,2.36,0,0,1,368.18,278.14Z" style="fill:#263238"></path><g style="opacity:0.30000000000000004"><path d="M399.53,324.33a54.82,54.82,0,0,0,7,32.46c5.6,9.74,13.82,18.43,24.05,23.09.33-9.93-.15-21.63.18-31.56Z"></path></g><path d="M398.4,311.26s-4.38,1.21-1.1,10.18,4.38,8.42,6.57,16.8,4.74,16,8.56,20.78,18.05,14.4,18.05,14.4l12.76-12s-2.1-9-1.6-15.06,1.78-21,1.6-23.59-2.92-8.75-2.92-8.75v-4.24l-6.56-20.18s-3.65-1.64-4.92,4.19l-2.19-6.19s-3.46-.55-4.37,6.56.73,16.95.73,16.95l-1.83,12.39-2.73,8.39-2.37.36s-3.57-1-5.52-7.69S403.32,309.8,398.4,311.26Z" style="fill:#ffbe9d"></path><path d="M439,343s0-.15-.06-.45-.06-.79-.09-1.34c-.07-1.22-.16-2.91-.27-5-.2-4.35-.47-10.41-.79-17.48l.05.15a2.57,2.57,0,0,0-2.58-.68,3.79,3.79,0,0,0-2.36,1.74c-1.12,1.79-1.18,4.13-1.53,6.38-.69,5.11-1.35,10-1.95,14.41-.3,2.22-.62,4.32-1.05,6.27a39.62,39.62,0,0,1-1.59,5.32c-.56,1.59-1.06,3-1.37,4.33A13.47,13.47,0,0,0,425,360a10.65,10.65,0,0,0,.5,2.86,4.42,4.42,0,0,1-.3-.7,7.53,7.53,0,0,1-.4-2.15,12.75,12.75,0,0,1,.33-3.45,39,39,0,0,1,1.31-4.38,40.84,40.84,0,0,0,1.5-5.29c.41-1.93.72-4,1-6.24.58-4.44,1.23-9.3,1.91-14.42.16-1.13.28-2.26.48-3.38a8.91,8.91,0,0,1,1.12-3.21,4.3,4.3,0,0,1,2.69-1.94,3,3,0,0,1,3.07.84l.05.07v.08c.25,7.07.46,13.13.61,17.49,0,2.11.09,3.8.13,5,0,.55,0,1,0,1.34A2.26,2.26,0,0,1,439,343Z" style="fill:#eb996e"></path><path d="M432,320a5,5,0,0,1-.54-1.14,30.39,30.39,0,0,1-1.07-3.26,33.64,33.64,0,0,1-.91-5,14.54,14.54,0,0,1-.06-3,6.53,6.53,0,0,1,1.1-3.12,4.48,4.48,0,0,1,2.34-1.76l.19-.05.1.17c1.85,3.26,3.46,6.14,4.58,8.21l1.31,2.45a3.9,3.9,0,0,1,.42.92,4.54,4.54,0,0,1-.58-.83l-1.44-2.37c-1.2-2-2.87-4.87-4.73-8.12l.29.12a4,4,0,0,0-2.05,1.56,6,6,0,0,0-1,2.88,14.41,14.41,0,0,0,0,2.94,37.55,37.55,0,0,0,.79,5c.32,1.4.67,2.52.9,3.29A5.88,5.88,0,0,1,432,320Z" style="fill:#eb996e"></path><path d="M428.94,321.64a4.68,4.68,0,0,1-.12-1.17c0-.86-.08-1.92-.13-3.17-.08-2.68-.17-6.38-.22-10.47a90.59,90.59,0,0,1,.16-10.49,16.49,16.49,0,0,1,.68-3.12,3.64,3.64,0,0,1,.47-1.08,29.3,29.3,0,0,0-.79,4.24c-.25,2.65,0,6.35,0,10.44s.08,7.79.07,10.47q0,1.89,0,3.18A5.37,5.37,0,0,1,428.94,321.64Z" style="fill:#eb996e"></path><path d="M418.15,355.25c-.07-.06.73-1,1.71-2.71a22.76,22.76,0,0,0,1.49-3.11,25.65,25.65,0,0,0,1.14-4.06,25.21,25.21,0,0,0,.35-4.2,23.28,23.28,0,0,0-.3-3.43c-.33-1.95-.75-3.11-.66-3.14a3,3,0,0,1,.36.79,14.42,14.42,0,0,1,.66,2.28,19.5,19.5,0,0,1,.42,3.49,20.65,20.65,0,0,1-1.53,8.45,19.53,19.53,0,0,1-1.61,3.12,14.34,14.34,0,0,1-1.41,1.9C418.4,355.05,418.18,355.27,418.15,355.25Z" style="fill:#eb996e"></path><path d="M440.55,349l11.07,3.84s10.58-5.47,17.87,0,13.62,19.88,11.62,25.71c0,0-5,6.22-8.86,7.13s-18.71-2.7-24.9-4-16.87-8.24-16.87-8.24Z" style="fill:#ffbe9d"></path><path d="M441.91,365.29a4.44,4.44,0,0,1-.12-1c0-.75-.09-1.64-.15-2.68-.12-2.26-.27-5.38-.32-8.84s.05-6.59.25-8.85c.1-1.13.23-2,.34-2.67a3.33,3.33,0,0,1,.23-1c.08,0-.09,1.4-.2,3.66s-.15,5.37-.1,8.82.12,6.43.16,8.83c0,1.13,0,2.05,0,2.68A3.28,3.28,0,0,1,441.91,365.29Z" style="fill:#eb996e"></path><path d="M478.42,352.38a35.28,35.28,0,0,0-3.68-3.32,20.27,20.27,0,0,0-22.44-1.23,36.14,36.14,0,0,0-4,2.89,5.92,5.92,0,0,1,.91-1,18.35,18.35,0,0,1,2.93-2.22A19.91,19.91,0,0,1,475,348.77a17.56,17.56,0,0,1,2.66,2.53A5.64,5.64,0,0,1,478.42,352.38Z" style="fill:#263238"></path><path d="M477,343.15a22.11,22.11,0,0,0-4.61-2.54,20.34,20.34,0,0,0-12.46-.37,29.12,29.12,0,0,0-6.45,2.68,30.59,30.59,0,0,0-4.67,3.3c-1.24,1.06-2.19,2-2.84,2.63a8,8,0,0,1-1.05,1,6.89,6.89,0,0,1,.9-1.12,34.57,34.57,0,0,1,2.75-2.77,28.73,28.73,0,0,1,4.67-3.43,27.7,27.7,0,0,1,6.55-2.77,19.92,19.92,0,0,1,12.74.53,14.78,14.78,0,0,1,3.41,1.92c.37.27.62.53.81.69S477,343.14,477,343.15Z" style="fill:#263238"></path><path d="M477.09,335.15c0,.1-2-.49-5.18-.92a40.65,40.65,0,0,0-5.67-.36,44.52,44.52,0,0,0-6.93.62,45.36,45.36,0,0,0-6.73,1.78,39.92,39.92,0,0,0-5.21,2.28c-2.87,1.5-4.49,2.72-4.55,2.63a7.09,7.09,0,0,1,1.11-.88,12.71,12.71,0,0,1,1.37-.94c.55-.35,1.17-.76,1.89-1.14a38.38,38.38,0,0,1,5.23-2.4,41.18,41.18,0,0,1,6.8-1.84,42.07,42.07,0,0,1,7-.59,37.45,37.45,0,0,1,5.73.47c.81.1,1.53.29,2.16.42a15.49,15.49,0,0,1,1.62.42A8.26,8.26,0,0,1,477.09,335.15Z" style="fill:#263238"></path><path d="M392.26,237.23a9.19,9.19,0,0,1,.76,2.94,28.3,28.3,0,0,1-.42,8.59,49.24,49.24,0,0,1-1.43,6,45.56,45.56,0,0,1-2.9,6.65c-2.39,4.6-5.39,9.61-8.87,15l-.4.63v-.75c0-3.54,0-7.25,0-11.1l.39.19L370,272.87l.08-.12A98.24,98.24,0,0,0,366,295.2c-.92,12.17-.18,23.81.39,34.37s.82,20.09,1.15,28.09.6,14.46.84,18.93c.14,2.22.24,3.94.31,5.14,0,.57.07,1,.09,1.34s0,.46,0,.46,0-.15-.07-.45-.08-.77-.14-1.34c-.11-1.17-.25-2.9-.4-5.14-.3-4.46-.65-10.93-1-18.93s-.78-17.51-1.26-28.08-1.35-22.22-.43-34.43a97.78,97.78,0,0,1,4.19-22.57l0-.07.06,0,9.36-7.51.39-.32v.5c0,3.85,0,7.56,0,11.1l-.41-.13c6.87-10.65,12.46-19.91,13.32-27.4a29.37,29.37,0,0,0,.54-8.52,15.26,15.26,0,0,0-.41-2.22C392.32,237.48,392.26,237.23,392.26,237.23Z" style="fill:#263238"></path><path d="M374.32,366.22H374a2.81,2.81,0,1,0,.36,0Z" style="fill:#fff"></path><path d="M374.32,327.68H374a2.8,2.8,0,1,0,.36,0Z" style="fill:#fff"></path><path d="M374,293.2a2.82,2.82,0,0,0,.37-5.63H374a2.82,2.82,0,0,0,0,5.64Z" style="fill:#fff"></path><path d="M330.77,192.07c-3.5-3.89-7-7.81-9.59-12.37s-4.08-9.89-3.24-15c.5-3,1.78-5.9,2-9,.28-4.2-1.48-8.59,0-12.52,2.32-6.16,10.61-7.11,15.63-11.36,3.91-3.31,5.81-8.68,10.11-11.46,3.76-2.44,8.59-2.38,13-1.76s8.89,1.75,13.33,1.15c3.16-.42,6.14-1.7,9.23-2.47s6.56-1,9.31.64,4.31,5.51,2.5,8.14c5.14-2.37,11.67,1.64,13.08,7.12s-1.41,11.41-5.77,15-10,5.3-15.55,6.35c-15.74,3-32.83,1.29-46.4-7.23" style="fill:#263238"></path><path d="M386.14,245c-.77-6-1.4-10.93-1.44-11.55,0,0,19.92-4.48,18.82-24.62-.53-9.74-3.25-29.7-5.93-47.73a37.56,37.56,0,0,0-39.68-32l-2,.12c-20.85,2.63-30.28,21.81-27.08,42.59l11.26,69.67s4.8,15.41,15.07,18.08l13,18.52,2.14-8,9.66-8.42a38.06,38.06,0,0,0,4.77-7.09A15.56,15.56,0,0,0,386.14,245Z" style="fill:#ffbe9d"></path><path d="M384.71,233.17s-12.65,1.88-26.74-5.71c0,0,7.18,14.07,27.14,10.92Z" style="fill:#eb996e"></path><path d="M391.12,178.42a2.89,2.89,0,0,1-2.58,3.09,2.75,2.75,0,0,1-3.13-2.4A2.87,2.87,0,0,1,388,176,2.75,2.75,0,0,1,391.12,178.42Z" style="fill:#263238"></path><path d="M393.93,171.28c-.33.4-2.62-1.07-5.71-.85S383,172.34,382.6,172c-.17-.15.15-.85,1.09-1.64a7.87,7.87,0,0,1,4.46-1.71,7.54,7.54,0,0,1,4.58,1.15C393.73,170.44,394.09,171.1,393.93,171.28Z" style="fill:#263238"></path><path d="M361.9,180.51a2.87,2.87,0,0,1-2.58,3.08,2.74,2.74,0,0,1-3.13-2.39,2.89,2.89,0,0,1,2.57-3.09A2.76,2.76,0,0,1,361.9,180.51Z" style="fill:#263238"></path><path d="M363.57,173.89c-.34.4-2.62-1.07-5.71-.85s-5.26,1.91-5.62,1.55c-.18-.15.14-.85,1.08-1.64a7.93,7.93,0,0,1,4.47-1.71,7.53,7.53,0,0,1,4.57,1.15C363.36,173.05,363.73,173.71,363.57,173.89Z" style="fill:#263238"></path><path d="M376.32,196.08c0-.18,1.88-.64,5-1.25.78-.13,1.52-.34,1.62-.88a4.05,4.05,0,0,0-.69-2.31l-2.74-5.86c-3.81-8.34-6.63-15.23-6.29-15.38s3.7,6.49,7.52,14.84l2.64,5.9a4.6,4.6,0,0,1,.62,3.07,2,2,0,0,1-1.22,1.24,5.38,5.38,0,0,1-1.33.28C378.29,196.11,376.35,196.25,376.32,196.08Z" style="fill:#263238"></path><path d="M363.55,161.71c-.25.87-3.36.67-7,1.35s-6.47,1.87-7,1.15c-.24-.35.22-1.17,1.35-2.07a12.39,12.39,0,0,1,10.63-1.9C362.94,160.69,363.66,161.31,363.55,161.71Z" style="fill:#263238"></path><path d="M392.19,162.4c-.49.74-2.67.16-5.24.29s-4.7.79-5.25.09c-.24-.34.06-1.07,1-1.8a7.62,7.62,0,0,1,8.45-.3C392.07,161.34,392.41,162,392.19,162.4Z" style="fill:#263238"></path><path d="M331.52,186.66c-.35-.12-14.1-3.16-12.74,10.57S335,206.48,335,206.09,331.52,186.66,331.52,186.66Z" style="fill:#ffbe9d"></path><path d="M328.92,201.58c-.07,0-.22.19-.61.41a2.38,2.38,0,0,1-1.78.22c-1.51-.39-3-2.57-3.27-5a8,8,0,0,1,.33-3.49,2.79,2.79,0,0,1,1.62-2,1.23,1.23,0,0,1,1.48.52c.22.37.16.65.23.66s.27-.25.11-.81a1.56,1.56,0,0,0-.63-.81A1.86,1.86,0,0,0,325,191a3.38,3.38,0,0,0-2.28,2.38,8.11,8.11,0,0,0-.45,3.91c.36,2.76,2,5.21,4.07,5.58a2.57,2.57,0,0,0,2.16-.58C328.93,201.91,329,201.6,328.92,201.58Z" style="fill:#eb996e"></path><path d="M396.58,142.35c-.94,5.47-12,10.48-21.22,10.21-8.47-.25-12.66-4.45-18.81-7.44-3.9-1.89-3.9-1.89-9.19-1-4.27.69-6.49,5.74-8.89,9.34,4.57,10,2.72,21.56.78,32.36a5.46,5.46,0,0,1-1.39,3.28c-1.54,1.36-4,.55-5.56-.84-2.43-2.23-3.54-5.53-4.33-8.73a56.48,56.48,0,0,1-1.36-22.33A38.7,38.7,0,0,1,335.89,137a36.66,36.66,0,0,1,25-11.39,45,45,0,0,1,26.62,7.56c3.64,2.39,7,5.34,9.1,9.17" style="fill:#263238"></path><path d="M378.35,203l-7-3.26a2.31,2.31,0,0,0-1.27-.32,2,2,0,0,0-1.21.82,6.49,6.49,0,0,0-.78,7.15,5.48,5.48,0,0,0,6.57,2.42c2.48-1,3.68-3.91,3.88-6.59Z" style="fill:#eb996e"></path><path d="M374.88,210.33c0,.06-.33.26-1,.41a6.06,6.06,0,0,1-3-.22,6.25,6.25,0,0,1-3.47-2.89,6.43,6.43,0,0,1-.43-5.52,6.69,6.69,0,0,1,1.62-2.45,6.43,6.43,0,0,1,1.14-.86,1.8,1.8,0,0,1,.81-.25,1.86,1.86,0,0,1,.81.15,12.45,12.45,0,0,1,1.09.62l.95.59,1.71,1.06c2.07,1.32,3.32,2.2,3.25,2.32s-1.45-.52-3.62-1.68l-1.77-1-1-.55c-.34-.17-.7-.4-1-.52a.74.74,0,0,0-.77.08,5.45,5.45,0,0,0-.92.73,6,6,0,0,0-1.36,2.08,5.64,5.64,0,0,0,.3,4.69,5.78,5.78,0,0,0,2.89,2.66,7.05,7.05,0,0,0,2.71.51C374.48,210.32,374.85,210.26,374.88,210.33Z" style="fill:#263238"></path><path d="M372.67,178.77a24.45,24.45,0,0,0-.55-3.48,14.18,14.18,0,0,0-18.59-9.77,13.48,13.48,0,0,0-3.57,1.93,13,13,0,0,0-3,3,14,14,0,0,0,0,16.65,13,13,0,0,0,3,3,13.48,13.48,0,0,0,3.57,1.93,14.22,14.22,0,0,0,18.59-9.77,24.69,24.69,0,0,0,.55-3.47.77.77,0,0,1,0,.23c0,.18,0,.41,0,.68a5.82,5.82,0,0,1-.08,1.11,11.18,11.18,0,0,1-.27,1.5,13.73,13.73,0,0,1-1.55,3.87,14.47,14.47,0,0,1-17.41,6.3,13.75,13.75,0,0,1-3.69-2,13.56,13.56,0,0,1-3.1-3.09,14.5,14.5,0,0,1,0-17.25,13.33,13.33,0,0,1,3.09-3.09,13.75,13.75,0,0,1,3.69-2,14.57,14.57,0,0,1,7.65-.6,14.45,14.45,0,0,1,9.76,6.9,13.73,13.73,0,0,1,1.55,3.87,11.18,11.18,0,0,1,.27,1.5,5.82,5.82,0,0,1,.08,1.11c0,.27,0,.5,0,.68A.87.87,0,0,1,372.67,178.77Z" style="fill:#263238"></path><path d="M406.91,177.42a24.72,24.72,0,0,0-.53-3.39,13.93,13.93,0,0,0-5.1-7.57,13.55,13.55,0,0,0-5.8-2.55,13.79,13.79,0,0,0-7.22.61,13.44,13.44,0,0,0-3.47,1.87,13.17,13.17,0,0,0-2.9,2.92,13.69,13.69,0,0,0,0,16.22,12.92,12.92,0,0,0,2.9,2.91,13.18,13.18,0,0,0,3.47,1.88,13.89,13.89,0,0,0,7.22.61,13.55,13.55,0,0,0,5.8-2.55,13.93,13.93,0,0,0,5.1-7.57,24.72,24.72,0,0,0,.53-3.39,5.52,5.52,0,0,1,0,.89,6.56,6.56,0,0,1-.08,1.09,10.81,10.81,0,0,1-.26,1.46,14.09,14.09,0,0,1-11,10.5,14.26,14.26,0,0,1-7.46-.59,14.36,14.36,0,0,1-6.62-4.94,14.15,14.15,0,0,1,0-16.82,14.36,14.36,0,0,1,6.62-4.94,14.26,14.26,0,0,1,7.46-.59,14.09,14.09,0,0,1,11,10.5,10.81,10.81,0,0,1,.26,1.46,6.56,6.56,0,0,1,.08,1.09A5.52,5.52,0,0,1,406.91,177.42Z" style="fill:#263238"></path><path d="M379,174.26c-.06.05-.39-.22-1-.51a5.67,5.67,0,0,0-2.52-.55,5.47,5.47,0,0,0-2.49.64c-.6.31-.92.6-1,.54s.18-.44.78-.86a4.9,4.9,0,0,1,5.38-.09C378.76,173.83,379,174.22,379,174.26Z" style="fill:#263238"></path><path d="M344.85,176.73a63.22,63.22,0,0,1-6.26,5,64,64,0,0,1-6.58,4.59,60.28,60.28,0,0,1,6.27-5A62.16,62.16,0,0,1,344.85,176.73Z" style="fill:#263238"></path><g style="opacity:0.30000000000000004"><path d="M333,241.81c-1.39,13.57,3.77,27.9,14.66,36.12.85.65,1.92,1.29,2.93.92a3.2,3.2,0,0,0,1.52-1.56,26.52,26.52,0,0,0,3.24-17.44c-1.72,4.54-3.2,9-4.94,13.74C340.94,267.83,335,255.59,333,241.81Z"></path></g><path d="M369.87,272.67l8-2.92,1.32,13.51s8.62-15.71,12.19-22.87,1.73-19.82,1.73-19.82,1.27,11-7.36,25.07l-6.52,10.6v-11.1Z" style="opacity:0.30000000000000004"></path><g style="opacity:0.30000000000000004"><path d="M277,341.33a21.32,21.32,0,0,0-11.57-1.45,22.27,22.27,0,0,0-11.52,4.36c-3.24,2.61-5.43,6.73-5,10.87l.4.05c2.79-7.54,8.33-13,15.48-13.69s14.12,2.51,19,7.76C283.26,345.31,280.52,343,277,341.33Z"></path></g><g style="opacity:0.30000000000000004"><path d="M478.94,349a18.27,18.27,0,0,0-10.32-5.31,23.14,23.14,0,0,0-19.24,5.57l1.52-1.24a24.29,24.29,0,0,1,12.82-3.48,18.51,18.51,0,0,1,12.21,4.88c3,2.84,4.79,6.69,6.5,10.44A13.07,13.07,0,0,0,478.94,349Z"></path></g><path d="M427.45,286.3a5.45,5.45,0,0,1,.36-1.09c.31-.79.69-1.76,1.13-2.91,1-2.45,2.3-5.83,3.7-9.6s2.61-7.2,3.48-9.68l1-2.95a5.22,5.22,0,0,1,.44-1.06,4.15,4.15,0,0,1-.25,1.12c-.19.72-.49,1.74-.88,3-.78,2.52-1.94,6-3.34,9.75s-2.79,7.15-3.85,9.56c-.52,1.21-1,2.18-1.29,2.85A4.59,4.59,0,0,1,427.45,286.3Z" style="fill:#263238"></path><path d="M301.38,287.28c-.14,0-1.23-4.73-2.43-10.63S296.89,266,297,265.92s1.22,4.73,2.42,10.63S301.52,287.25,301.38,287.28Z" style="fill:#263238"></path><path d="M299.49,346.77c.32.16-3.66-31.16-3.66-31.16s2.51-23.77,3.92-24.87l0-8.39s3.89-2.35,4.93,1.45c0,0,3.45-3,4,4.13s.73,14.41.73,14.41l7.67,19.18,1.26.64s1.65-15,2.61-17.24,1.62-7.59,5.25-6.78,3.94,3.81,3.29,8.71-1.47,10-1.16,13.14,1.74,10.13,1.3,15.67-3.48,11.38-6.66,15.48-9.27,12.59-12.57,15.14C309.33,367.18,299.49,346.77,299.49,346.77Z" style="fill:#ffbe9d"></path><path d="M303.37,321.28a6,6,0,0,1,0-1.34c.06-1,.15-2.18.25-3.64.23-3.07.59-7.31,1-12,.22-2.33.43-4.55.62-6.59a11.74,11.74,0,0,0,0-2.83,4,4,0,0,0-1-2.16,4.28,4.28,0,0,0-3.13-1.37,8.87,8.87,0,0,0-1.31.16,1.22,1.22,0,0,1,.32-.16,3.38,3.38,0,0,1,1-.21,4.4,4.4,0,0,1,3.41,1.33,4.28,4.28,0,0,1,1.11,2.35,11.46,11.46,0,0,1,0,2.93c-.18,2-.38,4.27-.58,6.6-.43,4.68-.85,8.91-1.18,12l-.41,3.63A7.6,7.6,0,0,1,303.37,321.28Z" style="fill:#eb996e"></path><path d="M307.49,308.47a10.88,10.88,0,0,0-1.36,2.47,41.44,41.44,0,0,0-1.27,6.76c-.42,2.68-.82,5.1-1.14,6.85a15,15,0,0,1-.62,2.81,16.7,16.7,0,0,1,.26-2.87c.22-1.76.57-4.19,1-6.87s.71-5.13,1.45-6.81A6.55,6.55,0,0,1,306.9,309C307.23,308.6,307.47,308.45,307.49,308.47Z" style="fill:#eb996e"></path><path d="M304.67,283.39a3.49,3.49,0,0,1,.27,1c.14.64.31,1.57.5,2.73.38,2.31.8,5.52,1.07,9.09s.32,6.81.28,9.15c0,1.17-.05,2.12-.1,2.77a3.5,3.5,0,0,1-.12,1,33.45,33.45,0,0,1-.15-3.78c-.05-2.34-.17-5.56-.43-9.11s-.62-6.76-.91-9.08A31.93,31.93,0,0,1,304.67,283.39Z" style="fill:#eb996e"></path><path d="M326.8,312.75a2.76,2.76,0,0,1-2.58.22c-1.47-.44-2.15-1.57-2-1.62a13.7,13.7,0,0,0,2.17,1.12A14.61,14.61,0,0,0,326.8,312.75Z" style="fill:#eb996e"></path><path d="M299.92,342.87l-20.26,8.52H267.58s-11.94,3.73-13.78,14.93-2.1,16.95,3.15,18.34,20.08,1.54,27.43-.9,26.61-18,26.61-18l1.85-11.24Z" style="fill:#ffbe9d"></path><path d="M304.67,355.25s-.23-.17-.58-.53a12.88,12.88,0,0,1-1.31-1.68,22.77,22.77,0,0,1-2.83-6.41,38,38,0,0,1-1.25-6.88,13,13,0,0,1-.08-2.9,19.53,19.53,0,0,1,.44,2.85,50.94,50.94,0,0,0,1.39,6.79,26.89,26.89,0,0,0,2.64,6.36C304,354.36,304.74,355.18,304.67,355.25Z" style="fill:#eb996e"></path><path d="M313.5,358.8a21.12,21.12,0,0,0,1.15-4.34,14,14,0,0,0-2.72-10.18c-1.23-1.72-2.62-3.22-3.79-4.68a22.16,22.16,0,0,1-2.74-4.14,10.93,10.93,0,0,1-1-3.2,4.07,4.07,0,0,1,0-1.22,14.3,14.3,0,0,0,1.38,4.25,23.31,23.31,0,0,0,2.79,4c1.17,1.42,2.57,2.92,3.83,4.68a14.56,14.56,0,0,1,2.53,5.55,14.11,14.11,0,0,1,.13,5,13.14,13.14,0,0,1-.92,3.22c-.16.36-.31.63-.41.81S313.51,358.81,313.5,358.8Z" style="fill:#eb996e"></path><path d="M282.25,310a101.59,101.59,0,0,1-4.94-9c-2.6-5-4.6-9.16-4.48-9.23a101.59,101.59,0,0,1,4.94,9A100.34,100.34,0,0,1,282.25,310Z" style="fill:#fff"></path><path d="M315,273.51a62.15,62.15,0,0,1,3.05-7.5,64.43,64.43,0,0,1,3.53-7.28,64.2,64.2,0,0,1-3.05,7.5A63.39,63.39,0,0,1,315,273.51Z" style="fill:#fff"></path><path d="M347.13,297.19a46.21,46.21,0,0,1-4.6-5.14,46.71,46.71,0,0,1-4.19-5.47,44.53,44.53,0,0,1,4.59,5.14A46.2,46.2,0,0,1,347.13,297.19Z" style="fill:#fff"></path><path d="M339.74,329.76a39.87,39.87,0,0,1,3.46-5.22,38.19,38.19,0,0,1,3.89-4.91,39.12,39.12,0,0,1-3.46,5.22A36.53,36.53,0,0,1,339.74,329.76Z" style="fill:#fff"></path><path d="M329.8,375.77a9.93,9.93,0,0,1-1.17-2c-.66-1.28-1.51-3.07-2.37-5.08s-1.55-3.88-2-5.23a10.1,10.1,0,0,1-.64-2.24,10.35,10.35,0,0,1,1,2.11l2.15,5.15c.83,1.91,1.57,3.64,2.22,5.13A10.37,10.37,0,0,1,329.8,375.77Z" style="fill:#fff"></path><path d="M358,356.21a37.15,37.15,0,0,1-6.07-.91,36.15,36.15,0,0,1-6-1.42,72.47,72.47,0,0,1,12,2.33Z" style="fill:#fff"></path><path d="M380,313.22a72.88,72.88,0,0,1,5.78-6.62,75,75,0,0,1,6.18-6.28,75.27,75.27,0,0,1-5.79,6.63A76.61,76.61,0,0,1,380,313.22Z" style="fill:#fff"></path><path d="M402,370.55c-.11.1-3.34-3.65-7.22-8.35s-6.93-8.6-6.82-8.69,3.34,3.65,7.22,8.35S402.09,370.46,402,370.55Z" style="fill:#fff"></path><path d="M265.2,346.12c.07.14-2.88,1.64-6.1,4.11s-5.46,4.91-5.58,4.8a7.12,7.12,0,0,1,1.36-1.7,30.76,30.76,0,0,1,3.9-3.51A31.22,31.22,0,0,1,263.2,347,7.53,7.53,0,0,1,265.2,346.12Z" style="fill:#fff"></path><path d="M273.44,324a21.31,21.31,0,0,1-2.35,4,21,21,0,0,1-2.79,3.72,21.55,21.55,0,0,1,2.35-4A20.7,20.7,0,0,1,273.44,324Z" style="fill:#fff"></path><path d="M292,345.72a13.21,13.21,0,0,1-1.94-8.55c.15,0,.2,2,.75,4.33S292.14,345.65,292,345.72Z" style="fill:#fff"></path><path d="M294.75,276.8a15.36,15.36,0,0,1-3.85.81,14.81,14.81,0,0,1-3.93.29,15.51,15.51,0,0,1,3.86-.81A15.25,15.25,0,0,1,294.75,276.8Z" style="fill:#fff"></path><path d="M308.69,252.07a30.65,30.65,0,0,1-7,3.88,15.31,15.31,0,0,1,3.37-2.17A15.86,15.86,0,0,1,308.69,252.07Z" style="fill:#fff"></path><path d="M347.9,262.52a36.37,36.37,0,0,1-3.86-4.64,36,36,0,0,1-3.44-4.95,69.7,69.7,0,0,1,7.3,9.59Z" style="fill:#fff"></path><path d="M397.67,287.38a24.49,24.49,0,0,1-6.05-9.72c.15-.06,1.22,2.27,2.9,4.94S397.79,287.28,397.67,287.38Z" style="fill:#fff"></path><path d="M416.67,293.64a58.28,58.28,0,0,1-4.6,10.13,30.94,30.94,0,0,1,2.07-5.17A29.36,29.36,0,0,1,416.67,293.64Z" style="fill:#fff"></path><path d="M419.33,267.71a53.74,53.74,0,0,1-5.06-5.66,55.39,55.39,0,0,1-4.65-6,110.86,110.86,0,0,1,9.71,11.66Z" style="fill:#fff"></path><path d="M390.31,246.65a23.5,23.5,0,0,1-.45-4.84,22.78,22.78,0,0,1,.07-4.87,23.5,23.5,0,0,1,.45,4.84A22,22,0,0,1,390.31,246.65Z" style="fill:#fff"></path><path d="M414,245.34a38.41,38.41,0,0,1-6.18,1.09,37.86,37.86,0,0,1-6.24.57,38.41,38.41,0,0,1,6.18-1.09A37.78,37.78,0,0,1,414,245.34Z" style="fill:#fff"></path><path d="M451.23,272.71a63,63,0,0,1-3.72-7.08,61.87,61.87,0,0,1-3.24-7.31A62.06,62.06,0,0,1,448,265.4,62.21,62.21,0,0,1,451.23,272.71Z" style="fill:#fff"></path><path d="M445,296.36a65,65,0,0,1,2.26-11.28,32.44,32.44,0,0,1-.87,5.69A31.54,31.54,0,0,1,445,296.36Z" style="fill:#fff"></path><path d="M462.24,315a63.19,63.19,0,0,1-3-7.68,64,64,0,0,1-2.47-7.86,66.07,66.07,0,0,1,3,7.69A65.45,65.45,0,0,1,462.24,315Z" style="fill:#fff"></path><path d="M459.83,325.91a13.86,13.86,0,0,1-5.05-1.81,13.4,13.4,0,0,1-4.27-3.24c.1-.12,1.94,1.4,4.52,2.78S459.88,325.76,459.83,325.91Z" style="fill:#fff"></path><path d="M482,350.77a28.55,28.55,0,0,1-3.11-7,28.55,28.55,0,0,1,3.11,7Z" style="fill:#fff"></path><path d="M351.21,385.45a19.92,19.92,0,0,1-.78-4.43,20.23,20.23,0,0,1-.26-4.49A18.78,18.78,0,0,1,351,381,19.53,19.53,0,0,1,351.21,385.45Z" style="fill:#fff"></path><path d="M419.14,383.73a18.65,18.65,0,0,1,.65-4.33,18.91,18.91,0,0,1,1.17-4.22,18.31,18.31,0,0,1-.66,4.33A18.6,18.6,0,0,1,419.14,383.73Z" style="fill:#fff"></path></g><g id="freepik--speech-bubble--inject-14"><path d="M432.16,185.44,441,170a41.46,41.46,0,1,1,9.93,11l0,0Z" style="fill:#fafafa"></path><path d="M432.16,185.44l18.77-4.28.19,0L451,181h0l-.18.17a42.72,42.72,0,0,0,8.52,5.14,41.46,41.46,0,0,0,11.36,3.24,37.17,37.17,0,0,0,6.56.33c1.13-.06,2.27-.09,3.43-.18l3.5-.53a41.78,41.78,0,0,0,25.89-16.62,41.38,41.38,0,0,0,7-16,42.42,42.42,0,0,0-.49-18.43,40.93,40.93,0,0,0-8.88-17L506,119.17c-.56-.63-1.22-1.14-1.82-1.72s-1.2-1.16-1.88-1.64l-2-1.48a16.67,16.67,0,0,0-2.06-1.36l-2.1-1.28-2.2-1.07a20.88,20.88,0,0,0-2.22-1,42.46,42.46,0,0,0-18.57-2.85,40.8,40.8,0,0,0-17,5A42,42,0,0,0,436.46,136a44.6,44.6,0,0,0-1.8,13.47,41,41,0,0,0,2,11.63,42.29,42.29,0,0,0,4.15,8.92v-.13c-5.54,9.93-8.25,14.78-8.68,15.54.44-.75,3.22-5.57,8.89-15.42l0-.06,0-.06A41.64,41.64,0,0,1,437,161a40.93,40.93,0,0,1-2-11.55,44.76,44.76,0,0,1,1.83-13.34,41.71,41.71,0,0,1,19.51-23.9,40.31,40.31,0,0,1,16.85-5,41.87,41.87,0,0,1,18.34,2.83,20.34,20.34,0,0,1,2.19,1l2.18,1.06L498,113.4a17.37,17.37,0,0,1,2,1.34l2,1.47c.67.48,1.23,1.08,1.85,1.62s1.25,1.08,1.8,1.7l1.67,1.83a40.57,40.57,0,0,1,8.78,16.83,41.68,41.68,0,0,1,.49,18.2,40.75,40.75,0,0,1-6.9,15.83,41.39,41.39,0,0,1-25.58,16.49l-3.46.54c-1.15.09-2.28.13-3.4.19a37.5,37.5,0,0,1-6.5-.3A41.32,41.32,0,0,1,459.45,186a42.34,42.34,0,0,1-8.49-5.06l-.77-.59.59.77,0,0,.07-.2Z" style="fill:#263238"></path><path d="M487.4,146.55a4,4,0,1,0,4.05-4.05A4,4,0,0,0,487.4,146.55Z" style="fill:#263238"></path><path d="M471.21,146.55a4,4,0,1,0,4-4.05A4,4,0,0,0,471.21,146.55Z" style="fill:#263238"></path><path d="M455.06,144.53a4,4,0,1,0,5.52-1.48A4,4,0,0,0,455.06,144.53Z" style="fill:#263238"></path></g></svg>
